<svg xmlns="http://www.w3.org/2000/svg" xmlns:xlink="http://www.w3.org/1999/xlink" x="0px" y="0px" viewBox="0 0 1024 768" >
<g>
	<path class="layout" data-layout="5" d="M546.5,416.8c1.7,1.9,7,10.3,10.6,9.7c3.6-0.6,8.1-6.5,10.1-7.5c2-0.9,6.3-2.7,8.1,0.5c1.7,3.1-1,7.6-3.9,8.7
		c0,0,1.5-3.2,1.5-5.9c0-2.7-0.7-3.4-1.1-0.8c-0.3,2.6-7.8,6.3-11.2,6.7c-3.4,0.3,1.3,1.1,6.1,0.5c3.4-0.5,8.9,1.1,9,4.7
		c0.1,3.6-4.5,6.3-8.5,5.9c0,0,1.9,0,4.1-3c2.3-3,1.8-5-1.3-1.8c-1.2,1.2-7.9-0.9-9-1.1c-1.1-0.2,4.5,4.5,4,8
		c-0.5,3.7-4.6,5.5-10.7,1.8c0,0,7.7,0.2,7.3-1.6c-0.1-0.6-2.2-0.6-3.2-1.3c-1.7-1.2-4.2-5.7-5.2-8.6c0,0-7.8,0.5-9.3,0
		c-1.4-0.5-1.7-2.1-3.3-2.3c-1.6-0.2-3.8,5-0.3,5.9c0,0-6.7,0.6-4.3-7.2c1.6-4.9,10.3-1.1,10.3-1.1l-5.7-6.5h4.5L546.5,416.8z"/>
	<path class="layout" data-layout="5" d="M477.5,416.8c-1.7,1.9-7,10.3-10.6,9.7c-3.6-0.6-8.1-6.5-10.1-7.5c-2-0.9-6.3-2.7-8.1,0.5c-1.7,3.1,1,7.6,3.9,8.7
		c0,0-1.5-3.2-1.5-5.9c0-2.7,0.7-3.4,1.1-0.8c0.3,2.6,7.8,6.3,11.2,6.7c3.4,0.3-1.3,1.1-6.1,0.5c-3.4-0.5-8.9,1.1-9,4.7
		c-0.1,3.6,4.5,6.3,8.5,5.9c0,0-1.9,0-4.2-3c-2.3-3-1.8-5,1.3-1.8c1.2,1.2,7.9-0.9,9-1.1c1.1-0.2-4.5,4.5-4,8
		c0.5,3.7,4.6,5.5,10.7,1.8c0,0-7.7,0.2-7.3-1.6c0.1-0.6,2.2-0.6,3.2-1.3c1.7-1.2,4.2-5.7,5.2-8.6c0,0,7.8,0.5,9.3,0
		c1.4-0.5,1.7-2.1,3.3-2.3c1.6-0.2,3.8,5,0.3,5.9c0,0,6.7,0.6,4.3-7.2c-1.6-4.9-10.3-1.1-10.3-1.1l5.7-6.5H479L477.5,416.8z"/>
	<path class="layout" data-layout="5" d="M540.2,303.2c1.8-2.3,0.7-5.3-2.3-8.8c-3.1-3.5-6-3.2-6.7-2.6c0,0-1,5.6-1.5,6.5c-1.4,2.7-7.4,7.9-9.4,9.8
		c0,0,3.1-0.6,4.1,0.8c0.3,0.5,1.9,2.3,3.4,2.9c0.4,0.1,0.5-0.2-0.3-1c-0.7-0.8-1.3-2.1,0.3-2.4c1.5-0.3,4.1,5.4,8.2-0.2
		c0,0-1.5,0.9-3.2,0.4c-1.2-0.3-0.4-1.1-1.9-1.4c-1.4-0.3-3.3,0.8-5.1-0.1c-1-0.5,3.4-1.6,5.2-4.4c1.9-2.9,3.8-2,4.2-1.7
		c1,0.7,2.9,3.8,0.8,6.7C536.2,307.6,538.1,305.9,540.2,303.2z"/>
	<path class="layout" data-layout="5" d="M442.1,322c-3.9,13.2-15.4,64.4-30.6,82.5c-7.9,9.5-18.4,20.4-26.1,21c0,0,27.9,12.9,45.1-8.1c7.4-9.1,20.4-91.2,20.3-92
		c0-0.8,2.5-2.8,1.9,5.3c-0.6,8-12.7,81.8-13.8,82.6c-1.1,0.8,7.3-0.5,11.3-3.7c5-3.9,6.9-20.5,7.9-26.5c2.3-13.9,2.5-46.2,2.5-47.1
		c0-4.3,2.2-6,2.6,2c0.6,15.7-2.8,54.6-3.4,64.4c-0.2,2.9,9.3-2.9,10.1-5.2c0.9-2.3,0.2-55.3,0.3-57.4c0.1-2,2.2-3,2.3,8.4
		c0.1,10.9,1,39.7,1.4,41c0.4,1.3,6.9-3.9,7.8-7.1c0.9-3.2-1.7-38.3-1.4-40.7c0.3-2.4,2-2.4,3.1,10.5c1,12.6,0.7,23.7,1.2,23.9
		c0.5,0.2,5.3-4.3,5.6-6.7c0.3-2.4-1.5-26.7-0.1-26.6c3.2,0.4,2.2,38.9,1,48.3c0,0-13,16.9-17.8,17.3c-1.8,0.2,0.9,2.3,5.8,2.9
		c1.3,0.2-0.1,5.5,0.9,6.6c1,1.3,5-2.2,6.4-1.6c1.5,0.6,0.1,2.8,4,4.9c1.2,0.6,0.5-6.1,1.8-8.2c1.3-2.1,3.4-7.3,6.1-6.4
		c0.5,0.2,1.5,1,0.1,6.4c-2.1,8-21.4,56.9-33,63.1c0,0,7.5,3.6,15.1-1.8c8.7-6.2,13.1-21.8,14.3-25.3c3.3-9.5,7.4-27.1,8.1-32.6
		c0.4-3.2,2.5-9.1,0.1,5.7c-2.5,15.5-16.9,57.4-19.8,60c-0.7,0.7,9.5,1.8,15-4.9c7.2-8.9,10.6-62.8,10.6-64.4c0-1.6,1.2-9.7,1.1-0.5
		c-0.8,11.1-3.1,37.6-4.3,55.9c-1.2,19,6.3,20.6,6.3,20.6c6.5-3.8,6.6-16.1,6.4-19.6c-0.1-3.5-4.6-48.2-4.6-56.9
		c0-9.3,1.1-1.1,1.1,0.5c0,1.6,3.3,55.5,10.6,64.4c5.5,6.7,15.7,5.6,15,4.9c-2.9-2.7-17.3-44.5-19.8-60c-2.4-14.8-0.3-8.9,0.1-5.7
		c0.7,5.5,4.8,23.1,8.1,32.6c1.2,3.5,5.6,19.1,14.3,25.3c7.6,5.4,15.1,1.8,15.1,1.8c-11.6-6.3-30.8-55.1-33-63.1
		c-1.4-5.4-0.4-6.2,0.1-6.4c2.7-0.9,4.8,4.3,6.1,6.4c1.3,2.1,0.6,8.8,1.8,8.2c3.9-2,2.5-4.2,4-4.9c1.5-0.6,5.4,2.8,6.4,1.6
		c1-1.2-0.4-6.5,0.9-6.6c4.9-0.6,7.6-2.7,5.8-2.9c-4.8-0.4-17.8-17.3-17.8-17.3c-1.1-9.4-2.1-48,1-48.3c1.4-0.2-0.3,24.1-0.1,26.6
		c0.3,2.4,5.1,6.9,5.6,6.7c0.5-0.2,0.1-11.3,1.2-23.9c1.1-12.9,2.8-12.9,3.1-10.5c0.3,2.4-2.3,37.5-1.4,40.7
		c0.9,3.2,7.4,8.4,7.8,7.1c0.4-1.3,1.3-30.1,1.4-41c0.1-11.4,2.2-10.4,2.3-8.4c0.1,2-0.6,55,0.3,57.4c0.9,2.3,10.3,8.1,10.1,5.2
		c-0.6-9.8-4-48.7-3.3-64.4c0.3-8,2.6-6.3,2.6-2c0,0.9,0.2,33.2,2.5,47.1c1,5.9,2.9,22.6,7.9,26.5c4,3.1,12.4,4.5,11.3,3.7
		c-1.1-0.8-13.2-74.6-13.8-82.6c-0.6-8.1,1.9-6,1.9-5.3c0,0.8,12.9,82.9,20.3,92c17.2,21,45.1,8.1,45.1,8.1
		c-7.6-0.6-18.1-11.6-26.1-21c-15.2-18.1-26.7-69.3-30.6-82.5c-4-13.5-1.2-11.6-0.7-11.6c0.5,0,13.2,45.3,14.3,48.5
		c1.1,3.2,7.9,40.3,28,40.5c20.1,0.2,29.3-15.4,29.3-15.4c-35.6,6.2-42-22.8-44.4-30.1c-2-6.1-5.1-16.8-3.8-15.8
		c3.5,2.4,20.3,7.8,22.4,4.5c0,0-14.9-10.1-19.1-29.1c-3.4-15.3-17.8-41.7-44.8-32.8c-3.8,1.2,3.1,12.2,4.4,15.8
		c1.3,3.6,7.5,31.9-36.9,38.2c-1.2,0.2-11.6-13.4-12.7-16c-1.1-2.6-1.7-9.2,1.8-12.3c3.5-3.2,9.4-8.9,9.6-13.9
		c0.3-5.1-4.7-6.7-9.1-6.1c-4.4,0.6-16,1.6-17.5,1.6c-1.5,0,2.1,4.5,2.6,4.9c0.6,0.4-3.2,3.1-7.7,15.8c-0.8,2.4-2.8,10.6-3.7,15.9
		c-1.1,6.6-1.8,10.1-3.4,9.9c-40.8-7.2-35.4-34.4-34.2-38c1.3-3.6,8.1-14.6,4.4-15.8c-27.1-8.9-41.7,17.5-44.9,32.8
		c-4.2,20.6-26.5,32.9-26.5,32.9c2.1,3.3,26.3-5.9,29.8-8.3c1.3-0.9-1.8,9.7-3.8,15.8c-2.4,7.3-8.9,36.3-44.4,30.1
		c0,0,9.2,15.6,29.3,15.4c20.1-0.2,26.9-37.3,28-40.5c1.1-3.2,13.8-48.5,14.4-48.5C443.3,310.5,446.1,308.5,442.1,322z M510.8,294.6
		c1.9-6.3,14.7-2.3,15.6-1.4c1.1,1.1,0.2,0.8-0.4,0.6c-0.6-0.2-1.4-0.3-2.3-0.4c0.3,0.3,0.4,0.6,0.4,1c0,0.9-1,1.8-2.2,1.8
		c-1.2,0-2.1-0.9-2.1-1.8c0-0.4,0.2-0.7,0.5-1c-2.8,0.1-5.7,0.4-6.4,0.5C512.5,294,510.6,295.4,510.8,294.6z"/>
</g>
</svg>