<svg xmlns="http://www.w3.org/2000/svg" xmlns:xlink="http://www.w3.org/1999/xlink" x="0px" y="0px" viewBox="0 0 1024 768" >
<g>
	<g>
		<path class="layout" data-layout="5" d="M646.7,365.8c-3-2.7-4.1-6.3-7.3-7.7c-3.2-1.4-10.2-3.3-10.1-5.1s4.8-1.8,6.9,0.2s3.8,4.4,5.5,5.1c1.7,0.6,9-5.7,9.5-11.9
			c0.5-6.2-3.7-10.2-6.8-12.1c-3.1-1.9-4.2-3.4-4.4-6c-0.2-2.5-0.2-4.1-6.8-7.6c-6.5-3.5-7.2-5.5-7.6-6.6c-0.3-1.1-2.7-6.2-8.5-9.7
			c-5.8-3.4-9.8-2.3-10.2-5.4l5.9-11.3c0.5,0.8,1.4,1.4,2.4,1.4c1.6,0,2.8-1.3,2.8-2.8s-1.3-2.8-2.8-2.8c-1.6,0-2.8,1.3-2.8,2.8
			c0,0.2,0,0.3,0,0.5l-4.6,2.9c0.6-3.5,1.2-7,1.5-8.9c0.2,0.1,0.5,0.1,0.7,0.1c1.5,0,2.7-1.2,2.7-2.7c0-1.5-1.2-2.7-2.7-2.7
			s-2.7,1.2-2.7,2.7c0,1,0.6,1.9,1.5,2.4c-1.8,2.7-6.2,9-6.7,8.9c-0.4-0.1-1.1-7.8-1.4-11.6c0,0,0.1,0,0.1,0c1.5,0,2.7-1.2,2.7-2.7
			c0-1.5-1.2-2.7-2.7-2.7c-1.5,0-2.7,1.2-2.7,2.7c0,1.1,0.7,2.1,1.7,2.5c-1.5,3.5-4.7,10.6-5.8,10.6c-1.1,0-3.7-7.8-4.8-11.5
			c1.2-0.3,2.1-1.4,2.1-2.7c0-1.5-1.2-2.7-2.7-2.7c-1.5,0-2.7,1.2-2.7,2.7c0,1.3,0.9,2.4,2.1,2.6c-1.3,3.5-4.2,10.9-5.4,11.1
			c-1.2,0.2-4-7-5.2-10.1c1.2-0.3,2-1.4,2-2.6c0-1.5-1.2-2.7-2.7-2.7c-1.5,0-2.7,1.2-2.7,2.7c0,1.5,1.2,2.7,2.7,2.7
			c-0.4,3.3-1.4,10.9-2.8,11.1c-1.3,0.2-4.4-5.6-5.9-8.6c0.9-0.4,1.6-1.4,1.6-2.5c0-1.5-1.2-2.7-2.7-2.7c-1.5,0-2.7,1.2-2.7,2.7
			c0,1.5,1.2,2.7,2.7,2.7c0.2,0,0.4,0,0.6-0.1c0.4,2.5,1.1,6.9,1.7,10.8l-6.7-4.3c0.5-0.5,0.8-1.2,0.8-1.9c0-1.6-1.3-2.8-2.8-2.8
			c-1.6,0-2.8,1.3-2.8,2.8s1.3,2.8,2.8,2.8c0.7,0,1.4-0.3,1.9-0.7l6.3,12c-3.8,0.4-15.1-0.4-22.8,8.3c0,0,7.5,1.2,7.7,2.3
			c0.2,1.2-9.7-0.3-15.9,5.8s-8.5,9-7.8,9.4c0.7,0.4,5.2,0.1,4.7,3.8c-0.4,3.6-4.4,4.7-9.4,4.2c0,0,0.4,3.5,2.6,5.6
			c0,0-7.8,3.2-8,9.1c0,0,5.5-3.3,9.3-1.5c0,0-5.2,1.7-11.3,6.9c-6.1,5.2-7.6,12.5-6.9,13.2s4.4-5.4,11.1-7.5
			c3.5-1.1,6.4-1.4,8.3-1.3c-6,2-11.1,6.5-13.9,12.1c0.5-0.8,1.7-1,2.7-1.1c3.1-0.2,6.3,0.3,9.2,1.5c-4.1,4.7-11.4,9.2-24.5,9.8
			c-27.6,1.2-38.6-12-55.1-12.5c-16.5-0.4-20.1,2.1-24.1,0.5c-4-1.5,1.8-9.3,12.1-10.5c10.3-1.2,27.9-0.9,41.3-7.2
			c13.4-6.3,16.4-15.5,16.2-22.6c-0.1-7.1-6.1-20.2-24.2-22.3c-18.2-2.1-36.9,9.7-39.9,8.2c-3-1.5-4.3-4.1-8.9-3.8
			c-4.6,0.3-10.8,3.6-10.6,4.2c0.2,0.6,4.1,0.4,4.4,1.3c0.2,0.8-10,5.1-12.4,8.5c-2-0.4-4.1-1.2-6.2-2.3c-1.6-0.8-3.2-1.9-4.7-2.1
			c-1.2-0.2-2.2,0-3.1,0.4c-7.4,2.5-12.3,9.6-13,19.1c3.6-5.2,8.2-9.3,13.6-12.2c0.9-0.5,1.9-0.9,3.1-0.4c1,0.4,1.9,1.3,2.8,2.2
			c0.7,0.7,1.4,1.4,2.1,2.1c0,0,0,0-0.1,0c-7.3,0.1-9.6-1.9-10.4-1.3c-0.8,0.6,6.9,9.1,15.8,10.1c8.9,1,15.4-3.5,16.2-3.2
			c0.8,0.3-1.6,4.9-4.1,6.6c0,0,2.9,1.4,7-2.1c4.1-3.5,4.5-5.8,5.5-5.8c1-0.1,0.4,4.4-1.2,6.1c0,0,8.6-3.8,10.1-9.2
			c1.5-5.4-1-8.5-1.1-9.1c-0.1-0.6,3.8-5,15.8-9s22.3-3.8,27.4-0.9c5.1,3,10.3,8.3,10.3,14.9c-0.1,6.6-8.5,20.2-31.2,20.4
			c-22.7,0.2-33.7-1-46.4,11.4s-7.2,35.5-6.1,41.4c1.2,5.9,5.8,24.1-5.8,31.9c-11.7,7.8-27.6,9.5-28.3,21.9
			c-0.7,12.4,4.2,17.9,5.2,24.7c1,6.9-0.1,10.3,10.9,11c11,0.7,27.2,0.4,27.7,0c0.4-0.4-7.2-10.4-10.5-11.7c-3.3-1.3-5.6-0.5-6.5-3
			c-0.9-2.5,1.3-11.1,8.6-14.8s11.3-5.7,15.6-10.6c4.4-4.9,6.6-8.4,8.3-8.2c1.7,0.2,1.5,4.8,1.2,7.1c-0.4,2.3-1,9.7,5.8,14.8
			c6.8,5,12.7,5.9,16.8,12.3s7.9,14.7,14.8,14.9c6.9,0.2,35.8-0.2,36.5-0.8c0.7-0.6-5.8-9.7-11.7-10.7c-6-1-5.8,0.6-12-5.2
			c-6.2-5.8-10-9-10.6-15.9c-0.6-6.9-0.7-14-3-17.7c-2.4-3.7-4.2-5.9-4-7.2c0.2-1.3,16.5-2.5,20.1-1.2c0,0-1.2,2.1-5.5,2.5
			c0,0,4.9,3.6,12,1.6c0,0-2.5,6.3-11.7,7.5c0,0,9.2,5.5,17.8-0.4c0,0-1.1,5.2-8.7,7.7c0,0,6.4,2.6,12.8,0.3
			c1.3-0.5,2.3-0.9,3.2-1.3c-0.4,0.5-0.9,1.1-1.2,1.6c-1.1,1.7-2,3.6-3.8,4.6c2.3-1.1,4.8-2,7.3-2.2c4-0.3,8.1,1,11.9-0.2
			c2-0.6,3.8-1.9,5.1-3.6c1.2,0.2,2.5,0.4,3.9,0.4c6.4-0.1,9.1-1.8,10.1-1.4c1,0.4,1.3,9.6-1.1,15.4c-2.4,5.8-7,10.7-7.3,17.8
			c-0.3,7.1,1.3,8.4,4.1,8.6c2.7,0.2,43.8,0.2,44-0.6c0.2-0.7-6.9-9.4-10.3-10.5c-3.4-1-10-1-9.9-3.4c0.1-2.4,16.8-19.3,15.5-27.2
			c0,0,5.2,8.8,10.9,9.9c5.8,1.1,8.5-2.7,11.2-6.6c2.7-3.9,10.6-12.1,21.6-12c12.1,0.1,19.5,5.3,24.2,12.5
			c5.1,7.9,3.2,10.2,4.4,10.4c1.2,0.2,6.9-8,7.5-16.3c0.5-8.3-13.2-20.6-30.8-23c-17.6-2.4-29,4.1-30.9,3.8
			c-1.4-0.2,1.8-8.5,5.8-13.7c0.2,0,0.5,0.1,0.7,0.1c1,0.2,2.1,0.6,2.9,1.3c0.8,0.7,1.4,1.7,1.2,2.8c0.7-1.7,0.7-3.7,0.3-5.5
			c-0.2-0.8-0.5-1.7-0.9-2.5c0,0,0.1,0,0.1-0.1c0,0,3.9,7.3,4.8,6.9c0,0,1.8-7.1-1.3-11.4c0,0,1.8-0.6,5.1,2.3
			c3.2,2.9,3.8,5.9,5.2,5.9s1.3-7.3-1.4-11.6c-2.7-4.3-3.6-3.8-3.8-5c-0.1-1.2,3.8,0.2,6.1,2.5c2.2,2.3,3.2,3.9,3.9,4
			c0.6,0,1-8.4-4.4-14.2c-5.5-5.9-6-6.1-6.1-8.2s1.7-5.6,1.9-8c0.1-2.4-0.1-3.4,0.7-3.4c0.8,0,5.3,1.9,5.7,5.6
			c0.4,3.7,0,4.3,0.4,5.4c0.4,1,5.6,0,10.4-2.8c4.8-2.8,10.5-9.9,8.9-12.2c-1.6-2.3-4.5-1.7-6.8-3.7c-2.3-2.1-2-3.2-1.6-4
			c0.3-0.7,4.4,0.8,7,4.2c2.7,3.4,3.9,5.1,7.6,6.8c3.7,1.7,11.4,1.3,11.9,0.2C654.1,368.9,649.7,368.5,646.7,365.8z M621.6,331.3
			c-6-2.2-11.4-5.4-11.4-5.4c1.3-1.3,11.6-0.6,16.6,0.9c5,1.5,3.5,4.9,2.8,5.7C629,333.4,627.6,333.6,621.6,331.3z"/>
	</g>
	<path class="layout" data-layout="5" d="M643.2,471.1c0-4.5-1.2-8.8-3.4-12.7l0,0l-0.1-0.2l0,0l-0.1-0.2l0,0c-3.2-5.2-8-9.2-13.8-11.1l0,0l-0.6-0.2
		l-0.1,0l0,0c-2.4-0.7-4.9-1.1-7.5-1.1c-2.6,0-5.1,0.4-7.5,1.1l0,0l-0.1,0l-0.6,0.2l0,0c-5.7,1.9-10.6,5.8-13.7,11.1l0,0l-0.1,0.2
		l-0.1,0.2l0,0c-2.2,3.9-3.4,8.2-3.4,12.7c0,1.5,0.1,3.1,0.4,4.6l0,0l0.1,0.6l0,0.1l0,0c1.1,5.3,3.8,10,7.8,13.6v0l0.1,0.1l0.5,0.4
		v0c4.6,4,10.4,6.2,16.4,6.2v0h0.3h0.3v0c6.1-0.1,11.9-2.3,16.5-6.2l0,0l0.5-0.4l0.1-0.1v0c4-3.7,6.7-8.4,7.8-13.7l0,0l0-0.1
		c0,0,0,0,0,0l0.1-0.6l0,0C643,474.1,643.2,472.6,643.2,471.1z M639.3,477.7l-0.6,1.1l-4.3,7.6l-8.2,0.9l-1.3-3.1l-1.9-4.5l5-8.6
		l8.1-1.1l1.4,3.3L639.3,477.7z M612.5,448.6h10l1.8,2.4l3.1,4.2l-2.4,3.3l-2.4,3.3h-9.9l-1.6-2.1l-3.4-4.5l0.3-0.3L612.5,448.6z
		 M608.9,487.3l-8.2-0.9l-1.3-2.3l-3.7-6.3l3.3-7.5l0.8,0.1l7.4,0.9l5,8.6l-3,6.9L608.9,487.3z M622.5,462.3l4.9,8.6l-4.9,8.6h-9.9
		l-4.5-7.8l-0.4-0.7l4.9-8.6H622.5z M642.6,471.1c0,1.6-0.2,3.3-0.5,4.9l-2.4,1.4l-1.8-4.3l-1.4-3.3v-9.5l2.8-1.6
		C641.5,462.4,642.6,466.7,642.6,471.1z M625.1,447.2c5.8,1.8,10.8,5.7,13.9,11l-2.8,1.6l-8.3-4.9l-4.9-6.6l1.6-0.9L625.1,447.2z
		 M596.1,458.2c3.2-5.2,8.1-9.1,13.9-11l1.1,0.7l0.9,0.5l-5,6.6l-8.1,4.9l-0.9-0.6L596.1,458.2z M595.8,458.7l2.9,1.7l-0.1,7.6
		l0,1.9l-3.3,7.5L593,476c-0.3-1.6-0.5-3.3-0.5-4.9C592.5,466.7,593.6,462.4,595.8,458.7z M600.8,489.7l0-1.5l0-1.3l8.1,0.9l8.3,4.8
		l0,0.1l0,3.3C611.2,496.1,605.4,493.8,600.8,489.7z M617.8,496.1l0-3.5l8.3-4.8l8.1-0.9l0,2.8C629.7,493.8,623.9,496.1,617.8,496.1
		z"/>
</g>
</svg>