<svg xmlns="http://www.w3.org/2000/svg" xmlns:xlink="http://www.w3.org/1999/xlink" x="0px" y="0px" viewBox="0 0 1024 768" >
<path class="layout" data-layout="9" d="M521.3,434.6c2.7,1.3,11.7,8.9,11.2,16.9c-0.5,8-1.4,14.1,2.8,16.9c-0.5,0.9,0-9.8,2.8-8.9s5.6,1.9,8.9,24.8
	c3.3,2.8,7.5-7.5,7.5-7.5s-0.9,15.5,13.1,18.3c3.7,1.4,5.6,3.3,5.6,3.3s1.4-7-3.3-9.8c-4.7-2.8-1.9-6.6,1.9-3.7
	c10.4,7.8,22,7.5,26.2,0.5c4.2-7,6.6-10.8,10.3-12.7c-3.7-2.8-9.4-4.2-15.5,0.5c-6.1,4.7-9.4,3.3-11.2,1.4c-3-3,5.6-8,8.9-8
	c-5.2-7-10.8-3.8-16.9-2.7c-9.7,1.6-14-8.5-4.6-12.3c-1.6-2.5-11.9-3.2-16.9-2.8c-5.6,0.5-7.9-3.2-2.8-6.1c3.8-0.9,6.2-1.7,5.6-6.1
	c-7.5,1.4-15.1-0.8-18.5-9c-3.4-8.1,4.7-10.6,9.7-9.5c2.3,0.5,33.4,17.2,30.2,22.1c-4,6.2,2.7,11.1,6.4,10.2
	c-3.5-1.6-5-9.4,0.8-10.5c0,0,5.2,0.9,9.8-0.5c3.9-1.2,4.1-3.3,7-1.9c-1.6-4.6-6.5-5.8-14.5-3.4c2.1-1.6,3.4-3.3,4.1-6.5
	c0.3-1.4,1.5-5.5,3.2-6.2c-6.1-0.7-7.5,1.4-9.2,3.9c-1.2,1.8-2.4,4.5-4.7,4.7c-6.1,0.4-11.4-4.8-15.5-7.5c-7.2-4.7-9.7-9.5-7-12.7
	c6.3-7.5,24.4,9.4,40.3,0c11.5-6.8,16.9-4.5,16.9-4.5s0.4-6.5-8.4-7.4c-11-1.1-9-11.8,3.6-10.2c21.6,2.8,29.5-6.6,34.2-13.1
	c6.4-9,5.5-24.8,5.5-24.8s-5.1,7.1-9.4,8.1c-4.3,1-7-4.2,3.4-16.6c12.2-14.4,3.3-38.6,0.4-43.7c-3.7-6.3-1-18.6,2-20.9
	c-3.3-0.7-12.3,4.7-13.6,11.6c-1.2,6.5-2.3,10.3-6.3,8.6c-4-1.7-1-19.9-6.2-28.2c-2.9-4.7-13.6-12-22.3-13.6
	c-8.6-1.7-15.9-17.6-14.3-23.3c-10.3,6.3-10.6,28.2-3.7,38.5c5.4,8,12.3,14.3,7.6,20.3c-2.5,3.2-7.3-1.7-10-5
	c-2.3,10.3,7.3,21.6,10.6,27.9c3.3,6.3,4.2,15,1.7,18.9c-2.3,3.7-8.3,1-8.3-3.7c0-4.7-7.3-9-10.6-7c4,1.7,1.7,15.7-3,20.6
	c-18.3,18.9-40.9,4-38.5-12.3c2-14-6-21.3-2.2-20.1c3.9,1.2,4.8,0.9,7.6-1.3c-2.8-0.2-6.4-3.9-7.5-5c-1-1.1-2.1-3.5,0.9-2.7
	c3,0.8,6.2-0.2,8.8-5.2c2.6-5,7.7-6.6,10.9-6.5c-6.7-8-18.8-3.2-20.8-1.9c-2,1.3-3.2-1.4-2.1-2.1c3.2-1.9,5.9-6.7,4.1-10.3
	c-3.7,5-17.9,6.3-30.1,0.7c-12.2-5.6-23,3.3-26,6c0,0,8.8,1.4,13.5,6.6c4.7,5.1,7.2,13.7,14.8,16.7c0,0,13.3,31.6-6.6,40.9
	c-4.9,2.3-19.9,4-23.9-4c-4-8-1.7-23.3,1.7-24.9c-2.3-1.7-8.3,1.3-11.3,7c-3,5.6-10.6,8.3-15.3,3.7c-4.7-4.6-5-19.6,5.3-23.6
	c10.3-4,13-24.3,9.6-27.6c-1,3-4.7,8.6-10.3,11c-5.7,2.3-9,1.5-9-5.6c0-10,26.9-39.2,9-51.2c-1,8.3-11.3,18.6-25.6,21.9
	c-10.5,2.4-23.3,11.6-23.3,25.3c0,3.3,1.3,17.6-2.7,19.3c-4,1.7-5.1-2.1-6.3-8.6c-1.3-7-10.3-12.3-13.6-11.6c3,2.3,5.6,14.6,2,20.9
	c-3,5.1-11.8,29.4,0.4,43.7c10.5,12.3,7.8,17.5,3.4,16.6c-4.3-1-9.4-8.1-9.4-8.1s-0.9,15.8,5.5,24.8c4.7,6.6,12.6,15.9,34.2,13.1
	c12.6-1.6,14.6,9.1,3.6,10.2c-8.7,0.8-8.4,7.4-8.4,7.4s5.4-2.3,16.9,4.5c15.9,9.4,34-7.5,40.3,0c2.7,3.1,0.2,8-7,12.7
	c-4.1,2.6-9.4,7.9-15.5,7.5c-2.3-0.1-3.5-2.9-4.7-4.7c-1.7-2.6-3.1-4.7-9.2-3.9c1.6,0.7,2.9,4.8,3.2,6.2c0.7,3.3,2.1,5,4.1,6.5
	c-8-2.4-12.9-1.2-14.5,3.4c2.9-1.5,3.2,0.7,7,1.9c4.7,1.4,9.8,0.5,9.8,0.5c5.8,1.1,4.3,8.9,0.8,10.5c3.7,0.9,10.5-4,6.4-10.2
	c-3.2-4.9,27.9-21.6,30.2-22.1c5-1.1,13.1,1.4,9.7,9.5c-3.4,8.1-11,10.4-18.5,9c-0.6,4.4,1.9,5.2,5.6,6.1c5.1,2.9,2.8,6.6-2.8,6.1
	c-5-0.4-15.3,0.3-16.9,2.8c9.4,3.8,5.1,13.9-4.6,12.3c-6.2-1-11.8-4.3-17,2.7c3.3,0,11.9,5,8.9,8c-1.9,1.9-5.2,3.3-11.2-1.4
	c-6.1-4.7-11.7-3.3-15.5-0.5c3.7,1.9,6.1,5.6,10.3,12.7c4.2,7,15.8,7.3,26.2-0.5c3.7-2.8,6.6,0.9,1.9,3.7c-4.7,2.8-3.3,9.8-3.3,9.8
	s1.9-1.9,5.6-3.3c14.1-2.8,13.1-18.3,13.1-18.3s4.2,10.3,7.5,7.5c3.3-23,6.1-23.9,8.9-24.8c2.8-0.9,3.3,9.8,2.8,8.9
	c4.2-2.8,3.3-8.9,2.8-16.9c-0.5-8,6.4-16.1,9.4-16.4c5.2-0.5,5.4,3.4,4.4,10.9c-0.6,4.7-5.3,8.6-7.2,8.1c1.9,2.8,3.6,4.2,5.9,2.8
	c3.7-2.2,5.1,5.3-1.9,10.9c-4.7,3.8-7.8,11.7-3.1,16.9c1.9-6.1,3.1-4.7,5-7c1.9-2.3,3.4,7.3-1.3,12c-4.2,4.2-2.8,9.1-9.4,9.4
	c1.1,2.2,7,4.6,10.9,1.2c3.9-3.4,2.7,4.8-0.6,8.7c-3.4,3.9-3.3,11.6-0.3,14.4c7.8,7.2,3.1,12.8,3.1,12.8c8.7,4.7,19.8-5.4,19.7-21.1
	c0-11.4-9.5-22.1-5.1-21.4c6,1,9.9,9.6,8.8,11.3c1.1-1.1,7.3-12.2-0.9-19.1c-9.4-7.8-9.8-11.7-7.5-13.1c2.3-1.4,7.5,5,7.5,5
	s2.7-8.6-3.4-13.7c-6.1-5.2-10.2-17.8-7.8-18.7c2.3-0.9,4.7,8,4.7,8s6.1-6.1-0.9-13.1C518.2,437,518.4,433.2,521.3,434.6z"/>
</svg>