<svg xmlns="http://www.w3.org/2000/svg" xmlns:xlink="http://www.w3.org/1999/xlink" x="0px" y="0px" viewBox="0 0 1024 768" >
	<path class="layout" data-layout="5" d="M638.4,286.7c-6.7,3.8-14.4,9.6-21,15.1c5.2-5.7,10.8-14.3,14-18.2c1.8-2.3,13-16.8,7.9-19c-1.3,0.7-2.2,1.7-3.3,2.6
		c-7.2,8.1-18,15.5-27.4,25c9.9-11.1,30.2-36.1,27.6-43.4l-7.8,5.1c3.2-5.3,7.4-11.4,6.1-17c-6.5,1.1-41.9,41.3-45.6,45.2
		c0.6-2,0.3-3.9-0.4-5.6c-18.5,15.9-50.9,55-52.6,79.8c8.2,5,12.3,7,10.8,18.1c-3.4,4.1-6.1,5.3-11.5,3.5V377c2.8-0.6,3.3-1.1,4-3.7
		c-5.7,0-8.6-23.4-9.5-27.7c0.9,0.6,1.7,0,2.5,0c-1.2-8.7-0.5-13.8-6.1-21.6c5.9-2.8,8.6-9.9,7.4-16c-8.5,4.2-18.1-0.7-24.1-7.3
		c-2.1-2.3-9.1-9.8-12.7-7.2c-7.6-2.7-15.2-3.5-17.9,10c4.5,0,8.6-3.4,7.4,5.1c3.3,0.3,5.8-0.5,6.8,3.3c0,3.9,0.8,7.3-0.4,11.1v-4.4
		c-4-12.1-15.6-12.8-20.4-19.2c-1.1-1-1.2-1.9-2.5-3c-1.4,4.8,5.8,11.9,9.2,15.1c-2.7,1.1-1.6,2.6,0.5,3.3
		c10.8,13.5,4.2,17.8,13.9,16.3c0,4.5-1,6.9-3.4,10.4c-2.8,0.7-2.9-1.4-4.1,1.7c1.1,2.5,1.1,2.7,3.6,4c-1.7,4.7-7.5,22-13.4,22v0.8
		l3.4,2.2l-1.8,4.9c-3.8,1.7-10.4-1.5-11.2-5.6c-3.3-10.4,18-15.3,14.3-25.1c-11.9-30.9-43.8-60.4-46.1-74.9c-1.6,0.5-3,1.1-2.3,3.3
		c-16.3-17-27-23.9-41.8-41.3c-4,3.7,1.1,10.6,3.3,14.9l-6.9-4.6c-4.2,5.3,12,26.7,15.7,31.8c0.3,0.6,5.2,5.9,5.3,6l-1.3-0.2
		c-4.7-5.3-18-19.1-23.3-20c0.7,11.9,11.9,26.3,19.6,34.9c-3.1-2.9-14.6-13.2-18.9-13.2c-3.4,4.8,13.1,24.5,16.2,28.3
		c-3.9-3.3-11.3-8.9-16.2-10.5c-0.8,5,2.3,7.7,5.3,11.4c4.1,4.6,7.5,9.5,12,13.9c4,4.4,8.8,7.7,12.2,12.5l-20.4-13.8
		c-1.7-0.8-3.8-2.3-5.7-1.6c-1,8.9,17.2,26.1,25.5,31.8l-24.5-9.2c-1.6,10.2,24.3,24.6,34.4,27.9c-5.8-1.6-28-9.3-32.3-7.7
		c-1.8,8.8,35.7,22.6,45.1,25.2l-35.3-2.3l0.2,1.5c3.1,5.5,17.5,9.9,28.7,9.5c-6.4,0.5-12.7,0.6-19.1,1.3v1.2l5,3.4l12,3.1
		c4.2,0.6,7.8,0.6,12,1.2c-2,0.5-17,4.1-17,4.8c11.3,5.1,16.8,4.1,27.6,3.1c-4.4,1.7-8.9,3-13.2,4.8v1.3c13.8,3.3,25.7,1.6,40.5-6.7
		c-2.8,9.2-9,21.2-20.3,21.2l-0.7,1.3c3.6,2.8,9.2,1.6,13.6,1.6c-1.3,1.9-1.3,3.5-1.1,4.8c-7.4,2.1-4.3,3.4-6.5,5.5
		c-4.3-1.9-8.1,2.5-9.7,5.9c-4.5,1.3-9.3,2.2-14.8,1c-9.8-2.5-4-14.5-7.2-15.3c-4,0-3.8,0.3-7.2,3c-3.8,1.2-6.2,4.2-7.8,7.5
		c-0.5,3.9-3.5,6.5-3.5,10.1c1.8,1.2,3.6,9.3,6,8.7c-0.5,5.7-0.6,10.8,0.6,16.5c2.2,0.6,5.7-3.1,6.9-4.5c4.3,2.1,5.4,0.7,7.8-2.4
		c2.7-1.1,8.4-3.2,11.4-2.4c1.9,5.1,5.5,5.7,10.4,7c-0.2,3,0.1,2.7,3.1,4.6l-0.7,3.7c4.7,1.6,9.3-3.9,10.7-7.6l2.6-1.9
		c5-9.3-8.1-11.4-13.9-13c0-4.3,12.5-11.6,16.1-13.9c10.2,0.8,15.1-2.2,19.8-13.4l0.9-0.4c-2.9,10.2-7.1,18.5-11.7,28.1
		c4.3,3.8,9.7,1.6,14.6-0.4c-6.1,15.1-5.9,28.8-9.1,44.1c5.3,1.9,10.8-10.2,12.8-14.3c0.5,4.9,2.4,25.1,7.3,31.2
		c5.7-12.1,6.6-14.3,8.4-31.8c2.2,7,3.8,13.8,11.2,17c3.9-8.6-1-36.2-5.1-43.6l7.6,2.7l2.2-2.5c-0.6-7.6-6.1-12.6-9.2-27.4
		c3.8,5.3,8.7,8.9,10.8,9.3c4.9,1.2,23.2,14.1,22.7,18.4c-1.9,1-20.5-1-13.7,12.3c0,4.7,6.9,7.2,11.1,7.2l0.7-1.3
		c-1.5-1.1-2.3-1.3-2.8-3c1.8,0.7,4.2,0.7,6.3,0c-2.2-4.8,1.1-5.8,5.2-5.7c4.5-0.5,6.7-2.7,6.7-7.9l8.1,1.4c1.4,4,1.8,5,5.4,7.8
		l2.8-1.1c1.5,2.4-0.5,1.6,2,5.5c4.2-4.1,4.8-6.1,4.5-11.6l1.4,0.7c1.2-2,2.4-4.4,1.2-6.5l2.9,0.6c0-1.9-0.3-5.1-1.3-6.8
		c0.4-1.5,0.7-3,0.7-4.6c-2.2-2.7-4.7-5.6-4.7-9.1c-3.5-5.7-8.6-11.2-11.7-0.3c-2.6,9.3-14.8,11.1-22.6,5.5
		c-2.1-3.3-3.3-4.8-7.3-6.2c-0.8-2.8-6.1-3.2-7.1-5.5l-1.7-3.1c4.7,0,9.4,0.1,13.6-2.1l-1.1-1.3c-6,0.6-10.5-1.1-13.9-5.9l4.5-0.4
		v-1l-4.5-0.5l-0.3-1.1c-3.5-4.9-5.7-8.3-4.9-14.2c7,4.3,22.3,12.4,42,10.9c-1.3-1.4-2.5-2.9-3.8-4.3c1.7,0,16.7,0,18.5-4.3
		c-3.5-2.1-7.6-3.9-11.6-4.9c10.3-2.1,17.6-3.3,26.7-8.6c-8.2-2.3-16.8-2.3-25.2-3.5c10.7-1.1,28.2-2.4,35.2-11l-1.3-1.1
		c-20.9,3.4-34.8,2.3-39.9,1.3c14.3-0.8,45.8-6.7,49.4-21.1l-1.3-0.8c-6.1,1.1-13.9,4-20.1,4c5.4-2.1,28.4-14.4,26.8-22.1l-2.1-0.4
		c-11.3,4-25.1,10.2-34.5,13.6c7-4.5,40.4-27.1,39-36.7c-9.9,3.6-18.9,10.7-28.9,14.7c2.2-1.8,38.8-32.6,32-36.9
		c-4.5,2.5-9,5-13.4,7.7l5.3-7.1C630.5,303.1,644.4,290.1,638.4,286.7L638.4,286.7z M419.8,451.6l0.1,2.7l-1-0.6l-1.6,0.8
		C417.9,453.8,418.6,451,419.8,451.6L419.8,451.6z M417.6,471.3l-1.9-2.2l-1-2.8l2.8-0.9l0.4,0.9c0.2,0.6,1.2,0.6,1.8,1.2
		L417.6,471.3L417.6,471.3z M419.6,487.2c-1-2.7-1.2-5.8-0.4-10.4l2.6-0.4c1.2,2.6,2.4,2.6,3.8,4.6
		C424.2,484.6,423,485.1,419.6,487.2L419.6,487.2z M459.8,491.8l2.8-3.1l1-3l2.7,1.5c-0.5,2.7-3.5,6.3-7,7.2L459.8,491.8
		L459.8,491.8z M499.8,306.2c1.4,1.2,1.7,1.4,3.1,1.7c-0.4,0.7-1.2,1.3-1.9,1.4C499.2,308.9,499.8,307.7,499.8,306.2L499.8,306.2z
		 M501.7,311.2c1.7-0.1,2.8-0.8,3.6-1.6c0.5,0.9,1,2.6,2.1,3.1C506.7,313.7,502.9,312.8,501.7,311.2L501.7,311.2z M549.1,493.8h-0.6
		l-3.7-2.6l-0.4-1l-0.7-1.8l4.4-1l1.3,2.7l0.5,3.7L549.1,493.8L549.1,493.8z M593.1,466.4c3,1.2,2.1,2.6,2.5,5.7
		c-2.3-1.5-3-2.4-4.1-3.3L593.1,466.4L593.1,466.4z M591.5,455.2c0.3,0.8,0,1.8-0.3,3c-0.3-0.7-1.6-1.4-2.6-1.5
		C588.6,456.2,589.3,455.9,591.5,455.2L591.5,455.2z M589.3,479.5l1.3,0.2c0.8,5.7,0.7,5.8-3,9.7c0,0.4-0.1-2.3-0.5-4
		C589.1,482.9,588.9,482.5,589.3,479.5L589.3,479.5z"/>
</svg>