<svg xmlns="http://www.w3.org/2000/svg" xmlns:xlink="http://www.w3.org/1999/xlink" x="0px" y="0px" viewBox="0 0 1024 768" >
<g>
	<path class="layout" data-layout="5" d="M508.9,384.3c-1.2,0.9-4.3,2.7-4.3,0.9c0-1.8-2.8-3.2-4-3.6c-1.2-0.4-2.8-2-3.6-3.1c-0.8-1.1,4.8-12.5,6-13.5
		c1.2-1,4.3,0.7,4.1-0.6c-0.2-1.3-5.9-3.1-6.9-1.1c-1,2-4.8,10.4-7.5,13.8c-2.7,3.4-18.6,8.9-20.1,9.5c-1.5,0.6-11,3.6-12.3-0.3
		c-1.7-5.3,34.7,0.3,38.7-30.6c2-15.6-11.6-15.1-21.8-16.5c-9.9-1.4-17.6-1.5-21.1-6.4c-1.3-1.8,0.3-4.9,3.5-6
		c4.4-1.6,40.8,5.9,40.8,5.9s-31-14-35.4-18.9c-6-6.7-20.9,6.9-20.9,6.9s5.9,0.2,8.8,1c4.1,1.1-4.9,2.4-7.2,4.7
		c-5.3,5.3-1.8,8.5-1.8,8.5s0.9-7.3,7-7.4c4,0-10.8,12,21.3,17.1c23,3.7,2.6,14.1-11.2,11c-19.5-4.3-25.2-17.3-23.8-29.2
		c1-7.7,3.6-15.1,9.4-20.5c6.8-6.4,15.9-9.8,25.1-10.8c4.9-0.5,13.2-0.3,18,0.6c4.8,0.9,7.1,2,11,4c-2.8-7.3-14.4-9.5-21.1-10.3
		c-18.7-2.4-38.1,1-55,9.3c-12.9,6.4-25.8,18.3-33.8,30.2c-7.9,11.9-12.3,21.3-14.9,36.1c0,0,15.8-40.8,48-55.8c0,0,1.4-0.7,3.9-1.8
		c-14.3,9.1-26.2,21.6-34.4,34c-20.2,30.9-7.2,73.4-7.5,69.3c-1.7-26.1,6.1-49.1,9.6-55.4c3.5-6.3,11.2-15,16.8-19.8
		c5.2-4.6,10.5-6.3,7.7-3.4c-2.2,2.4-21.9,17.5-27.8,43.6c-5.8,25.5,4.4,52.9,4.4,52.9c-2.7-7.6,0-42.1,2.1-51.2
		c2.2-9.2,9.3-19.1,14.6-24.2c5.4-5.2,8.4-4.9,5.7-2.7c-2.6,2.1-7.5,8.3-11.3,16.4c-8.9,18.8-1.1,53.6-1.1,53.6
		c-4.5-28.6,7.2-50.1,9.9-54.6c1.3-2.2,14.9-19.1,1.8,1.7c-12.5,20-2.5,46.8-2.5,46.8c-2.7-17.8,0.5-32.8,6.9-40.9
		c5.5-6.9,6.1-6.7,3.8-2.6c-2.2,3.9-2.6,8.3-2.6,8.3s0.2-0.9,8.3-9c8.7-8.6,10.9-5.3,7.8-2.9c-7.1,5.6-6.6,9.6-6.6,9.6
		c0.6-0.4,13.4-10.8,14.8-7.5c2.3,5.5-14.1,9.8-22.6,17.8c-8.7,8.1-5.6,23.9-2.4,39.6c2.8,13.2-5.3,19.5-5.3,19.5
		c4.4-1.1,9.3-5.7,10.1-11.9c1.4-11.2-6.5-27.6-3-38.7c2.2-7,5.4-7.5,3.8-3.9c-5.6,12.8,5.4,27,8.5,31.1c3.1,4.2,1.1,9.5,0.7,14.1
		c-0.4,4.6-1.5,9.3,3.7,23.5c5.3,14.5-10.7,17.6-16.5,16.9c-5.7-0.6-7.1-4.3-6.3-7c0.8-2.7,5.1-1.7,5.1-1.7c-2-2.7-6.3-2.1-7.5,1.1
		c-1.3,3.2-3-1.8-1.8-5.1c1.1-3.3,7.5-1.5,7.5-1.5c-0.1-0.8-4.6-2.4-7.7-0.9c-0.2,0.1-0.4,0.2-0.6,0.4c0-0.2,0-0.4,0.1-0.6
		c0.3-1.5,1.7-3.7,2.9-4.6c1.4-1,3.1-0.7,4.3,0c0.4,0.2,0.7,0.1,0.7,0.1c-0.1,0-0.2-0.3-0.3-0.4c-0.2-0.2-0.4-0.4-0.5-0.5
		c-0.1-0.1-0.2-0.2-0.3-0.2c-0.3-0.2-0.7-0.4-1-0.5c-1.1-0.4-2.4-0.6-3.5-0.2c-2.6,1-4,3.5-4.4,5.9c-0.2,1.1-0.2,2.2-0.1,3.1
		c0.2,1.8,0.5,2.9,0.5,2.9l0,0c0.5,4.9,5.4,11.1,13.6,11.8c22.8,1.8,30.6-14.1,33.3-22.8c2.4-8-1.3-18.8-5.9-23
		c-4.1-3.8-13.5-13.4-16.6-17.9c-9.7-13.6-4.8-30.6-3.2-19.7c0.6,4.4-0.6,13.1,17,23.7c18.6,11.2,26.3,15.3,32,23.2
		c2.6,3.6,4.4,10.3,4.4,10.3c5.3-17.7-22.8-29.5-38.4-40.1c-19.2-13.1-7.4-30-7.3-16.8c0.2,18.5,29.9,14,29.9,14s-11.3-1-18-3.2
		c-12.9-4.4-1.4-24.5-2.6-13c-1.2,11.5,10.3,11.3,10.3,11.3s-3.6-2.1-4.3-5.6c-0.7-3.4,2-5.3,4.5-5.3c15.1,0,28.8-12.5,32.1-13.9
		c3.4-1.5,5.3,6.5,7.3,6.8C509.5,388.7,510.2,383.4,508.9,384.3z M443.9,435.3c1.4-1.8,0.2,4,0.5,6.1c0.3,2.7,0,6.8,5.4,9.5
		c0,0,4.8-1.6,1.7-10.9c-2.9-8.6,3.4-0.5,4.5,4.8c1.6,7.6-0.7,19.8-4.7,19.2C448.7,463.4,436.6,444.6,443.9,435.3z"/>
	<path class="layout" data-layout="5" d="M523.6,387.4c2-0.3,4-8.3,7.3-6.8c3.3,1.4,17,14,32.1,13.9c2.5,0,5.1,1.9,4.5,5.3c-0.7,3.5-4.3,5.6-4.3,5.6
		s11.5,0.2,10.3-11.3c-1.2-11.5,10.3,8.6-2.6,13c-6.6,2.2-18,3.2-18,3.2s29.7,4.5,29.9-14c0.1-13.3,11.8,3.6-7.3,16.8
		c-15.5,10.7-43.6,22.4-38.4,40.1c0,0,1.8-6.7,4.4-10.3c5.8-7.9,13.4-12,32-23.2c17.6-10.6,16.4-19.3,17-23.7
		c1.6-10.9,6.5,6.1-3.2,19.7c-3.2,4.4-12.6,14.1-16.6,17.9c-4.6,4.2-8.3,15-5.9,23c2.6,8.6,10.5,24.6,33.3,22.8
		c8.2-0.7,13.1-6.9,13.6-11.8l0,0c0,0,0.3-1.1,0.5-2.9c0.1-0.9,0.1-2-0.1-3.1c-0.5-2.4-1.8-4.9-4.4-5.9c-1.1-0.4-2.4-0.3-3.5,0.2
		c-0.4,0.1-0.7,0.3-1,0.5c-0.1,0.1-0.2,0.2-0.3,0.2c-0.2,0.2-0.4,0.3-0.5,0.5c-0.1,0.1-0.2,0.3-0.3,0.4c0,0,0.3,0.1,0.7-0.1
		c1.2-0.7,2.9-1,4.3,0c1.3,0.9,2.6,3.1,2.9,4.6c0,0.2,0.1,0.4,0.1,0.6c-0.2-0.1-0.4-0.3-0.6-0.4c-3.1-1.5-7.6,0.2-7.7,0.9
		c0,0,6.4-1.9,7.5,1.5c1.1,3.3-0.6,8.3-1.8,5.1c-1.3-3.2-5.6-3.8-7.5-1.1c0,0,4.3-0.9,5.1,1.7c0.8,2.6-0.6,6.3-6.3,7
		c-5.8,0.6-21.8-2.5-16.5-16.9c5.2-14.2,4.1-18.9,3.7-23.5c-0.4-4.6-2.4-9.9,0.7-14.1c3.1-4.1,14.1-18.3,8.5-31.1
		c-1.6-3.6,1.6-3.1,3.8,3.9c3.5,11.1-4.4,27.4-3,38.7c0.8,6.2,5.7,10.8,10.1,11.9c0,0-8.1-6.3-5.3-19.5c3.3-15.7,6.3-31.5-2.4-39.6
		c-8.5-7.9-24.9-12.2-22.6-17.8c1.4-3.3,14.2,7.1,14.8,7.5c0,0,0.5-4-6.6-9.6c-3.1-2.5-0.8-5.7,7.8,2.9c8.1,8,8.3,9,8.3,9
		s-0.4-4.4-2.6-8.3c-2.3-4.1-1.7-4.2,3.8,2.6c6.5,8.1,9.7,23.1,6.9,40.9c0,0,10-26.8-2.5-46.8c-13.1-20.9,0.5-3.9,1.8-1.7
		c2.7,4.4,14.4,26,9.9,54.6c0,0,7.8-34.8-1.1-53.6c-3.8-8.1-8.7-14.2-11.3-16.4c-2.7-2.1,0.3-2.5,5.7,2.7c5.3,5.1,12.4,15,14.6,24.2
		c2.1,9.2,4.8,43.6,2.1,51.2c0,0,10.3-27.4,4.4-52.9c-5.9-26.1-25.6-41.2-27.8-43.6c-2.8-3,2.4-1.2,7.7,3.4
		c5.6,4.9,13.2,13.5,16.8,19.8c3.5,6.3,11.3,29.2,9.6,55.4c-0.3,4.1,12.7-38.4-7.5-69.3c-8.1-12.4-20-24.9-34.4-34
		c2.5,1.1,3.9,1.8,3.9,1.8c32.2,15,48,55.7,48,55.7c-2.6-14.8-6.9-24.2-14.9-36.1c-8-11.9-20.9-23.8-33.8-30.2
		c-16.9-8.4-36.3-11.7-55-9.3c-6.7,0.9-18.3,3-21.1,10.3c3.8-2,6.2-3.1,11-4c4.8-0.9,13.1-1.1,18-0.6c9.2,0.9,18.3,4.4,25.1,10.8
		c5.8,5.4,8.4,12.8,9.4,20.5c1.5,11.9-4.2,24.9-23.8,29.2c-13.8,3-34.2-7.3-11.2-11c32.1-5.1,17.3-17.1,21.3-17.1
		c6.1,0.1,7,7.4,7,7.4s3.5-3.2-1.8-8.5c-2.3-2.3-11.3-3.6-7.2-4.7c2.9-0.8,8.8-1,8.8-1S565,307,559,313.7
		c-4.4,4.9-35.4,18.9-35.4,18.9s36.4-7.5,40.8-5.9c3.2,1.1,4.8,4.2,3.5,6c-3.5,4.9-11.2,5-21.1,6.4c-10.2,1.4-23.8,0.9-21.8,16.5
		c4,30.9,40.4,25.3,38.7,30.6c-1.2,3.8-10.8,0.8-12.3,0.3c-1.5-0.6-17.4-6.1-20.1-9.5c-2.8-3.4-6.5-11.8-7.5-13.8
		c-1-2-6.7-0.2-6.9,1.1c-0.2,1.3,2.9-0.4,4.1,0.6c1.2,1,6.8,12.4,6,13.5c-0.8,1.1-2.4,2.7-3.6,3.1c-1.2,0.4-4,1.8-4,3.6
		c0,1.8-3.1,0-4.3-0.9C513.8,383.4,514.5,388.7,523.6,387.4z M572.6,463.9c-4,0.6-6.2-11.6-4.7-19.2c1.1-5.2,7.4-13.4,4.5-4.8
		c-3.1,9.2,1.7,10.9,1.7,10.9c5.4-2.7,5.1-6.8,5.4-9.5c0.3-2.1-0.9-7.9,0.5-6.1C587.4,444.6,575.3,463.4,572.6,463.9z"/>
</g>
</svg>