<svg xmlns="http://www.w3.org/2000/svg" xmlns:xlink="http://www.w3.org/1999/xlink" x="0px" y="0px" viewBox="0 0 1024 768" >
<path class="layout" data-layout="5" d="M396.9,448.7c14.5,10.2,22.8,14,24.1,13.6c1.3-0.3-9.1-12.6-8.8-13.4c0.3-0.8,10,4.4,24.3,5.8c14.2,1.4,18.8,0.8,19,1.7
	c0.2,0.9-0.2,4.4,0.9,9.5c1.1,5.1,3.6,7.3,4.3,7.2c0.7-0.1-1-3.6-0.1-9.7c0.9-6,3.6-6.5,5-6.4c1.4,0,3.4,1.5,2.9,10.4
	c-0.5,9,0,17.7,3.5,24.1c3.5,6.4,11.5,11.2,12.1,10.8c0.6-0.5-4-5.2-4.7-10.1c-0.8-4.9,2.2-6.7,4-6.4c1.8,0.3,4.2,11.9,14.5,19.2
	c10.3,7.3,23.5,8.1,24.1,7.4c0.6-0.7-11.3-6.4-10.3-9.8c0.9-3.5,6-2.3,12.8,0.7c6.8,3,12.2,3.5,18.9,3.4c6.7-0.1,12.7-2.7,12.9-3.3
	c0.2-0.6-9.3-0.2-11-2.6c-1.7-2.4,1.5-4.9,6.1-6.7c4.6-1.7,19.8-11.2,20-27.9c0.2-16.5-9.2-27.2-22.7-32.9
	c-13.5-5.7-31-3.7-33.8-3.5c-2.8,0.2-7.9,1.2-8.4,0.8c-0.5-0.4,6-13,21.2-18c15.1-4.9,28.8-6.2,40.6-14.7c0,0,7.5,10.2,22.6,8.7
	c0,0,6.8,7.5,16.7,6.2c0,0,5.2,2.6,5.2,3.2c0,0.6-3.1,2.1-6.2,3.3c-3.1,1.2-9.6,4.4-9.6,9.4c0,5.1,3.9,7.7,6.6,8.8
	c2.7,1.1,7,0.4,7.2-0.2c0.2-0.6-8-2-8.2-6c-0.2-4,4.9-5,7.5-5.3c2.6-0.3,6-1.3,8.1-3.7c2.1-2.3,3.2-2.8,4.9-2.6
	c1.7,0.3,4,0.1,7.4-2.8c3.4-2.9,5.7-2.5,7-1.5c1.3,1,1.2,4.4,1,6.6c-0.2,2.2-0.4,3,0.2,3.3c0.5,0.3,4-6.6,2.6-12
	c-1.3-5.4-8.1-4.5-10.5-3.6c0,0,3.3-3.5,4.1-5.5c0.8-2,4.5-7.7,7.4-5.7c2.9,1.9,5.9,5.5,6.5,5.5c0.5,0-1.5-6.3-5-9.1
	c-3.5-2.8-7.8-2.8-10.4,1.3c-2.7,4.2-3.5,4.7-5.1,4.9c-1.5,0.2-3.9,0.9-5.5,3.5c-1.6,2.5-5.3,2-8.2,0.6c-2.9-1.5-7-6.9-12.5-9.1
	c0,0-1.8-10.5-10.8-15.6c0,0,2-6.4,1.5-11c0,0,9.5-2.6,9.3-14.2c-0.2-11.5-1.6-14.1-0.1-16.4c1.4-2.3,3-4.1,3.2-3.5
	c0.1,0.5,0.3,13.9,5,14.5c4.7,0.6,11.8-7.4,11.2-8.7c-0.7-1.3-6.3,5.3-9.1,3.7c-2.8-1.6,0.7-6.8,0.5-10.2c-0.2-3.4-0.6-6.1,1.6-7.3
	c2.2-1.2,3.1-3.8,3.4-5.8c0.2-2,2.2-5.1,4-4.1c1.9,1,5.2,5.5,5.6,5.5c0.4-0.1-1.7-9.7-5.4-10.6c-3.7-0.9-8.8,4.9-9.6,5.7
	c-0.8,0.8-2.3,2.5-2.9,2.4c-0.6-0.2,1.2-4.5,1-7c-0.3-2.6-0.8-8.6,1.7-8.9c2.5-0.4,6.2,3.2,6.9,3.2c0.7,0-2.9-7.2-7.8-8.2
	c-4.9-1-6.3,4.9-6,9.1c0.3,4.2-1.1,6.1-2.2,7.1c-1.1,1-2.2,2.9-1.9,7c0.3,4.1-0.1,5.4-3.3,7.4c-3.2,2-6.8,2.2-7.5,5.2
	c-0.7,3-0.2,11.9-1.2,12.6c-1,0.7-4.3-2.1-6.2-2.4c-1.9-0.3-4.9,0.4-5.7-0.6c-0.9-1.1-3-6-9.3-9.5c-6.2-3.5-15.5-3.1-21.1-9.4
	c-5.6-6.3-1.7-14.9,3.3-16.9c5-2,8.1-1.5,13.7-5.5c0,0,4.5,2.4,9.3,2.3c4.7-0.1,6.7-2.5,6.7-2.8s-2,0.2-6.6-0.7
	c-4.6-0.9-4.9-2.6-4.8-2.9c0-0.3,5.3,0,9.6-1.2c4.2-1.3,6.1-4.1,6.1-4.4c0-0.3-4.5,1.1-8.7,1.3c-4.2,0.2-4.5-0.7-5.3-2.6
	c-0.8-1.9-2.3-3.3-4.6-4.1c-2.3-0.8-3.5-0.6-3.4-0.1c0.1,0.4,3.4,4,2.1,4.8c-1.3,0.9-6.1-0.5-8.9,1c-2.8,1.5-5.1,5.1-5.9,5.2
	c0,0-1.3-4.5,2.9-8.5c4.1-4,10-6.1,14.1-8.3c4.1-2.2,7.6-6.7,8.4-9.5c0.8-2.8,0.9-3.4,1.3-3.3c0.5,0.1,4.1,5,5.1,4.7
	c0.9-0.3-2.5-5.6-3.6-10.3c-1.1-4.7-1.2-8.9-1.6-9c-0.4-0.2-2.8,6.7-6.1,11c-3.3,4.4-4.9,4.8-4.9,5.4c-0.1,0.6,2.5-0.1,4.6-1.3
	c2.1-1.2,2.5-1.6,2.9-1.4c0.4,0.2-0.2,4.7-4.9,8.4c-4.7,3.7-12.4,5.9-16.3,9.1c-3.9,3.2-4.4,5.4-5.2,5.9c-0.8,0.5,3.1-16.8,5.6-15.9
	c2.5,1,4.5,4.7,5,4.7c0.5,0,0.7-3-0.7-6.1c-1.4-3.1-1.7-3.4-1.4-3.8c0.3-0.3,1.9,0.2,3.6,1.9c1.7,1.7,2.2,2.6,2.7,2.6
	c0.5-0.1,0.4-6-3.6-9.4c-4-3.4-9.4-3.4-11.7-1.8c-2.3,1.6-2.6,4.7-2.4,6.5c0.2,1.8-1.4,3.2-2.2,3.8c-0.8,0.7-1.8,1.8-2.1,3.3
	c-0.3,1.5-0.9,2.1-2.3,2.9c-1.5,0.8-4.9,0.5-8.8,3.3c-3.9,2.8-2.7,7.1-4,8c-1.3,0.9-7.4-7.1-8-7.1c-0.6-0.1-1.4,3.4-0.2,7.2
	c1.2,3.8,2.9,4.9,2.5,5.5c-0.4,0.6-5.9-1.7-9.5-5.6c-3.5-3.9-4.2-8.3-4.8-8.1c-0.6,0.2-0.9,10,2.5,17.6c3.3,7.7,11.4,11.9,11.6,12.9
	c0.2,1-2.3,11.6,4,22.1c6.3,10.5,25.4,16.2,23.7,18.9c-1.7,2.6-9.4,2.5-14.5,5.4c-5.1,2.8-7,3.9-9.1,2.8c-2.1-1.1-4.4-2.8-6.3-10.3
	c-1.9-7.5-10-23.4-23.9-34.7c-13.8-11.2-29-15.8-43.8-15.9c-14.9-0.1-28.9,4-28,5.8c0.9,1.8,13.2-1.9,26.9,0.8
	c13.6,2.7,19.1,8.8,19,9.4c-0.1,0.6-10.4-0.4-18.5,1.1c-8.2,1.6-12,4.8-11.8,6c0.2,1.2,13.6-3.3,33.1-2.5
	c19.3,0.7,25.9,8.5,28.1,10.9c2.2,2.4,3.2,4.7,2.5,5.5c-0.7,0.8-7.2-11.9-24.2-13.1c-17.2-1.2-31.1,4-45.7,13
	c-14.8,9.1-26.9,23-32.7,30.3c-5.9,7.4-5.5,8.3-4.3,9.2c1.2,0.9,3.7-1.9,8.5-7.3c4.7-5.3,17.7-17.6,24-15.9c6.3,1.7,3.2,9.5-1,13.8
	c-4.3,4.4-7.6,7.4-6.4,8.9c1.2,1.5,6.1-3.7,10.5-7.2c4.4-3.5,15.3-12.7,20.4-9.2c5.1,3.5-1.7,12.4-3.3,14.5c-1.6,2.1-4.9,5-3.6,6.8
	c1.3,1.9,7.5-5.4,12.1-8.9c4.5-3.5,9.8-6.2,12.6-3.8c2.8,2.4-0.4,9.3-2.8,11.3c-2.3,2.1-5.5,5.7-4.6,7.1c1,1.4,7.6-4.8,11.8-7.5
	c4.2-2.7,8.3-3,10.3-0.9c2,2.1,0.2,7.3-3.5,10.7c-3.6,3.4-4.4,4.5-3.7,5.6c0.6,1.1,4-1.1,8.1-4c4.1-2.9,8.3-4.6,10.3-2.2
	c2,2.4,1.6,8.8-7.9,13.3c-9.6,4.6-16.4,5.9-21.1,10.3c-4.7,4.5-7.3,11.2-6.7,12.1c0.6,0.8,8.3-8.7,11.9-6.2
	c3.6,2.4-5.2,10.8-6.9,15.9c-1.7,5.1-5,6.4-15.7,8.1c-10.7,1.7-31.8-0.3-31.5-1.2c0.3-0.8,12-6,12.2-7c0.2-1.1-11.5,1.4-26.5-2.3
	c-15.1-3.7-23.7-14.4-24.8-14.1C374,420.8,382.5,438.5,396.9,448.7z M510.4,393c-1.4-0.3-1.1-4.3-1.1-13.7c-0.1-9.3-1.8-19.6-3-19.6
	c-1.2,0-1.8,3.9-5.8,11.8c-4.1,8-6.4,8.7-7.3,7.9c-0.8-0.9-0.1-3.2,2.6-8.5c2.7-5.2,6.4-15.4,5.4-15.6c-1-0.2-7.1,5.5-11.8,9.6
	c-4.8,4.1-9.2,7.8-10.1,6.3c-0.9-1.5-0.4-1.6,5.6-7.2c5.9-5.6,12.7-12.9,12.7-12.9c0.1-1-2.7-1.3-15.5,3.3
	c-12.9,4.6-17.7,10.2-18.7,7.6c-1-2.6,6-6.5,12.5-9.5c6.4-3,14.7-4.4,16.4-6.2c1.8-1.8-21.3-3.5-32.4-0.5
	c-11.2,3.1-16.5,8.4-17.4,6.2c-0.9-2.1,8-6.4,11.3-7.8c3.3-1.4,12.1-5.2,23.6-5.2c11.5,0,21.3,2.8,27.8,10.4
	c6.5,7.7,7.8,17.7,8.1,29.7C513.6,391.2,511.8,393.3,510.4,393z M536.6,292.1c-2.4,3.1-6.6,5.1-7.2,4.4c-0.6-0.7-0.4-3.3,3.4-7.7
	c3.8-4.4,5.4-3.7,5.4-3.7C538.7,285.6,538.9,289,536.6,292.1z M537,439c0.4-1.3,6.1-0.2,8.9,1.3c2.9,1.5,6.8,4,11.6,9.5
	c4.8,5.6,5.7,14,5.6,15.8c-0.1,1.8,0.1,5.8-4,11.6c-4.2,5.8-5.8,5.3-5.8,5.3c-0.7-0.8,0.2-2.5,2-6c1.8-3.5,2.3-6.8,2.3-11.4
	c0-4.6-1.6-9.8-7.7-16.8C543.9,441.4,536.6,440.2,537,439z M502.7,450.2c0,0,3.8-2.3,13.6-2.4c9.7-0.1,22.2,6.5,21.4,17.7
	c-0.8,11.3-14.3,12-19.2,11C513.7,475.6,503.9,466,502.7,450.2z M482.1,445.6c0.2-16.2,9.4-28.8,24.1-37.2
	c14.5-8.3,37.8-11.1,49.9-17c11.9-5.8,18.8-11.2,17.5-25.3c-1.2-13.9-13.5-17.8-26.6-26.1c-13-8.2-11-18.7-9.8-18.4
	c1.2,0.3,2.4,6.4,8.1,11.4c5.7,5.1,13.7,5.4,23.6,12c9.9,6.6,13.1,15.9,13.3,22.3c0.3,6.5-2.2,10.6-2.4,11.6c-0.1,1,0.2,0.7,5.2,4.8
	c5,4.2,7.8,12.7,7.8,12.7c0.3,0.8,2.8,0.4,7,2.7c4.1,2.4,8.9,7.7,8.7,8c-0.3,0.3-3.9,1.4-9.2-1.3c-5.3-2.7-7.7-5.5-8.6-5.9
	c-0.8-0.4-3.2-0.1-7.9-1.6c-4.7-1.5-10.5-8-11.6-8.2c-1.1-0.2-2.8,1.7-6.3,4c-3.6,2.3-15.5,5.9-23.8,8c-8.3,2.2-21,4.7-33.1,12.2
	c-12.3,7.6-17.3,23.7-17.2,32.5c0.1,8.9,0.3,16.9,5.6,24.9c5.3,8,11.5,10.6,10.2,11.7c-1.3,1.2-5.6,0.8-13.4-6.6
	C485.5,469.9,481.8,462.1,482.1,445.6z"/>
</svg>