<svg xmlns="http://www.w3.org/2000/svg" xmlns:xlink="http://www.w3.org/1999/xlink" x="0px" y="0px" viewBox="0 0 1024 768" >
<g>
	<path class="layout" data-layout="5" d="M409.9,473.7c-3,1-5.2,3.8-7.7,5.3c0.5,1.3,0.2,0.8,0.8,1.5c1,4,4.9,10.4,9.4,11.4c1.3-1.2,2.2-1.7,4.3-2.3
		c0.1,2.4,0.5,4,3.4,3.1c15-3.7,22.2-19.3,29.9-29.7c3.6-4.9,6.3-12.3,13.7-13.7c1.7,2.2,2.8,2.8,6.8,3.1
		c5.5-4.3,27.6-7.4,29.9-12.2c-2.2-1.1-1,0.2-1.7-2.3c2-0.6,1.4-0.3,2.6-1.5c0.3,0,0.6,0,0.8,0c0,0.5,0,1,0,1.5
		c-1.4,1-0.9,0.5-1.7,2.3c0.6,0,1.1,0,1.7,0c1.3-1.3,0.6-0.8,1.7-0.8c3.8,4.4,14,26.1,5.1,29.7c-3.7,0-7.4,0-11.1,0
		c-1.6-1.3-3.1-1.9-5.1-0.8c-5.5,1.6-6,5.1-9.4,8.4c-0.1,3.5,0.3,6.6,0.8,9.1c7.3,0,10.4,2.3,14.5,3.1c3,0.6,4.8-1.4,8.6-1.5
		c2.2-6.5,8.7-7,12.8-11.4c1.4-1.6,1.5-4.1,3.4-5.3c7.5-4.7,15.6-3.5,16.2-14.5c-2.8-2.6-3.5-6.2-3.4-11.4
		c2.4-2.1,7.4-12.1,11.1-9.9c4.1,2.8,6,8.1,10.3,10.7c2.5,1.5,8.1,1,10.3,2.3c0.9,0.6,1.5,3.1,2.6,3.8c7.1,4.6,16.2,6.8,28.2,6.9
		c1.7,4.7,4.9,5.6,5.1,12.2c-0.6,0.5-1.1,1-1.7,1.5c-0.8-0.7-1.1-1.3-1.7-2.3c-2.6,1.2-8,2.9-9.4,5.3c-2,1.9-3,5.2-3.4,8.4
		c8.1,3.8,8.4,8.4,22.2,8.4c0-0.8,0-1.5,0-2.3c9.1-5.7,4.8-7.5,8.5-14.5c2,0.9,1.9,1.3,5.1,1.5c0.8-1.7,0.7-1.1,1.7-2.3
		c-5-6.6,0.2-21.3-5.1-27.4c-4.2-3.2-13.5-2.5-17.9-5.3c-7.5-4.8-8.9-14.7-12.8-22.8c-2.6-5.2-7.6-9.3-9.4-15.2
		c0.3-0.2,0.6-0.5,0.9-0.8c11,2.4,25.5,6.3,35.9,0c15.1-9.1,7.7-27.6-4.3-34.2c-28.5-15.7-65.1,4.4-96.6-1.5
		c-1.6-2.2-2.3-2.2-2.6-6.1c0.6,0,1.1,0,1.7,0c3,2.5,25.2-1.1,27.3-4.6c-1.5-1.2-1.2-0.7-1.7-3c0.6,0,1.1,0,1.7,0
		c1.8,1.6,3.8,2.6,6.9,3c0-1,0-2,0-3c1.1-0.4,2.6-0.9,3.4-1.5c-5.8-0.1-5-2.6-8.5-3.8c-2.5-0.9-6.4,2.3-8.6-0.7
		c-1.3-0.9-1-1.5-6-1.5c-4.2,2.6-13.8,1.4-19.7,1.5c-4.2,5.1-7,5.2-6.8,15.2c1.7,1.9,1.1,4.5,2.6,6.8c1.8,2.7,9.2,6.7,12.8,7.6
		c3.7,0,7.4,0,11.1,0c18.1,0,33.9-7.2,51.3-3.8c10.8,2.1,23.8,0.2,27.4,8.4c0.7,0.9,0.7,1.3,0.9,3c-1.1,1-1.8,2.4-2.6,3.8
		c-4.5,0.6-10.1,4-16.2,2.3c-1.7-0.5-4.7-2.6-6.8-3.1c-9.4,0-18.8,0-28.2,0c-7.9-1.5-18-2.3-25.7-3.8c-11.2-2.3-24.1,0.9-32.5-0.8
		c-1.1-1.7-1.4-1.7-1.7-4.6c2-1.2,2-1.1,2.6-3.8c-1.3-0.4-1.4-0.5-3.4-0.8c-1.5,1-1.4,1.3-2.6,0.8c-1.5-0.7-2.2-1.4-3.4-2.3
		c0-0.5,0-1,0-1.5c0.3-0.3,0.6-0.5,0.9-0.8c2.6,0.6,3.3,1.5,5.1,0.8c0.7-0.9,0.7-1.3,0.9-3c-2.4-1.4-5-4.2-6-6.9
		c2.6-1.9,5.6-6.1,7.7-8.4c0.3,0,0.6,0,0.9,0c0-1.5,0-3,0-4.6c0.5-0.9,2.7-0.8,3.4-1.5c0.6-1.8,1.1-3.6,1.7-5.3
		c2.7-4,6.9-7,9.4-11.4c4.1,0.1,9.1,0.1,12-0.8c0-0.3,0-0.5,0-0.8c-5.9-4.9-2.1-18.5-12.8-19c-1.6,0.9-6.5,1.2-8.6,1.5
		c-0.5,1.2-0.7,1.8-0.9,3.8c2.8,2.9,4.3,6,4.3,11.4c-0.6,0-1.1,0-1.7,0c0-0.2,0-0.5,0-0.8c-6.3-2.1-8.6-12.2-9.4-19
		c8.3-0.8,16.5-1.5,24.8-2.3c0.3,0.3,0.6,0.5,0.8,0.8c0.4,9,5.4,21.3,12,25.1c0.8,0.2,0.3,0.6,0.8,0c0.7-0.9,0.7-1.3,0.9-3
		c-1.3-1.2-1.3-1.5-1.7-3.8c9.9-1.1,13.1-7.7,23.9-8.4c0,0.5,0,1,0,1.5c-5.3,2.8-17.5,6.6-19.7,12.2c-0.9,1.2-0.9,3.1-0.8,5.3
		c3.6,1.9,6.6,4.2,8.5,7.6c-1.7,0-3.4,0-5.1,0c-2.4-2-6.5-1.6-8.5-3c-3.7-2.7,0.2-6.2-7.7-7.6c0,0.3,0,0.5,0,0.8
		c2.4,2.7,3.6,6.4,6.8,8.4c5.7,3.4,20.2,7.1,29.9,3.8c6.3-2.1,6.6-6.8,9.4-8.4c0.3-0.2,0.6-0.5,0.9-0.7c-0.6,3.4,8.7,9.2,12,12.2
		c6.6,0,13-1.2,18.8-2.3c0-0.8,0-1.5,0-2.3c-9.4-6.6-21.9-17.7-41.9-12.2c-5.5,1.5-8.8,5.8-14.5,6.9c-1.7-1.9-3.2-1.9-4.3-4.6
		c9.8-2.2,13.8-10,24.8-10.7c2.3,3,6.1,3.2,12,3c1.7-1.5,3.7-2,5.1-3.8c-7-4.2-17.4-12.6-30.8-8.4c-6.1,1.9-9.6,6.6-17.1,7.6
		c0-0.5,0-1,0-1.5c1.4-1.4,2-3.1,2.6-5.3c-2-1.2-2.5-2.2-5.1-3c0,0.3,0,0.5,0,0.8c1.4,1.6,1.6,3.2,1.7,6.1c-0.6,0-1.1,0-1.7,0
		c-1.1-1.6-2.2-2.9-4.3-3.8c-0.6,1-0.9,1.6-1.7,2.3c0-2.3,0-4.6,0-6.9c1.7,0.3,3.4,0.5,5.1,0.8c0-0.5,0-1,0-1.5
		c-1.2-1.8-1.2-1.9,0.9-3c2.2,2.1,5.3,5.8,8.5,6.9c1.2-2.3,1.9-3.1,3.4-3c2.1,1.9,1,2.6,5.1,3c1.9-1.7,3.2-1.9,4.3-4.6
		c-8.2-2.8-4.8-4.9-9.4-6.8c-1-0.6-4.1-0.9-5.1-1.5c-0.7-0.8-0.3-0.2-0.8-1.5c3.8-1.6,5.7-3.7,8.5-6.1c-0.3-0.3-0.6-0.5-0.9-0.8
		c-2.5-2.1-3.8-1.1-4.3-5.3c1.7,0,3.4,0,5.1,0c0.3-0.8,0.6-1.5,0.8-2.3c-1-1.4-1.3-5.8-1.7-7.6c-0.3,0-0.6,0-0.9,0
		c-2.1,1.6-5.1,1.9-6.8,3.8c-1.3,1.9-0.3,4.1-2.6,5.3c-1.5-1.3-2.1-1.3-5.1-1.5c-0.2,3.4-0.5,9.2-1.7,12.2c-0.3-0.3-0.6-0.5-0.8-0.8
		c-3.5-2.2-3.5-5.9-8.6-6.8c-2.3,1.1-6.8-1.7-7.7-0.8c-2,0.5-1.9,0.8-3.4,1.5c2.8,6.4,6.5,9.7,12.8,12.9c0,0.3,0,0.5,0,0.8
		c-0.6,0-1.1,0-1.7,0c-1.7,0.9-23.4,2.4-26.5,3c-0.5,1.2-0.7,1.8-0.9,3.8c1.4,3.8,2.9,7.6,4.3,11.4c1.3,1.9,6.3,5.7,6.8,7.6
		c0.4,1.4-0.7,1.2-0.9,1.5c-1.2,4.7-12.3,20.5-17.1,21.3c2.2-6.5-5.8-7.3-8.6-11.4c-1.7-2.6,0.7-7.7-0.9-9.9c-3.9-2.2-5.7-0.3-6-6.1
		c3.1-4,3.5-11.2,3.4-17.5c-3.7,0.6-3.1,1.6-6.8,2.3c-2.8-4.6-8.6-4.6-9.4-10.7c2.9-0.6,3.3-0.7,4.3-3c-4.2-1.2-4.6-4-8.6-5.3
		c-1.6,3.7-5.6,4.1-7.7,7.6c3.2,0.1,3-0.4,4.3,1.5c-1.1,1.3-1.4,3.2-1.7,5.3c-5,0.7-6,3-11.1,3.8c-1.3-1.9-2.4-3-5.1-3.8
		c0,0.3,0,0.5,0,0.8c3.3,4.6,2.5,18.2,2.6,24.4c-1.7,0-3.4,0-5.1,0c0,0.5,0,1,0,1.5c4.1,1.5,3.5,4.4,8.6,5.3
		c2.2-4.7,10.6-0.6,15.4,0c0-0.2,0-0.5,0-0.7c-5-4.8,2.7-11.2,3.4-14.5c-3.7-0.1-6.3-0.8-7.7-3.1c1.5-1,2.4-2.3,3.4-3.8
		c-1.9-0.8-2.4-0.6-3.4-2.3c1.1-1.4,0.9-4.3,0.9-6.9c0.8,0,1.7,0,2.6,0c0,2.3,0,4.6,0,6.9c0.3,0.3,0.6,0.5,0.9,0.8
		c2.5,0,4.7,0,6,0.8c-0.6,0-1.1,0-1.7,0c-0.8,0.6-2.3,1.1-3.4,1.5c-0.3,2.9-0.7,2.8-1.7,4.6c1.1,0,2.3,0,3.4,0
		c1.4-2.2,1.7-3.2,5.1-3.8c-0.2,4.4-1.7,4.1-3.4,6.9c2,0.1,2.4,0.1,3.4,0.8c-2.8,0.8-2.6,1.1-2.6,2.3c0.9,0.5,3.4,1,4.3,1.5
		c0.7,0.8,0.5,0.7,0.9,2.3c-0.6,0-1.2,0-1.7,0c-1.5-1.9-1.6-2-5.2-2.3c-1.5,2.1-2.7,2.2-3.4,5.3c0.7,0.8,0.3,0.2,0.8,1.5
		c1.5,0.5,2.7,0.7,5.1,0.8c1.4-1.1,1.7-1.2,4.3-1.5c0,0.5,0,1,0,1.5c4.2,4.7-4,32.3-6,38.8c-0.3,0-0.6,0-0.9,0
		c-0.1-2.9,0.4-2.7-1.7-3.8c-1.8,2.3-4.7,3.4-8.6,3.8c-2.6-5.1-4.3-12-6.8-17.5c-0.9,0-1.7,0-2.6,0c-0.3,1.6-0.2,1.5-0.8,2.3
		c-0.3-4.3-0.6-8.6-0.8-12.9c2.3,0,4.6,0,6.8,0c2.6,3.7,5.9,7.7,6.8,12.9c-2,1.2-5.1,4.7-4.3,6.1c2,1.4,4.5,2,7.7,2.3
		c0.7-2.2-0.6-2.8,1.7-3.8c0.1,2,0.4,2.6,0.9,3.8c0.6,0,1.1,0,1.7,0c0-0.5,0-1,0-1.5c0.7-0.8,0.5-0.7,0.9-2.3
		c-2.5-1.6-4.5-3.5-5.1-6.8c3.1-2.4,1.8-9.5,5.1-11.4c0,0.8,0,1.5,0,2.3c1.4,0,2.9,0,4.3,0c0-0.5,0-1,0-1.5c0.9-1.2,0.9-3.1,0.8-5.3
		c-0.3-0.3-0.6-0.5-0.8-0.8c-0.9,0-1.7,0-2.6,0c0,1.3,0,2.5,0,3.8c-0.3,0-0.6,0-0.8,0c-1.4-1.8-1.2-1.8-4.3-2.3
		c-0.9,3.3-1.7,6.4-1.7,11.4c-1.1,0-2.3,0-3.4,0c-1.1-1.7-1.4-1.7-1.7-4.6c0.7-1.3,2.2-3.5,2.6-6.8c-4.7-0.1-5.7-1-9.4-1.5
		c0,0.5,0,1,0,1.5c0.6,0.5,1.1,1,1.7,1.5c-0.9,0-1.7,0-2.6,0c-2.3-2-5.9-1.5-6.8-3c2-0.6,1.4-0.3,2.6-1.5c-8.2-1.3-6.1-8.4-13.7-9.9
		c0,0.3,0,0.5,0,0.8c6.7,9.6-6.5,17.7-7.7,23.6c-0.6,2.9,2,4.8,2.6,6.9c-1.3,3.1-6.3,5.3-5.1,10.7c1.2,5.3,5.4,7.8,6,13.7
		c-2.7,2.3-2.8,3.1-8.5,3.1c-1.4-1.2-2.8-1.8-5.1-2.3c0,0.8,0,1.5,0,2.3c2.3,1,6.4,2.5,7.7,4.6c-3.3,2.6-7.4,5.3-7.7,10.6
		c6.9-1.1,7.2-5.8,14.5-6.8c-0.2,1.8-0.2,2.1-0.9,3c-1.9,4.8-7.3,6.1-10.2,9.9c2.6-0.1,3.4-0.4,4.3,0c2.7,2.7,1.8,4.3,7.7,4.6
		c0.3-0.8,0.5-1.5,0.9-2.3c-1.2-0.7-2.5-1.4-3.4-2.3c3,0.3,3.4,0.9,6,1.5c0,0.5,0,1,0,1.5c-2.4,1.5-12.4,9.6-12.8,12.2
		c1.7,0,3.4,0,5.1,0c0,2.3,0,4.6,0,6.9c-8.7,4.4-15.6,9.5-15.4,22.1c2.1,0.9,8.3,6,8.5,9.1c-2.8,2.4-2.9,3.3-2.6,6.9
		c0.3,0.3,0.6,0.5,0.9,0.8c2.4,1,3.7,1.5,7.7,1.5c1.8-6.2,12.5-20.5,17.9-23.6c0,3.8,0,7.6,0,11.4c-3.8,5.2-3.8,13.3-10.3,16
		C419.4,473.5,413.3,472.5,409.9,473.7z M441.5,313.8c0.3,0,0.6,0,0.9,0c1.2,2.2,2.7,2.2,5.1,3c-1,2.2-1.7,1.9-1.7,3.1
		c2,1.4,6.2,1,7.7,3c-3.8-0.2-3.8-0.4-6.8,0c0,0.5,0,1,0,1.5c1.5,0.5,0.8,0.2,1.7,0.8c-1.7,0-3.4,0-5.1,0c-1,0.6-1.4,0.6-3.4,0.8
		c0,1.3,0,2.5,0,3.8c-1.1,0-2.3,0-3.4,0c0.3,2.2,0.9,1.6,0,3c-0.9-0.6-0.2-0.3-1.7-0.7c0-0.5,0-1,0-1.5c1-0.6,7.2-6.7,7.7-7.6
		c-3.1-0.3-2.2,0.4-3.4-1.5c0.9,0,1.7,0,2.6,0c1.3,0.9,0.4,0.5,1.7,0c0.7-0.8,0.3-0.2,0.8-1.5c-2.1-2-3.6-6-5.1-8.4
		c2.5-0.8,2.3-1.1,3.4-3c0.9,0,1.7,0,2.6,0c0.6,2.9,1,2.2,2.6,3.8C444,312.2,442.8,311.9,441.5,313.8z M539.8,281.9
		c0-0.3,0-0.5,0-0.8c1.3-0.9,0.7-0.8,2.6-1.5c0.3,0.8,0.6,1.5,0.9,2.3C542.1,281.9,540.9,281.9,539.8,281.9z M535.5,301.6
		c1.4,0,2.9,0,4.3,0c1.1,0.7,2.1,0.7,4.3,0.8c0,0.5,0,1,0,1.5c-1.1,1-2.3,2-3.4,3c-1.5-0.5-0.8-0.1-1.7-0.8
		C536.8,305,536.3,304.2,535.5,301.6z M532.1,294c0.8-2,0.9-5.3,0.8-8.4c0.6,0,1.1,0,1.7,0c2.5,2.6,6.2,2.5,7.7,6.1
		c-3.1,1.8-3.8,3-9.4,3.1C532.7,294.5,532.4,294.3,532.1,294z M527.8,297.8c0.7-0.8,0.3-0.2,0.8-1.5c0.6,0,1.1,0,1.7,0
		c1,1.6,1.2,1.4,1.7,3.8c-1.6,0.6-2.3,1.1-4.3,1.5C527.8,300.4,527.8,299.1,527.8,297.8z M567.1,317.6c2.6,0.5,5.1,1,7.7,1.5
		c0,0.5,0,1,0,1.5c-0.3,0-0.6,0-0.8,0c-1.1,0.7-2.1,0.7-4.3,0.8c-0.8-0.7-1.5-1-2.6-1.5C567.1,319.2,567.1,318.4,567.1,317.6z
		 M577.4,332.1c0.6-0.3,1.1-0.5,1.7-0.8c0,0.8,0,1.5,0,2.3c4,2.8,8,5.6,12,8.4c-0.3,0.3-0.6,0.5-0.8,0.8c-0.3,0.5-0.6,1-0.9,1.5
		c-0.6,0-1.2,0-1.7,0C583.8,339.6,577.6,340.3,577.4,332.1z M553.5,338.9c0.3,0,0.6,0,0.8,0c2-5.3,8-7.8,16.3-7.6
		c-4,3.6-11,7.7-17.1,9.1C553.5,340,553.5,339.5,553.5,338.9z M562,316.9c-2.5,3.9-7.3,5-12,6.9C552.6,320.3,557.7,318.7,562,316.9z
		 M515,291c-0.9,0-1.7,0-2.6,0c0.7-2.5-0.4-1.2,1.7-2.3C514.4,289.5,514.7,290.2,515,291z M517.5,294.8c0.9-1.1,1.3-3,1.7-4.6
		c0.6,0,1.1,0,1.7,0c0,0.3,0,0.5,0,0.8c1.1,1,2.3,2,3.4,3c0,1.5,0,3,0,4.6C521.1,298.2,518.8,297.1,517.5,294.8z M616.7,460
		c0.9,0,1.7,0,2.6,0c0,1,0,2,0,3.1c-0.9,0-1.7,0-2.6,0C616.7,462,616.7,461,616.7,460z M616.7,455.4c-1.1-1.2-1.9-3.2-2.6-4.6
		c-0.3,0-0.6,0-0.8,0c-0.4,2.8-0.2,2.8-2.6,3.8c-1-2.2-0.1-1.4-2.6-2.3c0,2,0,4.1,0,6.1c-0.3,0.3-0.6,0.5-0.8,0.8c0.8,0,1.7,0,2.6,0
		c0,1.8,0,3.5,0,5.3c-0.3,0-0.6,0-0.9,0c-1.7-1.7-0.3-1.1-2.6,0c0-3.3,0-6.6,0-9.9c0.9-1.2,1.3-3.7,1.7-5.3c0.9,0,1.7,0,2.6,0
		c0.2,1.8,0.4,1.9,0.9,3.1c1.6-1.4,2.7-3.2,4.3-4.6c0,0.2,0,0.5,0,0.7c2,1.6,1.9,4.1,1.7,7.6c-0.3,0-0.6,0-0.9,0
		C616.7,455.9,616.7,455.7,616.7,455.4z M597,475.2c-0.4,1.3-3.3,7.1-4.3,8.4c0-2.3,0-4.6,0-6.8C595,476.1,594.8,475.8,597,475.2z
		 M609,467.6c-0.1,2.9,0.1,5.8,0.9,7.6c0.7-0.8,0.3-0.2,0.9-1.5c2.1-3.1-0.4-10.7,1.7-13.7c1,3.1,1,1,2.6,2.3
		c-4.4,4.2,0.1,5.9,0.9,11.4c-1.1,0-2.3,0-3.4,0c-0.5,7.2-4.8,6-5.1,13.7c-2.8-0.6-1.3,0.4-2.6-1.5c-0.9-1.4,1-5.2,1.7-7.6
		c-1.4,0-2.9,0-4.3,0c-0.3,0.7-0.6,1.5-0.9,2.3c-0.9,1.2-0.8,4.9-1.7,6.1c-0.9-0.6-0.2-0.3-1.7-0.8c0-1.3,0-2.5,0-3.8
		C602.1,477.4,604.8,472.2,609,467.6z M603,453.1c0.6-0.5,1.2-1,1.7-1.5c0,2.5,0,5.1,0,7.6c-0.6,0-1.1,0-1.7,0
		C603,457.2,603,455.1,603,453.1z M600.5,452.4c0.6-0.3,1.1-0.5,1.7-0.8c-0.3,1.5-0.6,3-0.9,4.6c-0.3,0-0.6,0-0.9,0
		C600.5,454.9,600.5,453.6,600.5,452.4z M594.5,449.3c0.6-0.7,1.1-2.4,1.7-3c0.1,2.2,0.3,3.3,0.9,4.6c0.3,0,0.6,0,0.9,0
		c0-1.5,0-3,0-4.6c0.3,0,0.6,0,0.9,0c0.1,3.3,0,7-0.9,9.1c-0.3,0-0.6,0-0.9,0c0-3,0.4-3.4-1.7-4.6c-0.2,1.8-0.2,2.1-0.9,3
		C594.5,452.4,594.5,450.8,594.5,449.3z M591.9,435.6c1.7,3.6,4.5,4.3,5.1,9.1c-0.3,0-0.6,0-0.9,0c-0.7-2.5,0.4-1.2-1.7-2.3
		c0,0.5,0,1,0,1.5c-0.6,0.6-1.1,1.7-1.7,2.3c0.3-2.3,0.6-4.6,0.8-6.8C593,437.4,590.4,438.5,591.9,435.6z M426.9,437.1
		c0.9,0,1.7,0,2.6,0c1,1.7,1.4,1.7,1.7,4.6c-0.6,0-1.2,0-1.7,0c-1-1.2-0.9-0.6-1.7-2.3C427.2,438.6,427.3,438.7,426.9,437.1z
		 M423.5,440.2c0.9,0,1.7,0,2.6,0c0,1.8,0,3.5,0,5.3c-0.3,0-0.6,0-0.9,0c-0.6-0.5-1.1-1-1.7-1.5
		C423.5,442.7,423.5,441.4,423.5,440.2z M411.6,461.5c3.4-3.8,6.2-9.4,8.5-13.7c0.8,0,1.7,0,2.6,0c-1.8,6.5-7.2,10.2-9.4,16
		c-0.6,0-1.2,0-1.7,0C411.6,463,411.6,462.3,411.6,461.5z M417.5,446.3c0-0.5,0-1,0-1.5c1.3-1.2,0.7-1.4,2.6-2.3
		c0.5,1.2,0.6,1.3,0.8,3C419.7,445.9,419.5,446,417.5,446.3z M402.2,449.3c0.8,0,1.7,0,2.6,0c-1.3,1.4-0.8,1.1-3.4,1.5
		c0-0.3,0-0.5,0-0.8C401.6,449.8,401.9,449.6,402.2,449.3z M428.6,407.5c-2,3.8-4.9,9-10.2,9.9c0-0.2,0-0.5,0-0.8
		C422.6,413.9,423.3,409.1,428.6,407.5z M420.1,421.1c-0.6,1.8-0.2,3.5-0.9,4.6c-0.8,0.7-1.5,1-2.6,1.5c0-0.5,0-1,0-1.5
		C418.1,424,417.8,422.3,420.1,421.1z M425.2,418.1c0-0.8,0-1.5,0-2.3c3.3-1.8,5.6-3.8,6-8.4c-4.2-3.2-3.4-13.1-6-17.5
		c2-1.3,2.6-3,4.3-4.6c0,11.5,5.9,25.7,2.6,32.7c-0.3-0.3-0.6-0.5-0.9-0.8c-1.7-2,1.2-2.2-3.4-3c-0.6,1.3-1.1,2.5-1.7,3.8
		C425.8,418.1,425.5,418.1,425.2,418.1z M426.1,422.7c0.9,0,1.7,0,2.6,0c0,0.5,0,1,0,1.5c-0.6,0.5-1.1,1-1.7,1.5c-0.6,0-1.1,0-1.7,0
		c0-0.5,0-1,0-1.5C425.9,423.4,425.5,424,426.1,422.7z M437.2,416.6c1.6,0.7,0.6,0.4,2.6,0c-0.7,3.3-1.8,5.8-5.1,6.9
		c-1,0.6-1.5,0.6-3.4,0.8c0-0.3,0-0.5,0-0.8C435.3,421.5,434.7,419.8,437.2,416.6z M424.4,379.3c0.8,0,1.7,0,2.6,0
		c1.3,1.9,2,1.7,2.6,4.6c-0.3,0-0.6,0-0.9,0c-1.9-1.6-0.2-0.8-2.6-0.8C425.7,380.7,425.3,380.9,424.4,379.3z M424.4,402.1
		c-0.1,2-0.4,2.6-0.9,3.8c-0.3,0-0.6,0-0.9,0c0-0.8,0-1.5,0-2.3C423.2,403.1,423.8,402.6,424.4,402.1z M425.2,370.9
		c0.6,0,1.1,0,1.7,0c2.8,4.2,9,7.6,9.4,12.2c-0.3,0-0.5,0-0.8,0c-3-4-7.7-6.1-9.4-11.4C425.8,371.4,425.5,371.2,425.2,370.9z
		 M422.7,393c0.5,1.3,0.8,2.4,0.9,4.6c-2.6,3-1.9,5.6-7.7,6.1c0-0.2,0-0.5,0-0.8C419.1,400.4,419.3,395.4,422.7,393z M413.3,391.5
		c0.5-0.5,1.1-1,1.7-1.5c0.9,0,1.7,0,2.6,0c0,2.3,0.3,2.2-4.3,2.3C413.3,392,413.3,391.7,413.3,391.5z M421,382.3
		c0.4,1.7,0.8,0.8,0,2.3c-1.6,2-2,2.2-6,2.3c0-0.3,0-0.5,0-0.8C418.5,385.3,418.6,383.9,421,382.3z M415.8,364.1
		c1.2,4.7,3.7,7.5,4.3,12.9c-0.3,0.3-0.6,0.5-0.9,0.8c-0.6-0.3-1.1-0.5-1.7-0.8C415.3,373.8,412.5,368,415.8,364.1z M429.5,343.5
		c-3.5,3.3-1.7,6.5-7.7,9.1c1.1-2.3,2.3-4.6,3.4-6.9c-1.1,0-2.3,0-3.4,0c-0.6,2.5-1.1,3.6-3.4,4.6c0-0.2,0-0.5,0-0.8
		c1.7-2.4,2.6-6,4.3-8.4c1.8,0.9,1.6,1.1,4.3,1.5c-0.4-2.4-0.7-2.2-1.7-3.8c2-0.4,2.7-0.9,4.3-1.5
		C429.5,339.5,429.5,341.5,429.5,343.5z M432.9,350.4c-0.6,0.8-1.1,3.1-1.7,3.8c0-0.3,0-0.5,0-0.8c-0.8-1.1-0.8-2.5-0.9-4.6
		C433.1,349.5,431.7,348.5,432.9,350.4z M437.2,372.4c-1.5,0.7-1.4,1-3.4,1.5c0-0.3,0-0.5,0-0.8c-6.2-3.5-9.7-11.2-7.7-19.8
		c0.9,0,1.7,0,2.6,0c-0.3,4.7-1.6,5.8-0.8,9.9c0.8,0,1.7,0,2.6,0c0-0.3,0-0.5,0-0.8c-0.7-0.8-0.5-0.7-0.9-2.3c3,0.3,3.4,0.9,6,1.5
		c0,1,0,2,0,3c-1.4,0.4-2.1,0.6-4.3,0.8c0.6,3.5,2,4.1,6,4.6C437.2,370.9,437.2,371.7,437.2,372.4z M444.9,379.3
		c-0.4,1.7-3.2,10.7-4.3,12.2c-0.1-2.9,0.4-2.7-1.7-3.8c-0.7,5.9,1.1,14.7-0.9,19.8c-0.3-0.3-0.6-0.5-0.8-0.8c-3.3-3.3-4-11-5.1-16
		C438.5,387.9,438,381.3,444.9,379.3z M449.2,390c-1.5,3.9-2.3,9.9-3.4,13.7c-0.3-0.2-0.6-0.5-0.8-0.8c-1-1.3-0.9-3.7-0.9-6.1
		C446.1,394.3,445.7,391.4,449.2,390z M445.7,386.9c1-1,1.6-2.7,2.6-3.8c1.1,2.6,1.7,3.3-2.6,4.6
		C445.7,387.4,445.7,387.2,445.7,386.9z M449.2,378.5c-0.1,0.8-1.6-2.1-1.7-2.3c0.6,0,1.1,0,1.7,0
		C449.1,377.2,450.8,377.7,449.2,378.5z M468.8,375.5c-5,9.9-12.6,17.3-17.9,26.6c-0.3,0-0.6,0-0.9,0c0-1.8,0-3.5,0-5.3
		c4.8-4.4,11.9-10,13.7-16.8c-0.6,0-1.1,0-1.7,0c-2.5,4.2-4.5,8.3-12,8.4c0-0.2,0-0.5,0-0.8C456.2,384,461.2,377.7,468.8,375.5z
		 M474,358c0.1,2.3,0.7,2.1,0,3c0-0.3,0-0.5,0-0.8c-2.8-2.7-1.1-8-3.4-11.4c-1.1,1.2-0.5,0.8-2.6,1.5c0-0.5,0-1,0-1.5
		c0.3-0.3,0.6-0.5,0.9-0.8c1.4,0,2.8,0,4.3,0c7.8,10,4.9,13.9-0.8,23.6c-2-1.5-3-2.1-3.4-5.3c0.8-0.5,1.7-1,2.6-1.5c0,0.5,0,1,0,1.5
		c-0.6,0.8-0.5,0.7-0.9,2.3c0.6,0,1.1,0,1.7,0c2-3.1,3.9-5.1,4.3-9.9c-0.3-0.2-0.6-0.5-0.9-0.8C475.1,358,474.5,358,474,358z
		 M461.1,372.4c1.4-1,2.7-1.2,5.1-1.5c0,0.7,0,1.5,0,2.3c-3.4,2-5.6,4.2-10.3,5.3c0-0.3,0-0.5,0-0.8
		C458,375.9,458.7,373.9,461.1,372.4z M466.3,358.7c-2.7-1.8-2.4-3-1.7-6.1c0.9,0,1.7,0,2.6,0c0.8,6,3.1,14-4.3,15.2
		c0.3-3.7,1.5-4.1,2.6-6.9c-1.5-0.5-0.8-0.1-1.7-0.8C464.8,359.8,465.5,359.4,466.3,358.7z M455.1,295.6c-1.4,0-2.8,0-4.3,0
		c0-0.8,0-1.5,0-2.3c1.4,0,2.8,0,4.3,0C455.1,294,455.1,294.8,455.1,295.6z M456,301.6c-0.3,0-0.6,0-0.8,0c-1.1,1.9,0.4,0.5-1.7,1.5
		c0-0.3,0-0.5,0-0.8c-0.7-0.9-0.7-1.3-0.8-3c0.6,0,1.1,0,1.7,0C455.3,300.5,455.2,300,456,301.6z M462,309.3c-2.6,0-5.1,0-7.7,0
		c0.2-2,0.4-2.6,0.9-3.8c2.6,0.8,3.7,0.3,6.8,0C462,306.7,462,308,462,309.3z M464.5,313.8c-1.1,0-2.3,0-3.4,0
		c-0.3-0.3-0.6-0.5-0.9-0.8c0-0.3,0-0.5,0-0.8c1.4,0,2.8,0,4.3,0C464.5,312.8,464.5,313.3,464.5,313.8z M464.5,323.7
		c-0.7-0.5-2.7-1-3.4-1.5c3-0.3,2.1,0.4,3.4-1.5c2-2.4,2-6.9,4.3-9.1C469.2,317.6,469.5,322.2,464.5,323.7z M473.1,338.9
		c-1.2,0.7-2.4,1.4-3.4,2.3c-1.5-0.5-0.8-0.1-1.7-0.8c-1.6-1.9-1.7-4.9-1.7-8.4c0.6-0.5,1.1-1,1.7-1.5c0.9,0,1.7,0,2.6,0
		c1.1,1.8,1.5,2.2,1.7,5.3C472.9,336.8,472.9,337.2,473.1,338.9z M480.8,345.8c-0.6,0-1.1,0-1.7,0c-1.9-1.5-4.6-1.7-6-3.8
		c1.2,0,2.3,0,3.4,0C477.9,343.3,479.4,344.5,480.8,345.8z M485.1,354.9c-1.5,0.7-1.5,0.9-3.4,1.5c0-1.3,0-2.5,0-3.8
		c1.1,0,2.3,0,3.4,0C485.1,353.4,485.1,354.2,485.1,354.9z M462,394.5c-4.7,6.6-9,16.2-16.2,20.6c16.3-26,34.5-50.7,52.2-76.1
		c4.9-7,11.4-12.3,15.4-20.6c-0.6,0-1.1,0-1.7,0c-1,2.4-0.3,1.7-3.4,2.3c-0.3-0.8-0.6-1.5-0.8-2.3c-1.4-1.6-1.6-3.2-1.7-6.1
		c2.1-0.7,5.3-0.8,8.6-0.8c1,1.6,1.2,1.4,1.7,3.8c-2.6,0.9-1.9,0.3-2.6,3c2.5,0.6,2.3,0.3,3.4,2.3c-7.6,4.8-10.8,13.8-16.3,20.5
		C487,357.9,474.4,377.2,462,394.5z M483.4,371.7c0-0.5,0-1,0-1.5c2-1.9,2.3-4.1,5.1-5.3c0,0.3,0,0.5,0,0.8c0.7,0.8,0.5,0.7,0.9,2.3
		C485.5,368.6,485.9,370.1,483.4,371.7z M488.5,377.8c-0.8,0-1.7,0-2.6,0c-1.4-1.1-1.7-1.2-4.3-1.5c-1,2.6-2.7,3.3-5.1,4.6
		c1.6-3.3,3.6-6.5,6.8-8.4C484.8,375.4,487.1,374.8,488.5,377.8z M493.6,384.6c-0.3,0-0.6,0-0.9,0c-1.1,0.7-2.1,0.7-4.3,0.8
		c-2-1.3-6.3-1-8.5-2.3c1.4-0.5,2.9-1,4.3-1.5C486.7,383.1,491.3,383,493.6,384.6z M511.6,358c0-1,0-2,0-3c2.3,0,3.9,0,5.1,0.7
		c2.6,0.8,2.5,0.7,3.4,3c0.3,0.3,0.6,0.5,0.8,0.8c-0.3,0-0.6,0-0.8,0C518.2,357.9,515.6,357.9,511.6,358z M612.4,374
		c-0.3,0.2-0.6,0.5-0.9,0.8c-1.4,0.9-0.4,0.5-1.7,0c-3-0.9-3-2.8-5.1-3.8c-4.3-0.5-8.6-1-12.8-1.5c-2.1-0.6-4.3-2.3-6.9-3
		c-0.3,0.8-0.6,1.5-0.8,2.3c-15.9-6.2-40.1,11.2-63.3,5.3c-7.9-2-10.5-6.2-15.4-10.7c-0.1-4.8,0.8-7.5,1.7-10.7
		c4.5-2,7.2-3.7,14.5-3.8c0,2.2-0.8,1.1,0,2.3c1.7,1.7,3.9,1.6,7.7,1.5c2.3-1.6,5.4-2.2,9.4-2.3c0,0.5,0,1,0,1.5
		c-4.3-0.1-6.7,0.3-8.5,2.3c-0.3,0-0.6,0-0.9,0c0.3,0.3,0.6,0.5,0.9,0.8c2.4,1.6,2.1-0.8,3.4,1.5c-1.8,1.2-1.6,1.4-5.1,1.5
		c-4.4-2.8-11.3-5.2-18-5.3c-0.3,0.8-0.6,1.5-0.8,2.3c-1.8,2.4-0.7,8.1,0,10.6c3,1.7,6.5,4.3,10.3,5.3c13.2,3.5,43.2-2.8,55.6-5.3
		c2.9-0.6,9.2-2.1,12.8-1.5C601.6,366.3,603.9,368.9,612.4,374z M616.7,393c0.3-0.3,0.6-0.5,0.9-0.8c0.5,1.2,0.6,1.3,0.8,3
		c-0.3,0.3-0.6,0.5-0.8,0.8c-0.3,0-0.6,0-0.9,0c0-0.8,0-1.5,0-2.3C616.5,393,616,393.5,616.7,393z M577.4,397.6
		c-3.4-1.8-6.9-4.9-10.3-6.9c0-0.3,0-0.5,0-0.8c13.3-1.1,39.1,8.9,46.2-3.1c1.9,0.9,1.9,1.2,5.1,1.5c0-0.5,0-1,0-1.5
		c-1.3-1.8-0.4-5.6-1.7-7.6c-1-1.5-3.1-1.2-4.3-3c0.6-0.5,1.1-1,1.7-1.5c0.3,0.3,0.6,0.5,0.9,0.8c4.3,3,5.3,9,5.1,16
		c-0.3,0-0.6,0-0.9,0c-1.9-1.1-4.1-0.6-6,0c0.5,2.1,1.3,3.5,0,5.3c-1.8-1.3-12,1.8-18,3.8c-0.7-2.5,0.4-1.2-1.7-2.3
		c-1.1,1.7-2.2,1.6-4.3,2.3c0-0.8,0-1.5,0-2.3c-2.9,0.4-2.7,0.8-5.1,1.5c0-0.8,0-1.5,0-2.3C583.5,397,579.3,398.6,577.4,397.6z
		 M579.1,409.7c-0.1,2.6-0.4,3.9-1.7,5.3c0-1.5,0-3,0-4.6C578,410.2,578.5,410,579.1,409.7z M583.4,418.9c-0.1,1.9-0.1,2.8-0.9,3.8
		C582.6,420.7,582.6,419.8,583.4,418.9z M582.5,440.2c0.6-0.3,1.1-0.5,1.7-0.8c0.3,3.2,0.6,7.1-1.7,9.9
		C582.5,446.3,582.5,443.2,582.5,440.2z M580.8,432.6c-1-0.6-1.4-0.6-3.4-0.8c0-1.8,0-3.6,0-5.3c1.4,0,2.9,0,4.3,0
		c0.3,1.3,0.6,2.5,0.9,3.8c1.5,0.5,2.7,0.7,5.1,0.8c0.2-1.8,0.2-2.2,0.9-3.1c0.1,3.4,0.7,9.3-0.9,11.4c0-3.4,0-4.2-2.6-5.3
		c-0.8-0.2-0.3-0.6-0.8,0c-0.6,0.5-1.1,1-1.7,1.5C582.2,432.9,582.9,433.7,580.8,432.6z M577.4,435.6c0.9-0.5,1.7-1,2.6-1.5
		c0,6.1,0,12.2,0,18.3c-0.3,0-0.6,0-0.9,0c0-0.3,0-0.5,0-0.8C576.6,448.3,577.3,441,577.4,435.6z M567.1,427.2
		c0.3-0.3,0.6-0.5,0.9-0.8c0,0.5,0,1,0,1.5c-1.6,1.2-1.2,0.7-1.7,3.1c1.8,0.3,1.6,0.2,2.6,0.8c0.7,0.9,0.7,1.3,0.9,3
		c-1.6,2.1-0.6,6.1,0,8.4c-1.1,0.3-2.3,0.5-3.4,0.8C565.8,440.3,562.4,429.7,567.1,427.2z M559.4,427.2c-0.3-0.3-0.6-0.5-0.9-0.8
		c1.4,0,2.9,0,4.3,0c-1.3,3.9,0.7,9.4-0.8,13.7c-0.6-0.3-1.2-0.5-1.7-0.8C559.2,436.5,559.4,431.3,559.4,427.2z M553.5,428
		c0.8-0.2,1.7-0.5,2.6-0.8c0.8,4,1.9,7,0,11.4c-0.6,0-1.1,0-1.7,0C555,433.9,554,432.4,553.5,428z M547.5,428.8
		c0.6-0.3,1.2-0.5,1.7-0.8c0,1,0,2,0,3.1c-0.6,0-1.1,0-1.7,0C547.5,430.3,547.5,429.5,547.5,428.8z M535.5,432.6
		c-3.6-2.4-8.2-2.2-9.4-6.9c0.3-0.3,0.6-0.5,0.8-0.8c1.4,0,2.9,0,4.3,0c1.6,1.4,3.6,2.4,6,3.1c0,0.3,0,0.5,0,0.8c-0.8,0-1.7,0-2.6,0
		c-1.7-1.6-2.5-2-6-2.3c0,0.3,0,0.5,0,0.8c0.3,0.3,0.6,0.5,0.9,0.8c2.3,1,4.6,2,6.8,3.1c0,0.5,0,1,0,1.5
		C536.1,432.6,535.8,432.6,535.5,432.6z M530.4,423.4c0-0.5,0-1,0-1.5c0.6-0.2,1.1-0.5,1.7-0.8c0.3,0.8,0.6,1.5,0.8,2.3
		C532.1,423.4,531.2,423.4,530.4,423.4z M520.1,416.6c0.6,0,1.1,0,1.7,0c2.2,3.3,2,2.5,0.8,6.9c-1.5,0.7-1.4,1-3.4,1.5c0-1,0-2,0-3
		C520.2,420.7,520.1,418.8,520.1,416.6z M523.5,428c1.2,1,1.5,1,3.4,1.5c0,0.5,0,1,0,1.5c-0.8,0-1.7,0-2.6,0
		c-0.8-1.3-1.1-1.3-1.7-3.1C523,428,523.3,428,523.5,428z M523.5,437.9c0.9,0.6,0.2,0.3,1.7,0.8c0,0.5,0,1,0,1.5c-0.9,0-1.7,0-2.6,0
		C523,438.6,522.9,438.7,523.5,437.9z M533.8,440.2c-1.1,0-2.3,0-3.4,0c-1.1-0.8-3-1.7-4.3-2.3c0-0.3,0-0.5,0-0.8
		c3.3-0.6,2.4-0.9,4.3-2.3c0.7,0.5,1.9,1,2.6,1.5c-0.3,0-0.6,0-0.8,0c-0.7,0.5-2.7,1-3.4,1.5c0.3,0,0.6,0,0.9,0
		c0.9,0.6,3.2,1.1,4.3,1.5C533.8,439.7,533.8,439.9,533.8,440.2z M530.4,434.1c0.3-1.6,0.2-1.5,0.9-2.3c1.2,1,2.7,1.6,4.3,2.3
		c0,0.5,0,1,0,1.5c-0.3,0-0.6,0-0.9,0C533.3,434.5,532.9,434.4,530.4,434.1z M532.9,456.9c0.8,0,1.7,0,2.6,0c0,1,0,2,0,3
		c-0.9,0-1.7,0-2.6,0C532.9,459,532.9,458,532.9,456.9z M498.7,482.1c0.9-0.3,1.7-0.5,2.6-0.8c0,2.7-1.2,1.4-2.6,3.8
		C498.7,484.1,498.7,483.1,498.7,482.1z M496.2,473.7c-1.1,0-2.3,0-3.4,0c-1.3,2.2-2.9,6-5.1,7.6c-0.3,0.3-0.6,0.5-0.9,0.8
		c0-1.3,0-2.5,0-3.8c2-1.6,2.9-3.1,3.4-6.1c3.2-0.5,2.8-1,6-1.5C496.2,471.6,496.2,472.7,496.2,473.7z M510.7,435.6
		c1.4,0,2.8,0,4.3,0c0.7-2.5-0.4-1.2,1.7-2.3c0.6,0.5,1.1,1,1.7,1.5c0,0.2,0,0.5,0,0.7c-4,1-3.7,3-3.4,7.6c4.4,0.7,6.5,1.6,6.8,6.1
		c-0.3,0-0.6,0-0.9,0c-0.4-0.9-1-3.6-1.7-1.5c-1.1,1.2-0.6,0.4,0,1.5c0.9,2.4,2.1,2.8,3.4,4.6c1.8-0.8,1.6-1.1,4.3-1.5
		c0,0.5,0,1,0,1.5c-2,0.2-2.4,0.2-3.4,0.8c2.6,1.6,4.7,4.7,6.8,6.8c-0.3,0-0.6,0-0.9,0c-1,1.6-2.4,3.7-4.3,4.6
		c-1.4-1.6-2.4-2.3-4.3-1.5c-1.3,1.9-0.3,4.1-2.6,5.3c-1,0.6-1.4,0.6-3.4,0.8c0,0.8,0,1.5,0,2.3c-2.6,0.8-5.1,1.5-7.7,2.3
		c0.8,3,1,1.6,0.8,4.6c-1.9,0.8-2.4,1.2-5.1,1.5c0-0.5,0-1,0-1.5c1.7-1.1,1.8-1,2.6-3c-1.8-0.9-1.6-1.1-4.3-1.5
		c-1.7,2-4.8,4.4-7.7,5.3c0-1,0-2,0-3c0.7-0.8,0.3-0.2,0.8-1.5c3.7-1.5,7-2.3,12.8-2.3c3.5-5.1,11.2-7.4,12-14.5
		C513.7,454.9,507,443.2,510.7,435.6z M513.3,424.2c0-0.5,0-1,0-1.5c2.7-0.5,1.8-0.5,3.4-1.5c-0.3,1.6-0.2,1.5-0.9,2.3
		C514.9,424,515,423.9,513.3,424.2z M515,427.2c0.7,1.1,2.4,0.6,0.8,1.5c-0.9,0.6-0.2,0.3-1.7,0.8
		C514.5,427.9,514.3,428.1,515,427.2z M514.1,417.3c0.2-2.2,0.6-3.3,1.7-4.6c0.7,0.5,1.9,1,2.6,1.5
		C515.7,415.3,516.5,416.2,514.1,417.3z M509,431.1c0.3,0,0.6,0,0.9,0c0.9-0.6,0.2-0.3,1.7-0.8c0,0.8,0,1.5,0,2.3
		c-0.6,0-1.1,0-1.7,0c-0.3,0.2-0.6,0.5-0.9,0.7C509,432.6,509,431.8,509,431.1z M511.6,416.6c0,2,0,4.1,0,6.1
		c-2.1,0.6-2.8,2.4-3.4,1.5C507.4,421.9,508.9,418.2,511.6,416.6z M498.7,433.3c1.2-1.2,1.8-2.9,2.6-4.6c0.6,0,1.1,0,1.7,0
		c0,0.8,0,1.5,0,2.3c-2.2,1.1-1.3,0.3-1.7,3C499.5,433.8,499.7,433.9,498.7,433.3z M495.3,424.2c0.6-0.3,1.1-0.5,1.7-0.8
		c1,1.7,1.4,1.7,1.7,4.6c-3.1,1.2-1.7,2.4-3.4,4.6C495.3,429.8,495.3,427,495.3,424.2z M497.9,419.6c-0.3,0-0.6,0-0.9,0c0-1,0-2,0-3
		c0.6,0,1.1,0,1.7,0C498.5,418.4,498.4,418.5,497.9,419.6z M493.6,424.2c-0.6,0-1.1,0-1.7,0c-0.9-0.6-0.2-0.3-1.7-0.8
		c0-1.8,0-3.6,0-5.3c1.8,0.3,1.6,0.2,2.6,0.8C493.7,420,493.6,422,493.6,424.2z M490.2,438.7c0.9,0,1.7,0,2.6,0
		c-0.7,2.5,0.4,1.2-1.7,2.3c0-0.2,0-0.5,0-0.8C490.4,439.4,490.7,440,490.2,438.7z M488.5,435.6c0.7-1.8,1.3-4,2.6-5.3
		C490.9,433.5,490.5,434.2,488.5,435.6z M481.7,443.2c1.6-1.2,1.2-0.7,1.7-3c0.8,0,1.7,0,2.6,0c0.6,0.5,1.1,1,1.7,1.5
		c0,0.2,0,0.5,0,0.8c-2.8,0.6-3.4,1.5-6,2.3C481.7,444.3,481.7,443.7,481.7,443.2z M483.4,425c0-0.8,0-1.5,0-2.3
		c1.1-0.8,2.3-1.5,3.4-2.3c0,1,0,2,0,3c-0.9,0.3-1.7,0.5-2.6,0.8C483.9,424.5,483.6,424.7,483.4,425z M484.2,427.2
		c0.6,0,1.1,0,1.7,0c0.1,4-0.5,6-1.7,8.4c-0.3,0-0.6,0-0.8,0c0-1.8,0-3.5,0-5.3C484,429.4,484,429,484.2,427.2z M483.4,408.2
		c-0.9,0-1.7,0-2.6,0c-0.9,0.6-0.2,0.3-1.7,0.8c-0.7,2.1-0.5,5-2.6,6.1c-1.2-1.7-1.3-2.6-1.7-6.1c-3.2-0.4-4.2-0.7-6.8,0
		c0.3,0.3,0.6,0.5,0.9,0.8c1.5,1.3,2.4,1.1,3.4,3.1c-2,1-1.6,0.9-1.7,1.5c2.2,2.5,5.7,2.6,8.5,4.6c-0.9,2,1.2,3.4,1.7,6.9
		c-0.6,0-1.1,0-1.7,0c-1.2-1.5-1.1-1.6-3.4-2.3c-0.2,4.6-1.4,4.8-6.8,4.6c0-2.9,1-3.1-3.4-3.8c-0.9,0.6-0.8,0.4-2.6,0.8
		c-1.4-2-2.1-3.2-5.1-3.8c-0.3-1.6-0.2-1.5-0.9-2.3c-1.1-0.7-2.1-0.7-4.3-0.8c-1.2,1.1-2.8,2.2-4.3,3c0-0.5,0-1,0-1.5
		c7.8-5.8,9.1-18.8,18.8-22.8c0.9,2.6,1,2.5,4.3,3c1.1-0.7,2.1-0.7,4.3-0.8c0.3-2,0.6-4.1,0.9-6.1c-3.2,0.7-2.4,1.4-5.1,2.3
		c-1.3-1.1-1.6-0.6-2.6-2.3c3.6-0.3,3.1,0.1,4.3-2.3c-0.3-0.3-0.6-0.5-0.8-0.8c-0.9,0.2-1.7,0.5-2.6,0.8c0.9-1.5,1.7-3.1,2.6-4.6
		c0.6,0,1.1,0,1.7,0c0.1,3.2,0.7,4.1,1.7,6.1c1.5-0.5,0.8-0.1,1.7-0.8c0.6-0.8,1.1-3,1.7-3.8c0,0.3,0,0.5,0,0.8
		c0.7,0.7,1.2,2.1,1.7,3c0.9,0,1.7,0,2.6,0c-0.3-1.8-0.4-1.9-0.9-3c0.6,0,1.1,0,1.7,0c7.6,4.2,20-2.7,27.4-3
		c15-0.8,21.7,4.3,32.5,6.1c1.1-1,2.3-2,3.4-3c0.6,3.6,1.7,4.3,6,4.6c0-1,0-2,0-3c2.6,0.2,5.1,0.5,7.7,0.8c0,0.5,0,1,0,1.5
		c-1.4,1-1,0.5-1.7,2.3c0.6,0,1.1,0,1.7,0c1.5-1.6,2.5-1.5,6-1.5c0.3,0.8,0.6,1.5,0.9,2.3c1.2,1.8,0.2,4.1,0.9,6.1
		c2.5,0,1.2-0.7,2.6,0c-1.9,2.1-3,5.9-3.4,9.1c0.6,0,1.1,0,1.7,0c0-0.2,0-0.5,0-0.8c0.6-0.6,1.1-1.7,1.7-2.3
		c0,8.8,4.8,11.8,6.8,18.3c-7.9,1-2.5,12.9-6,17.5c-0.1-9.1-1.2-14.5,0.8-19.8c-1.5-0.5-2.7-0.7-5.1-0.8c0,1,0,2,0,3
		c-0.6,0-1.1,0-1.7,0c0-0.3,0-0.5,0-0.8c-0.7-1-1.2-4.1-1.7-5.3c-0.9-0.3-1.7-0.5-2.6-0.8c1,2.7,0.4,3.7-0.9,6.1c-0.6,0-1.1,0-1.7,0
		c0-2.3,0-4.6,0-6.8c-1.1,0-2.3,0-3.4,0c0,0.5,0,1,0,1.5c1,1.3,0.9,3.7,0.9,6.1c-0.6,0-1.1,0-1.7,0c0-0.3,0-0.5,0-0.8
		c-2.1-2.8-0.3-7.7,0-11.4c-1.8,0.3-1.7,0.2-2.6,0.8c-1,1.4-0.7,5.5-1.7,6.9c0-0.3,0-0.5,0-0.7c-1.9-2.5-0.4-6.9,0-9.9
		c-1.4,0-2.8,0-4.3,0c0.3,4.8,0.6,9.6,0.8,14.5c-0.3,0-0.6,0-0.8,0c0-0.5,0-1,0-1.5c-2.2-3.2,0.1-13.9-3.4-16c0,0.5,0,1,0,1.5
		c-3,3.8-1.5,7.7,0,9.9c-0.9,0-1.7,0-2.6,0c-1.1-1.6-1.8-1.8-2.5-3.8c-2.6-2.9-1.2-6.5-0.9-10.7c-1.1,0-2.3,0-3.4,0
		c-0.4,3.3-2.5,12.2-2.5,12.2c0.8,0.6,2.3,1.1,3.4,1.5c0,0.5,0,1,0,1.5c-0.6,0-1.1,0-1.7,0c-1.9-1.1-2.8-0.4-5.1,0c0-2,0-4.1,0-6.1
		c0.7-0.8,0.3-0.2,0.8-1.5c0.3-0.3,0.6-0.5,0.9-0.8c0.9,0,1.7,0,2.6,0c0.1-4-0.5-6-1.7-8.4c-0.6,0.3-1.1,0.5-1.7,0.8
		c-1.1,2.8-1.4,9-3.4,11.4c-1.7-2.1-2.3-1.5-2.6-5.3c1.3-0.6,2.5-1.4,3.4-2.3c-0.7-0.8-0.3-0.2-0.9-1.5c-1.6-1-0.7-1-3.4-1.5
		c-0.4,2.6-1.5,5.2-2.6,7.6c-2.4-0.9-3.2-1.7-6-2.3c-0.2,1.8-0.2,2.1-0.9,3.1c0-1,0-2,0-3.1c1.4-1.3,2-2.5,2.6-4.6
		c-0.9,0-1.7,0-2.6,0c-1.7,7.1-5.6,13.1-8.5,19.8c-0.6,0-1.1,0-1.7,0c0-2,0-4.1,0-6.1c1.9-2.1,4.8-5.4,6-7.6c-2.3-0.8-1.5-1-4.3-1.5
		c-0.9,2-1.7,4.1-2.6,6.1c-0.7-0.8-0.3-0.2-0.9-1.5c-1.5-0.5-0.8-0.1-1.7-0.8c0.9-2.3,1.7-4.6,2.6-6.8c-0.6,0-1.1,0-1.7,0
		c-1.4,1.5-2.6,0.3-4.3,1.5c-1.6,1.1-1.1,4.9-2.6,6.1c-0.6,0-1.1,0-1.7,0c-0.9-1-3.1,2.5-6,3c-1-0.6-1.5-0.6-3.4-0.8
		C481.5,412.6,482,410.4,483.4,408.2z M472.2,429.5c-0.7,2.5,0.4,1.2-1.7,2.3c0-0.3,0-0.5,0-0.8c-0.7-0.8-0.3-0.2-0.9-1.5
		C470.5,429.5,471.4,429.5,472.2,429.5z M474,437.1c0.7-0.9,0.7-1.3,0.9-3.1c0.9,0,1.7,0,2.6,0c-0.4-4.1-0.7-4.6,0.9-7.6
		c0.9,0.3,1.7,0.5,2.6,0.8c-2.6,2.9-2.2,8.2-3.4,12.9c-0.3,0-0.6,0-0.8,0c-0.9-0.6-0.2-0.3-1.7-0.8
		C474.5,438.7,474.2,437.9,474,437.1z M471.4,447.8c0-2.1,0-3.5,0.9-4.6C472.2,445.3,472.2,446.7,471.4,447.8z M450,440.9
		c-0.4-2.2-0.6-4.3-2.6-5.3c-1.6,1.3-2.7,1.4-6,1.5c0,1.3,0,2.5,0,3.8c-0.6,0-1.1,0-1.7,0c-0.1-0.2-10-6.5-12-6.9
		c-1.8,1.8-4.4,5-6.9,6.1c0-0.3,0-0.5,0-0.8c-0.6-0.8-0.5-0.7-0.8-2.3c-1.8,0.3-1.6,0.2-2.6,0.8c-1.6,1.7-1.2,4.9-3.4,6.1
		c-0.9-0.6-0.2-0.3-1.7-0.8c0,1.5,0,3,0,4.6c-0.9,0-1.7,0-2.6,0c0-2.5,0-5.1,0-7.6c1.8-0.3,1.6-0.2,2.6-0.8c1.3-1.1,2.5-2.5,3.4-3.8
		c-1.1,0-2.3,0-3.4,0c-1.3,1.4-0.8,1.1-3.4,1.5c0,1,0,2,0,3c-1.9,0.3-0.9-0.8-1.7,0.8c1.1,1.5,0.7,9.5-0.8,11.4
		c-0.6-4.9-2.5-7.2,0-11.4c-2.1-1-0.6,0.3-1.7-1.5c2.6-1.4,2.7-4.6,5.1-6.1c10-6.1,20.5-4.4,34.2-7.6c1.2-0.3,8.9-3.2,9.4-3
		c1.6,0.5,5,4,6.8,4.6c3.5,1.1,5.1-2.5,7.7,0.8c-2.8,3.7,1.6,6.3,4.3,7.6c-1.2,2.4-3.6,4.9-6,3.8c-1.8-1.4-1-1.7-4.3-2.3
		c0,2.9,0.4,4.8,0.9,6.8c0.6,0,1.1,0,1.7,0c1.1,0.7,2.1,0.7,4.3,0.8c-0.3,1.6-0.2,1.5-0.9,2.3c-0.9,0.6-0.8,0.5-2.6,0.8
		c-2.7-3-3.2-5.9-9.4-6.1C454.7,440.2,453.6,441.2,450,440.9z M468,442.5c0,0.2,0,0.5,0,0.8c-0.3-0.3-0.6-0.5-0.8-0.8
		c-0.5-0.5-1.2,0-0.9-1.5c0.3,0,0.6,0,0.9,0C467.9,442.1,469.6,441.5,468,442.5z M455.1,449.3c-0.9,0-1.7,0-2.6,0c0-0.8,0-1.5,0-2.3
		c-2.3-1-4.1-1.5-5.1-3.8c0.6,0,1.1,0,1.7,0C452.4,445.4,454.6,444.3,455.1,449.3z M447.5,449.3c0,0.3,0,0.5,0,0.8
		c-0.6,0-1.1,0-1.7,0c-0.3-0.5-0.6-1-0.8-1.5c0.3,0,0.6,0,0.8,0C446.6,449.2,446,448.8,447.5,449.3z M445.7,458.5c0.9,0,1.7,0,2.6,0
		c0-0.3,0-0.5,0-0.8c0.3-1.4-0.5-1.2,2.6-1.5c0.2-1.8,0.4-1.9,0.8-3c0.6,0,1.1,0,1.7,0c0,0.8,0,1.5,0,2.3c-3.3,1-4.6,2.8-5.1,6.1
		c-0.9,0-1.7,0-2.6,0C445.7,460.5,445.7,459.5,445.7,458.5z M437.2,470.6c0.8,0,1.7,0,2.6,0c0,1,0,2,0,3.1c-0.9,0-1.7,0-2.6,0
		C437.2,472.7,437.2,471.6,437.2,470.6z M421.8,481.3c4.2-1.2,5.1-2.9,11.1-3c0,0.5,0,1,0,1.5c-3.6,3-6.7,6-11.1,8.4
		C421.8,485.9,421.8,483.6,421.8,481.3z M415,482.8c1.9-1.7,3-3.8,3.4-6.8c3.6-0.3,6.9-1,7.7-2.3c3.7-3.6,6.9-11.8,8.6-16.8
		c1.3-3.9-0.5-9.8,1.7-12.9c1.2-0.7,2.8-0.8,5.1-0.8c1.9,1.3,3.9,1,5.1,3c-1.9-0.3-0.9-0.7-2.6,0c-1.7,1.3,0.6,0.9-1.7,1.5
		c-1.6,0.2-1.1-0.5-1.7,1.5c2.6,1,4.5,1.9,6,3.8c-1.4,0-2.8,0-4.3,0c-1.7-1.4-3-1.9-6-2.3c0,0.3,0,0.5,0,0.8c1.6,1,2.6,2,3.4,3.8
		c-2.9,0.8-2.8,0.9-3.4,3.8c1.5,1.4,1.6,0.6,0.9,2.3c-0.8,2.2-2.7,3.1-3.4,4.6c-1.1,2.4,0.6,4.5,0,5.3c-0.7,0.5-1.9,1-2.6,1.5
		c1.4,1.1,0.9,0.5,0.9,1.5c-1.8,2.7-4.4,2.5-9.4,2.3c-0.3,0.3-0.6,0.5-0.8,0.8c-1.8,3.5-3.4,7.6-5.1,11.4c-0.3-0.3-0.6-0.5-0.9-0.8
		C414.9,487,414.9,485,415,482.8z M408.1,476.7c3.9-0.3,3.7-1.1,7.7-1.5c0,1,0,2,0,3.1c-1.7,0-3.4,0-5.1,0c-0.7,1.4-1.5,3.4-2.6,4.6
		c0-0.5,0-1,0-1.5c-0.6-0.5-1.1-1-1.7-1.5C408,478.6,407.6,479.1,408.1,476.7z"/>
	<path class="layout" data-layout="5" d="M514.1,334.4c-0.3-0.3-0.6-0.5-0.9-0.8c1.4-0.4,2-0.6,4.3-0.8c1.4,0.9,4.2,0.8,6.8,0.8C522.3,336.1,517,336.9,514.1,334.4z
		"/>
	<path class="layout" data-layout="5" d="M525.2,397.6c-0.8,2-1.5,2.2-2.6,3.8c-1.9-0.9-1.7-1.3-2.5-3c2.1-1.9,2.8-5.1,5.1-6.9C525.6,393.6,523.8,395.3,525.2,397.6
		z"/>
	<path class="layout" data-layout="5" d="M481.7,402.1c0,0.3,0,0.5,0,0.8c-2-0.8-2.4-1.5-3.4-3c-0.3-0.5-0.1-2.9,0-5.3c1.1,0,2.3,0,3.4,0c-0.2,1.8-0.2,2.1-0.9,3
		c1.3,1.9,0.4,1.2,3.4,1.5C483.5,401.3,483.9,401.2,481.7,402.1z"/>
	<path class="layout" data-layout="5" d="M566.3,395.3c-0.5,1.7-0.6,2-1.7,3.1c0,0.3,0,0.5,0,0.8c-0.6,0-1.2,0-1.7,0c0.2-1.8,0.2-2.1,0.9-3
		C564.6,395.5,564.5,395.6,566.3,395.3z"/>
	<path class="layout" data-layout="5" d="M541.5,400.6c0,1,0,2,0,3c-1.7,0-3.4,0-5.1,0c0.1-2.2,0.3-3.2,0.8-4.6C540,399.6,539.2,399.8,541.5,400.6z"/>
	<path class="layout" data-layout="5" d="M472.2,407.5c-4.1-0.7-4.9-3-6.8-5.3c-0.9,1.2-1.4,4.5-1.7,6.1c-1.4-0.3-2.9-0.5-4.3-0.8c1.1-3.4,3.2-4.2,4.3-7.6
		c1.4,0,2.8,0,4.3,0c2.2,2.4,2,1.1,1.7,4.6c1.7,0.2,3.4,0.5,5.1,0.8C473.8,406.9,473.6,406.3,472.2,407.5z"/>
	<path class="layout" data-layout="5" d="M492.8,402.9c-0.5,2.4-0.2,1.9-1.7,3.1c-1.4,2.4-0.6,0.9-3.4,0.8c-0.6,1.3-0.2,0.7-0.9,1.5c0.9,0.6,0.8,0.5,2.6,0.8
		c0,0.5,0,1,0,1.5c-1,0.9-1.8,1.9-2.6,3c-0.6,0-1.1,0-1.7,0c-0.1-2.5-0.2-5.5,0.8-6.8C486.8,405.4,490.2,403.6,492.8,402.9z"/>
	<path class="layout" data-layout="5" d="M481.7,403.6c-0.8,2.9-1.9,4.7-4.3,6.1c0,0.3,0,0.5,0,0.8c-0.6,0-1.1,0-1.7,0c0.5-2.7,1.7-4.4,3.4-6.1
		C480,403.8,479.9,403.9,481.7,403.6z"/>
	<path class="layout" data-layout="5" d="M509.9,408.2c-3.9-0.1-4.7-0.5-6.8-1.5c0-0.5,0-1,0-1.5c2.3,0.3,4.6,0.5,6.8,0.8C509.9,406.7,509.9,407.5,509.9,408.2z"/>
	<path class="layout" data-layout="5" d="M473.1,417.3c1.5,3.2-0.1,2.9,3.4,3.1c-0.3,0.7-0.6,1.5-0.9,2.3c-2.6-0.3-2.9-0.4-4.3-1.5c-0.5-0.7-0.1-1.4,0-3.8
		C472,417.3,472.5,417.3,473.1,417.3z"/>
	<path class="layout" data-layout="5" d="M450,431.8c1.3-0.4,1.4-0.5,3.4-0.8c0-1.5,0-3.1,0-4.6c2.7,0.4,2.5,0.7,4.3,1.5c-1.5,2.4-2.4,6.2-2.6,9.9
		c-2-0.6-1.9-0.8-3.4-1.5C451.2,434.9,450.6,433.3,450,431.8z"/>
	<path class="layout" data-layout="5" d="M462.8,428.8c0.9,0,1.7,0,2.6,0c-0.6,1.3-0.2,0.7-0.9,1.5c0,1.3,0,2.5,0,3.8c-0.6,0-1.1,0-1.7,0c-0.3-0.2-0.6-0.5-0.9-0.8
		c0.2-1.8,0.2-2.1,0.9-3C462.8,429.8,462.8,429.3,462.8,428.8z"/>
</g>
</svg>