<svg xmlns="http://www.w3.org/2000/svg" xmlns:xlink="http://www.w3.org/1999/xlink" x="0px" y="0px" viewBox="0 0 1024 768" >
<g>
	<g>
		<path class="layout" data-layout="5" d="M453.4,336.1c1.9,0,3.4-1.6,3.3-3.6c-0.1-2-1.8-3.6-3.7-3.6c-1.9,0-3.4,1.6-3.3,3.6C449.8,334.5,451.4,336.1,453.4,336.1z
			"/>
		<path class="layout" data-layout="5" d="M480.2,335.9c1.9,0,3.5-1.6,3.4-3.6c-0.1-2-1.7-3.6-3.6-3.6c-1.9,0-3.5,1.6-3.4,3.6C476.7,334.3,478.3,335.9,480.2,335.9z
			"/>
		<path class="layout" data-layout="5" d="M490.1,307.8c-3.3,2.6-7.2,8.5-8.4,7.7c-9-6.4-17.2-4.9-20-4.6c-7.4,0.9-8.4,4.5-10,2.9c-11.3-11.3-27.9-12.2-28.8-9.3
			c-0.9,2.9,1.7,9.8,5.4,13c5,4.3,2.8,8.5,4.7,11.6c1.8,3.1,4.5,2.2,1.9,3.6c-11.8,6.3-3.2,11.5-3.8,13.7c-0.6,2.2-2.9,0.5-3.9,5.1
			c-1,4.5,3.7,6.1,2.7,7.5c-0.3,0.4-0.5,0.8-0.8,1.2c-1.8,1.1-3.8,1.7-5.6,2.3c1.4,1,2.8,1.7,4.2,2.2c-0.3,2.2-0.3,4.4-0.5,6.3
			c-0.5,3.6-6.4,5.3-10.5,10.2c-2.3,2.8-1.1,10-6,9.8c-8.9-0.5-4.9-5.2-3.7-11.3c0.8-4.3-1.4-5.6-2-9c-1.6-8.8,1.5-5.7,2.3-7.8
			c0.8-2.1-1.6-2.8-3.6-2.1c-3,1.1-6.8,9.7-7.7,4.2c-1.2-7.1,2.2-3.4,2.2-8.7c0-5.3-7.1-15.6-8.5-14c-1.4,1.6,1.6,6.8,0.2,10.8
			c-0.3,0.7-1,1.7-1.8,2.7c-0.6-0.8-1.3-1.6-1.8-2.4c-1-1.5-1.8-3.4-1.6-5.1c-0.4,2.1-0.9,4.3-1.3,6.4c-0.1,0.5-0.2,1.1-0.1,1.6
			c0.1,0.9,0.8,1.7,1.2,2.5c0.2,0.4,0.3,0.8,0.4,1.3c-1.2,2.1-2.1,4.3-1.4,6.8c0.2,0.9,0.4,1.7,0.5,2.5c-0.2-0.1-0.4-0.3-0.6-0.4
			c-1.1-0.8-2.3-1.6-3.1-2.8c-0.9-1.3-1.2-2.8-1.4-4.3c-0.1-0.8-0.3-1.7-0.4-2.5c-0.4,1.6-0.7,3.3-0.9,5c-0.1,1.5-0.1,3.2,0.9,4.6
			c0.6,0.7,1.3,1.3,2,1.9c1.2,1.1,2.1,2.4,2.5,3.8c0.2,0.6,0.2,1.2,0.3,1.9c-1.1,3.6-3.1,5.2-2.9,3.1c0.6-6.2-3.2-6.6-3.8-5.6
			c-0.6,1,1,5.4,0.1,6.6c-4.8,7.1-4.5,17.4-1.2,21.3c6.3,7.3,11.7,10.6,9.8,25.1c-3.8,29.6,11.8,32.1,24,33c12.2,0.9,7,3.2,13.2,4.5
			c7.5,1.5,3.2-1.7,5.3-1.5c0.9,0.1,1.7,0.1,2.3,0.1c0.6,0.2,1.1,0.4,1.7,0.6c0.2,0.1,2.7,1,3.3,1.2c0.1-1-0.2-0.7,0-2
			c0.3,0,0.7,0,1,0c0.3,0,0.5,0,0.8,0.1c0.3,0.1,1.9,0.6,2.5,1.2c0.2-2-0.5-3.2-1.3-5.2c0.2,0,0.5,0,0.7,0.1
			c0.3,0.1,0.5,0.3,0.7,0.5c0.5,0.5,1.1,1,1.6,1.6c0.2-2.2,0.2-4.8-1.4-6.5c-1.3-0.2-1.6,0.3-2.4,0.5c-1.9-3-8.6-4.2-8.6-4.2
			c5.1-11.5-0.1-15.2-0.1-15.2c26.8,4.5,31.9-4.3,31.9-4.3c1.2,14,3.9,20.5,7.3,25.1c3.7,5.1,14.8,5.4,16.4,4.3
			c2.5-1.7-3.3-4.1-2.1-4.3c1.2-0.2,7.4,1.4,6.2-1.5c-1.5-3.6,1.9-1,2.6-2.7c0.7-1.8-4.1-4.2-7.4-6.7c-3.3-2.5-5.5-12.3-0.1-20.4
			c12.8-19.4,13.1-48.5,13.1-48.5c12.4-4.2,5-16.2,3.2-17.5c-1.9-1.3,3.6-5.8,2-10.1c-1.6-4.3-1.1-6-0.1-8.1c3.2-6.7-1.4-9.1-2-11.1
			c-0.6-2-0.5-7.1,1.3-8.3c8.9-6.3,7.9-16.9,7.9-16.9C503.3,301.5,494.1,304.6,490.1,307.8z M482.9,324c3.8,0,7,3.2,7.1,7.2
			c0.1,3.9-2.9,7.1-6.7,7.1s-6.9-3.1-7.1-7.1C476,327.2,479,324,482.9,324z M474.5,339.5c1.8,0.2,2.7,3.4,0.4,3.8
			c-1.8,0.4-4.3,1.3-4.5,0.3C469.8,341.1,472.3,339.3,474.5,339.5z M460.3,339.5c2.2-0.2,4.8,1.7,4.4,4.3c-0.2,0.9-2.7,0-4.6-0.4
			C457.8,342.8,458.5,339.7,460.3,339.5z M450.8,324c3.8,0,7.1,3.2,7.3,7.2c0.2,3.9-2.7,7.1-6.5,7.1c-3.8,0-7-3.1-7.3-7.1
			C444,327.2,447,324,450.8,324z M492.6,354.3c-0.6,3.5-10.2,6.7-9.2,1.8c0,0-3-0.9-4.1,1.7c-0.5,1.1-2.8,0.8-3.2,0.5
			c-0.4-0.3-0.3-2-1-2.3c-0.4-0.2-6.8-0.2-8-0.2v0c0,0,0,0-0.1,0c-0.1,0-0.1,0-0.1,0v0c-1.2,0-7.6,0-8,0.2c-0.6,0.3-0.3,2-0.8,2.3
			c-0.4,0.3-2.7,0.6-3.3-0.5c-1.3-2.6-4.2-1.7-4.2-1.7c1.4,4.8-8.4,1.6-9.3-1.8c-0.9-3.5,4.4-5.4,4.8-3.2c0.9,4.9,4.2,4.1,4.2,4.1
			c0-5.4,3.4-4.5,3.8-4.5s7.2,2.1,7.2,2.1l5.5,0.1l6.1-0.1c0,0,5.9-2.1,6.3-2.1c0.4,0,3.8-0.8,4.2,4.5c0,0,3.4,0.8,3.9-4.1
			C487.7,349,493.2,350.9,492.6,354.3z"/>
	</g>
	<g>
		<path class="layout" data-layout="5" d="M570.6,336.1c-1.9,0-3.4-1.6-3.3-3.6c0.1-2,1.8-3.6,3.7-3.6c1.9,0,3.4,1.6,3.3,3.6C574.2,334.5,572.6,336.1,570.6,336.1z"
			/>
		<path class="layout" data-layout="5" d="M543.8,335.9c-1.9,0-3.5-1.6-3.4-3.6c0.1-2,1.7-3.6,3.6-3.6c1.9,0,3.5,1.6,3.4,3.6C547.3,334.3,545.7,335.9,543.8,335.9z"
			/>
		<path class="layout" data-layout="5" d="M515.2,304.7c0,0-1,10.6,7.9,16.9c1.7,1.2,1.8,6.3,1.3,8.3c-0.6,2-5.2,4.4-2,11.1c1,2.2,1.6,3.8-0.1,8.1
			c-1.6,4.3,3.9,8.8,2,10.1c-1.9,1.3-9.2,13.3,3.2,17.5c0,0,0.3,29.1,13.1,48.5c5.4,8.1,3.2,17.9-0.1,20.4c-3.3,2.5-8.1,5-7.4,6.7
			c0.7,1.7,4.1-0.9,2.6,2.7c-1.2,2.9,5,1.3,6.2,1.5c1.2,0.2-4.7,2.6-2.1,4.3c1.6,1.1,12.8,0.8,16.4-4.3c3.4-4.6,6.1-11.2,7.3-25.1
			c0,0,5.1,8.8,31.9,4.3c0,0-5.2,3.6-0.1,15.2c0,0-6.7,1.3-8.6,4.2c-0.8-0.2-1.1-0.7-2.4-0.5c-1.6,1.7-1.6,4.4-1.4,6.5
			c0.5-0.5,1.1-1,1.6-1.6c0.2-0.2,0.4-0.4,0.7-0.5c0.2-0.1,0.4-0.1,0.7-0.1c-0.9,2-1.6,3.2-1.3,5.2c0.5-0.5,2.2-1.1,2.5-1.2
			c0.2-0.1,0.5-0.1,0.8-0.1c0.3,0,0.7,0,1,0c0.2,1.3-0.2,1,0,2c0.6-0.2,3.1-1.1,3.3-1.2c0.6-0.2,1.1-0.4,1.7-0.6
			c0.6,0,1.4-0.1,2.3-0.1c2.1-0.2-2.2,3,5.3,1.5c6.3-1.3,1.1-3.6,13.2-4.5c12.2-0.9,27.8-3.4,24-33c-1.9-14.5,3.6-17.7,9.8-25.1
			c3.3-3.9,3.6-14.2-1.2-21.3c-0.9-1.3,0.7-5.6,0.1-6.6c-0.6-1-4.4-0.6-3.8,5.6c0.2,2.1-1.8,0.5-2.9-3.1c0.1-0.6,0.1-1.3,0.3-1.9
			c0.4-1.5,1.3-2.8,2.5-3.8c0.7-0.6,1.5-1.2,2-1.9c1-1.3,1-3,0.9-4.6c-0.1-1.7-0.4-3.4-0.9-5c-0.1,0.8-0.3,1.7-0.4,2.5
			c-0.2,1.5-0.5,3-1.4,4.3c-0.8,1.1-2,1.9-3.1,2.8c-0.2,0.1-0.4,0.3-0.6,0.4c0.1-0.8,0.3-1.6,0.5-2.5c0.6-2.4-0.2-4.7-1.4-6.8
			c0.1-0.4,0.2-0.8,0.4-1.3c0.4-0.8,1-1.6,1.2-2.5c0.1-0.6,0-1.1-0.1-1.6c-0.4-2.1-0.9-4.3-1.3-6.4c0.3,1.7-0.5,3.6-1.6,5.1
			c-0.6,0.8-1.2,1.6-1.8,2.4c-0.9-1.1-1.6-2-1.8-2.7c-1.4-4,1.6-9.2,0.2-10.8c-1.4-1.6-8.4,8.7-8.5,14c0,5.3,3.4,1.6,2.2,8.7
			c-0.9,5.5-4.6-3.1-7.7-4.2c-2-0.7-4.5,0-3.6,2.1c0.8,2.1,3.9-1,2.3,7.8c-0.6,3.3-2.8,4.6-2,9c1.2,6.1,5.2,10.8-3.7,11.3
			c-4.9,0.2-3.7-7-6-9.8c-4.1-5-10-6.6-10.5-10.2c-0.3-1.9-0.2-4.1-0.5-6.3c1.4-0.5,2.9-1.2,4.2-2.2c-1.9-0.6-3.9-1.2-5.6-2.3
			c-0.2-0.4-0.5-0.8-0.8-1.2c-1-1.3,3.7-2.9,2.7-7.5c-1-4.6-3.2-3-3.9-5.1c-0.6-2.2,8-7.4-3.8-13.7c-2.6-1.4,0-0.6,1.9-3.6
			c1.9-3.1-0.3-7.3,4.7-11.6c3.7-3.2,6.3-10.1,5.4-13c-0.9-2.9-17.5-2.1-28.8,9.3c-1.6,1.6-2.6-2-10-2.9c-2.7-0.3-11-1.7-20,4.6
			c-1.2,0.8-5.1-5.1-8.4-7.7C529.9,304.6,520.7,301.5,515.2,304.7z M547.8,331.2c-0.1,3.9-3.3,7.1-7.1,7.1s-6.8-3.1-6.7-7.1
			c0.1-3.9,3.2-7.2,7.1-7.2C545,324,548,327.2,547.8,331.2z M553.6,343.7c-0.2,0.9-2.7,0-4.5-0.3c-2.2-0.4-1.3-3.6,0.4-3.8
			C551.7,339.3,554.2,341.1,553.6,343.7z M564,343.3c-1.8,0.4-4.4,1.4-4.6,0.4c-0.4-2.6,2.1-4.5,4.4-4.3
			C565.5,339.7,566.2,342.8,564,343.3z M579.7,331.2c-0.2,3.9-3.5,7.1-7.3,7.1c-3.8,0-6.7-3.1-6.5-7.1c0.2-3.9,3.5-7.2,7.3-7.2
			C577,324,580,327.2,579.7,331.2z M536.5,351.1c0.5,4.9,3.9,4.1,3.9,4.1c0.4-5.4,3.8-4.5,4.2-4.5c0.4,0,6.3,2.1,6.3,2.1l6.1,0.1
			l5.5-0.1c0,0,6.8-2.1,7.2-2.1c0.4,0,3.9-0.8,3.8,4.5c0,0,3.3,0.8,4.2-4.1c0.4-2.2,5.7-0.3,4.8,3.2c-0.9,3.5-10.7,6.7-9.3,1.8
			c0,0-2.9-0.9-4.2,1.7c-0.6,1.1-2.9,0.8-3.3,0.5c-0.4-0.3-0.2-2-0.8-2.3c-0.4-0.2-6.7-0.2-8-0.2v0c0,0,0,0-0.1,0s-0.1,0-0.1,0v0
			c-1.2,0-7.6,0-8,0.2c-0.6,0.3-0.5,2-1,2.3c-0.4,0.3-2.7,0.6-3.2-0.5c-1.1-2.6-4.1-1.7-4.1-1.7c1,4.8-8.6,1.6-9.2-1.8
			C530.8,350.9,536.3,349,536.5,351.1z"/>
	</g>
</g>
</svg>