<svg xmlns="http://www.w3.org/2000/svg" xmlns:xlink="http://www.w3.org/1999/xlink" x="0px" y="0px" viewBox="0 0 1024 768" >
<path class="layout" data-layout="5" d="M569.4,246.4c0,0-0.4,4.5-1.7,4.2c-1.2-0.3-2.9-2-6.3-3c-3.3-1-5.7-0.1-6.4-1.2c-0.8-1.1-1.1-2.6-0.5-3.5
	c0.6-1,1.2-1.7,1.2-2.2c0-0.4-4.8-1-7,2c-2.2,3-1.6,5.8-2.5,6.1c-1,0.3-8.5-9.7-17.7-9.6c-9.1,0.2-12.9,0.8-16.4-0.8
	c-3.5-1.6-5-2.1-5.5-1.3c-0.4,0.8,2.8,6.2,1.8,6.9c-1,0.7-3.8,1.4-7.2,1.8c-3.4,0.4-4.7,0.4-4.9,1.1c-0.2,0.7,1.5,3,6.5,3.3
	c5,0.3,5.8,0.2,5.8,0.7c0,0.6-10.4,4.7-13.9,8.7c-3.5,4-4.7,6.2-7.5,8.5c-2.7,2.4-4.2,2.6-4.1,3.6c0.2,1,3.8,0.8,7.4-1.2
	c3.6-2,6.2-4.7,7.1-4c0.9,0.7-2.7,5.7-8,10.5c-5.3,4.8-9.7,6.5-9.6,7.4c0.1,0.9,4.3,2,10.2-1.4c6-3.3,11.1-9.5,14.1-10.2
	c2.9-0.7,4.9,0.1,4.8,1c-0.1,0.9-5.3,0.7-12.1,7.7c-6.8,7-7.7,11.3-14.6,18.8c-6.8,7.5-10.5,9.8-9.1,12.5c1.4,2.7,8.6,0.7,13.7-3
	c5.1-3.7,14.3-14.6,15.8-13.3c1.5,1.4-2.1,6.1-8.4,12.1c-6.2,6-13.3,7.9-13.4,9.5c0,1.6,5.4,0.4,8.9-0.6c3.6-1,7.8-1.9,7.8-1
	c0,0.9-6.5,7.2-5.8,8.8c0.7,1.6,9.3-2.3,10-1.6c0.8,0.8-3.3,6.2-4.6,10.1c-1.3,3.8-0.5,6.9-5.4,12.5c-5,5.5-11.3,10.5-19.2,13.9
	c-7.9,3.4-18.8,7-26.6,16.9c-7.7,9.8-7.5,19-7.5,22c-0.1,3-0.4,6.8-6.4,13.6c-5.9,6.7-7.8,8.9-15.8,8.3c-8-0.6-10.9-2.1-15.4-7.7
	c-4.4-5.6-4.4-9-5.5-8.8c-1.1,0.2-0.6,6.6-1.5,6.6c-0.9,0-11-10.1-11.7-24.7c-0.7-14.5,4.9-23.3,4.3-25.3c-0.5-2-5.8,3.9-8.8,8.7
	c-3,4.8-3.2,9.2-4.6,9c-1.5-0.2-2.4-5.6-2.6-9.3c-0.2-3.8,0.2-5.3-0.2-5.6c-0.4-0.2-2.7,4.2-0.6,24.4c2.1,20.2,7.9,34.3,9.3,38.7
	c1.5,4.4,2.8,7.1,4.1,6.8c1.3-0.3,2.6,0.9,5.8,3.7c3.3,2.8,6.4,4.5,14.7,5.3c8.3,0.8,11.1-1.7,12-1.5c0.9,0.2,1.3,1.4,3.6,1.8
	c2.4,0.4,8.2-2.9,11.6-6c3.4-3.1,9.2-11.3,10.1-10.7c0.9,0.6,2.9,4.2,4.3,6c1.4,1.8,2.5,5-1.8,9.9c-4.3,4.8-7.8,8.7-10,10.8
	c-2.2,2-4,3.6-4.2,6.8c-0.2,3.2,4.7,8.1,9.2,17.9c4.5,9.8,5.9,12.6,6.1,18.9c0.2,6.2,0.6,12.5,2.9,13.2c2.3,0.7,5-2.8,6.4-1.4
	c1.4,1.4-0.9,3.1-0.8,4.1c0.1,1,15.6,8.4,16.8,7.5c1.2-0.9-8.5-13.5-9.9-17.3c-1.4-3.7-0.3-3.7-4.8-10.7c-4.5-7-10.8-20.7-10.6-24.7
	c0.2-4,2.5-5.7,6.3-7.7c3.8-2,7.5-5.4,10.1-8c2.7-2.6,3.2-3.7,6.4-1.1c3.3,2.6,6.8,8.2,6.5,15.4c-0.4,7.2-0.7,11.2-1.8,13.3
	c-1,2.2-2.7,3.9,3.8,10.4c6.5,6.5,15.7,15.6,18.6,21.9c3,6.4,6,12.3,8.3,11.9c2.2-0.4,4.6-2.3,5.1-1.8c0.5,0.5-1.8,7.6,1.3,8.6
	c3.1,1,16.1,1.3,16.5,0.1c0.4-1.3-11.5-11.7-13.6-14.7c-2.1-3-2-5.2-8.6-10c-6.6-4.8-8.7-8.3-13.3-14.8c-4.6-6.4-4.8-10.9-3.3-15.1
	c1.4-4.3,5.5-24.8,6.9-37.9c1.4-13.2-1.6-20.9,2.4-21.7c4-0.8,18.4-3.6,33.4-12.2c15.2-8.7,19.7-19.5,21.9-22.3
	c2.2-2.8,9.6-4.2,19.1-3.2c9.6,1,18.3,3.5,17.6,7.1c-0.7,3.6-6.8,14.8-9.8,15.5c-2.9,0.7-5.9-1.4-7.4,0.7c-1.5,2.2-0.1,6.9-1.4,7.2
	c-1.3,0.3-4.9-3.8-7.9-2.2c-3.1,1.6-7.9,11.2-5.9,13.8c1.9,2.7,12.1,0.3,14.8-1.1c2.6-1.4,3.3-1.9,6.5-2.1c3.1-0.1,7.2,0.8,10.7-5.1
	c3.5-5.9,3.5-11,6.8-16.1c3.3-5.1,8.5-11.1,8.4-15.7c0-4.7-6.2-9.8-13-12.8c-6.8-3-9.5-3.4-9.5-5c0.1-1.5,8.4-13.4,16.9-12.3
	c8.6,1.1,17.9,11.7,19.8,14.1c1.9,2.4,7.6,10.5,9.8,10.4c2.2-0.1,4.1-2.8,5.5-1.8c1.4,1,0.7,6.8,4.4,10.4c3.7,3.7,15.7,2.3,16.8,0.8
	c1.1-1.4,0.2-5.5-5.6-10.3c-5.7-4.7-9.4-7.7-12.8-11.9c-3.4-4.1-7-6.2-10.4-7.2c-3.3-0.9-9.3-4.7-15.6-10.4
	c-6.3-5.7-10.3-11.1-15.7-11c-5.3,0.1-11.7,5.8-17.3,8.9c-5.5,3.1-6.7,2.9-8.7-0.6c-1.9-3.5-6.3-9.8-8.4-11.7
	c-2.1-1.9-3.4-4.9-3.4-9.5c0-4.6-1.4-10.2-3.5-14.3c-2.1-4.2-4.3-8.9-3.7-9.2c0.6-0.3,8.3,8.4,9.8,10.1c1.5,1.8-0.2,4.8,3.6,7.8
	c3.8,3,6.8,3.3,7.6,2.5c0.8-0.8,0.8-2.3-0.5-3.9c-1.2-1.6-1.7-2.4-0.9-3.4c0.8-1,3.9,1.5,5.8,3.9c1.9,2.4,5.7,4,8.5,1.2
	c2.8-2.8,2.2-2.4,4.5-5.3c2.3-2.9,1.3-7.1-2.2-11.2c-3.5-4-4.6-5.8-5.3-9.3c-0.7-3.5-6.3-11.1-5.9-12.9c0.4-1.8,1.3-4.5,0.6-7.2
	c-0.7-2.7-3.4-5.4-1.8-6.7c1.6-1.3,5.1-7.3,5.1-9.5C578.2,251.4,569.5,245.8,569.4,246.4z"/>
</svg>