<svg xmlns="http://www.w3.org/2000/svg" xmlns:xlink="http://www.w3.org/1999/xlink" x="0px" y="0px" viewBox="0 0 1024 768" >
<path class="layout" data-layout="5" d="M652.1,380.2c-20.8-7.6-44.9-22.5-63.8-37.1c-18.6-14.4-28.1-16-29.3-16.4c-1.2-0.4-3.3-4.1,5.7-0.6
	c9,3.5,26.5,16,31.9,19.9c5.4,3.9,37.8,27.1,54,29.8c17.2,2.9,24.6-3.7,28.5-7.6c0.4-0.4-13.8,0.1-22.6-2.8
	c-19.2-6.3-29.4-13.1-37.6-17.7c-12.2-6.8-46-27.8-52.2-29.1c-3.4-0.7-18.6-5.5-27.1,0.5c-8.5,6-7.5,13.5-0.9,13.1
	c1.7-0.1,7.9-5.3,8.5,2.5c0.6,8.1-4.5,11.8-11.4,12.2c-2.7,0.2-8.4-1-11.2-4.9c-1.2-1.7-7-10-8.3-12.8c-0.8-1.8-0.9-5.7-0.9-5.7
	s1.4,1.2,5.1,2.5s3.6-0.9,2.7-1c-0.9-0.2-4.7-2.1-4.5-3.9c0.1-1.8,8.8-4.3,10.3-3.8c1.5,0.6-0.1,6.5-0.1,6.5c1.4-1,4-4.4,3.7-8.9
	c-0.3-4.4-5.2-4.8-7.8-4.8c-0.7-3.3-4.7-4.8-7.5-4.1c-10.8,2.8-17.6-1.1-18.6-1.1c-1.1,0,7.3,6.4,7.7,6.6c0.4,0.3-3.4,1.2-6.8,9.7
	c-0.6,1.6-2.3,7-3,10.6c-0.9,4.6-0.5,8.5-0.5,9.8c0.2,4.8-5.3,5.2-8,5c-6.9-0.4-12-4.1-11.4-12.2c0.6-7.8,6.8-2.6,8.5-2.5
	c6.6,0.4,7.6-7.1-0.9-13.1c-8.5-6-23.7-1.2-27.1-0.5c-6.1,1.3-40,22.3-52.2,29.1c-8.2,4.6-18.4,11.4-37.6,17.7
	c-8.8,2.9-23,2.4-22.6,2.8c3.9,3.9,11.3,10.5,28.5,7.6c16.2-2.7,48.6-25.9,54-29.8c5.4-3.9,22.9-16.4,31.9-19.9
	c9-3.5,6.9,0.2,5.7,0.6c-1.2,0.4-10.7,2-29.3,16.4c-18.9,14.6-43,29.5-63.8,37.1c-7.6,2.8-19.6,2.6-19,3.5s3.1,7.2,19.2,5.4
	c25.6-2.8,56.2-30.9,58.9-33.2c2.7-2.3,25.9-20,31.2-22.6c4.6-2.2,4.2,0.7,1.2,1.9c-2.3,0.9-7.3,3.7-16.6,11.2
	c-10.8,8.7-28,24.8-51.8,38.3c-7.5,4.3-27.2,11.6-26.8,11.9c0.4,0.3,7.4,2,17.3,0.8s22.9-10.7,27-13.2c4.1-2.5,28.8-23.9,41.9-35.2
	c13.1-11.3,14.8-7.9,12.8-7c-5.9,2.8-37.6,31-46.4,39.4c-8.8,8.4-27.1,17.7-25.9,17.7c11.6,0,21.7-3.7,29.5-9.3
	c7.8-5.6,31.8-32.7,38.7-39.1s8.2-3,6.6-1.9c-4.3,3-10.9,9.9-15.5,14.5c-6.6,6.7-29.9,30.1-28.7,29.8c19.6-4.2,33.4-28,40-34.5
	c4.1-4.1,8-7.7,8.6-6.5c0.8,1.7-10.3,13.4-12.9,16.5c-2.3,2.8-17.6,18.9-17,18.8c14.9-3.1,25.7-20.8,28.3-23.7
	c3.1-3.4,7.2-10.3,7.5-7.5c0.3,2.8-17.1,22.2-15.9,22.1c8-0.7,16.2-14.8,17.4-16.9c1.2-2.1,4.8-7.4,4-3.6
	c-1.1,5.3-10.2,16.7-9.3,16.5c6.7-1.7,9.1-7.9,11.5-11.1c2.4-3.1,4.8-7.9,5.3-5.5c0.5,3-7.4,11.7-7.2,12.3c2,1.6,9.4-8.4,10.6-8.4
	c1.2,0,0.4,11.2-1.3,13.9c-2.3,3.7-7.3,11.5-14.9,12.9c-0.5,0.1,0.7,2,2.4,4.3c-3.2,2-7.8,4.6-11.1,3.2c-2.7-1.2-4.3-6.9-5.4-8.3
	c-1.1-1.4-3.6-4.1-6.1-2.4c-2.5,1.7-2.4,6-0.6,7.9c0,0,0.2-2.9,1.3-4.9c1.1-2,1.9-2.3,1.1-0.2c-0.8,2.1,3.2,7.5,5.6,8.9
	c2.4,1.4-1.4,0.4-4.7-1.8c-2.3-1.5-7.1-2.3-8.7,0.5c-1.6,2.8,0.8,6.5,3.9,7.5c0,0-1.4-0.7-1.9-3.8c-0.4-3.1,0.7-4.4,1.7-0.9
	c0.4,1.3,6.3,2.1,7.2,2.3c0.9,0.3-5.2,1.9-6.3,4.8c-1.2,3.1,1.2,5.9,7.3,5.2c0,0-5.9-2.6-4.9-3.9c0.3-0.4,1.9,0.3,3,0.1
	c1.8-0.3,5.5-3,7.4-4.8c0,0,5.7,3.1,6.9,3.2c1.2,0.1,2.1-1.1,3.3-0.6c1.2,0.4,0.9,5.2-2.1,4.7c0,0,4.8,2.8,6-4
	c0.7-4.3-7.2-4.4-7.2-4.4l7-4.5c2.7,3.2,5.4,5.9,5.8,5c3.1-6.9,8.3-11.7,10.6-11.7c-3.2,5.2-37,60.2-43.6,60.9c0,0,7.7,2.2,13.8-2.1
	c6.1-4.3,24.2-42.3,24.5-43c0.3-0.7,2.5-5.3,4.5-9.7c-0.3,1.3-0.7,2.7-1.1,4c-1.8,6.7-19.8,51-30.1,56.9c0,0,6.1,3.6,12.9-1.5
	c7.6-5.8,11.8-19.6,12.9-22.8c2.9-8.4,9.1-24.6,9.7-29.2c0.3-2.6,2.1-7.5,0,4.8c-2.2,13.4-16.9,51.6-19.5,54.2
	c-0.7,0.7,7.5,3.1,12.6-3.2c7.2-9,10.8-56.7,10.8-58c0-1.3,1.2-9,1.2-1.4c0,7.3-4.1,46.9-4.2,50.2c-0.1,3.3,1,8.8,4.8,13.4
	c0,0,5.2-1.7,5.6-14.4c0.5-16.9-1.9-39.7-2.6-49c0-7.6,0.9-0.9,0.9,0.4c0,1.3,3.8,48.4,9.4,57.3c4.7,7.5,13.8,5.4,13.2,4.7
	c-2.6-2.6-15.6-40.9-17.8-54.3c-2-12.3-0.3-7.4,0-4.8c0.6,4.6,4.2,19.8,7.1,28.3c1.1,3.2,6,18,13.6,23.8c6.8,5.1,13.8,2,13.8,2
	c-11.4-7.4-28.3-49.7-30.2-56.4c0-0.1-0.1-0.2-0.1-0.4c1.1,2.3,2,4.1,2.2,4.5c0.3,0.6,19.5,37.5,25.7,41.6
	c6.3,4.1,13.9,1.5,13.9,1.5c-5.9-0.4-35.8-43.9-44.2-56.2c-0.2-0.8-0.3-1.4-0.2-1.5c2.4-2,8.3,3.7,10.9,8.9c0.3,0.6,2.2-1.3,4.4-3.8
	l8.4,5.4c0,0-8,0.1-7.2,4.4c1.1,6.8,6,4,6,4c-3,0.5-3.3-4.3-2.1-4.7c1.2-0.4,2.1,0.8,3.3,0.6c1.2-0.1,6.9-3.2,6.9-3.2
	c1.9,1.9,5.6,4.5,7.4,4.8c1.1,0.2,2.7-0.5,3-0.1c1.1,1.3-4.9,3.9-4.9,3.9c6.2,0.8,8.5-2.1,7.3-5.2c-1.1-2.9-7.2-4.5-6.3-4.8
	c0.9-0.3,6.8-1,7.2-2.3c1-3.5,2.2-2.2,1.7,0.9c-0.4,3.1-1.9,3.8-1.9,3.8c3.2-1,5.5-4.7,3.9-7.5c-1.6-2.8-6.3-2-8.6-0.5
	c-3.3,2.2-7.1,3.2-4.7,1.8c2.4-1.4,6.4-6.8,5.6-8.9c-0.8-2.1,0-1.8,1.1,0.2c1.1,2,1.3,4.9,1.3,4.9c1.8-1.8,1.9-6.1-0.6-7.9
	c-2.5-1.7-5,1-6.1,2.4c-1.1,1.4-2.7,7.1-5.4,8.3c-3.8,1.6-9.5-2.1-12.5-4c2.5-3.2,4.4-6.3,3.8-6.3c-4.6,0.2-10.6-1.9-14.2-8.3
	c-2.2-3.9-3.3-16.6-1.6-15.5c0.4,0.3,6,8.2,10.2,8.2c0.6,0-7.7-9.3-7.2-12.3c0.4-2.4,2.8,2.4,5.2,5.5c2.4,3.1,4.8,9.4,11.5,11.1
	c0.9,0.2-8.2-11.2-9.3-16.5c-0.7-3.8,2.8,1.5,4,3.6c1.2,2.1,9.4,16.2,17.4,16.9c1.2,0.1-16.2-19.3-15.9-22.1
	c0.3-2.8,4.4,4.1,7.5,7.5c2.6,2.9,13.4,20.6,28.3,23.7c0.6,0.1-14.7-16-17-18.8c-2.6-3.1-13.7-14.8-12.9-16.5
	c0.6-1.2,4.5,2.4,8.6,6.5c6.6,6.5,20.4,30.3,40,34.5c1.2,0.3-22.1-23.1-28.7-29.8c-4.6-4.6-11.2-11.5-15.5-14.5
	c-1.6-1.1-0.3-4.5,6.6,1.9c6.9,6.4,30.9,33.5,38.7,39.1s17.8,9.3,29.5,9.3c1.2,0-17.1-9.3-25.9-17.7c-8.8-8.4-40.5-36.6-46.4-39.4
	c-2-0.9-0.3-4.3,12.8,7c13.1,11.3,37.8,32.7,41.9,35.2c4.1,2.5,17.1,12,27,13.2c9.9,1.2,16.9-0.5,17.3-0.8
	c0.4-0.3-19.3-7.6-26.8-11.9c-23.8-13.5-41-29.6-51.8-38.3c-9.3-7.5-14.2-10.3-16.6-11.2c-3-1.2-3.4-4.1,1.2-1.9
	c5.3,2.6,28.5,20.3,31.2,22.6c2.7,2.3,33.3,30.4,58.9,33.2c16.1,1.8,18.6-4.5,19.2-5.4C671.7,382.8,659.7,383,652.1,380.2z
	 M514.7,311.7c-1.3,0.1-0.9-0.8,1.2-1.3c2.1-0.5,5.4,0.7,6.3,1.2c1,0.6,0.9,1.6,0.1,0.8c-0.2-0.2-0.8-0.4-1.5-0.5
	c0.1,0.1,0.1,0.2,0.1,0.3c0,0.5-0.4,1.6-1.4,1.6c-1,0-2.1-1.1-2.1-1.6c0-0.2,0.1-0.4,0.4-0.5C516.5,311.6,515.2,311.6,514.7,311.7z"
	/>
</svg>