<svg xmlns="http://www.w3.org/2000/svg" xmlns:xlink="http://www.w3.org/1999/xlink" x="0px" y="0px" viewBox="0 0 1024 768" >
<g>
	<path class="layout" data-layout="5" d="M600.8,410.2c2.8-1.9,4.8-3.5,5.8-6.1c1-2.5,3-5,5.3-4.9c2.4,0.1,5.1-1,1.2-2.1c-3.9-1.1-10.9-0.7-14.3,2
		c-3.4,2.7-6.4,7.3-10.2,6.6c-3.8-0.7-8.9-1.1-7.1-3.1c1.8-2,3.4-0.5,5.8-1.2c2.4-0.7,4.1-1.9-0.2-2.7c-4.3-0.8-5.4-2.7-10-1.1
		c-4.6,1.6-6.7-0.2-9.3-1c-2.6-0.8-7.1,0.6-3.7-0.9c3.4-1.5,5.7-1.9,6.1-3.3c0.4-1.4,0.3-1.2-1-0.5c-1,0.6-11.5,2.4-18.4,0.7
		c3.1,0.8,5.8,2.6,7.9,6c4.9,7.9-1.2,11.8,8,13.3c0.3,0.1,0.6,0.1,0.9,0.2c-0.5-1.2-0.3-2.6,0.1-3.5c0.7-1.4,7.4-3.1,10.5-0.6
		c3.1,2.5,3.8,4.6,3.8,8.4c0,3.8-1.3,12.1,1.6,12.1c2.9,0,5.6-2.6,7.9-3.4c2.3-0.7,4.8-3,2.5-3.3c-2.3-0.3-7,1.7-6.6-1.1
		c0.4-2.7,5.1-6.8,7.9-5.6c2.8,1.3,8,5.2,10.9,2.4c1.6-1.6,2.8-1.9,5.4-1.6c0.9,0.1,2,0.4,2.8,0.7c-0.4-0.1-0.8-0.3-1.4-0.5
		c-5.9-2.3-6.8-5.9-8.1-5.7C603.8,410.3,598,412,600.8,410.2z"/>
	<path class="layout" data-layout="5" d="M634.1,459.1c10-3.1,17.8-13.5,16.1-22c-1.7-8.4-5.9-10.7-3.4-14.1c0.5-0.7,1-1.1,1.5-1.4c-2.8-0.1-5.5-0.5-5.8,7
		c-0.3,8.5-12.6,7.9-13.2,6.8c-0.4-0.8,0.4-3,2-4.7c-5.7,1.7-10,5.5-8.8,13.6c1.3,8.5-8.8,4.5-7.9,2.1c0.9-2.4,4.2-7.4,2.5-9
		c-1.6-1.5-6.1-1.5-5.5,1.7c0.6,3.3-3.6,15.7-14.8,15.7c-11.2,0-8.1-3.4-6.3-4.8c1.8-1.4,8.2-6.2,1.5-6.7c-6.7-0.4-7.9,2.1-11.3,4.1
		c-3.4,2-14.7,0.3-17.5-6c-2.8-6.2,0.8-13.3,5-10c4.3,3.3,7,7.1,3,0.1c-4-6.9-6.1-10.2-10.5-10.2s-5.8,2.6-9.1-0.4
		c-3.3-2.9-6.1-5.6-2.6-6.3c3.5-0.7,6.7-1.7,5.7-5.1c-0.9-3.4-0.6-0.9-2.1,0.6c-1.5,1.4-13.9,1.4-17.1-3.2c-3.2-4.6-6-12.3,2.3-14
		c4.7-1,9.2-1.6,13.1-0.6c-1.7-0.4-3.2-1.1-4.3-2c-5.2-4.6-1.7-9.9,0.8-11.2c2.5-1.3,10.6,1.2,17.4,3.1c2.9,0.8,40.9,5,50.9-9.8
		c1.8-2.7,0.6-6.4-1.6-4.6c-2.2,1.8-7.8-0.1-8.3-2.3c-0.7-2.7-1.6-1.4,2.9-1.5c4.5-0.1,17.9,0.7,21.7-7.5c3.7-8.1-0.5-13.9,6.7-18.5
		c3.7-2.4-2.3-1.1-4.6-0.4c-1.4,0.5-5.3,0.9-6.1,2.6c-0.8,1.6,0.5,2.1-1.2,1.4c-2.2-0.9-1.2-4.1,1.9-6.9
		c3.1-2.9,12.2-11.3,10.7-22.1c-1.5-10.6-5.2-8.7-5.9-5.8c-0.8,2.9-4.6,4.9-6.4,3.6c-1.8-1.4-2.6-2.5-1.5-3.8
		c1.1-1.3,4.9-7.5,3.4-12.8c-1.4-5.3-2-13.1-6.3-16.2c-3.3-2.4-3.4-6-3.7-7.9c-0.3-1.9-1.9-1.8-2.6-0.1c-0.7,1.7-1,2.3,0.2,4.7
		c0.6,1.3,0.6,9.1-3.3,9.4c-3.9,0.3-5.9-7.8-6.2-11.2c-0.3-3.4-4.8-13.4-16-14.6c-3.8-0.4-4,0.3-2.6,1.1c1.4,0.8,1,1.4,0.7,3.9
		c-0.2,2-0.1,3.9-1.3,2.5c-1.2-1.4-3-8.3-13.2-9.6c-3.4-0.5-9.2-1.2-11.8-3.4c-1.3,3.1-3,8.9,1.8,10.8c6.1,2.4,9.9,5.3,8.4,7
		c-1.5,1.7-5-2.5-6.3-3.4c-1.3-0.9-7.8-1.6-12.1-1.3c-4.3,0.4-2.6,3.1-0.8,4.1c1.8,1,6-0.5,7.4,1c1.4,1.4,1.5,8.4,10.4,11.6
		c8.9,3.2,15.5,9.3,11.4,12.2c-4.2,2.9-9.2-4.4-10.1-5.6c-0.9-1.2-6.7-1.9-6.7,2c-0.1,4,6,15,13.4,21c7.5,6,8.7,8.1,7.9,13.3
		c-0.8,5.2-6.8,5.7-7.8,2.9c-1-2.8-3-10-12.3-8.6c-3.5,0.5-5.3,0-3.3,1.5c2.1,1.5,13.6,8.5,6.6,20.2c-7.1,12-19.6,8.4-24.9,6.9
		c-5.3-1.5-10.9-4.7-7.2-9.7c3.3-4.5,2.7-6.4,0.6-9.4c-2.1,2.4-7.2,5.4-11.5,3.5c-5.5-2.3-7.4-15.3-5.6-21.5
		c1.7-6.1,3.7-6.9,4.1-5.5c0.4,1.4,3.3,7.9,3.4,2c0-4.5,1-6.5,3.4-9.4c2.4-2.9,8.8-3.5,10.6-7.6c1.7-4,5.5-6.5,6.9-6.3
		c1.4,0.2,4.7-0.4-0.5-1.5c-5.3-1.1-15.1-0.7-21.9,3.6c-6.9,4.3-15.2,4.1-19.2,2.7c-4-1.4-6.6-3.6-5.5-1.4c1.1,2.2,3.3,8.3-0.5,6.9
		c-3.7-1.4-4.5-1.6-7-1.3c-1.2,0.2-2.5,0.5-3.7,0.6c2.5,0.6,6.3,2.9,5.7,4.8c-0.6,2.1-6.4,1.4-9.3,1c-2.4-0.3-5.5,0.4-8,1.5
		c2.6,0.8,5.9,2.7,6.9,4c1.3,1.6,3.9,6.1,7.6,5.3c1.7-0.4,2.8-1.1,3.3-1.7c0.1-0.3,0.2-0.4,0.2-0.5c0.4-0.6,0.4-0.1-0.2,0.5
		c-0.8,2.5-1.9,12.2,1.2,18.5c3.4,7-6.6,8-7.8,7.2c-1.2-0.8-1.5-3.5-0.8-5c0.7-1.5-0.8-3-2.6-1.1c-1.7,2-2.8,4.8-0.4,7.6
		c2.4,2.8,3,4.4,1,7.2c-2,2.8-11.4,8.7-22.7,5.1c-11.1-3.6-18.2-15.8-6.3-26.4c6.9-6.2-4.5-7.5-7.9-6.3c-3.4,1.1-9.1,7.5-10.4,11.1
		c-1.3,3.6-2.7,3.7-2.8,0.7c-0.1-2.9-2.6-10.1,3.4-13.6c5.9-3.4,13.2-7.4,12.9-20.7c0-0.9,0-1.6,0-2.1c-0.3,0.7-0.8,1.6-1.8,2.4
		c-3.4,2.7-9.2,5.1-10.4,1c-1.2-4.1,2.1-10.2,7.3-12.5c5.1-2.3,12.8-2.5,18.6-9.7c2.4-3,3-1.2,4.3-2.2c1.3-0.9,1.7-3-3.8-2.3
		c-5.6,0.7-6.9-2-10.8-0.1c-4,2-2.8,2.8-3.4,1.6c-0.5-1.2-0.4-0.6,3.1-2.5c3.6-1.9,10.3-8.4,7.8-15.7c-2.4-7.2-3.2-2-3.4-0.7
		c-0.2,1.3-1.9,7.3-4.7,8.2c-2.8,0.9-9.6-1.5-14.7,2.2c-5.1,3.7-2.6,4.8-5.8,5.5c-2.2,0.5-5.6-3.4-0.7-7.3c4.8-3.9,0.2-2.7-3.7-1.3
		c-3.9,1.3-12.1,7.2-15.1,19.2c-0.7,2.7-1.2,5-3.8,5.6c-2.5,0.6-2.6-1.5-1.4-4.2c0.8-1.9,1.6-7.5,0.4-9.3c-1.2-1.8-6.3-2.1-6.5,0.4
		c-0.3,2.5,0.9,7.7-2.2,11c-3.1,3.3-12.9,11.6-6.4,25.6c1.7,3.8,2.3,3.6,1.3,4c-1,0.4-6.3,1.1-6.1-3.1c0.2-4.2,0.2-2.3-0.8-0.4
		c-0.9,1.9-8.4,17.2-0.4,26.3c8.2,9.3,9.1,9.3,7.1,10.7c-2,1.5-2.7-1.7-3.6-2.8c-0.8-1.1-4.8-4-8.4-2.3c-3.6,1.7-1.6,2.6,0.3,3.4
		c1.5,0.6,4.4,1.4,5.5,11.3c1.1,10.1,13.7,9.8,16.8,9.3c3.1-0.5,14.9,0.2,14.6,3.3c-0.4,3.1-9.3,3.4-13.6,3.1
		c-4.3-0.3-6.3,1.5-3.7,3.3c2.7,1.8,12.8,10.5,39.7,9.9c26.9-0.7,35.5-3.2,35.5,1.4c0,4.6-12.7,11.1-22.5,8.1
		c-1-0.3-3.7-1.7-2.9,0.4c0.8,2.1,1.7,2.1,3.4,2.5c1.7,0.4,3.6,5.4,2,6c-1.6,0.6-8.7-2-12.5-3.8c-3.8-1.8-8.3-3.1-11.2-1.3
		c-2.9,1.7-2,4.8,0.9,5.4c2.9,0.6,7.8,0.6,7.6,2.2c-0.2,1.5-6.4,6.7-12.9,5.6c-6.6-1-7.1-5-9.9-6.5c-2.8-1.5-6.1-7.3-10.2-6.2
		c-4.1,1.1-3.6,6.2-0.7,6.3c2.9,0.1,5.8-0.8,6.4,0.6c0.6,1.4-0.8,4.4,1,5.2c1.9,0.8,4.1,0.6,3,1.7c-1.1,1.1-1,1.7-3,1.3
		c-2-0.4-11.1-0.1-13,2.3c-1.9,2.4,1.5,3.9,3.5,2.8c2-1,5.6-2.4,6.8-1c1.2,1.5,2,6.3,6.2,6c4.2-0.3,5.8-3.7,9.8-2.1
		c4.1,1.6,4.2,0.8,2.9,2.1c-1.3,1.3-1.8,2.6-3.7,2.8c-0.1,0-0.3,0-0.4,0c1.2,1,1.6,3.5,4,4.2c1.6,0.4,9.1-1.1,8.5-7.6
		c-0.6-6.5-3-9.5,1-11.9c4-2.4,10.9-1.1,11.9,0.5c0.9,1.5,1.1,4.6-0.9,5.5c-2,0.8-4.9,1.1-1.1,0.6c3.8-0.5,7.9-2.5,9.2-9.7
		c1.3-7.1,5.1-10,15.5-10.6c10.4-0.6,9.6,3.5,10,6.5c0.4,2.9-3.2,15-16.9,10.5c-4.1-1.3-5.2-1.9-4.7-0.2c0.5,1.8,3,1.7,5.7,2.4
		c2.7,0.7,3.7,1.9,2.8,4c-0.9,2.1-3.9,8.2-9.7,8.1c-5.8-0.1-6.8-1.4-9.4,3.4c-0.3,0.6-0.7,1.2-1.2,1.7c2.1-0.1,3.9,0.5,4.7,1.4
		c1.4,1.6,0.4,10.2-6,13.8c-6.5,3.6-12.2,2-15.2,0.7c-2.3-1-3.3-2-4.7-1.7c1.6,2.1,2.8,5.7,0.3,7.9c-3.4,3-15.7,6.7-20.6,0.9
		c-4.9-5.7-2.1-11.5-2.1-13.1c0-1.6-1.5-4.9-3.8-3.1c-2.4,1.8-1.8,5.4-1,7.1c0.8,1.8,0.8,2.4-1.7,2.8c-2.5,0.4-1.6,1.4-1.1-1.6
		c0.5-3-1.4-10.3-11.6-14.7c1.2,2.2,0.7,5.2-0.5,5.8c-1.5,0.8-8.9-0.7-10.2-5.6c-1.3-4.9,0.6-13.1-5-12.5c-5.7,0.6-3.7,2.6-2.3,3.4
		c1.4,0.8,4.5,1.2,3.6,5.7c-0.8,3.7-7.8,19.7,8.7,26.2c4.2,1.7,14.7,7.1,12.5,10.6c-2.2,3.5-7.9,2.7-9.1,2.3
		c-1.1-0.5-3.5-1.6-0.7,0.8c2.8,2.4,13.9,7.8,27.1,1.1c5.2-2.6,14.6-3.2,15.9,0.7c1.3,3.9-3.6,2.8-5.7,2.5c-2-0.2-7.5,4.8-6.7,7.9
		c0.8,3.1,4.4,2.9,6.1,1.7c1.6-1.2,3.8-5.5,9.6-5.3c5.9,0.2,15.7-1.1,22.1-13.3c6.3-11.9,6.5-13.5,8.4-12.9c2,0.6,1.9,4.5,0.4,6.8
		c-1.9,3-1.3,6.7,1.7,3.7c2.9-3,10.1-12.1,13.4-23.5c3.3-11.2,9.1-21.6,14.6-27.8c5.4-6.1,7.4-7.6,8.8-6.8
		c1.3,0.7,2.2,15.7-15.8,26.9c-2.6,1.6-0.3,4.6,3,4c3.4-0.6,5.5-3.8,6.5-1.4c1,2.5,1.5,6.2-1,7.2c-2.4,1-10.7,6.5-9.9,11.7
		c0.8,5.3-0.2,4.1,1.4,2.5c1.7-1.6,6-5.3,7.8-3.7c1.7,1.7,1,5.2-4.6,11.8c-2.6,3.1-4.3,7.2-8.7,8.8c-1,0.4-1.8,0.6-2.3,0.7
		c0.3,0,0.6,0,1,0.1c2.1,0.5,5.8,3.6,11.3-0.9c5.4-4.5,3.8,1.7,1.9,3.9c-1.9,2.2-5.9,7.9-3.8,13.8c2.1,5.9,0.4,5.9-1.1,7.8
		c-1.5,1.9-2.6,2.5,0.8-0.1c3.3-2.6,5.6-1.4,6-3.6c0.4-2.1,1.8-3.9,2.7-1.5c0.7,1.8,2.4,2.4,1,6.3c-1.4,4-0.7,18.5,9.6,22.6
		c10.4,4.1,6.7-3.1,5.3-5.2c-1.4-2.1-4-5.1,0-10.7c4-5.5,7.5-12.4,4.3-21.3c-3.2-8.8-2.7-10,2.1-7.4c4.8,2.5,7.7,3.9,12.3,1.9
		c4.6-2.1,1.5-4.7-0.4-5.3c-1.9-0.6-6.1-3-7.6-5.4c-1.5-2.4-3.2-4.7-7.1-8.6c-3.8-3.9-1.1-8.2,1.3-9.2c2.4-1,4.4,0.6,6,3.8
		c1.6,3.2,4.2,1.5,4.2-2c-0.1-3.4-3.1-7-6.3-8.2c-3.1-1.2-6-7.3-4.5-9.3c1.5-2,2.2-0.4,3.6,0.8c1.3,1.1,5-1.7,7.4-3.1
		c-0.2,0-0.4-0.1-0.6-0.2c-3.2-1.1-15.3-7.6-14.8-20.6c0.2-5.2,0-8,3.7-5.1c3.7,3,17.9,17.8,21.6,28.6c3.8,11.1,6.3,22.7,10.9,26.6
		c1,0.8,1.6,1.5,2.1,1.9c-0.2-0.4-0.5-0.9-0.7-1.6c-1.1-3.1-0.8-8.5,1.3-9.9c2.2-1.4,2.6,1.7,3.6,3.6c1,1.9,15.1,21.5,24,21.9
		c7.9,0.3,12.6,1.8,15.3,3.5c-0.1-0.2-0.2-0.4-0.2-0.7c-1.6-5.1-2.8-4.7-4.6-4.6c-1.8,0.1-3.8-3.4-1.4-4.5c2.4-1.1,10-2.7,15.1,1.3
		c5.1,4,16.2,6.3,21.8,3.1c5.6-3.2,9.3-8.6,3-6.1c-6.3,2.5-11.8-4.1-11.1-4.9C622.2,461.8,624,462.3,634.1,459.1z"/>
</g>
</svg>
