<svg xmlns="http://www.w3.org/2000/svg" xmlns:xlink="http://www.w3.org/1999/xlink" x="0px" y="0px" viewBox="0 0 1024 768" >
<g>
	<path class="layout" data-layout="5" d="M640.3,313.3c-0.9-0.3-2.4,3.4-15.5,2.6c-8.7-0.5-15.8-4.8-19.6-7.6c4.6-0.2,15.8-1.1,24.2-5c11-5.1,8.7-19.2,7-19.4
		c-1.6-0.2-8.3,5.8-20.7,8.6c-8.5,1.9-13.1-0.3-19.9-1.2c5.5-1.4,20-5.3,30.5-11.7c13.4-8.2,8.9-21.8,6.8-21.5
		c-2.1,0.3-9.9,8.2-25.2,14.3c-15.3,6.1-21.1,1.3-39,7.3c-14.1,4.7-17.6,12.1-18.6,20.7c-0.3,0.9-0.6,1.9-0.7,2.9
		c-0.9,8.2,3.2,13.8,16.2,14.6c0,0-7.8,7-8,15.8c-0.2,8.6,6.2,13.5,5.9,14.9c-0.3,1.4-4.7-1.9-11,2.5c-6.2,4.3-7.2,10-10.3,12.4
		c-3.1,2.4-4.1,2.2-4.8,2c-0.7-0.2,5.3-4.6-0.6-8.7c-6-4.2-9.6-0.6-10.6,0.4c-1,1-1.9,2-1.8-1.1c0.2-3.1-3.2-6-3.1-7.8
		c0.1-1.8,3,4.4,8.6,5c5.5,0.6,9.6-6.5,11.9-6.8c2.3-0.3,3.5,1.1,3.3,2.6c-0.2,1.5-1,2.2-2.1,2.2c-1.1,0-0.7-1.8-1.5-1.8
		s-1.2,2.9,0.5,3.3c1.7,0.5,6.1-0.6,6.5-5.1c0.4-4.5-2.7-6.6-6.3-6.8c-3.6-0.2-7.9,3.6-12.9,3.7c-5,0.1-8.1-1.9-9.9-3.7
		c-1.8-1.8-4-3.5-6.8-4.5c-2.9-1-7-2.6-6.3-4c0.7-1.4,4.1,0,9.2,3.1c5.1,3.1,8.3,2,9.4,1.1c1.2-1,1.9-3.5,0.8-4.1
		c-1.1-0.7-2.8,1.4-4.9,0.9c-2.1-0.6-6.1-5.1-9.3-7.6c-3.2-2.6-4.9-3.1-4.9-4c0-0.9,6.5,1.5,11.6,5.4c5,3.9,10.1,6.7,18.4,6.4
		c8.3-0.3,12.1-3.9,14-6.4c1.9-2.6,2.7-7.2,1.7-7.6c-1-0.4-4,9.8-13.8,10c-9.9,0.2-15.9-6.5-20.2-8.6c-4.4-2.1-5.3-2.1-5.6-2.8
		c-0.2-0.7,8.3-0.4,10,0.9c1.7,1.3,3,2.9,5.2,3.2c2.2,0.3,4.2,0.1,4.5,1.5c0.3,1.4-2,3.1-1.2,3.6c0.7,0.6,6.2,1.8,10.1-2.2
		c3.9-4,1.4-9.6,0-11.2c-1.4-1.6-2.5-2.3-2-3.9c0.5-1.6,0-3.5-1.2-4c-1.3-0.5-1.4-1.5-1.6-3.7c-0.1-2.2-4.6-8.9-18.4-9.2
		c-6.1-0.1-10,0.8-13.2,1.9c0,0,0,0,0-0.1c-0.5-1.4-0.4-3-1-4.4c-1.2-3-4.4-4.7-7.6-5c-2.6-0.2-6.2,0.8-7.9,2.8
		c-0.9,1.1-1.1,2.5-1.6,3.8c1.4-1.8,4-2.5,6.4-2.6c2,0,4.2,0.4,5.3,2c0.8,1.2,0.8,2.7,0.8,4.2c0,0.5-0.1,1.1-0.1,1.6
		c-1.6,0.6-3.3,1-5.3,1.1c-7.4,0.3-5.8-1.7-11-1.7c-5.2,0-10.5,5.8-5.4,13.7c0,0-0.7-5.3,2.4-7.4c3-2.1,5.9,0.3,7,1.4
		c1.1,1,2.8,3.2,0.2,6.1c-2.6,2.9-3.3,6.8-3.1,10.2c0.1,3.4-0.3,5.5-2.3,5.8c-2,0.3-4.6-2.3-7.7-2.3c-3.1,0-6.3,3.6-3.8,12.3
		c0,0,1.4-6.6,4.3-6.9c2.9-0.3,3.4,2.1,8.4,2.2c5,0.1,7.5,0.7,7.7,5.1c0.2,4.4-0.3,7.2-2.6,7.6c-2.3,0.4-8.1-7.7-12.8-7.6
		c-4.6,0.1-8.3,9.4-1.3,13.5c0,0-1.4-8.6,2.6-7.9c3.9,0.7,7.2,9.9,13,10c5.8,0.2,8.4-4.1,9.3-6.2c0,0,3.2,5.2,2.6,13.7
		c0,0-4.2-4.9-10.1-5.3c-5.9-0.5-6.6,5-7.8,5.3c-1.2,0.3-3.7-6.7-10.4-8.4c-6.7-1.7-8.8-2.4-11.3-4.4c-2.5-2.1,0-3.9,1.5-5
		c1.5-1,4.1-3.3,3.9-7.2c-0.2-4-2.9-8.9-7.9-11.8c-5-3-6.4-3-6.5-5.1c-0.2-2.1,1.1-3.1,4.7-1.4c3.6,1.7,13.4-0.4,13.9-8.1
		c0-0.3,0-0.7,0-1l0,0c-0.2-11.8-1-22.2-19-28.1c-17.9-6-23.7-1.2-39-7.3c-15.4-6.1-23.2-14-25.2-14.3c-2.1-0.3-6.5,13.3,6.8,21.5
		c10.8,6.6,25.8,10.6,31,11.9c-4.2,1-8.6,1.7-15.1,1.2c-15.6-1.3-25.2-6.4-27.1-6.1c-1.9,0.3-1.4,14.3,13.2,18
		c14.4,3.7,33.1,2.1,33.1,2.1s-9,7.9-24,9.3c-15,1.4-23.3-3.5-25.2-2.4c-1.9,1,1.4,14.5,17.5,15.9c15.8,1.3,27.5-4.7,27.9-4.9
		c-0.2,0.4-5.6,12.2-20.5,14.5c-15,2.3-17-0.3-19.6,1.4c-2.6,1.7,2,16.6,14.6,16.6c12.6,0,22.8-9.2,24-9c1.2,0.2-3.9,9.5-13,16.6
		c-8.9,6.9-11.8,7.9-15,7.3c-3.2-0.6-6.9-2-8.2,1.6c-1.3,3.5,4.2,13.2,13.5,12.9c9.4-0.2,17.8-10.7,22.1-15c4.4-4.4,5.4-7.1,6.8-6.5
		c1.4,0.6,0.3,10.7-10.4,23.7c-10.4,12.5-17.1,15.4-19.6,15.9c-2.4,0.5-6.3-0.3-6.3,2.8c0,3.1,4.5,10.5,13.2,10.3
		c8.8-0.2,24.5-8.6,35.2-31.4c0,0-0.2,9.6-6.3,19.7c-5.9,9.8-11.3,13.7-6.9,18c4.3,4.2,14.4-3.4,21.6-13.5c7.3-10.4,9-18.2,10-18.1
		c1,0.1,1.6,9.9-5.6,21.3c-7,11.1-11.3,14.8-8.1,17.7c3.1,2.9,15.8-3.3,22.5-13c6.9-9.9,8.9-17.2,11.6-16.9c2.7,0.3,0.4,11.5-4.2,18
		c-4.6,6.4-9.5,7.4-12,8.1c-2.6,0.7-3.2,1.2-3.4,2.3c-0.1,1.1,3.3,2.3,6.3,2.2c0,0-11,8.5-18.6,9.5c-7.6,1.1-8.5-0.2-9.9-1.6
		c-1.4-1.4-2.2-2.1-2.2-2.1s-0.2-3.5-4.1-5.3c0,0,1.5-5.1-4.6-7.8c-6.2-2.8-14.8-0.2-12.5,5.2c0,0,4-4.6,9.6-1.8
		c0,0-4.5-0.2-3.5,2.4c1.1,2.6,5.1,2.5,5.5,3.8c0.4,1.3-1.2,1.4-0.8,3.2c0.3,1.8,4.6,1.1,5.3,2.3c0.8,1.2-0.2,2.3,0.9,3.3
		c1.1,1,3.2,0.6,3.2,1.5c0,0.8-3.4,0.6-6.7-1.3c-3.4-1.8-4.3-1.9-5.6-1.1c-1.3,0.8-1.9,0.8-3.2,0.4c-1.3-0.5-3.6-0.9-4.7,0.6
		c-1.1,1.5-1.5,1.4-3.8,1.2c-2.3-0.2-4.6,0.1-4.4,2.1c0.2,1.9,0.6,2.9,3.1,3.8c0,0-4.2,5.3,7.1,9.3c-0.3-0.2-5.1-4.6-3.4-7.6
		c0,0,3.3,2,5.2,0.8c1.9-1.2-1.4-3.5-1-4.3c0.4-0.8,2.5,0.9,5.4,1.1c2.9,0.2,3.8-1.6,5.1-1.3c1.3,0.3,2.5,2.3,5.5,2.7
		c3,0.4,5.4-1.9,6.6-1.6c1.2,0.3-3.6,10.2-4.6,10.8c-0.9,0.7-3.7,1-4.5,2.5c-0.7,1.5,0.2,3,2,3.7c0,0-3,5.9,4,7.4
		c0,0-3.3-4.5,0.5-7.1c0,0,3.2,2.5,5.7,0.7c2.4-1.8-1-4.9-0.4-5.8c0.7-0.9,2.4-0.3,4.1-2.3c1.7-1.9-3-4.2-2.5-5.8
		c0.5-1.6,3.6,0.7,5.9,0.5c2.3-0.1,2.9-2.7,4.1-2.7s2,1.4,3.8,1.4c1.8,0,1.8-0.8,3.2-0.8c1.5,0,2.9,1.6,4.9,2c2,0.4,3.6-0.8,4.4-0.7
		c0.8,0.1,0.9,2.7,2.9,3.4c2,0.7,3.8-0.5,4.2-2.4c0,0,5.1-0.9,5,6.1c0,0,4.7-5.6-1.5-8.6c0,0,1.4-3.1-1.9-4.3
		c-3.4-1.2-5.3,1.4-5.3,1.4s-1.4-2.1-3.4-2.6c-2-0.5-3.7,0.8-4.2,1.7c0,0-1.3-1.8-3.5-2.1c-2.2-0.3-4.1,1.7-5.4,1.2
		c-1.4-0.6,0.6-2.4,4-3.8c3.4-1.5,13.8-8.2,15.6-9.9c0,0,0.1,6.2,3.4,9.4c3.2,3.1,8.6,3.8,9.4,3.4c0.9-0.4-2.9-1.8-1.6-4.6
		c1.2-2.8,6.5-11,7.4-16.9c1-6,0.5-14.3,1.3-14.6c0.8-0.3,1.1,12.8,0.8,23.4c-0.4,10.3-3.4,14.9-6.6,15.6c-3.2,0.7-4.4-2.2-6.1-1.9
		c-1.6,0.3-0.1,5.5,4.9,6.5c5,1,7.9-0.8,8.5-1.8c0,0-2.6,9.8-11.7,11c-9.1,1.2-19.2-6.9-25.7-7.6c-6.5-0.7-10.1,3.7-9.7,6
		c0.4,2.3,2.6,4.7,7.2,5c4.6,0.3,3.8-2.8,3.4-3.5c-0.4-0.7-1.2,0.4-2.8,0.5c-1.5,0.1-2.2-0.7-2.2-1.4c-0.1-0.7,1.5-2.6,5.8-0.3
		c4.3,2.2,9.8,7.8,19.7,8.3c0,0-3.7,1.5-13.4-0.1c-9.7-1.6-18.1-1.6-24.4,0.8c-6.2,2.3-8.9,7.3-8.5,10.4c0.1,0.4,0.2,0.9,0.4,1.4
		c-0.2,1.5-0.3,3.1-1.2,4.3c-0.9,1.2-2.4,1.8-3.9,2c-1.5,0.1-3-0.1-4.4-0.4c-1.3-0.2-2.6-0.5-3.4-1.6c-0.6-0.9-0.6-2-0.6-3.1
		c0-1.8,0.1-3.6,0.1-5.4c-2.8,1.9-3.2,6-2,9.2c1.5,4.2,5.2,7.6,9.6,8.4c4.4,0.8,9.2-1.3,11.3-5.2c0.3-0.6,0.5-1.2,0.7-1.8
		c1,0.4,2.1,0.6,3.2,0.6c5.6,0.1,9.3-3.1,9.2-6c0-3-2.8-4.8-3.6-4.5c-0.7,0.2-0.1,4-3.4,4.2c-3.3,0.2-5-1.6-5.3-3
		c-0.2-1.4,2.3-5.2,10.3-4.4c8,0.8,14,2.2,23.2,1c9.2-1.2,9.9-3.7,11-3.5c1.1,0.2-2.3,4.4-10.1,5.8c-7.7,1.3-13,3.4-12.6,9.5
		c0.4,5.9,3.3,7.5,5.9,7.7c2.6,0.1,2.7,1.6,0,2c-2.7,0.4-4.2-1.9-5.2-1.9s0.8,5.4,6.3,5.4c5.5,0.1,6.8-3.6,6.8-4.9
		c0-1.3-0.9-2.4-2-3.6c-1.2-1.2-1.8-4.9,1.4-6.6c3.2-1.7,12-3.8,19.1-13.8c6.4-9,6.6-15.8,6.5-17.3c0.1,1.7,0.6,9.4-0.4,18.7
		c-1.1,10.1-4,14.5-8.8,14.2c-4.8-0.3-1.6-4.2-0.7-4.9c0,0-13.3,0.1-12.3,7.6c1,7.3,9.6,7.1,11.9,7.2c2.3,0.1,8.5-2.1,10.3-6
		c-0.1,0.2-1.6,4.4-1.6,7.6c0,3.3,6.4,10.3,7.7,10.3c1.3,0,8-7.4,8.4-10.6c0.4-3.1-2-6.8-2.1-7.1c0.4,0.3,7.1,5.8,13.4,5.6
		c6.5-0.3,8.2-4.2,8.3-5.9c0.1-1.7-1.9-6-8.1-7.2c0,0,0.3,3.1-3.2,3.6c-3.5,0.5-7.9-4.3-9.9-11.4c-2-7.3-2-15.4-1.6-22.1
		c0,0,1.4,15.8,8.2,22.3c6.7,6.4,17.1,9.1,17.9,13c0.8,3.8-1.7,4.7-1.8,6.7c-0.1,2,1.4,4,5.5,4.2c4.1,0.2,7-2.6,6.8-5.8
		c0,0-3.3,2.9-5.4,1.9c-2.2-1-0.8-2.8,0.8-4.2c1.6-1.4,5.2-6.3-1.3-10.3c0,0,6.4-0.9,10.8-0.8c4.4,0.1,8.1,1.2,7.8,3.7
		c-0.3,2.5-2.2,3.3-3.7,3.4c-1.6,0.1-3.7-2.2-2.3-5.4c0,0-6,2-6.2,5.4c-0.2,3.4,4.6,5.8,10.2,5.8c2.7,0,5.5-1,7.9-2.6
		c0.6,0.5,1.3,0.9,2.1,0.9c1.3,0,2.5,0.1,3.8,0.1c1.5,0,3.8-1,5.1-1.7c1.3-0.8,2-2.2,2.5-3.6c0.6-1.7,0.9-3.5,0.9-5.3
		c0-0.9-0.1-1.9-0.6-2.7c-0.7-1.3-2.5-1.9-3.8-1.4c0.8,0.9,1.2,2.1,1.2,3.3c0,1.6-0.6,3.3-1.9,4.3c-1.3,1-3.3,1.1-4.5,0
		c-0.1-0.1-0.1-0.1-0.2-0.2c0.1-0.3,0.1-0.5,0.1-0.8c0.5-5.6-5.8-11.6-17.4-10.2c0,0,2.8-3,2.9-6.5c0.1-3.5,1.1-6.5,3.8-6.5
		c2.7,0,2.6,3.2-1.9,3.9c0,0,0.4,2,3.2,2.2c2.8,0.2,5.2-2.8,5.3-5.8c0.1-3-3.3-6.8-9.4-7c-6.1-0.2-10.6,6.2-12.6,8.6
		c-1.9,2.4-4.7,3.7-10,3.7c-5.2,0-9.1-1.8-12.9-4.4c-3.9-2.6-6.9-8.2-6.3-8.3c0.5-0.1,3,3.9,9.3,3.9c6.3,0,7.9-8.1,7-10.1
		c-0.9-2.1-2.8,3-7.4,3.4c-4.5,0.4-8.8-3.7-10.6-10.9c-1.9-7.3-3.3-31.3-2.3-31.4c0.9-0.1,2.9,7.6,3.7,13.7c0.8,6,2.1,10.3,4,13.8
		c1.9,3.4,3.4,4.5,3.4,6.8c-0.1,2.3-0.5,3.3,0.2,3.6s6-1.2,8.4-5.7c2.4-4.5,1.8-5.8,3.3-5.3c1.5,0.4,22.5,10.5,22,11.2
		c-0.5,0.8-4.3,1.5-8.8,1.7c-4.5,0.2-8,0.9-9.3,2.1c-1.3,1.2-1,3.3-1,3.3s-3.8,3.5-0.3,6.7c0,0,0.5-5.4,4.8-5.2c0,0-1.4,2.6,0.3,2.9
		c1.7,0.3,4-2.1,4.6-4.6c0,0,2.5,0.8,4.3,0.4c1.8-0.3,0.4-3.4,1.5-3.5c1.1-0.1,2.3,1.2,4.4,1.5c2.1,0.3,3,0.1,4,0.3
		c1,0.1,0.5,1.2,1.9,1.3c1.4,0.1,3-0.5,4.1,0.1c1.1,0.6-0.2,3.4,0.7,3.9c1,0.5,4.2-1.1,4.9-0.7c0.6,0.3-1.8,2.1-1.7,3.2
		c0,1.1,2.8,1.9,2.6,2.6c-0.2,0.8-2.5,1.4-2.6,2.8c-0.1,1.4,2.6,2.2,5.1,1.8c0,0,0.2,3.8-6.3,6.4c0,0,5.3,0.8,9.3-2.9
		c0,0,3.5-1.2,4.1-3.3c0.6-2.1-2.3-3.3-2.5-5.2c-0.2-2,1.6-4.2-0.9-5.9c-2.5-1.7-6.5-4.9-5.2-5.8c1.3-0.9,4.7,3,7.1,1.6
		c2.4-1.4-0.5-4.2,1.3-4.9c1.8-0.7,2.2,1.9,5.2,2.1c3,0.3,2.8-2.4,3.7-2.4c0.9,0,3.1,3.6,6.7,2.2c3.6-1.4,3.3-4.4,0.6-5.4
		c0,0,7.7-2.4,10.8,0.3c0,0,0.9-5.1-8.3-4c0,0-1.5-2.1-4.6-1.9s-3.4,2.8-7.2,4c-3.8,1.3-9,2.3-10.4,1.6c-1.4-0.6-1-2.4,1.3-3
		c2.3-0.6,3.5-1.2,3.6-2.4c0.2-1.2-4-2.5-3.4-4.4c0.6-1.8,4.6-0.2,6.6-2.1c2.1-1.9-0.5-3.9-2.2-4.7c0,0,5.3-1.6,6.7,3.7
		c0,0,1.5-4.9-2.9-6.4c-4.4-1.4-7.8,1.7-7.8,1.7s-4.4-1-5.6,1.5c-1.2,2.5-0.1,5.3-0.9,6.8c-0.8,1.5-3.3,2.9-4,5.3
		c-0.6,2.4-2,5.1-3.4,5.4c-1.4,0.3-19.4-9.1-22.3-11.1c0,0,9.8,0.5,10.7-1.5c0.9-2-4.8-0.9-12.3-9c-7.8-8.4-10.8-16-11.4-17.7
		c-0.6-1.7-2-5.3,0-5.8c2-0.5,3.4,4.8,7.2,10.5c3.8,5.6,9.5,11.5,14.7,14.8c5.2,3.2,9.6,3.3,10.8,2.2c1.2-1.1,0.3-2.9-2.9-6.5
		c-3.2-3.7-10.3-18.2-11.5-30.8c0,0,6.4,16.8,13.4,25.1c6.8,8.1,15.9,8.8,19.5,7.3c3.6-1.6,3.7-6.9,3.1-7.4c-0.6-0.5-2.1,2.8-4.5,1
		c-2.4-1.8-14.2-35-13.9-35.8c0.4-0.8,9.5,19.4,16.4,28.1c6.7,8.5,14,13.1,21.1,13.1c7.2,0,12.5-4.9,13.7-9.7
		c1.2-4.9,0.1-6.9-0.8-7.1c-0.9-0.2-2.2,2.4-5.1,2.2c-2.9-0.2-8-5.5-13.1-13.2c-5.1-7.7-13.9-20.8-14.2-21.2
		c0.5,0.4,15.4,13.3,25.6,13.3c10.4,0,12.5-6.6,13-8.9c0.5-2.3-0.1-4.9-1.3-5.1c-1.1-0.2-5.6,2.7-11.2-0.3
		c-5.7-2.9-9.2-14.7-14.1-20.2c0,0,10.3,7.1,19,7.2c8.7,0.1,13.4-6.1,14.3-9.9c1-3.8-0.5-8-2.4-7.8c-1.9,0.1-1.3,2-6.3,2.3
		c-4.9,0.3-9.9-3.5-12.6-6.5c-2.7-3-10.3-9.4-10.3-9.4s9.2,4.1,19.6,4.4c10.4,0.3,15.7-3.6,17.2-9.5
		C644.6,317.2,641.2,313.6,640.3,313.3z M527.6,305.8c1,0,1.7,0.8,1.7,1.7c0,1-0.8,1.7-1.7,1.7s-1.7-0.8-1.7-1.7
		C525.9,306.6,526.7,305.8,527.6,305.8z"/>
</g>
</svg>