<svg xmlns="http://www.w3.org/2000/svg" xmlns:xlink="http://www.w3.org/1999/xlink" x="0px" y="0px" viewBox="0 0 1024 768" >
<g>
	<path class="layout" data-layout="5" d="M505.1,470.7c-1.2-8.3-0.4-22.3-0.4-23.9c0-1.6,0.6-4.9,0.9-6.1c0.3-1.2,0.2-2.1-0.7-2.6c-0.9-0.5-2,0.6-2,0.6
		c-2,2-2,12-2,13.6c0,1.6,0.1,1.9-0.3,2.2c-0.4,0.2-0.8-0.5-0.8-0.5s-0.7-1.6-3.1-0.5c-2.4,1-0.8,5-0.5,5.7c0.3,0.7,4.6,8.2,4.8,8.8
		c0.1,0.7-0.3,1.5-0.9,1.6c-0.6,0.1-1-0.1-1.2-0.6c-0.2-0.6-0.5-1.6-2.3-1.2c-1.8,0.4-1,4.6-0.1,6.2c0.9,1.6,7,14.3,5.1,21.3
		c-1.9,6.9-9.1,7.4-9.1,7.4s-7.8,1-10.1-5.4c-2.3-6.5,2.8-10.1,4.2-10.4c1.4-0.2,1.7,1.2,1.7,1.5c-0.1,0.3-0.1,1.2-1.2,1.3
		c-1.1,0.2-1.3,1.4-1.3,1.4c-0.6,4.8,1.2,5.8,3.2,6.8c1.9,1,8.1,0.5,8-4.7c-0.1-5.3-3.2-8.8-8.4-8.8c-5.2,0-9.7,4-9.5,9.7
		c0.1,5.7,3.7,9.5,9,11c5.3,1.5,12.4-2.4,12.4-2.4c-12,29.1-23,28.5-25.8,28.3c-2.8-0.1-3.3-2.4-3.4-3.7c-0.1-1.4,1-5.9,0.5-7.4
		c-0.5-1.5-1.6-0.9-1.6-0.9c-0.6,0.1-1.3,1.4-1.6,2.6c-0.3,1.3-3.9,13.5,11.7,12.2c15.6-1.3,22.4-21.9,24.8-33.8
		C507.5,488,506.3,478.9,505.1,470.7z"/>
	<path class="layout" data-layout="5" d="M497.9,394.4c1,1.7,2,1.8,2.6,1.6c0.6-0.2,0.9-0.2,1-3.1c0.1-2.5,2.5-16.1,2.5-16.7c0.1-0.6,1-2.4-0.9-3.1
		c-1.9-0.8-2.8,1.7-2.8,1.7s-6.1,9.7-8.3,11.5c-2.1,1.8-2.5,2-2.4,3.3c0.1,1.3,2.5,1,2.5,1c1.2-0.1,2.3,0.3,3.1,0.8
		c-1,1.5-3.6,2.7-6,2.7c-0.9,0-1.7-0.2-2.3-0.5l-0.2,0.4l-0.2,0.4c2.2,1.3,3.6,6.4,2.4,8.6l0.8,0.5c0.8-1.5,3.6-2.8,6.1-2.8
		c0.9,0,1.7,0.2,2.3,0.5l0.5-0.8c-1-0.6-2-2.1-2.5-4c-0.5-1.7-0.4-3.3,0-4.4C497.3,393,497.9,394.4,497.9,394.4z"/>
	<path class="layout" data-layout="5" d="M615.3,357.8c0,0-1.3-0.8-0.3-1.7c1-1,1.6-3.1,0.8-4.4c-0.8-1.3-3.7-1.9-7.2,0.9c-3.5,2.8-13.3,6.2-22.8,6.2
		c-7.4,0-47.9,0.6-65.6,0.9l0-4.9h-5c0.3-18.8,1-65.1,1.1-73.8c0-11.2,3.5-22.8,6.3-26.8c2.9-4,2.3-7.6,0.9-8.7
		c-1.3-1.1-3.4-0.6-4.4,0.6c-1,1.2-1.8-0.5-1.8-0.5c-2.3-6.8-5.4-6.7-5.4-6.7s-3.1-0.1-5.4,6.7c0,0-0.8,1.7-1.8,0.5
		c-1-1.2-3.1-1.7-4.4-0.6c-1.3,1.1-1.9,4.7,1,8.7c2.8,4,6.3,15.6,6.3,26.8c0,8.7,0.8,54.9,1.1,73.8h-4.9l0,4.9
		c-17.6-0.3-58.4-0.9-65.7-0.9c-9.5,0-19.3-3.4-22.8-6.2c-3.5-2.8-6.4-2.2-7.2-0.9c-0.8,1.3-0.2,3.4,0.8,4.4c1.1,1-0.3,1.7-0.3,1.7
		c-5.3,2.3-5,5.3-5,5.3s0.2,3,5.8,5.2c0,0,1.4,0.8,0.5,1.7c-0.9,0.9-1.2,3-0.2,4.3c1,1.3,4,1.9,7-0.8c3.1-2.7,12.4-6.1,21.8-6.1
		c7.3,0,47.8-0.6,65.3-0.9l0,5.5h4.9c0,8.2-0.1,22.3-0.2,38.3l-4.2,4.2l4.1,4.1c-0.2,36-0.4,77.5-0.3,82.1c0,8.3-2.8,16.6-5.2,19.5
		c-2.3,2.8-1.8,5.3-0.7,6.1c1.1,0.8,2.9,0.4,3.7-0.4c0.8-0.8,1.5,0.4,1.5,0.4c1.9,4.5,4.3,4.6,4.5,4.6c0.1,0,2.6-0.1,4.5-4.6
		c0,0,0.7-1.2,1.5-0.4c0.8,0.8,2.6,1.2,3.7,0.4c1.1-0.8,1.7-3.3-0.7-6.1c-2.3-2.8-5.2-11.2-5.2-19.5c0-4.6-0.2-45.9-0.3-81.8
		l4.4-4.4l-4.5-4.5c-0.1-15.9-0.1-29.9-0.2-38.1h5l0-5.5c17.6,0.3,57.8,0.9,65.2,0.9c9.4,0,18.8,3.3,21.8,6.1c3.1,2.7,6,2.1,7,0.8
		c1-1.3,0.7-3.3-0.2-4.3c-0.9-0.9,0.5-1.7,0.5-1.7c5.6-2.2,5.8-5.2,5.8-5.2S620.7,360.1,615.3,357.8z M516,252.1
		c0.7-2.3,2.1-3.9,3.1-3.6c1.1,0.3,1.4,2.4,0.7,4.7c-0.7,2.3-2.1,3.9-3.1,3.6S515.3,254.4,516,252.1z M506.9,256.9
		c-1.1,0.3-2.5-1.3-3.1-3.6s-0.4-4.4,0.7-4.7s2.5,1.3,3.1,3.6C508.3,254.4,508,256.6,506.9,256.9z M516.5,367.9h-8.9l0-9.4h9
		L516.5,367.9z"/>
	<path class="layout" data-layout="5" d="M553.8,519c0,0-1.1-0.5-1.6,0.9c-0.5,1.5,0.6,6,0.5,7.4c-0.1,1.4-0.6,3.6-3.4,3.7c-2.8,0.1-13.8,0.8-25.8-28.3
		c0,0,7.1,3.9,12.4,2.4c5.3-1.5,8.9-5.3,9-11c0.1-5.7-4.3-9.7-9.5-9.7c-5.2,0-8.3,3.5-8.4,8.8c-0.1,5.2,6.1,5.7,8,4.7
		c1.9-1,3.8-2,3.2-6.8c0,0-0.2-1.2-1.3-1.4c-1.1-0.2-1.2-1-1.2-1.3c-0.1-0.3,0.3-1.7,1.7-1.5c1.4,0.2,6.5,3.9,4.2,10.4
		c-2.3,6.4-10.1,5.4-10.1,5.4s-7.2-0.5-9.1-7.4c-1.9-7,4.2-19.7,5.1-21.3c0.9-1.6,1.8-5.8-0.1-6.2c-1.8-0.4-2.2,0.7-2.3,1.2
		c-0.2,0.6-0.6,0.7-1.2,0.6c-0.6-0.1-1-1-0.9-1.6c0.1-0.7,4.5-8.1,4.8-8.8c0.3-0.7,2-4.7-0.5-5.7c-2.4-1-3.1,0.5-3.1,0.5
		s-0.4,0.8-0.8,0.5c-0.4-0.2-0.3-0.5-0.3-2.2c0-1.6,0-11.7-2-13.6c0,0-1.1-1-2-0.6c-0.9,0.5-1,1.4-0.7,2.6c0.3,1.2,0.9,4.5,0.9,6.1
		c0,1.6,0.8,15.5-0.4,23.9c-1.2,8.2-2.5,17.3,0,29.3c2.4,11.8,9.1,32.4,24.8,33.8c15.6,1.3,12-10.9,11.7-12.2
		C555,520.3,554.4,519,553.8,519z"/>
	<path class="layout" data-layout="5" d="M462.3,255.8c0,0,1.3,0.7,1.8-1.3c0.5-2.1-1.2-8.6-1.3-10.7c0-2,0.4-5.3,3.8-5.5c3.4-0.2,16.7-1.1,32,39.9
		c0,0-8.4-5.2-14.5-3.2c-6.1,2-10,7.1-9.8,14.6c0.2,7.4,5.4,12.5,11.3,12.5c5.9,0,9.3-4.5,9.2-11.3c-0.1-6.9-7.2-7.5-9.4-6.2
		c-2.2,1.3-4.2,2.6-3.3,8.9c0,0,0.3,1.6,1.6,1.8c1.3,0.2,1.4,1.3,1.4,1.7c0.1,0.4-0.3,2.2-1.8,1.9c-1.5-0.3-7.5-5-5.3-13.4
		c2.3-8.5,11.3-7.1,11.3-7.1s8.4,0.7,10.7,9.8c0,0,2.6,7.9,4.7,20.2c0,0,1.7-15.7-0.8-26.4c-3.6-15.9-11.6-45.6-30.7-47.5
		c-19.2-2-13.6,16-13.2,17.8C460.7,253.8,461.5,255.7,462.3,255.8z"/>
	<path class="layout" data-layout="5" d="M519.2,308.2c2.1-12.2,4.7-20.2,4.7-20.2c2.3-9.1,10.7-9.8,10.7-9.8s9.1-1.4,11.3,7.1c2.3,8.4-3.7,13.2-5.3,13.4
		c-1.5,0.3-1.9-1.5-1.8-1.9c0.1-0.4,0.2-1.5,1.4-1.7c1.3-0.2,1.6-1.8,1.6-1.8c0.9-6.3-1.1-7.6-3.3-8.9c-2.2-1.3-9.3-0.7-9.4,6.2
		c-0.1,6.8,3.3,11.3,9.2,11.3s11.1-5.1,11.3-12.5c0.2-7.5-3.7-12.5-9.8-14.6c-6.1-2-14.5,3.2-14.5,3.2c15.3-41,28.6-40.1,32-39.9
		c3.4,0.2,3.8,3.5,3.8,5.5c0,2-1.7,8.6-1.3,10.7c0.5,2.1,1.8,1.3,1.8,1.3c0.8-0.1,1.6-1.9,2.1-3.7c0.5-1.8,6-19.7-13.2-17.8
		c-19.1,2-27.1,31.6-30.7,47.5C517.5,292.5,519.2,308.2,519.2,308.2z"/>
	<path class="layout" data-layout="5" d="M613.2,310.5c-1.6,0.4-3.2,1.3-3.3,2.1c0,0-0.7,1.4,1,1.9c1.7,0.6,7.3-1,9-1c1.7,0,4.4,0.6,4.3,4.1
		c-0.1,3.5-0.4,17.1-35.5,32c0,0,4.9-8.5,3.5-14.8c-1.4-6.4-5.6-10.6-12.1-10.6c-6.5,0-11.3,5.4-11.5,11.6c-0.2,6.2,3.6,9.7,9.5,9.7
		c6,0,6.8-7.3,5.8-9.6c-1-2.3-2-4.4-7.6-3.6c0,0-1.4,0.3-1.6,1.6c-0.2,1.3-1.2,1.4-1.6,1.5c-0.4,0.1-1.9-0.3-1.6-2
		c0.3-1.6,4.8-7.8,12.1-5.3c7.3,2.6,5.6,11.9,5.6,11.9s-1,8.6-9,10.9c0,0-7,2.6-17.8,4.7c0,0,13.7,1.8,23-0.7
		c13.6-3.6,38.6-11.2,41.7-30.5C630.1,304.9,614.8,310,613.2,310.5z"/>
	<path class="layout" data-layout="5" d="M584.5,371c-9-2.4-22.7-0.6-22.7-0.6c10.5,2,17.2,4.6,17.2,4.6c7.6,2.2,7.7,10.4,7.7,10.4s0.7,8.7-6.5,11
		c-7.2,2.3-10.9-3.3-11.1-4.8c-0.2-1.5,1.3-1.9,1.7-1.8c0.4,0.1,1.3,0.1,1.4,1.4c0.1,1.2,1.4,1.5,1.4,1.5c5.2,0.7,6.4-1.2,7.6-3.4
		c1.2-2.1,1-9-4.8-9c-5.8,0-9.8,3.4-10,9.2c-0.2,5.7,3.9,10.6,10.1,10.6c6.2,0,10.6-3.8,12.6-9.6c2-5.9-1.9-14-1.9-14
		c7.7,3.4,13.5,6.6,17.8,9.7c-0.3,0.5-0.4,1.1,0,1.6c0,0,0.1,0.1,0.2,0.4c0.1,0.2,0.4,0.6,0.6,1c0.2,0.4,0.5,0.9,0.8,1.5
		c0.1,0.3,0.2,0.7,0.4,1c0.1,0.4,0.2,0.7,0.3,1.1c0.2,0.8,0.3,1.7,0.2,2.6c0,0.9-0.1,1.9-0.5,2.8c-0.3,0.9-0.7,1.9-1.3,2.7
		c-0.1,0.2-0.3,0.4-0.5,0.6c-0.2,0.2-0.3,0.4-0.5,0.6l-0.5,0.5l-0.7,0.6c-0.5,0.3-0.8,0.6-1.3,0.9c-0.5,0.3-0.9,0.5-1.4,0.8
		c-1,0.5-2,0.8-3,1c-1,0.3-1.9,0.4-2.8,0.4c-0.4,0-0.9,0-1.3,0c-0.4-0.1-0.8-0.1-1.1-0.2c-0.7-0.2-1.2-0.4-1.7-0.7
		c-0.2-0.1-0.4-0.3-0.6-0.4c-0.2-0.2-0.3-0.3-0.4-0.4c-0.1-0.1-0.2-0.2-0.3-0.4c-0.1-0.1-0.2-0.2-0.2-0.3c-0.1-0.2-0.2-0.2-0.2-0.2
		l-0.3-0.3c0,0,0,0,0,0c-0.9-1.1-2.5-1.2-3.6-0.3s-1.2,2.5-0.3,3.6c0,0,0.1,0.2,0.4,0.5c0.1,0.1,0.3,0.3,0.5,0.5
		c0.2,0.2,0.4,0.4,0.7,0.7c0.3,0.2,0.6,0.5,0.9,0.8c0.4,0.2,0.8,0.5,1.2,0.7c0.9,0.4,1.9,0.8,3,1c0.6,0.1,1.1,0.1,1.7,0.2
		c0.6,0,1.2,0,1.8-0.1c1.2-0.1,2.5-0.3,3.7-0.7c1.2-0.4,2.5-0.9,3.7-1.5c0.6-0.3,1.2-0.7,1.7-1.1c0.5-0.3,1.2-0.9,1.7-1.3l0.7-0.6
		l0,0l0.1-0.1l0,0l0.1-0.1l0.2-0.2l0.3-0.4c0.2-0.3,0.4-0.6,0.6-0.8c0.2-0.3,0.4-0.6,0.6-0.9c0.7-1.2,1.2-2.5,1.6-3.8
		c0.3-1.3,0.4-2.6,0.4-3.8c0-1.2-0.2-2.3-0.5-3.3c-0.1-0.5-0.3-1-0.4-1.4c-0.1-0.3-0.3-0.7-0.4-1c9.1,8.1,8.3,14.2,8,16.3
		c-0.4,3.1-3,3.6-4.5,3.6c-1.6,0-6.6-1.3-8.3-0.8c-1.7,0.5-1.2,1.7-1.2,1.7c0,0.7,1.4,1.5,2.8,1.8c1.4,0.4,15,4.8,14.8-12.5
		C621,381.8,597.5,374.4,584.5,371z"/>
	<path class="layout" data-layout="5" d="M438.7,355.1c9.3,2.4,23,0.7,23,0.7c-10.8-2.1-17.8-4.7-17.8-4.7c-7.9-2.3-9-10.9-9-10.9s-1.7-9.4,5.6-11.9
		c7.3-2.6,11.7,3.6,12.1,5.3c0.3,1.6-1.2,2-1.6,2c-0.4-0.1-1.3-0.1-1.6-1.5c-0.2-1.3-1.6-1.6-1.6-1.6c-5.5-0.8-6.6,1.3-7.6,3.6
		c-1,2.3-0.1,9.6,5.8,9.6s9.8-3.6,9.5-9.7c-0.2-6.2-5-11.6-11.5-11.6c-6.5,0-10.7,4.2-12.1,10.6c-1.4,6.3,3.5,14.8,3.5,14.8
		c-35.2-14.9-35.4-28.5-35.5-32c-0.1-3.5,2.6-4.1,4.3-4.1c1.7,0,7.3,1.5,9,1c1.7-0.6,1-1.9,1-1.9c-0.1-0.8-1.8-1.7-3.3-2.1
		c-1.6-0.4-16.9-5.6-13.8,14.2C400.1,343.9,425.1,351.5,438.7,355.1z"/>
	<path class="layout" data-layout="5" d="M445,374.9c0,0,6.7-2.5,17.2-4.6c0,0-13.7-1.7-22.7,0.6c-13.1,3.5-36.5,10.8-36.7,28.6c-0.1,17.4,13.4,12.9,14.8,12.5
		c1.4-0.4,2.8-1.1,2.8-1.8c0,0,0.5-1.2-1.2-1.7c-1.7-0.5-6.7,0.9-8.3,0.8c-1.6,0-4.2-0.5-4.5-3.6c-0.3-2.1-1.1-8.6,8.8-17
		c-0.1,0.1-0.1,0.3-0.2,0.4c-0.2,0.4-0.3,0.8-0.5,1.2c-0.1,0.4-0.3,0.9-0.4,1.4c-0.3,1-0.5,2.1-0.5,3.3c0,1.2,0.1,2.5,0.4,3.8
		c0.3,1.3,0.8,2.6,1.6,3.8c0.2,0.3,0.4,0.6,0.6,0.9c0.2,0.3,0.4,0.6,0.6,0.8l0.3,0.4l0.2,0.2l0.1,0.1l0,0l0.1,0.1l0,0l0.7,0.6
		c0.5,0.4,1.2,1,1.7,1.3c0.6,0.4,1.2,0.8,1.7,1.1c1.2,0.6,2.4,1.2,3.7,1.5c1.2,0.4,2.5,0.6,3.7,0.7c0.6,0.1,1.2,0,1.8,0.1
		c0.6-0.1,1.2-0.1,1.7-0.2c1.1-0.2,2.2-0.6,3-1c0.4-0.2,0.8-0.5,1.2-0.7c0.3-0.3,0.6-0.5,0.9-0.8c0.3-0.2,0.5-0.5,0.7-0.7
		c0.2-0.2,0.3-0.4,0.5-0.5c0.2-0.3,0.4-0.5,0.4-0.5c0.9-1.1,0.7-2.7-0.3-3.6s-2.7-0.7-3.6,0.3c0,0,0,0,0,0l-0.3,0.3
		c0,0-0.1,0.1-0.2,0.2c-0.1,0.1-0.1,0.2-0.2,0.3c-0.1,0.1-0.2,0.2-0.3,0.4c-0.1,0.1-0.3,0.3-0.4,0.4c-0.2,0.1-0.4,0.2-0.6,0.4
		c-0.4,0.3-1,0.5-1.7,0.7c-0.3,0.1-0.7,0.1-1.1,0.2c-0.4,0-0.8,0.1-1.3,0c-0.9,0-1.8-0.1-2.8-0.4c-1-0.2-2-0.6-3-1
		c-0.5-0.2-1-0.5-1.4-0.8c-0.5-0.3-0.8-0.5-1.3-0.9l-0.7-0.6l-0.5-0.5c-0.2-0.2-0.3-0.4-0.5-0.6c-0.2-0.2-0.3-0.4-0.5-0.6
		c-0.6-0.8-1-1.8-1.3-2.7c-0.3-0.9-0.4-1.9-0.5-2.8c0-0.9,0.1-1.8,0.2-2.6c0.1-0.4,0.2-0.8,0.3-1.1c0.1-0.4,0.2-0.7,0.4-1
		c0.3-0.6,0.5-1.1,0.8-1.5c0.2-0.4,0.5-0.8,0.6-1c0.2-0.2,0.2-0.4,0.2-0.4c0.4-0.6,0.3-1.3-0.2-1.8c4.3-3,10-6.2,17.5-9.5
		c0,0-3.9,8.1-1.9,14c2,5.8,6.4,9.6,12.6,9.6s10.3-4.9,10.1-10.6c-0.2-5.8-4.2-9.2-10-9.2s-6,6.9-4.8,9c1.2,2.1,2.4,4.1,7.6,3.4
		c0,0,1.3-0.2,1.4-1.5c0.1-1.2,1-1.3,1.4-1.4c0.4-0.1,1.9,0.3,1.7,1.8c-0.2,1.5-3.9,7.2-11.1,4.8c-7.2-2.4-6.5-11-6.5-11
		S437.4,377.1,445,374.9z"/>
	<path class="layout" data-layout="5" d="M503,352.9c1.9-0.8,1-2.6,0.9-3.2c-0.1-0.6-2.7-15.1-2.9-17.8c-0.2-3.2-0.5-3.2-1.1-3.4c-0.6-0.2-1.7-0.1-2.7,1.8
		c0,0-2,4.6-6,4.2c0,0-2.5-0.4-2.6,1.1c-0.1,1.4,0.4,1.7,2.6,3.6c2.3,1.9,8.8,12,8.8,12S501.1,353.7,503,352.9z"/>
	<path class="layout" data-layout="5" d="M478.4,350.2c0,0-2.1,1.4-1.3,2.5c0.8,1.1,1.3,1.1,4.1,1c2.8-0.1,13.7,3.5,13.7,3.5s2.3,1.3,3.2-0.5c1-1.9-0.8-2.7-1.2-3.1
		c-0.4-0.4-11-9.9-12.7-11.9c-2-2.4-2.2-2.2-2.8-1.9c-0.6,0.2-1.3,1.1-1,3.2c0,0,0.4,1.8,0.1,3.7c-2.1-1.7-3.3-6.8-2-9.2l-0.9-0.6
		c-0.9,1.6-3.6,2.9-6.2,2.9c-1,0-1.9-0.2-2.5-0.6l-0.5,0.9c2.3,1.5,3.7,7,2.4,9.4l0.9,0.5c0.9-1.6,3.6-2.9,6.2-2.9
		c1,0,1.8,0.2,2.4,0.5C479.9,348.7,479.3,349.6,478.4,350.2z"/>
	<path class="layout" data-layout="5" d="M526.7,330.3c-1-1.9-2.1-2-2.7-1.8c-0.6,0.2-0.9,0.2-1.1,3.4c-0.2,2.7-2.8,17.2-2.9,17.8c-0.1,0.6-1,2.5,0.9,3.2
		c1.9,0.8,2.9-1.8,2.9-1.8s6.5-10.2,8.8-12c2.3-1.9,2.7-2.1,2.6-3.6c-0.1-1.4-2.6-1.1-2.6-1.1c-1.5,0.1-2.8-0.5-3.7-1.3l0.2,0.1
		c0.9-1.7,3.8-3.1,6.5-3.1c1,0,1.8,0.2,2.4,0.6l0.3-0.5l0.3-0.5c-1.1-0.7-2-2.3-2.5-4.4c-0.5-2-0.4-4,0.3-5.2l-0.9-0.5
		c-0.9,1.7-3.9,3.1-6.5,3.1c-1,0-1.8-0.2-2.4-0.6l-0.5,0.9c1.1,0.7,2,2.4,2.5,4.4c0.5,1.9,0.4,3.8-0.2,5
		C527.3,331.6,526.7,330.3,526.7,330.3z"/>
	<path class="layout" data-layout="5" d="M469.7,384.5l0.3,0.4l0.3,0.4c0.6-0.4,1.4-0.6,2.4-0.6c2.5,0,5.2,1.2,6.1,2.7l0.4-0.3l0,0v0l0.4-0.3
		c-1.3-2.1-0.4-6.8,1.5-8.5c0.7,2,0.2,4.1,0.2,4.1c-0.3,2,0.5,2.8,1.1,3c0.6,0.2,0.8,0.4,2.7-1.8c1.6-1.9,11.6-11,12.1-11.4
		c0.4-0.4,2.2-1.2,1.2-3c-1-1.8-3.2-0.5-3.2-0.5s-10.7,3.5-13.5,3.5c-2.8-0.1-3.2-0.1-4,1c-0.7,1.1,1.4,2.4,1.4,2.4
		c0.7,0.5,1.2,1.2,1.6,1.8c-0.6,0.3-1.3,0.4-2.1,0.4c-2.5,0-5.2-1.2-6.2-2.8l-0.4,0.3l-0.4,0.3C472.9,377.9,471.8,383.1,469.7,384.5
		z"/>
	<path class="layout" data-layout="5" d="M537.4,394l-0.2-0.4l0,0h0l-0.2-0.4c-0.6,0.3-1.4,0.5-2.3,0.5c-2.3,0-4.7-1.1-5.8-2.4c0.8-0.5,1.9-0.9,3.1-0.8
		c0,0,2.4,0.3,2.5-1c0.1-1.3-0.3-1.6-2.4-3.3c-2.1-1.8-8.3-11.5-8.3-11.5s-0.9-2.5-2.8-1.7c-1.9,0.8-1,2.5-0.9,3.1
		c0.1,0.6,2.4,14.3,2.5,16.7c0.1,3,0.4,2.9,1,3.1c0.6,0.2,1.6,0.1,2.6-1.6c0,0,0.6-1.3,1.8-2.4c0.8,2.5-0.6,6.9-2.6,8.1l0.5,0.8
		c0.6-0.3,1.4-0.5,2.3-0.5c2.5,0,5.2,1.3,6.1,2.8l0.4-0.2l0,0v0l0.4-0.2c-0.6-1-0.6-2.8-0.1-4.7C535.4,396.2,536.3,394.6,537.4,394z
		"/>
	<path class="layout" data-layout="5" d="M545.1,387.2c0.9-1.5,3.6-2.7,6.1-2.7c1,0,1.8,0.2,2.4,0.6l0.5-0.9c-2.1-1.4-3.2-6.6-1.8-8.9l-0.4-0.3l0,0l0,0l-0.4-0.3
		c-0.9,1.6-3.7,2.8-6.2,2.8c-0.7,0-1.3-0.1-1.8-0.3c0.4-0.6,0.8-1.2,1.5-1.7c0,0,2.1-1.3,1.4-2.4c-0.7-1.1-1.2-1-4-1
		c-2.8,0.1-13.5-3.5-13.5-3.5s-2.2-1.3-3.2,0.5c-1,1.8,0.7,2.6,1.2,3c0.4,0.4,10.5,9.5,12.1,11.4c1.9,2.2,2.1,2,2.7,1.8
		c0.6-0.2,1.3-1,1.1-3c0,0-0.4-2.1,0.3-4.1c0.7,0.8,1.4,2.1,1.7,3.6c0.4,1.9,0.2,3.7-0.4,4.8L545.1,387.2z"/>
	<path class="layout" data-layout="5" d="M485.3,329.6l0.3,0.5l0.3,0.5c0.6-0.4,1.4-0.6,2.4-0.6c2.6,0,5.5,1.4,6.5,3.1l0.4-0.3l0.4-0.3c-1.4-2.5,0-8.1,2.3-9.5
		l-0.5-0.9c-0.6,0.4-1.4,0.6-2.4,0.6c-2.6,0-5.6-1.4-6.5-3.1l-0.4,0.3l-0.4,0.3c0.6,1.2,0.7,3.2,0.3,5.2
		C487.3,327.3,486.4,329,485.3,329.6z"/>
	<path class="layout" data-layout="5" d="M555.5,340.5l-0.5-0.9c-0.6,0.4-1.5,0.6-2.5,0.6c0,0,0,0,0,0c-2.6,0-5.3-1.3-6.2-2.9l-0.4,0.3l-0.4,0.3
		c0.6,1.1,0.7,3.1,0.2,5.1c-0.4,1.7-1.2,3.1-2,3.9c-0.4-2,0-3.8,0-3.8c0.3-2.1-0.4-3-1-3.2c-0.6-0.2-0.8-0.5-2.8,1.9
		c-1.7,2-12.2,11.5-12.7,11.9c-0.4,0.4-2.2,1.2-1.2,3.1c1,1.9,3.2,0.5,3.2,0.5s10.9-3.6,13.7-3.5c2.8,0.1,3.3,0.1,4.1-1
		c0.8-1.1-1.3-2.5-1.3-2.5c-0.9-0.6-1.4-1.5-1.7-2.3c0.6-0.3,1.3-0.4,2.2-0.4c2.6,0,5.3,1.3,6.2,2.9l0.4-0.3l0.4-0.3
		C551.8,347.5,553.2,341.9,555.5,340.5z"/>
	<path class="layout" data-layout="5" d="M413.6,327.9c0,1.2,0.2,2.3,0.5,3.3c0.1,0.5,0.3,1,0.4,1.4c0.2,0.4,0.4,0.8,0.5,1.2c0.4,0.7,0.7,1.4,1.1,1.9
		c0.3,0.6,0.6,0.8,0.8,1.1c0.2,0.2,0.3,0.4,0.3,0.4c0.5,0.6,1.3,0.7,1.9,0.3c0.6-0.4,0.8-1.3,0.4-2c0,0-0.1-0.1-0.2-0.4
		c-0.1-0.2-0.4-0.6-0.6-1c-0.2-0.4-0.5-0.9-0.8-1.5c-0.1-0.3-0.2-0.7-0.4-1c-0.1-0.4-0.2-0.7-0.3-1.1c-0.2-0.8-0.3-1.7-0.2-2.6
		c0-0.9,0.1-1.9,0.5-2.8c0.3-0.9,0.7-1.9,1.3-2.7c0.1-0.2,0.3-0.4,0.5-0.6c0.2-0.2,0.3-0.4,0.5-0.6l0.5-0.5l0.7-0.6
		c0.5-0.3,0.8-0.6,1.3-0.9c0.5-0.3,0.9-0.5,1.4-0.8c1-0.5,2-0.8,3-1c1-0.3,1.9-0.4,2.8-0.4c0.4,0,0.9,0,1.3,0
		c0.4,0.1,0.8,0.1,1.1,0.2c0.7,0.2,1.2,0.4,1.7,0.7c0.2,0.1,0.4,0.3,0.6,0.4c0.2,0.2,0.3,0.3,0.4,0.4c0.1,0.1,0.2,0.2,0.3,0.4
		c0.1,0.1,0.2,0.2,0.2,0.3c0.1,0.2,0.2,0.2,0.2,0.2l0.3,0.3c0,0,0,0,0,0c0.9,1.1,2.5,1.2,3.6,0.3s1.2-2.5,0.3-3.6
		c0,0-0.1-0.2-0.4-0.5c-0.1-0.1-0.3-0.3-0.5-0.5c-0.2-0.2-0.4-0.4-0.7-0.7c-0.3-0.2-0.6-0.5-0.9-0.8c-0.4-0.2-0.8-0.5-1.2-0.7
		c-0.9-0.4-1.9-0.8-3-1c-0.6-0.1-1.1-0.1-1.7-0.2c-0.6,0-1.2,0-1.8,0.1c-1.2,0.1-2.5,0.3-3.7,0.7c-1.2,0.4-2.5,0.9-3.7,1.5
		c-0.6,0.3-1.2,0.7-1.7,1.1c-0.5,0.3-1.2,0.9-1.7,1.3l-0.7,0.6l0,0l-0.1,0.1l0,0l-0.1,0.1l-0.2,0.2l-0.3,0.4
		c-0.2,0.3-0.4,0.6-0.6,0.8c-0.2,0.3-0.4,0.6-0.6,0.9c-0.7,1.2-1.2,2.5-1.6,3.8C413.6,325.5,413.6,326.8,413.6,327.9z"/>
	<path class="layout" data-layout="5" d="M589.1,320C589.1,319.9,589.1,319.9,589.1,320l0.3-0.4c0,0,0.1-0.1,0.2-0.2c0.1-0.1,0.1-0.2,0.2-0.3
		c0.1-0.1,0.2-0.2,0.3-0.4c0.1-0.1,0.3-0.3,0.4-0.4c0.2-0.1,0.4-0.2,0.6-0.4c0.4-0.3,1-0.5,1.7-0.7c0.3-0.1,0.7-0.1,1.1-0.2
		c0.4,0,0.8-0.1,1.3,0c0.9,0,1.8,0.1,2.8,0.4c1,0.2,2,0.6,3,1c0.5,0.2,1,0.5,1.4,0.8c0.5,0.3,0.8,0.5,1.3,0.9l0.7,0.6l0.5,0.5
		c0.2,0.2,0.3,0.4,0.5,0.6c0.2,0.2,0.3,0.4,0.5,0.6c0.6,0.8,1,1.8,1.3,2.7c0.3,0.9,0.4,1.9,0.5,2.8c0,0.9-0.1,1.8-0.2,2.6
		c-0.1,0.4-0.2,0.8-0.3,1.1c-0.1,0.4-0.2,0.7-0.4,1c-0.3,0.6-0.5,1.1-0.8,1.5c-0.2,0.4-0.5,0.8-0.6,1c-0.2,0.2-0.2,0.4-0.2,0.4
		c-0.4,0.6-0.3,1.5,0.4,2c0.6,0.4,1.5,0.3,1.9-0.3c0,0,0.1-0.1,0.3-0.4c0.2-0.2,0.4-0.5,0.8-1.1c0.4-0.5,0.7-1.2,1.1-1.9
		c0.2-0.4,0.3-0.8,0.5-1.2c0.1-0.4,0.3-0.9,0.4-1.4c0.3-1,0.5-2.1,0.5-3.3c0-1.2-0.1-2.5-0.4-3.8c-0.3-1.3-0.8-2.6-1.6-3.8
		c-0.2-0.3-0.4-0.6-0.6-0.9c-0.2-0.3-0.4-0.6-0.6-0.8l-0.3-0.4l-0.2-0.2l-0.1-0.1l0,0l-0.1-0.1l0,0l-0.7-0.6c-0.5-0.4-1.2-1-1.7-1.3
		c-0.6-0.4-1.2-0.8-1.7-1.1c-1.2-0.6-2.4-1.2-3.7-1.5c-1.2-0.4-2.5-0.6-3.7-0.7c-0.6-0.1-1.2,0-1.8-0.1c-0.6,0.1-1.2,0.1-1.7,0.2
		c-1.1,0.2-2.2,0.6-3,1c-0.4,0.2-0.8,0.5-1.2,0.7c-0.3,0.3-0.6,0.5-0.9,0.8c-0.3,0.2-0.5,0.5-0.7,0.7c-0.2,0.2-0.3,0.4-0.5,0.5
		c-0.2,0.3-0.4,0.5-0.4,0.5c-0.9,1.1-0.7,2.7,0.3,3.6S588.2,321,589.1,320z"/>
</g>
</svg>