<svg xmlns="http://www.w3.org/2000/svg" xmlns:xlink="http://www.w3.org/1999/xlink" x="0px" y="0px" viewBox="0 0 1024 768" >
<g>
	<path class="layout" data-layout="5" d="M495.2,296.8c0,0-0.4,0.2-1.6-0.7c-1.4-1-6.5-5.2-8.4-9.8c-1.9-4.6-1.4-12.6,4.1-14.7c5.4-2.1,10.2,3.4,10.6,4.1
		c0.4,0.7,7,9.2,3.6,22.5c0,0-0.9,2.5-2.1,2.5c-1.2,0.1-0.1-1.3-0.3-5.9c-0.2-4.5-1.5-14.1-6.1-13.3c-4.5,0.8-2.3,10.2-0.1,13.6
		C494.9,295.2,495.8,296.7,495.2,296.8z"/>
	<path class="layout" data-layout="5" d="M503,347c-5.1,2.4-16.1-2.1-20-7.7c-3.9-5.5-11.4-6.9-12.2-6.9c-0.8-0.1-2.4,0.1-2.4-0.6c0-0.7,1.7-0.9,1.7-0.9
		c7.8-0.7,11.9,0.4,16.8,4.6c4.9,4.2,9.2,5.9,11.6,6.7c2.4,0.8,2.3-1.9,2.3-1.9c-0.5-3-2.6-10.4-10.7-17.3
		c-10.2-8.6-9.6-16.8-9.6-17.7c0-0.8,0-13.7,5.7-12.5c5.7,1.2,2.7,6.1,1.9,7.3c-0.8,1.2-5.1,4.7-4.3,10.9c0.8,6.2,5.6,9.5,5.6,9.5
		s-1.6-5.9,0.1-9.7c0,0,0.7-1.3,1.1-1.4c0.4-0.1-0.4,7.2,7.2,13.3c7.6,6.1,9.5,13.6,8.8,19.4C506.4,342.2,506.1,345.6,503,347z"/>
	<path class="layout" data-layout="5" d="M528.8,296.8c0,0,0.4,0.2,1.6-0.7c1.4-1,6.5-5.2,8.4-9.8c1.9-4.6,1.4-12.6-4.1-14.7c-5.4-2.1-10.2,3.4-10.6,4.1
		c-0.4,0.7-7,9.2-3.6,22.5c0,0,0.9,2.5,2.1,2.5c1.2,0.1,0.1-1.3,0.3-5.9c0.2-4.5,1.5-14.1,6.1-13.3c4.5,0.8,2.3,10.2,0.1,13.6
		C529.1,295.2,528.2,296.7,528.8,296.8z"/>
	<path class="layout" data-layout="5" d="M572.1,337.3c0,0-0.2-0.4,0.7-1.6c1-1.4,5.5-6.3,10.4-8.2c4.9-1.9,13.6-1.5,16.1,3.8c2.5,5.3-3.5,10-4.2,10.4
		c-0.7,0.4-9.9,6.9-24.3,3.6c0,0-2.7-0.9-2.8-2c-0.1-1.1,1.4-0.1,6.3-0.3c4.9-0.3,15.3-1.6,14.3-6c-1-4.4-11.1-2.2-14.8,0
		C573.8,337,572.2,337.9,572.1,337.3z"/>
	<path class="layout" data-layout="5" d="M572.8,370.3c0,0-0.2,0.4,0.8,1.6c1.1,1.4,5.9,6.5,11,8.5c5.1,2,14,1.5,16.1-4c2.1-5.5-4.1-10.2-4.9-10.7
		c-0.8-0.4-10.3-7-24.7-3.7c0,0-2.7,0.9-2.7,2c0,1.1,1.4,0.1,6.4,0.3c4.9,0.3,15.5,1.6,14.7,6.1c-0.8,4.6-11.2,2.2-15,0
		C574.6,370.6,572.9,369.7,572.8,370.3z"/>
	<path class="layout" data-layout="5" d="M451.9,337.3c0,0,0.2-0.4-0.7-1.6c-1-1.4-5.5-6.3-10.4-8.2c-4.9-1.9-13.6-1.5-16.1,3.8c-2.5,5.3,3.5,10,4.2,10.4
		c0.7,0.4,9.9,6.9,24.3,3.6c0,0,2.7-0.9,2.8-2c0.1-1.1-1.4-0.1-6.3-0.3c-4.9-0.3-15.3-1.6-14.3-6c1-4.4,11.1-2.2,14.8,0
		C450.2,337,451.8,337.9,451.9,337.3z"/>
	<path class="layout" data-layout="5" d="M451.2,370.3c0,0,0.2,0.4-0.8,1.6c-1.1,1.4-5.9,6.5-11,8.5c-5.1,2-14,1.5-16.1-4c-2.1-5.5,4.1-10.2,4.9-10.7
		c0.8-0.4,10.3-7,24.7-3.7c0,0,2.7,0.9,2.7,2c0,1.1-1.4,0.1-6.4,0.3c-4.9,0.3-15.5,1.6-14.7,6.1c0.8,4.6,11.2,2.2,15,0
		C449.4,370.6,451.1,369.7,451.2,370.3z"/>
	<path class="layout" data-layout="5" d="M521,347c5.1,2.4,16.1-2.1,20-7.7c3.9-5.5,11.4-6.9,12.2-6.9c0.8-0.1,2.4,0.1,2.4-0.6c0-0.7-1.7-0.9-1.7-0.9
		c-7.8-0.7-11.9,0.4-16.8,4.6c-4.9,4.2-9.2,5.9-11.6,6.7c-2.4,0.8-2.3-1.9-2.3-1.9c0.5-3,2.6-10.4,10.7-17.3
		c10.2-8.6,9.6-16.8,9.6-17.7c0-0.8,0-13.7-5.7-12.5c-5.7,1.2-2.7,6.1-1.9,7.3c0.8,1.2,5.1,4.7,4.3,10.9c-0.8,6.2-5.6,9.5-5.6,9.5
		s1.6-5.9-0.1-9.7c0,0-0.7-1.3-1.1-1.4s0.4,7.2-7.2,13.3c-7.6,6.1-9.5,13.6-8.8,19.4C517.6,342.2,517.9,345.6,521,347z"/>
	<path class="layout" data-layout="5" d="M488.3,436c0,0-1.8,6.4-0.1,10.6c0,0,0.7,1.5,1.1,1.5s-0.3-7.9,7.7-14.5c7.9-6.6,10-14.5,9.2-20.7c0,0-0.7-3.2-3-3.2
		s-2.6,2.9-2.6,3.7c0,0.7-0.8,10.7-11.5,20c-10.8,9.3-10.4,18.5-10.4,19.4c0,0.9-0.4,15.4,5.7,14c6.1-1.4,3-6.9,2.1-8.3
		c-0.8-1.4-5.2-5.3-4.3-12.1C483.3,439.6,488.3,436,488.3,436z"/>
	<path class="layout" data-layout="5" d="M494.2,462.3c0,0-0.5-0.2-1.7,0.8c-1.5,1.1-7,5.9-9.1,11.2c-2.1,5.3-1.8,14.5,4.1,17c5.9,2.4,11.1-4,11.5-4.8
		c0.5-0.8,7.6-10.6,4.1-25.7c0,0-1-2.8-2.2-2.8c-1.2-0.1-0.1,1.5-0.4,6.6c-0.3,5.1-1.8,16.1-6.6,15.2c-4.9-0.9-2.3-11.7,0.1-15.6
		C493.9,464.1,494.8,462.4,494.2,462.3z"/>
	<path class="layout" data-layout="5" d="M488.4,399.4c0,0-3.2-6.8,0.5-14c0,0,2.4-3.8,6.2-7.7c3.8-3.9,5.6-11.8,4.7-12.4c-0.9-0.5-8.4-1-16.1,5.8
		c-7.8,6.8-14.8,6.7-20.2,4.4c0,0-0.6-0.4,1.2-0.8c1.8-0.4,6-0.3,9.8-3.2c3.8-2.9,9.3-9.4,13.2-10.6c3.9-1.2,13.6-2,16,0
		c2.4,2,2.4,8.7,0.6,13.9c-1.8,5.2-8.6,10.1-9.8,11.6c-1.1,1.5-4,4.7-5.5,11.2C489,397.7,488.6,400,488.4,399.4z"/>
	<path class="layout" data-layout="5" d="M535.7,436c0,0,1.8,6.4,0.1,10.6c0,0-0.7,1.5-1.1,1.5s0.3-7.9-7.7-14.5c-7.9-6.6-10-14.5-9.2-20.7c0,0,0.7-3.2,3-3.2
		s2.6,2.9,2.6,3.7c0,0.7,0.8,10.7,11.5,20c10.8,9.3,10.4,18.5,10.4,19.4c0,0.9,0.4,15.4-5.7,14c-6.1-1.4-3-6.9-2.1-8.3
		c0.8-1.4,5.2-5.3,4.3-12.1C540.7,439.6,535.7,436,535.7,436z"/>
	<path class="layout" data-layout="5" d="M529.8,462.3c0,0,0.5-0.2,1.7,0.8c1.5,1.1,7,5.9,9.1,11.2c2.1,5.3,1.8,14.5-4.1,17c-5.9,2.4-11.1-4-11.5-4.8
		c-0.5-0.8-7.6-10.6-4.1-25.7c0,0,1-2.8,2.2-2.8c1.2-0.1,0.1,1.5,0.4,6.6c0.3,5.1,1.8,16.1,6.6,15.2c4.9-0.9,2.3-11.7-0.1-15.6
		C530.1,464.1,529.2,462.4,529.8,462.3z"/>
	<path class="layout" data-layout="5" d="M535.6,399.4c0,0,3.2-6.8-0.5-14c0,0-2.4-3.8-6.2-7.7c-3.8-3.9-5.6-11.8-4.7-12.4c0.9-0.5,8.4-1,16.1,5.8
		c7.8,6.8,14.8,6.7,20.2,4.4c0,0,0.6-0.4-1.2-0.8c-1.8-0.4-6-0.3-9.8-3.2c-3.8-2.9-9.3-9.4-13.2-10.6c-3.9-1.2-13.6-2-16,0
		c-2.4,2-2.4,8.7-0.6,13.9c1.8,5.2,8.6,10.1,9.8,11.6c1.1,1.5,4,4.7,5.5,11.2C535,397.7,535.4,400,535.6,399.4z"/>
	<g>
		<path class="layout" data-layout="5" d="M531.2,495.8c-12.4-7.7-14.2-28.8-14.3-29l0-6c0.4-7.4,3.4-8.3,5.7-8.3c2.1,0,3.7,3.1,4.1,4.7c0.2,0.7,0.2,1.4,0.2,1.9
			c0,0.6,0,1,0.3,1.3c0.1,0.1,0.3,0.2,0.6,0.2c1,0,1.6-1.8,1.8-2.5c0.1-0.4,2.9-10.7,0.8-17c-1.6-4.8-4.9-7.8-7.9-10.5
			c-1-0.9-1.9-1.7-2.6-2.5c-2.9-3.1-2.9-7.7-2.9-7.7l0-8.3c0.1-5.5,2.4-9.1,5.7-9.1c2.2,0,3.5,1.9,3.9,5.7l0,0.1
			c0.2,1.9,0.7,2.8,1.4,2.8c0.9,0,1.3-1.5,1.4-2.5c0-0.1,1.1-7.4,1-14.5c0-5.9-6.3-11.2-9.6-14c-0.8-0.7-1.4-1.2-1.7-1.5
			c-1.5-1.7-1.7-5.6-1.7-5.7l0-12.2l-3.6,3.5l0,10.2c0,0.2,0.3,4.4,2.9,7.1c0.3,0.3,0.8,0.7,1.2,1.2c3.1,2.8,8.2,7.4,8.5,17.9
			c-1-0.5-2.9-1.4-5.1-1.4c-1.3,0-2.4,0.3-3.4,1c-4.1,2.6-4.1,5.9-4.1,8.6l0,13.8c0,0.2,0,4.5,2.8,7.6c0.5,0.6,1.2,1.1,1.9,1.8
			c3.4,3,8.4,7.4,8.2,17.8c-0.8-0.5-2.4-1.3-4.4-1.3c-1.5,0-3,0.4-4.5,1.3c-0.2,0.1-3.8,2.7-3.9,7.3c-0.1,4.4,0,12.3,0,12.4
			c0,0.2,0.2,3.7,1.2,7.6c0.9,3.1,3.4,12.7,11.7,20.3c-2.4,2.1-12.4,11.1-14.6,15.8c-2.2-4.7-12.2-13.7-14.6-15.8
			c8.2-7.7,10.8-17.2,11.7-20.3c1-3.8,1.2-7.4,1.2-7.6c0-0.1,0.1-7.9,0-12.4c-0.1-4.6-3.8-7.2-4-7.3c-1.5-0.9-3-1.3-4.5-1.3
			c-2,0-3.6,0.8-4.4,1.3c-0.2-10.4,4.9-14.9,8.2-17.8c0.8-0.7,1.4-1.2,1.9-1.8c2.8-3.1,2.8-7.4,2.8-7.6l0-13.8c0-2.7,0-6-4.1-8.6
			c-1-0.6-2.2-1-3.4-1c-2.1,0-4.1,0.9-5.1,1.4c0.3-10.4,5.4-15.1,8.5-17.9c0.5-0.4,0.9-0.8,1.2-1.2c2.6-2.6,2.9-6.9,2.9-7.1l0-10.2
			l-3.6-3.5l0,12.2c0,0-0.2,4-1.7,5.7c-0.3,0.3-0.9,0.9-1.7,1.5c-3.3,2.8-9.6,8.1-9.6,14c0,7.1,1,14.4,1,14.5
			c0.2,0.9,0.6,2.5,1.4,2.5c0.8,0,1.2-0.9,1.4-2.8l0-0.1c0.4-3.8,1.7-5.7,3.9-5.7c3.3,0,5.6,3.6,5.7,9.1l0,8.3c0,0-0.1,4.6-2.9,7.7
			c-0.8,0.8-1.7,1.7-2.6,2.5c-2.9,2.7-6.3,5.7-7.9,10.5c-2.1,6.3,0.7,16.5,0.8,17c0.2,0.8,0.8,2.5,1.8,2.5c0.3,0,0.5-0.1,0.6-0.2
			c0.3-0.3,0.3-0.7,0.3-1.3c0-0.5,0-1.2,0.2-1.9c0.4-1.6,2-4.7,4.1-4.7c2.2,0,5.3,0.9,5.7,8.3l0,6c0,0.2-1.9,21.3-14.2,29
			c-1,0.5-2.1,1.3-2.1,2c0,0.7,0.3,1.2,1.9,2.2c1.4,0.9,14.3,11.6,17.5,18.9c1,3.9,1.6,3.9,1.9,3.9s0.9,0,1.9-3.9
			c3.2-7.4,16.1-18.1,17.5-19c1.6-1,1.9-1.6,1.9-2.2C533.3,497.1,532.1,496.3,531.2,495.8z M512,515.1L512,515.1L512,515.1
			L512,515.1z"/>
		<path class="layout" data-layout="5" d="M625.9,352c-7-2.9-17.4-14.6-18.2-15.9c-1-1.4-1.5-1.7-2.1-1.7c-0.7,0-1.3,1-1.8,1.9c-6.9,11.2-26.9,12.9-27.1,12.9
			l-5.8,0c-7.2-0.4-8-3.2-8.1-5.3c0-1.9,3-3.4,4.5-3.7c0.6-0.1,1.1-0.2,1.6-0.2l0.4,0c0.5,0,1.3,0,1.3-0.8c0-0.9-1.7-1.4-2.4-1.6
			c-0.1,0-5.7-1.5-11-1.5c-2.1,0-3.9,0.2-5.4,0.7c-4.6,1.4-7.5,4.5-10.1,7.2c-0.9,0.9-1.7,1.7-2.5,2.4c-3,2.7-7.5,2.7-7.6,2.7h-11.1
			l3.1,2.9H534c0.2,0,4.4,0,7.5-2.6c0.5-0.5,1.1-1.1,1.8-1.8c2.8-3.1,7.2-7.8,17.2-7.5c-0.8,1.3-2.3,4.5,0.1,8.3
			c0.1,0.1,2.6,3.6,7.1,3.7c4.3,0.1,11.9,0,11.9,0c0.1,0,3.6-0.2,7.2-1.1c3-0.8,11.9-3.1,18.8-10.6c2.1,2.2,10.8,11.3,15.2,13.3
			c-4.3,2-12.4,11.2-14.3,13.5c-7.5-7.6-16.6-9.9-19.6-10.7c-3.7-1-7.1-1.1-7.3-1.1c0,0-7.6-0.1-11.9,0c-4.5,0.1-6.9,3.5-7,3.7
			c-2.3,3.8-0.7,7,0.2,8.3c-10.2,0.2-14.7-4.5-17.6-7.6c-0.7-0.7-1.2-1.3-1.8-1.8c-3.1-2.6-7.3-2.6-7.5-2.6h-10.6l-3.1,3h11.2
			c0,0,4.6,0.1,7.7,2.8c0.8,0.7,1.6,1.6,2.5,2.5c2.7,2.8,5.7,5.9,10.4,7.4c1.5,0.5,3.3,0.7,5.5,0.7c5.4,0,11.1-1.5,11.1-1.5
			c0.7-0.2,2.4-0.7,2.4-1.7c0-0.8-0.9-0.8-1.3-0.8l-0.4,0c-0.5,0-1,0-1.6-0.2c-1.6-0.4-4.6-1.9-4.7-3.8c0-2.1,0.7-4.9,7.9-5.3l5.8,0
			c0.2,0,20.4,1.7,28.1,13.1c0.5,0.9,1.3,2,2,2c0.6,0,1.1-0.3,2-1.8c0.8-1.3,10.3-13.2,17.1-16.1c3.6-0.9,3.6-1.5,3.6-1.7
			C629.5,353.5,629.5,352.9,625.9,352z"/>
		<path class="layout" data-layout="5" d="M503.6,358.3l-3.1-3h-10.6c-0.2,0-4.4,0-7.5,2.6c-0.6,0.5-1.1,1.1-1.8,1.8c-2.9,3.1-7.4,7.9-17.6,7.6
			c0.9-1.3,2.5-4.5,0.1-8.4c-0.1-0.1-2.5-3.6-7-3.7c-4.3-0.1-11.9,0-11.9,0c-0.1,0-3.6,0.2-7.3,1.1c-3,0.8-12.1,3.2-19.6,10.7
			c-1.9-2.2-10-11.4-14.3-13.5c4.4-2,13.1-11.1,15.2-13.3c6.9,7.5,15.9,9.8,18.8,10.6c3.6,1,7,1.1,7.2,1.1c0,0,7.6,0.1,11.9,0
			c4.5-0.1,7-3.5,7.1-3.7c2.4-3.8,1-6.9,0.1-8.2c10.1-0.2,14.4,4.5,17.2,7.5c0.6,0.7,1.2,1.3,1.8,1.8c3,2.6,7.3,2.6,7.5,2.6h10.6
			l3.1-2.9h-11.1c0,0-4.5-0.1-7.6-2.7c-0.8-0.7-1.6-1.5-2.5-2.4c-2.6-2.7-5.5-5.8-10.1-7.2c-1.5-0.5-3.3-0.7-5.4-0.7
			c-5.3,0-11,1.5-11,1.5c-0.7,0.2-2.4,0.7-2.5,1.6c0,0.8,0.8,0.8,1.3,0.8l0.4,0c0.5,0,1,0,1.6,0.2c1.5,0.3,4.5,1.8,4.5,3.7
			c0,2.1-0.9,4.9-8.1,5.3l-5.7,0c-0.2,0-20.2-1.7-27.1-12.9c-0.5-0.9-1.2-1.9-1.8-1.9c-0.6,0-1.2,0.3-2.1,1.7
			c-0.9,1.3-11.2,13-18.2,15.9c-3.7,0.9-3.7,1.5-3.7,1.7c0,0.2,0,0.8,3.5,1.7c6.8,2.9,16.4,14.8,17.1,16.1c0.9,1.5,1.4,1.8,2,1.8
			c0.7,0,1.4-1.1,2-2c7.7-11.4,27.9-13.1,28-13.1l5.8,0c7.2,0.4,8,3.2,7.9,5.3c0,1.9-3.1,3.4-4.7,3.8c-0.6,0.1-1.1,0.2-1.6,0.2
			l-0.4,0c-0.5,0-1.3,0-1.3,0.8c0,0.9,1.7,1.5,2.4,1.7c0.1,0,5.7,1.5,11.1,1.5c2.1,0,4-0.2,5.5-0.7c4.7-1.5,7.7-4.6,10.4-7.4
			c0.9-0.9,1.7-1.8,2.5-2.5c3.1-2.7,7.6-2.8,7.7-2.8H503.6z"/>
		<path class="layout" data-layout="5" d="M494.3,267.7c11.4,6.6,13,25,13,25.1l0,5.3c-0.4,6.6-3.3,7.4-5.4,7.4c-1.9,0-3.5-2.8-3.8-4.3c-0.2-0.6-0.2-1.2-0.1-1.7
			c0-0.5,0-0.9-0.3-1.2c-0.1-0.1-0.3-0.2-0.6-0.2c-0.9,0-1.5,1.6-1.7,2.2c-0.1,0.4-2.9,9.6-0.9,15.3c1.5,4.4,4.6,7.2,7.4,9.7
			c0.9,0.8,1.8,1.6,2.5,2.4c2.8,2.9,2.8,7.2,2.8,7.2l0,10.6l3.1-2.9l0-10.1c0-0.2,0-4.2-2.7-7.1c-0.5-0.5-1.1-1.1-1.8-1.7
			c-3.2-2.7-8-6.8-7.7-16.3c0.8,0.5,2.3,1.2,4.2,1.2c1.4,0,2.9-0.4,4.3-1.2c0.1-0.1,3.7-2.4,3.8-6.6c0.1-3.9,0-10.9,0-11
			c0-0.1-0.2-3.3-1.1-6.6c-0.8-2.7-3.2-10.9-10.7-17.4c2.2-1.8,11.4-9.3,13.5-13.2c2.1,3.9,11.2,11.4,13.5,13.2
			c-7.6,6.5-9.9,14.7-10.7,17.4c-1,3.3-1.1,6.5-1.1,6.6c0,0.1-0.1,7,0,10.9c0.1,4.2,3.6,6.5,3.8,6.6c1.4,0.8,2.8,1.2,4.3,1.2
			c1.9,0,3.4-0.7,4.2-1.2c0.3,9.5-4.5,13.6-7.7,16.3c-0.7,0.6-1.4,1.2-1.8,1.7c-2.7,2.9-2.7,6.9-2.7,7.1l0,10.1l3.1,2.9l0-10.6
			c0,0,0-4.3,2.8-7.2c0.7-0.8,1.6-1.5,2.5-2.4c2.8-2.5,6-5.3,7.4-9.7c1.9-5.7-0.8-14.9-0.9-15.3c-0.2-0.7-0.7-2.2-1.7-2.2
			c-0.3,0-0.5,0.1-0.6,0.2c-0.3,0.3-0.3,0.6-0.3,1.2c0,0.5,0,1-0.1,1.7c-0.3,1.4-1.9,4.3-3.8,4.3c-2.1,0-5-0.8-5.4-7.4l0-5.3
			c0-0.2,1.7-18.6,13-25.1c0.9-0.5,2-1.1,1.9-1.7c0-0.6-0.3-1-1.8-1.9c-1.3-0.7-13.2-9.7-16.1-15.8c-0.9-3.2-1.5-3.2-1.7-3.2
			c-0.2,0-0.8,0-1.7,3.2c-2.9,6.1-14.8,15.1-16.1,15.8c-1.5,0.8-1.8,1.3-1.8,1.9C492.4,266.6,493.5,267.3,494.3,267.7z"/>
	</g>
</g>
</svg>
