<svg xmlns="http://www.w3.org/2000/svg" xmlns:xlink="http://www.w3.org/1999/xlink" x="0px" y="0px" viewBox="0 0 1024 768" >
<path class="layout" data-layout="5" d="M619.2,291.5c3.5-4,2.7-6.4,0.5-7c-1.8-0.4-19.5,16-22.4,18.5c-2.9,2.5-70.9,67-70.9,67L512,384l-14.4-14
	c0,0-68.1-64.5-70.9-67c-2.9-2.5-20.6-18.9-22.4-18.5c-2.2,0.5-3,2.9,0.5,7c5.9,6.7,82.2,86.9,82.2,86.9l15.2,15.1l-22.6,22
	c0,0-6.1-0.9-8.8-0.5c0,0-4.2-5.7-5.2-7.3c-1-1.6-0.5-3.8-2.1-4.9c-1-0.7-2.2-0.7-3.3-0.3c0.5-1,0.6-2,0.2-2.7
	c-0.9-1.4-3.7-1.2-6.2,0.4c-2.5,1.6-3.8,4.1-2.9,5.5c0.7,1.1,2.7,1.2,4.8,0.3c-0.9,1.3-1.5,2.8-0.6,4.4c1.3,2.6,3.8,2.3,5.4,3.8
	c1.6,1.5,5.2,3.9,5.2,4.8c-0.1,0.8-0.1,5.9,1,11.1c0,0-1.6,1-3,1.9c-1.4,0.9-7.5,4.7-11.6,13.6c0,0-5.1-1.2-4.7,4.1
	c0,0-5.4,5.1-6.4,5.2c-1.9,0.1-2.9-0.6-4.7,1.5c-2.3,2.7-2,2.5-1.2,5.4c0.4,1.5-0.5,1.7-1.1,2.3c-0.7,0.6-0.6,2,0.1,3.3
	c-1.8,0.3-3.5,0.8-4.8,1.8c-0.6,0.4-1.1,1-1.6,1.5c-0.7,0.8-1.4,1.5-2.4,2c-1.8,0.8-4.3,0.5-6.8,0c-0.4-0.1-0.8-0.2-1.2-0.2l0.1,0.6
	c0.4,0.1,0.8,0.2,1.1,0.2c0.5,0.1,0.9,0.3,1.4,0.6c1.8,1,3,2.6,3,4l0.1,2l0.7-1.7c0.6-1.5,1.8-2.7,3.4-3.5c0.1-0.1,0.3-0.1,0.4-0.2
	c0.5-0.2,1-0.4,1.3-0.8c0.6-0.5,0.9-1.3,1.1-2c0.3-0.8,0.5-1.5,1.1-1.9c0.6-0.4,1.5-0.5,2.4-0.6l0.5-0.1c0.1,0,0.2,0,0.2,0
	c-1,1.3-2.1,2.7-2.2,4.5c0,0.2,0,0.4,0,0.6c0,0.4,0,0.7-0.1,1c-0.1,0.7-0.6,1.2-1,1.8c-0.6,0.8-1.3,1.8-2.4,2.4
	c-0.3,0.1-0.6,0.2-0.8,0.4l-0.2,0.2l-1,0.6l0.5-0.1l-0.7,0.6l2-0.7c0.2-0.1,0.5-0.2,0.7-0.3c0.5-0.1,1.2,0,1.7,0
	c1.7,0.2,3.5,0.4,5.2,0.7l0.6,0.1l-0.4-0.5c-0.6-0.9-1.4-1.9-1.7-2.8c-0.3-0.8-0.3-1.6-0.3-2.3c0-2.2,0.4-4.2,1.2-6.1
	c1,0.8,2.4,1.2,3.9,0.4c1.5-0.8,1.7-0.4,3.4,0.3c1.6,0.7,7.7-1.7,7.5-5.3c-0.2-3.7-0.4-4.6,4-8.1c0,0,3.6-0.6,3.8-4.3
	c0,0,11.2-6.1,15.4-15.1c0,0,4.5,2.7,9.5,3.6c0.8,0.1,3.9,4.2,4,4.9c0.1,0.7-0.6,5.7,5.7,5.6c-0.5,1-0.6,2-0.2,2.7
	c0.9,1.4,3.7,1.2,6.2-0.4s3.8-4.1,2.9-5.5c-0.7-1-2.4-1.2-4.2-0.6c0.7-3-0.6-6.8-4-6.8c0,0-3.9-3.5-4.7-4.9
	c-0.4-0.7,0.8-6.2,0.8-10.1l22.5-22.4l22.5,22.4c0,3.9,1.1,9.4,0.8,10.1c-0.7,1.4-4.7,4.9-4.7,4.9c-3.4,0-4.8,3.8-4,6.9
	c-1.9-0.7-3.6-0.5-4.3,0.5c-0.9,1.4,0.4,3.9,2.9,5.5c2.5,1.6,5.3,1.8,6.2,0.4c0.5-0.7,0.4-1.7-0.2-2.7c6.4,0.2,5.7-4.9,5.8-5.6
	c0.1-0.7,3.2-4.7,4-4.9c5-0.9,9.5-3.6,9.5-3.6c4.3,9,15.4,15.1,15.4,15.1c0.2,3.7,3.8,4.3,3.8,4.3c4.4,3.5,4.2,4.5,4,8.1
	c-0.2,3.6,5.9,6,7.5,5.3c1.7-0.7,1.9-1.1,3.4-0.3c0.6,0.3,1.3,0.4,1.8,0.4c-1.2,1.2-2.2,2.6-2.3,3.9c-0.1,0.6,0,1.2,0.1,1.7
	c0.1,0.9,0.3,1.7-0.1,2.5c-0.7,1.5-3,2.8-5.4,4c-0.4,0.2-0.9,0.4-1.2,0.6l0.7,0.3c0.4-0.2,0.7-0.4,1.1-0.5c0.5-0.2,1.1-0.4,1.7-0.5
	c2.4-0.5,4.9-0.3,6.3,0.4l1.9,1.1l-1.1-1.3c-0.9-1.2-1.1-2.6-0.6-3.9c0.1-0.1,0.1-0.2,0.2-0.4c0.2-0.4,0.4-0.8,0.4-1.2
	c0-0.6-0.5-1.2-1-1.7c-0.5-0.6-1-1.1-0.9-1.7c0.1-0.6,0.7-1.2,1.4-1.8l0.3-0.3c0.1-0.1,0.1-0.1,0.2-0.2c0.3,1.3,0.8,2.7,2.4,3.8
	c0.2,0.1,0.4,0.2,0.6,0.3c0.3,0.2,0.6,0.4,0.9,0.6c0.5,0.5,0.7,1,0.9,1.6c0.3,0.8,0.6,1.8,0.3,2.7c-0.2,0.2-0.3,0.4-0.3,0.6l0,0.3
	l-0.3,0.9l0.3-0.3l0,0.7l1-1.6c0.1-0.2,0.2-0.4,0.3-0.6c0.3-0.4,0.9-0.7,1.4-1c1.6-0.9,3.2-1.8,4.8-2.7l0.6-0.3l-0.8-0.1
	c-1.3-0.1-2.9-0.2-4.1-0.6c-1-0.3-1.8-0.7-2.4-1.1c-2-1.2-3.7-2.6-4.8-4.1l0,0c0.8-1,1.5-2,1.9-3l0.5-1.2l-1,0.8
	c0.3-1,0.3-2-0.3-2.6c-0.6-0.5-1.5-0.7-1.1-2.3c0.7-3,1-2.7-1.2-5.4c-1.8-2.1-2.7-1.4-4.7-1.5c-1-0.1-6.4-5.2-6.4-5.2
	c0.4-5.4-4.7-4.1-4.7-4.1c-4.2-8.9-10.3-12.7-11.6-13.6c-1.4-0.9-3-1.9-3-1.9c1.1-5.2,1.1-10.3,1-11.1c-0.1-0.8,3.6-3.3,5.2-4.8
	c1.6-1.5,4.1-1.2,5.4-3.8c0.8-1.6,0.3-3.1-0.6-4.3c2,0.8,3.9,0.7,4.6-0.4c0.9-1.4-0.4-3.9-2.9-5.5c-2.5-1.6-5.3-1.8-6.2-0.4
	c-0.5,0.7-0.4,1.7,0.1,2.6c-1.1-0.4-2.3-0.3-3.2,0.3c-1.7,1.1-1.1,3.3-2.1,4.9c-1,1.6-5.2,7.3-5.2,7.3c-2.7-0.4-8.8,0.5-8.8,0.5
	l-22.6-22l15.2-15.1C537,378.4,613.3,298.2,619.2,291.5z"/>
</svg>