<svg xmlns="http://www.w3.org/2000/svg" xmlns:xlink="http://www.w3.org/1999/xlink" x="0px" y="0px" viewBox="0 0 1024 768" >
<g>
	<path class="layout" data-layout="5" d="M603.7,349c-1.2-0.9-1.7-1.7-1.1-1.8c1.7-0.4,0.1-3.3-0.8-4.3c-0.8-1.1-0.7-3.2-1.3-4.2c-1.5-2.7-3.2-1.4-4.9-3.7
		c-2.5-3.4,1.3-0.5,3-0.3c3.9,0.6,0.2-9.1-2.1-11.6c-4.3-4.9-6-1.5-5.6,0.5c0.4,2-1.5,1.3-1.8,0.9c-2.4-2.7-11.9-9.2-13.1-9.6
		c-0.5-0.1-1.1-0.6-1.5-1.2c0.4-0.5,0.7-1,1-1.4c0.2,0,0.3,0,0.5,0.1c1.6,0.3,1.1-1.5,0.9-2.1c0-0.1,0.1-0.1,0.1-0.2
		c0.5,0,1.9,0,2.6-0.5c0.7-0.5,1-2.2,0.2-3.5c0.6-0.9,1.1-1.6,1.5-2.3c0.6,0.2,1.2,0.4,1.8,0.4c2.7,0,4.9-2.2,4.9-4.9
		s-2.2-4.9-4.9-4.9s-4.9,2.2-4.9,4.9c0,1.4,0.6,2.6,1.5,3.5c-0.6,0.6-1.3,1.3-2,2.1c0,0-0.1,0-0.1,0c-3.6-0.4-2.7,2.4-3,3.2
		c-0.4,1.1-3.1-0.2-3.8-0.6c-6.6-4.8-12.6-4.5-11.3-2.1c1.3,2.5-0.3,7-1.5,7.1c-1.3,0.1-4.8-1.9-5,1.8c-0.2,3.8,1.7,4.1,4.2,6.1
		c1.4,1.1,2.8,2.6,4.4,3.9l-49.8,62l-49.8-62c1.6-1.3,3-2.8,4.4-3.9c2.5-2,4.4-2.3,4.2-6.1c-0.2-3.7-3.7-1.7-5-1.8
		c-1.3-0.1-2.8-4.6-1.5-7.1c1.3-2.4-4.7-2.7-11.3,2.1c-0.6,0.5-3.4,1.7-3.8,0.6c-0.3-0.8,0.6-3.7-3-3.2c0,0-0.1,0-0.1,0
		c-0.8-0.9-1.6-1.6-2.2-2.2c0.6-0.8,0.9-1.8,0.9-2.8c0-2.7-2.2-4.9-4.9-4.9s-4.9,2.2-4.9,4.9s2.2,4.9,4.9,4.9c1,0,1.9-0.3,2.6-0.8
		c0.4,0.6,0.9,1.4,1.5,2.2c-0.8,1.2-0.5,2.9,0.2,3.5c0.7,0.6,2.1,0.6,2.6,0.5c0,0.1,0.1,0.1,0.1,0.2c-0.2,0.6-0.6,2.3,0.9,2.1
		c0.2,0,0.4-0.1,0.5-0.1c0.3,0.5,0.7,0.9,1,1.4c-0.4,0.5-1.1,1-1.5,1.2c-1.2,0.3-10.7,6.9-13.1,9.6c-0.3,0.3-2.2,1-1.8-0.9
		c0.4-1.9-1.3-5.4-5.6-0.5c-2.2,2.5-6,12.2-2.1,11.6c1.7-0.2,5.5-3.1,3,0.3c-1.7,2.3-3.5,1-4.9,3.7c-0.6,1-0.5,3.1-1.3,4.2
		c-0.8,1.1-2.4,4-0.8,4.3c0.6,0.1,0.1,0.9-1.1,1.8c-1.9,1.5-0.7,3.8,2.1,3.5c2.4-0.3,4.8-6,4.3-8.3c-0.2-1.1-2.7,0.8-1.2-1.3
		c1.6-2.1,5.5,0.2,7.9-6.5c1.3-3.5-0.4-3.6-1.2-4.1c-1.2-0.7-0.1-3.5,2.3-2.9c2.4,0.6,2,0.8,2.5,2.2c0.5,1.3-1.6,2.2,1.6,3.5
		c1,0.4-1.1,5.9-1.8,6.2c-0.7,0.3-6.5,3.2-6.6,6.9c-0.1,3.2-1.1,5.3-1.1,5.3s-3.7,6.1,0,6.6c2.4,0.3,3.9-5.2,4.9-2.2
		c0.9,2.7-2.2,3.6-3.3,3.7c-3,0.4-4.9,5.8-4.1,8c-0.8,1.9-0.8,4.2,0.2,6.1c0.2,0.5,0.5,1,0.5,1.5c-0.1,1.2-1.7,1.6-2.7,2.3
		c-1.3,0.9-1.7,2.7-1.9,4.2c-0.3,1.7-0.6,3.4-0.9,5c0.6-1.1,1.5-2.2,2.3-3.1c1.3-1.5,2.5-3.1,3.5-4.8c0.4-0.7,0.8-1.4,0.9-2.1
		c0.2-1.1-0.3-2.3,0-3.3c0.9-2.7,5.7-2.4,6.4-5.1c0.3-1.2-0.4-2.3-0.7-3.5c-0.3-1.1-0.3-2.2-0.1-3.3c1.2-1,2.4-2.5,2.7-4.2
		c0.7-3.4-0.1-8.3-4.7-5.9c-1.7,0.9-0.1-2.6,6.1-4.2c3.9-1.1,7.3-5.7,7.7-8.9c0.4-3.1-3-3.1-4.5-2.3c-1.5,0.8,6.5-7.6,16.5-11
		c0.4-0.1,0.7-0.3,1.1-0.5l49.8,63.9l-30.6,38.1c-16.9,20.6-33,38.6-32.1,43.8c1.4,7.5,16.9-15.8,34.8-38.1l31-39.7l31,39.7
		c17.9,22.2,33.4,45.6,34.8,38.1c1-5.1-15.1-23.1-32.1-43.8l-30.6-38.1l49.8-63.9c0.3,0.2,0.7,0.3,1.1,0.5c10,3.5,18,11.8,16.5,11
		c-1.5-0.8-4.9-0.8-4.5,2.3c0.4,3.2,3.8,7.8,7.7,8.9c6.2,1.7,7.8,5.1,6.1,4.2c-4.6-2.4-5.3,2.5-4.7,5.9c0.7,3.5,5.2,6,5.2,6
		s0.2,4.9,2.6,5.5c0.1,0.3,0.1,0.6,0.1,0.9c-0.1,0.9-0.8,1.6-0.7,2.5c0.1,1.1,1.3,1.7,2.1,2.5c0.1,0.1,0.3,0.3,0.3,0.5
		c0.1,0.4,0,0.8-0.2,1.2c-0.7,1.9-0.9,4.1-0.3,6c0.3,1.1,0.8,2.1,0.7,3.3c0.1-3.4,0.4-6.9,1.9-9.9c0.6-1.1,1.4-2.3,1.1-3.6
		c-0.2-0.9-1-1.7-0.9-2.7c0-0.8,0.6-1.5,1-2.1c0.5-0.6,0.8-1.5,0.5-2.2c-0.2-0.3-0.4-0.5-0.7-0.7c-1-0.8-2.2-1.4-3.4-1.9
		c-0.8-1.5-1.9-2.7-3.2-2.8c-1.1-0.1-4.2-1.1-3.3-3.7c1-2.9,2.5,2.5,4.9,2.2c3.7-0.5,0-6.6,0-6.6s-1-2.1-1.1-5.3
		c-0.2-3.7-5.9-6.6-6.6-6.9c-0.7-0.3-2.8-5.8-1.8-6.2c3.2-1.2,1.1-2.1,1.6-3.5c0.5-1.3,0.1-1.6,2.5-2.2c2.4-0.6,3.5,2.2,2.3,2.9
		c-0.8,0.5-2.4,0.6-1.2,4.1c2.4,6.6,6.3,4.4,7.9,6.5c1.6,2.1-0.9,0.3-1.2,1.3c-0.5,2.3,1.9,8,4.3,8.3
		C604.4,352.8,605.6,350.5,603.7,349z"/>
	<path class="layout" data-layout="5" d="M421.2,392.2c0.2-1.2,0.4-2.3,0.6-3.5C421.2,389.8,420.9,391,421.2,392.2z"/>
</g>
</svg>