<svg xmlns="http://www.w3.org/2000/svg" xmlns:xlink="http://www.w3.org/1999/xlink" x="0px" y="0px" viewBox="0 0 1024 768" >
<path class="layout" data-layout="5" d="M586.5,355.1c-38.4,8.8-49.6,44.8-52.1,74.2c-3.3,0-6.8,0-10.1,0c0.2-6.6,0.6-13.7,1.6-21.7c2.6-21.8,9-34.1,16.9-47.5
	c8-13.3,12.8-27.7,13.2-41.9s-3.5-30.3-16.2-43.4c-8.9-9.1-15.8-14.9-20.4-20.8c-4.6-5.9-5.8-10.1-7.4-11.8
	c-1.5,1.7-2.8,5.9-7.4,11.8c-4.6,5.9-11.5,11.7-20.4,20.8c-12.7,13-16.6,29.1-16.2,43.4c0.4,14.2,5.3,28.6,13.2,41.9
	c8,13.3,14.3,25.7,16.9,47.5c0.9,8,1.4,15.2,1.6,21.7c-3.3,0-6.8,0-10.1,0c-2.5-29.3-13.7-65.4-52.1-74.2
	c-39.2-9-58.8,15.4-59.2,30.7c-0.4,15.4,6.4,24.9,16,30.6c9.5,5.7,18.7,5.8,23.3,13.7c0,0,2.2-6-1.8-14.3c-4-8.4-5.3-16,1.2-22.1
	c6.6-6.1,21.8-10,34.3-5.1c11.9,4.7,22.1,18.6,23.3,40.7c-3.3,0.3-7.5,1.9-7.6,9.8c-0.1,7.5,4.7,9.3,7.6,9.7
	c-0.6,9.3-2.8,12-9.9,15.8c-10.1,5.4-21.5,4-21.6,13.4c-0.1,9.4,15.1,11.8,29.8,4.3c12-6,17-14.5,17.6-33.4h9.5
	c-0.1,3.4-0.1,6.7-0.1,9.8c0,13.6-0.3,19-3.2,25c-2.9,6-3.9,11.9-3.5,15.5c0.3,3,1.9,9,8.7,16.7c6.8,7.8,10.3,9.7,10.3,9.7
	s3.6-2,10.3-9.7c6.8-7.8,8.3-13.7,8.7-16.7c0.4-3.6-0.6-9.5-3.5-15.5c-2.9-6-3.2-11.3-3.2-25c0-3.1-0.1-6.4-0.1-9.8h9.5
	c0.6,18.9,5.6,27.4,17.6,33.4c14.8,7.5,30,5.1,29.8-4.3c-0.1-9.4-11.5-8.1-21.6-13.4c-7.1-3.8-9.3-6.5-9.9-15.8
	c2.8-0.4,7.7-2.2,7.6-9.7c-0.1-7.9-4.3-9.5-7.6-9.8c1.2-22,11.4-36,23.3-40.7c12.5-4.9,27.8-1,34.3,5.1c6.6,6.1,5.2,13.7,1.2,22.1
	c-4,8.4-1.8,14.3-1.8,14.3c4.6-7.9,13.7-8.1,23.3-13.7c9.5-5.7,16.4-15.2,16-30.6C645.3,370.5,625.7,346.2,586.5,355.1z"/>
</svg>