<svg xmlns="http://www.w3.org/2000/svg" xmlns:xlink="http://www.w3.org/1999/xlink" x="0px" y="0px" viewBox="0 0 1024 768" >
<path class="layout" data-layout="5" d="M590.7,367.5c-11.2-27.3-51-23-61.5,9.9c-3.2,10-4,19.8-3.4,28.9h-7c2.2-23.9,8.9-50.5,14.6-65.9
	c11.4-30.4,3.8-43.1-8.9-59.5c-12.7-16.5-12.5-22.8-12.5-22.8s0.1,6.3-12.5,22.8c-12.7,16.5-20.3,29.1-8.9,59.5
	c5.8,15.3,12.5,42,14.6,65.9h-7c0.6-9-0.3-18.9-3.4-28.9c-10.5-32.9-50.3-37.2-61.5-9.9c-13.1,31.9,23.8,41.1,23.8,41.1
	s-1.7-16.6,7.8-22.8c9.5-6.1,21.9,3.6,25.1,16.6c0.3,1.3,0.5,2.5,0.7,3.7h-7.9c-1.5,0-2.7,1.2-2.7,2.7c0,1.5,1.2,2.7,2.7,2.7h1.1v8
	h-2.1c-1.4,0-2.5,1.1-2.5,2.5c0,1.4,1.1,2.5,2.5,2.5h6.9c-2.7,8.2-6.9,13.7-6.9,13.7c-5.8-6.8-14.5-1.8-14.5,5.3
	c0,7.1,10.8,10.6,17.3,3.1c2.9-3.4,7.4-11.4,10.4-22.2h10.8c-0.5,15.2-4.1,27.2-12.7,30.8c-17.5,7.4-23,4-24.6,1.6
	c2.5,5.1,11.3,20.5,27.1,17.4c0,0-0.1,25.3,16.3,35.5c16.5-10.1,16.3-35.5,16.3-35.5c15.9,3.2,24.7-12.2,27.1-17.4
	c-1.7,2.4-7.1,5.8-24.6-1.6c-8.6-3.6-12.2-15.6-12.7-30.8H529c3.1,10.7,7.5,18.8,10.4,22.2c6.5,7.5,17.3,4,17.3-3.1
	c0-7.1-8.8-12.1-14.5-5.3c0,0-4.2-5.5-6.9-13.7h9.2c1.4,0,2.5-1.1,2.5-2.5c0-1.4-1.1-2.5-2.5-2.5h-2.1v-8h1.1c1.5,0,2.7-1.2,2.7-2.7
	c0-1.5-1.2-2.7-2.7-2.7h-10.1c0.2-1.2,0.4-2.5,0.7-3.7c3.3-13,15.6-22.8,25.1-16.6c9.5,6.1,7.8,22.8,7.8,22.8
	S603.7,399.3,590.7,367.5z M555.5,457.2c0.6-0.9,0.7-1.6,0.7-1.6S556,456.2,555.5,457.2z M468.5,457.2c-0.5-1-0.7-1.6-0.7-1.6
	S467.9,456.3,468.5,457.2z"/>
</svg>