<svg xmlns="http://www.w3.org/2000/svg" xmlns:xlink="http://www.w3.org/1999/xlink" x="0px" y="0px" viewBox="0 0 1024 768" >
<path class="layout" data-layout="5" d="M587.8,341.3c-25.1-7.1-54.5,10.1-61.2,47.8c-1.5,8.5-2.3,15.6-2.5,21.7h-8c0-0.3,0-0.6,0-0.9
	c-0.4-39.6,17.2-56.1,20-90.2c2.7-34.1-19.4-61.2-24.1-61.2c-4.7,0-26.9,27-24.1,61.2c2.7,34.1,20.4,50.6,20,90.2c0,0.3,0,0.6,0,0.9
	h-8c-0.2-6.1-1-13.2-2.5-21.7c-6.6-37.7-36.1-54.9-61.2-47.8c-21.1,5.9-29.8,27.1-21.6,48.2c8.2,21.2,27.8,20.4,39.6,16.9
	c11.8-3.5,15.3-21.6,8.2-29.4c-7.1-7.8-18.4-7.1-21.2-3.5c0,0,2.7-15.7,20-12.5c16.7,3,29.7,24.1,31.6,49.9h-11.9
	c-1.8,0-3.3,2.3-3.3,5.1v5.3c0,2.8,1.5,5.1,3.3,5.1h11.2c-3.4,17.7-14.8,25.1-14.8,25.1c0.8-6.3-2.7-15.3-9.4-18
	c-7.7-3.2-18-0.4-22.3,6.7c-4.3,7.1-2.4,22,12.5,26.7c14.9,4.7,31.8-11.4,36.5-23.5c2-5.1,3.7-10.4,4.6-16.9h8.3
	c-1.3,28.2-5.2,42.1-13.3,49.4c-9.5,8.6-1.6,19.6,13.3,24.7c0,0-1,5.5,4.5,9c5.5-3.5,4.5-9,4.5-9c14.9-5.1,22.9-16.1,13.3-24.7
	c-8.1-7.3-12-21.2-13.3-49.4h8.3c0.9,6.5,2.6,11.8,4.6,16.9c4.7,12.2,21.6,28.2,36.5,23.5c14.9-4.7,16.9-19.6,12.5-26.7
	c-4.3-7.1-14.6-9.8-22.3-6.7c-6.7,2.7-10.2,11.8-9.4,18c0,0-11.4-7.4-14.8-25.1h8.5c1.8,0,3.3-2.3,3.3-5.1v-5.3
	c0-2.8-1.5-5.1-3.3-5.1h-9.2c1.9-25.9,14.9-46.9,31.6-49.9c17.3-3.1,20,12.5,20,12.5c-2.7-3.5-14.1-4.3-21.2,3.5
	c-7.1,7.8-3.5,25.9,8.2,29.4c11.8,3.5,31.4,4.3,39.6-16.9C617.6,368.3,608.9,347.2,587.8,341.3z"/>
</svg>