<svg xmlns="http://www.w3.org/2000/svg" xmlns:xlink="http://www.w3.org/1999/xlink" x="0px" y="0px" viewBox="0 0 1024 768" >
<path class="layout" data-layout="5" d="M596.4,379.9c-12.5-19-56.2-34.2-76.7,27.6c1.3-11.1,3.5-20.7,5.5-25.8c6.5-16.5,18-23.8,17.6-60.2
	c-0.4-36.4-30.9-60.6-30.9-60.6s-30.5,24.2-30.9,60.6c-0.4,36.4,11.1,43.7,17.6,60.2c2,5.1,4.2,14.7,5.5,25.8
	c-20.5-61.8-64.2-46.6-76.7-27.6c-24.1,36.8,8,73.7,41.8,69c0,0-24-10.8-25.9-25.2c-2.7-19.9,12.6-31.2,26.5-27.2
	c11.9,3.4,22.2,13,29.5,21.4h-25.9c-2.4,0-4.3,2.4-4.3,5.4v5.6c0,3,1.9,5.4,4.3,5.4h31.6c-0.9,18.3-5.9,35-18.9,39.1
	c0,0,1.2,11.1,17.3,12.7c0,0-4,10.7,8.2,21.1c12.3-10.4,8.2-21.1,8.2-21.1c16.1-1.5,17.3-12.7,17.3-12.7
	c-12.9-4.1-17.9-20.8-18.9-39.1h31.5c2.4,0,4.3-2.4,4.3-5.4v-5.6c0-3-1.9-5.4-4.3-5.4h-25.7c7.3-8.5,17.6-18,29.5-21.4
	c13.9-4,29.2,7.3,26.6,27.2c-1.9,14.4-25.9,25.2-25.9,25.2C588.4,453.6,620.5,416.7,596.4,379.9z"/>
</svg>