<svg xmlns="http://www.w3.org/2000/svg" xmlns:xlink="http://www.w3.org/1999/xlink" x="0px" y="0px" viewBox="0 0 1024 768" >
<path class="layout" data-layout="5" d="M600.2,351.9c-26.5-24.9-69.4,6.8-69.8,47.3c0,4.3,0.1,8.4,0.4,12.4h-11.6c0.3-28.2,15.5-43,24-71.4
	c8.8-29.3-5.6-48.1-12.4-56.1c-6.8-8-16.4-23.7-18.8-23.7c-2.4,0-12,15.6-18.8,23.7c-6.8,8-21.3,26.9-12.4,56.1
	c8.5,28.3,23.8,43.2,24,71.4h-11.6c0.3-4,0.5-8.1,0.4-12.4c-0.4-40.5-43.3-72.2-69.8-47.3c-29.5,27.7,15.6,56.1,17.2,55.3
	c0,0-1.9-18.5,9.2-23.7c14.8-6.8,24.2,2.8,29.7,17.2c1.4,3.6,2.1,7.3,2.3,10.8h-8.4c-2.4,0-4.3,2.4-4.3,5.4v5.5c0,3,1.9,5.4,4.3,5.4
	h5.6c-3.9,9.2-11.2,15.7-18.1,16.3c-15.6,1.2-7.8-17.3-7.8-17.3c-18.4,8-14.7,32.4,4.9,36c14.5,2.7,27-11.2,32.4-35h12.5
	c-4.1,20.9-14.7,32.4-9.7,47.5c6,18,18.4,32.1,18.4,32.1s12.4-14,18.4-32.1c5-15.1-5.6-26.6-9.7-47.5h12.5
	c5.4,23.8,17.9,37.7,32.4,35c19.7-3.6,23.3-28,4.9-36c0,0,7.8,18.5-7.8,17.3c-7-0.5-14.2-7-18.1-16.3h5.6c2.4,0,4.3-2.4,4.3-5.4V417
	c0-3-1.9-5.4-4.3-5.4h-8.4c0.2-3.5,0.9-7.2,2.3-10.8c5.5-14.5,14.8-24.1,29.7-17.2c11.1,5.1,9.2,23.7,9.2,23.7
	C584.5,408.1,629.7,379.6,600.2,351.9z"/>
</svg>