<svg xmlns="http://www.w3.org/2000/svg" xmlns:xlink="http://www.w3.org/1999/xlink" x="0px" y="0px" viewBox="0 0 1024 768" >
<path class="layout" data-layout="5" d="M604,337.7c-12.7-9.6-77.6-10.7-77.5,84.5h-6.9c-1.1-21.6,7.5-63.9,19-87.9c11.7-24.3,7.3-35,0.7-44.7
	c-6.7-9.7-21.7-30-27.7-31.7c-6,1-21,22-27.7,31.7c-6.7,9.7-11,20.3,0.7,44.7c11.5,24.1,20.1,66.4,19,87.9h-6.1
	c0.1-95.3-64.8-94.2-77.5-84.5c-13,9.9-32.4,30.6-5.4,64.3c0,0,2.7-28.3,16.2-35.1c28.3-9.4,49.5,22.5,53.5,45
	c0.5,2.8,0.9,6.3,1.1,10.3h-5.5c-1.6,0-2.9,1.3-2.9,2.9c0,1.6,1.3,2.9,2.9,2.9h1.1v8.5h-2.3c-1.5,0-2.7,1.2-2.7,2.7
	c0,1.5,1.2,2.7,2.7,2.7h6.1c-1.8,17.3-7.4,34.5-20.3,35.5c-21.6,1.8-25.6-14.8-25.6-14.8c-11.2,23.3,49.4,64.4,57.7-20.7h4.6
	c-2.7,15.6-6.2,30.2-4.6,35.7c2.3,7.7,10.7,32,15,32.3c4.3-0.3,12.7-24.7,15-32.3c1.7-5.5-1.9-20-4.6-35.7h5.4
	c8.3,85.1,68.9,44,57.7,20.7c0,0-4,16.6-25.6,14.8c-12.9-1.1-18.5-18.3-20.3-35.5h6.2c1.5,0,2.7-1.2,2.7-2.7c0-1.5-1.2-2.7-2.7-2.7
	h-2.2v-8.5h1.1c1.6,0,2.9-1.3,2.9-2.9c0-1.6-1.3-2.9-2.9-2.9h-5.6c0.2-4,0.6-7.6,1.1-10.3c4-22.5,25.2-54.4,53.5-45
	c13.5,6.7,16.2,35.1,16.2,35.1C636.4,368.3,617,347.6,604,337.7z"/>
</svg>