<svg xmlns="http://www.w3.org/2000/svg" xmlns:xlink="http://www.w3.org/1999/xlink" x="0px" y="0px" viewBox="0 0 1024 768" >
<g>
	<path class="layout" data-layout="5" d="M518.9,370.7l25.8-35.5c2.4-7.4-1.7-15.4-9.1-17.8c-3.4-1.1-7-0.8-10.1,0.5c-1.2-6.5-6.8-11.4-13.6-11.4
		c-6.8,0-12.5,5-13.6,11.5c-3.1-1.5-6.7-1.8-10.3-0.7c-7.3,2.4-11.2,10.2-8.9,17.4l26.1,35.9c0.9-0.4,1.9-0.7,2.9-1v-19.2
		c0-2.1,1.7-3.8,3.7-3.8c2.1,0,3.7,1.7,3.7,3.8v19.2C516.9,369.9,517.9,370.2,518.9,370.7z"/>
	<path class="layout" data-layout="5" d="M474.1,338.9c-6.3-4.6-15.2-3.2-19.8,3.1c-2.1,2.9-3,6.4-2.6,9.7c-6.5-0.9-12.9,3-15,9.4c-2.1,6.5,0.9,13.4,6.7,16.5
		c-2.4,2.5-3.8,5.8-3.8,9.5c0,7.6,6.2,13.8,13.8,13.8l42.2-13.7c-0.1-0.6-0.1-1.1-0.1-1.7c0-0.5,0-0.9,0.1-1.4l-18.3-6
		c-2-0.6-3.1-2.7-2.4-4.7c0.6-2,2.8-3,4.7-2.4l18.3,5.9c0.6-1,1.3-1.9,2-2.7L474.1,338.9z"/>
	<path class="layout" data-layout="5" d="M499.5,396.4c-0.7-0.8-1.4-1.8-1.9-2.7l-41.8,13.6c-6.3,4.6-7.7,13.4-3.1,19.8c2.1,2.9,5.2,4.8,8.4,5.5
		c-2.9,5.9-1.2,13.2,4.3,17.2c5.5,4,13,3.3,17.8-1.3c1.6,3,4.4,5.4,7.9,6.6c7.3,2.4,15.1-1.6,17.4-8.9l0-44.4c-1-0.2-2-0.5-2.9-0.9
		l-11.3,15.6c-1.2,1.7-3.6,2-5.2,0.8c-1.7-1.2-2-3.6-0.8-5.2L499.5,396.4z"/>
	<path class="layout" data-layout="5" d="M533,454.8c3.4-1.1,6.1-3.4,7.8-6.3c4.7,4.6,12.2,5.2,17.7,1.2c5.5-4,7.2-11.4,4.3-17.3c3.4-0.6,6.5-2.5,8.7-5.5
		c4.5-6.2,3.1-14.8-3.1-19.3l-42.2-13.7c-0.5,0.9-1.1,1.7-1.8,2.5l11.3,15.6c1.2,1.7,0.8,4-0.8,5.2c-1.7,1.2-4,0.8-5.2-0.8
		l-11.3-15.6c-1,0.4-2.1,0.8-3.2,1v43.9C517.6,453.2,525.6,457.3,533,454.8z"/>
	<path class="layout" data-layout="5" d="M570.1,401.2c7.8,0,14.1-6.3,14.1-14.1c0-3.6-1.4-6.9-3.6-9.4c5.8-3.1,8.7-10,6.6-16.5c-2.1-6.5-8.6-10.4-15.1-9.4
		c0.5-3.4-0.3-7-2.5-10c-4.5-6.2-13.1-7.5-19.3-3.1l-26.1,35.9c0.7,0.8,1.3,1.6,1.8,2.5l18.3-5.9c2-0.6,4.1,0.4,4.7,2.4
		c0.6,2-0.4,4.1-2.4,4.7l-18.3,6c0,0.5,0.1,0.9,0.1,1.4c0,0.7,0,1.3-0.1,2L570.1,401.2z"/>
	<circle class="layout" data-layout="5" cx="512" cy="385.7" r="12.2"/>
	<path class="layout" data-layout="5" d="M456.9,303.8c0.8-2.5,2.7-4.7,5.1-5.9c15.1-8.7,32.4-13.3,50-13.3c17.5,0,34.8,4.6,50,13.3c2.4,1.2,4.3,3.3,5.1,5.9
		l12.5-17.1c3.2-4.4,4.4-10,3.2-15.3c-1.2-5.3-4.7-9.9-9.5-12.5c0,0-2.5-1.9-8.6-4.7c-16-7.1-34-10.1-52.6-10.1
		c-21.5,0-41.7,4.2-60.2,13.5c-1.9,0.9-1.8,1-1.8,1c-4.6,2.7-7.9,7.2-9,12.5c-1.1,5.2,0.1,10.7,3.2,15.1L456.9,303.8z"/>
	<path class="layout" data-layout="5" d="M554.8,313.2c0.5,0,1-0.1,1.4-0.2c2.3-0.6,3.8-2.7,3.8-5c0-2-1.2-3.9-3-4.7c-13.7-7.9-29.3-12.1-45.1-12.1
		c-15.8,0-31.4,4.2-45.1,12c-1.8,0.8-3,2.7-3,4.7c0,2.4,1.6,4.4,3.9,5c0.5,0.1,0.9,0.2,1.4,0.2c2.9,0,5.2-2.3,5.2-5.2
		c0-0.9-0.2-1.8-0.7-2.5c11.9-6,24.8-9.1,38.3-9.1c13.5,0,26.4,3,38.3,9.1c-0.4,0.8-0.7,1.6-0.7,2.5
		C549.6,310.8,551.9,313.2,554.8,313.2z"/>
	<path class="layout" data-layout="5" d="M447.8,324.6c0.6,0.6,1.3,1.1,2.2,1.4c0.5,0.2,1.1,0.3,1.6,0.3c2.3,0,4.2-1.4,4.9-3.6c0.2-0.5,0.2-1,0.2-1.4
		c0.1-2.3-1.4-4.5-3.6-5.2c-0.5-0.2-1.1-0.3-1.6-0.3c-1.4,0-2.8,0.6-3.8,1.6c-11.7,10.6-20.5,24.1-25.4,39.2
		c-4.9,15.1-5.8,31.2-2.5,46.6c0.2,2,1.6,3.7,3.5,4.3c0.5,0.2,1.1,0.3,1.6,0.3c1.8,0,3.4-0.9,4.4-2.4c0.3-0.4,0.5-0.8,0.6-1.3
		c0.4-1.3,0.3-2.7-0.3-4c-0.6-1.2-1.7-2.2-3-2.6c-0.5-0.2-1.1-0.3-1.6-0.3c-0.3,0-0.7,0-1,0.1c-2-13.2-1-26.4,3.2-39.2
		C431.5,345.4,438.3,334.1,447.8,324.6z"/>
	<path class="layout" data-layout="5" d="M456.6,461.9c12.8,9.3,27.9,15.1,43.5,16.7c0.3,0.1,0.7,0.1,1,0.1c1.7,0,3.2-0.8,4.2-2.1c1.4-1.9,1.3-4.5-0.2-6.4
		c-0.3-0.4-0.6-0.7-1-1c-0.9-0.6-1.9-1-3-1c-1.7,0-3.2,0.8-4.2,2.1c-0.5,0.7-0.9,1.6-1,2.4c-13.2-2.1-25.4-7.2-36.3-15.2
		c-10.9-7.9-19.5-17.9-25.6-29.8c0.8-0.4,1.5-0.9,2-1.7c1.7-2.3,1.2-5.6-1.1-7.2c-0.4-0.3-0.8-0.5-1.3-0.7c-0.6-0.2-1.2-0.3-1.8-0.3
		c-1.7,0-3.2,0.8-4.2,2.1c-1.2,1.6-1.3,3.8-0.4,5.6C433.7,440,443.8,452.6,456.6,461.9z"/>
	<path class="layout" data-layout="5" d="M564.3,457.7c-10.9,7.9-23.1,13-36.3,15.2c-0.1-0.9-0.4-1.7-0.9-2.4c-1-1.3-2.5-2.1-4.2-2.1c-1.1,0-2.2,0.3-3,1
		c-0.4,0.3-0.8,0.6-1,1c-1.5,1.8-1.5,4.4-0.2,6.3c1,1.3,2.6,2.1,4.2,2.1c0.3,0,0.7,0,1-0.1c15.7-1.6,30.8-7.4,43.6-16.7
		c12.8-9.3,23-21.9,29.4-36.2c1-1.8,0.9-4-0.3-5.6c-1-1.3-2.5-2.1-4.2-2.1c-0.7,0-1.3,0.1-1.9,0.4c-0.4,0.2-0.9,0.4-1.2,0.7
		c-2.3,1.7-2.8,4.9-1.1,7.2c0.5,0.7,1.2,1.3,2,1.7C583.8,439.7,575.2,449.8,564.3,457.7z"/>
	<path class="layout" data-layout="5" d="M600.5,407.5c1.9-0.6,3.3-2.3,3.5-4.3c3.3-15.4,2.4-31.5-2.5-46.6c-4.9-15.1-13.7-28.6-25.4-39.1c-1-1.1-2.4-1.7-3.8-1.7
		c-0.5,0-1.1,0.1-1.6,0.3c-2.3,0.7-3.7,2.9-3.6,5.3c0,0.5,0.1,0.9,0.2,1.4c0.7,2.1,2.7,3.6,4.9,3.6c0.5,0,1.1-0.1,1.6-0.3
		c0.9-0.3,1.6-0.8,2.2-1.4c9.4,9.5,16.3,20.8,20.4,33.6c4.2,12.8,5.2,26,3.2,39.2c-0.3-0.1-0.7-0.1-1-0.1c-0.5,0-1.1,0.1-1.6,0.3
		c-2.7,0.9-4.2,3.8-3.3,6.5c0.2,0.5,0.4,0.9,0.6,1.3c1,1.5,2.6,2.4,4.3,2.4C599.5,407.7,600,407.7,600.5,407.5z"/>
	<path class="layout" data-layout="5" d="M397,419.1l20.8-6.7c-2.1-1.6-3.6-4-4-6.7c-3.6-17.1-2.6-34.9,2.8-51.6c5.4-16.7,15.1-31.7,28.1-43.4c1.9-1.9,4.5-3,7.2-3
		l-12.5-17.1c-3.2-4.4-8.2-7.2-13.6-7.7c-5.4-0.5-10.8,1.4-14.8,5.2c0,0-2.6,1.8-7.1,6.8c-11.7,13-20.1,29.2-25.9,46.9
		c-6.7,20.5-8.9,40.9-5.8,61.5c0.3,2.1,0.4,2.1,0.4,2.1c1.1,5.3,4.4,9.8,9.1,12.5C386.3,420.1,391.9,420.7,397,419.1z"/>
	<path class="layout" data-layout="5" d="M501.2,484.9c-17.4-1.9-34.1-8.3-48.3-18.6c-14.2-10.3-25.5-24.2-32.6-40.1c-1.3-2.4-1.5-5.2-0.7-7.7l-20.2,6.5
		c-5.2,1.7-9.4,5.5-11.6,10.6c-2.1,5-2,10.7,0.3,15.7c0,0,0.9,3,4.2,8.8c8.8,15.1,21.5,28.2,36.6,39.1
		c17.4,12.7,36.2,21.1,56.7,24.5c2.1,0.3,2.1,0.2,2.1,0.2c5.3,0.5,10.7-1.2,14.6-4.8c4-3.6,6.3-8.7,6.3-14.1v-21.8
		C506.6,484.7,503.9,485.3,501.2,484.9z"/>
	<path class="layout" data-layout="5" d="M636.5,435.4c-2.2-4.9-6.3-8.6-11.4-10.3l-20.8-6.7c0.8,2.5,0.6,5.3-0.7,7.7c-7.1,15.9-18.4,29.8-32.6,40.1
		c-14.2,10.3-30.9,16.7-48.3,18.6c-2.7,0.5-5.4-0.2-7.6-1.7v21.2c0,5.5,2.4,10.7,6.5,14.3c4.1,3.6,9.6,5.2,15,4.5
		c0,0,3.1,0.1,9.7-1.3c17.1-3.7,33.4-11.8,48.5-22.7c17.4-12.7,31.2-27.9,40.8-46.3c1-1.9,0.9-1.9,0.9-1.9
		C638.7,445.9,638.7,440.3,636.5,435.4z"/>
	<path class="layout" data-layout="5" d="M646.1,341.5c-6.7-20.5-16.9-38.3-31.4-53.1c-1.5-1.5-1.6-1.4-1.6-1.4c-4-3.6-9.3-5.3-14.7-4.8c-5.3,0.6-10.2,3.4-13.3,7.7
		l-12.8,17.7c2.7,0,5.2,1.1,7.2,3c13,11.7,22.7,26.7,28.1,43.4c5.4,16.7,6.4,34.5,2.8,51.6c-0.4,2.7-1.9,5.1-4,6.7l20.1,6.5
		c5.2,1.7,10.9,1,15.6-1.8c4.7-2.8,7.9-7.5,8.9-12.9c0,0,1.1-3,1.8-9.7C654.5,377.2,651.8,359.2,646.1,341.5z"/>
</g>
</svg>