<svg xmlns="http://www.w3.org/2000/svg" xmlns:xlink="http://www.w3.org/1999/xlink" x="0px" y="0px" viewBox="0 0 1024 768" >
<g>
	<path class="layout" data-layout="5" d="M479.2,299.6c-0.9-0.9-10.3-2.7-12.5-2.3c-5.3,0.9-16,7.6-14.6,8c1.3,0.4,9.9,1.1,14.8,0
		C471.8,304.2,480.2,300.5,479.2,299.6z"/>
	<path class="layout" data-layout="5" d="M446.4,322.8c-0.9,1.1,5.7,1.1,15.8-0.2c10.1-1.3,19.6-6.8,20.5-8.2c0.9-1.3,2.5-2.5,2.7-3.4c-2.7-1.9-3-7-3-8
		c0,0-0.9-0.2-1.9,0c-0.9,0.2-10.1,3.8-15.6,6.5C459.3,312.2,447.3,321.7,446.4,322.8z"/>
	<path class="layout" data-layout="5" d="M465.4,326.7c-4.6,3.4-10.5,12.7-9.5,12.7c0.8,0,12.2-2.7,16.7-6.7c4.6-4,6.8-10.1,5.3-10.1
		C476.5,322.7,470,323.3,465.4,326.7z"/>
	<path class="layout" data-layout="5" d="M478.4,295.8c7.2,1.7,8.4,2.5,9.5,1.3c1.1-1.1,2.8-3,6.5-2.1c3.6,0.9,1.5,2.5,1.5,2.5c-2.9-1.3-7.2-0.7-9.5,4.5
		c-2.3,5.1,2.6,9.3,6.7,9.6c3.7,0.3,7.2-0.9,9.1-5.1c1.9-7.2,0.5-12.4-6.4-17.7c-6.6-5-20.9-6.2-33.4,0.1
		C464.4,291,468.6,293.9,478.4,295.8z"/>
	<path class="layout" data-layout="5" d="M463.5,295.4c2.7-0.8,0.6-2.3-2.9-3c-1.3-0.3-2.8-0.6-4.2-0.8c-1.8,1.2-3.5,2.6-5.2,4.3c-2.1,2-4.3,4.5-5.7,7.6
		c1.3,0,3.5-1.1,4.8-1.5C453.1,300.9,460.8,296.2,463.5,295.4z"/>
	<path class="layout" data-layout="5" d="M486.5,363.5c0.4-3.6-0.4-14.4-1-17.6c-3.9,4.4-8.5,8.9-13.5,12.8c3.8,2.4,7.6,4.6,11.3,6.6
		C484.4,364.8,485.4,364.2,486.5,363.5z"/>
	<path class="layout" data-layout="5" d="M499.9,316.7c-0.3-0.9-0.4-1.4-1.7-1.4c-2.3,0-9.7-1.9-11.4,0c-1.7,1.9-15.2,28.1-15.8,39.3c3.6-0.7,21.7-18.3,27.5-30.4
		C499,321.2,499.3,319.9,499.9,316.7z"/>
	<path class="layout" data-layout="5" d="M490.8,360c1.2-1.1,2.4-2.2,3.6-3.3c2.6-2.5,4.8-5.9,6.4-8.5c-1.2-5.9-2-12.2-2-18c0-0.4-0.3-0.7-0.5-0.4
		c-2.2,3.3-5.5,8-9.8,13c0.2,3.4,0.9,16.2,1.9,16.8C490.6,359.7,490.7,359.9,490.8,360z"/>
	<path class="layout" data-layout="5" d="M508.5,374.4c-0.9-1.6-4.3-10.8-6.7-21.9c-1.2,1.5-3.5,5.2-6.8,8c-3.6,3-5.9,5.4-5.1,8c8.7,4.4,15.6,7.2,16.9,7.4
		C508.1,376.1,510.2,377.4,508.5,374.4z"/>
	<path class="layout" data-layout="5" d="M468.1,350.3c0.4-4,4.2-11.4,4.4-12.5c0.2-1.1-0.8-0.8-3,0.8c-1.8,1.2-8.9,4.2-16.5,5.8c3.6,3.6,8.1,7.1,13,10.5
		C467.3,356,467.8,352.8,468.1,350.3z"/>
	<path class="layout" data-layout="5" d="M447.3,318.3c2.8-2.7,9.5-7,10.6-7.4c1.1-0.4,0.2-1.3-1.1-1.5c-1.2-0.2-7-1.7-12.6-1.6c-1.4,4.3-1.8,8.9-1.4,13.3
		C444.1,320.8,445.6,319.9,447.3,318.3z"/>
	<path class="layout" data-layout="5" d="M450.4,341.5c2-2.8,7-10.2,8.8-11.8c2.1-1.9,1.9-3,1.1-3c-0.6,0-10.9,0.1-16.8-0.2C444.8,332.5,447.3,337.9,450.4,341.5z"
		/>
	<path class="layout" data-layout="5" d="M571.9,305.3c1.3-0.4-9.3-7-14.6-8c-2.3-0.4-11.6,1.3-12.5,2.3c-1,1,7.4,4.6,12.4,5.7C562,306.4,570.6,305.7,571.9,305.3z"
		/>
	<path class="layout" data-layout="5" d="M541.7,303c0,1-0.4,6.1-3,8c0.2,1,1.7,2.1,2.7,3.4c0.9,1.3,10.5,6.8,20.5,8.2c10.1,1.3,16.7,1.3,15.8,0.2
		c-0.9-1.1-12.9-10.6-18.4-13.3c-5.5-2.7-14.6-6.3-15.6-6.5C542.6,302.8,541.7,303,541.7,303z"/>
	<path class="layout" data-layout="5" d="M558.5,326.7c-4.6-3.4-11-4-12.5-4c-1.5,0,0.8,6.1,5.3,10.1c4.6,4,15.9,6.7,16.7,6.7C569,339.5,563.1,330.2,558.5,326.7z"
		/>
	<path class="layout" data-layout="5" d="M530.8,311.6c4.2-0.3,9-4.5,6.7-9.6c-2.3-5.1-6.6-5.8-9.5-4.5c0,0-2.1-1.5,1.5-2.5c3.6-0.9,5.3,0.9,6.5,2.1
		c1.1,1.1,2.3,0.4,9.5-1.3c9.8-1.9,13.9-4.8,16-7c-12.6-6.3-26.9-5.1-33.4-0.1c-6.9,5.3-8.3,10.4-6.4,17.7
		C523.6,310.7,527.1,311.9,530.8,311.6z"/>
	<path class="layout" data-layout="5" d="M560.4,295.4c2.7,0.8,10.5,5.5,13.1,6.5c1.2,0.4,3.5,1.6,4.8,1.5c-1.4-3.1-3.6-5.6-5.7-7.6c-1.6-1.6-3.4-3-5.2-4.3
		c-1.3,0.3-2.8,0.5-4.2,0.8C559.9,293.1,557.8,294.6,560.4,295.4z"/>
	<path class="layout" data-layout="5" d="M538.4,345.8c-0.6,3.2-1.4,14-1,17.6c1.1,0.7,2.1,1.4,3.1,1.8c3.7-2,7.6-4.2,11.4-6.6C546.9,354.8,542.4,350.2,538.4,345.8
		z"/>
	<path class="layout" data-layout="5" d="M525.7,315.3c-1.3,0-1.4,0.6-1.7,1.4c0.7,3.1,1,4.4,1.3,7.5c5.8,12.1,24,29.7,27.5,30.4c-0.6-11.2-14.1-37.4-15.8-39.3
		C535.4,313.4,527.9,315.3,525.7,315.3z"/>
	<path class="layout" data-layout="5" d="M529.6,356.7c1.2,1.1,2.3,2.2,3.6,3.3c0.1-0.2,0.2-0.3,0.4-0.5c1-0.7,1.7-13.5,1.9-16.8c-4.2-5-7.5-9.7-9.8-13
		c-0.2-0.3-0.5,0-0.5,0.4c0,5.8-0.8,12-2,18C524.7,350.8,527,354.2,529.6,356.7z"/>
	<path class="layout" data-layout="5" d="M517.2,375.9c1.3-0.2,8.3-3,16.9-7.4c0.8-2.6-1.6-5-5.1-8c-3.3-2.8-5.6-6.5-6.8-8c-2.5,11.1-5.8,20.3-6.7,21.9
		C513.7,377.4,515.8,376.1,517.2,375.9z"/>
	<path class="layout" data-layout="5" d="M571.1,344.3c-7.6-1.6-14.8-4.6-16.5-5.8c-2.3-1.5-3.2-1.9-3-0.8c0.2,1.1,4,8.6,4.4,12.5c0.2,2.5,0.8,5.7,2.1,4.5
		C562.9,351.4,567.5,347.8,571.1,344.3z"/>
	<path class="layout" data-layout="5" d="M566,310.9c1.1,0.4,7.8,4.8,10.6,7.4c1.8,1.6,3.2,2.5,4.5,2.7c0.4-4.4,0-8.9-1.4-13.3c-5.6-0.1-11.4,1.4-12.6,1.6
		C565.8,309.5,564.9,310.5,566,310.9z"/>
	<path class="layout" data-layout="5" d="M563.6,326.7c-0.8,0-1,1.1,1.1,3c1.8,1.7,6.8,9,8.8,11.8c3.1-3.6,5.6-9,6.8-15C574.5,326.8,564.3,326.7,563.6,326.7z"/>
	<path class="layout" data-layout="5" d="M459.2,467.2c3.5,4.1,14.6,10,14.2,8.7c-0.3-1.3-4-9.1-7.4-12.8c-3.5-3.7-10.8-9.1-11.1-7.8
		C454.5,456.5,457.7,465.4,459.2,467.2z"/>
	<path class="layout" data-layout="5" d="M466,444.7c-1.6-0.2-3.4-0.9-4.3-0.6c-0.3,3.3-4.6,6.1-5.4,6.6c0,0,0.3,0.9,1,1.6c0.6,0.7,8.3,6.8,13.4,10.3
		c5.1,3.4,19.3,9.1,20.7,9.3c1.5,0.3-1.9-5.5-8.1-13.6C477.2,450.4,467.6,444.9,466,444.7z"/>
	<path class="layout" data-layout="5" d="M475.5,444.7c0.8,1.3,4.5,6.6,9.7,8.9c5.2,2.2,16.3,2.7,15.8,1.9c-0.4-0.7-8.4-9.2-14.1-11.2
		C481.2,442.3,474.8,443.4,475.5,444.7z"/>
	<path class="layout" data-layout="5" d="M448.2,449c-1.6-0.4-4.1-1-5-4.6c-1-3.6,1.4-2.6,1.4-2.6c0.3,3.1,3,6.6,8.6,6c5.6-0.6,6.8-6.9,4.9-10.6
		c-1.6-3.4-4.4-5.8-9-5.3c-7.2,2-11,5.7-12.1,14.4c-1,8.2,5,21.2,16.8,28.9c0.8-2.8,1.3-7.9-2-17.3
		C449.7,450.8,449.8,449.4,448.2,449z"/>
	<path class="layout" data-layout="5" d="M471.3,479c-2.2-1.8-10.2-6.2-12.2-8.1c-2-1.9-2.3,0.6-1.2,4c0.4,1.3,0.9,2.7,1.4,4c2,0.9,4.1,1.7,6.3,2.3
		c2.8,0.8,6,1.5,9.4,1.1C474.4,481.3,472.3,479.9,471.3,479z"/>
	<path class="layout" data-layout="5" d="M506.4,416.9c-3.3,1.5-12.3,7.6-14.8,9.7c5.8,1.2,12,2.9,17.9,5.3c0.2-4.5,0.1-8.9,0-13.1
		C508.6,418,507.6,417.4,506.4,416.9z"/>
	<path class="layout" data-layout="5" d="M464.7,440.8c2.5,0.5,32-0.9,42-6c-2.4-2.7-26.7-9.6-40.1-8.6c-2.9,1.3-4.1,1.6-7.2,2.6c-0.6,0.7-1,1.1-0.4,2.1
		C460.1,432.9,462.2,440.3,464.7,440.8z"/>
	<path class="layout" data-layout="5" d="M471.4,423.7c4,0.3,9.7,0.8,16.1,2c2.9-1.8,13.6-8.8,13.7-10c0-0.3,0.1-0.5,0.2-0.6c-1.6-0.5-3.1-1-4.7-1.4
		c-3.4-1-7.5-1.3-10.6-1.3c-4.5,4-9.6,7.8-14.6,10.7C471.2,423.2,471.1,423.6,471.4,423.7z"/>
	<path class="layout" data-layout="5" d="M509.2,411.4c-0.5-9.7-1.5-17.1-2.1-18.4c-0.5-1.2-0.4-3.7-2.2-0.7c-0.9,1.6-7.2,9.1-15.6,16.8c1.9,0.2,6.2,0.4,10.3,1.9
		C504,412.5,507.3,413.4,509.2,411.4z"/>
	<path class="layout" data-layout="5" d="M504.2,439.6c-3.6,1.7-12,2.1-13,2.5c-1.1,0.4-0.3,1,2.2,2.3c1.9,0.9,8.1,5.6,13.3,11.4c1.3-4.9,2.1-10.6,2.5-16.5
		C509.5,437.4,506.4,438.6,504.2,439.6z"/>
	<path class="layout" data-layout="5" d="M487.1,473.6c-3.7-1.1-10.8-4.7-11.7-5.5c-0.9-0.8-1.3,0.5-0.7,1.7c0.5,1.1,2,6.9,4.9,11.7c4.4-0.9,8.6-2.9,12.2-5.4
		C490.8,475.2,489.3,474.3,487.1,473.6z"/>
	<path class="layout" data-layout="5" d="M487.7,458.3c0.3,0.6,5.6,9.4,8.2,14.6c4.6-4,8-8.9,9.6-13.4c-3.4-0.4-12.3-1-14.6-1.7
		C488.2,456.9,487.3,457.6,487.7,458.3z"/>
	<path class="layout" data-layout="5" d="M413.5,372.1c-1-1-1.4,11.6,0.4,16.7c0.8,2.2,6.9,9.4,8.2,9.7c1.3,0.3,0.2-8.7-1.2-13.5
		C419.4,380.1,414.5,373.1,413.5,372.1z"/>
	<path class="layout" data-layout="5" d="M425.8,397.7c0.3,0.9,0.9,1.6,0.9,1.6c0.8-0.5,5.5-2.7,8.4-1.4c0.7-0.6,1-2.5,1.6-4c0.7-1.5,0.7-12.5-3.2-21.9
		c-3.9-9.4-7.2-15.1-7.7-13.8c-0.5,1.4-2.8,16.5-2.3,22.6C424.1,387.1,425.5,396.8,425.8,397.7z"/>
	<path class="layout" data-layout="5" d="M441.5,385.9c0.8,1.3,4.9-3.7,6.1-9.6c1.2-5.9-2.2-17.1-2.6-17.8c-0.5-0.8-5.6,8.9-6.3,14.6
		C438,378.7,440.8,384.5,441.5,385.9z"/>
	<path class="layout" data-layout="5" d="M427.8,403.7c-3.3,4.5-1.7,8.6,0.9,10.4c0,0-0.3,2.6-2.9-0.1c-2.6-2.7-1.8-5.1-1.4-6.6c0.4-1.6-0.8-2.2-5.9-7.6
		c-6.5-7.5-11.1-9.6-14-10.3c0.8,14,9,25.8,16.6,29c8,3.4,13.2,2,18.5-3.3c2.7-3.8,2-7.4-0.1-10.5
		C437.1,401.2,431.1,399.1,427.8,403.7z"/>
	<path class="layout" data-layout="5" d="M410.6,387c-0.7-2.7-0.5-11.8-1-14.6c-0.2-1.3-0.4-3.8-1.1-4.9c-2,2.8-3,5.9-3.7,8.7c-0.6,2.2-0.9,4.4-1.1,6.6
		c0.9,1,1.9,2.2,2.8,3.2C408.9,388.6,411.2,389.7,410.6,387z"/>
	<path class="layout" data-layout="5" d="M481.2,373c0.1-1.3,0.1-2.5,0-3.6c-3.6-2.2-7.4-4.4-11.4-6.5c-0.9,6.3-2.5,12.5-4.4,18.1
		C468.5,379.8,478.2,375.1,481.2,373z"/>
	<path class="layout" data-layout="5" d="M465.6,363.9c-9.4,6.1-25.4,30.9-26.2,33.3c-0.8,2.4,4.6,7.9,5.7,9.9c0.6,1.1,1.2,0.9,2.1,0.7c2.4-2.1,3.4-3.1,5.9-4.9
		C460.6,391.9,466.7,367.4,465.6,363.9z"/>
	<path class="layout" data-layout="5" d="M480.2,378.3c-0.2,0-0.4,0-0.6-0.1c-1.1-0.5-12.5,5.3-15.5,6.8c-2.2,6.1-4.6,11.4-6.3,14.9c-0.2,0.3,0.3,0.5,0.6,0.3
		c5-2.9,10.8-5.3,16.6-7.3c1.5-2.7,3.3-6.4,4.2-9.8C479.5,381.5,479.9,379.9,480.2,378.3z"/>
	<path class="layout" data-layout="5" d="M502.1,384.2c-0.8-1.1-6.7-5.7-14.9-11c-2.7,0.6-3.5,3.9-4.4,8.5c-0.8,4.3-2.8,8.1-3.6,9.9c10.8-3.4,20.5-5.1,22.3-5.1
		C505.2,386.4,502.9,385.2,502.1,384.2z"/>
	<path class="layout" data-layout="5" d="M451.8,373.7c0.9-0.7,5.4-7.7,8.7-10.1c2-1.4,4.6-3.5,2.8-4.1c-5.4-2.6-10.7-4.7-15.6-6.1c2.4,7.4,3.4,15.1,3.3,17.2
		C450.8,373.4,450.9,374.4,451.8,373.7z"/>
	<path class="layout" data-layout="5" d="M421.1,374.4c-0.2-1.2,0.2-9.1,1.1-12.9c0.5-2.3,0.5-4,0.1-5.2c-4,1.9-7.7,4.5-10.8,7.9c2.7,4.9,6.9,9.1,7.7,10.1
		C420,375.3,421.3,375.6,421.1,374.4z"/>
	<path class="layout" data-layout="5" d="M438,366.2c0.5-2.4,4.4-10.4,5.8-13.5c-4.7-0.9-10.6-0.3-16.4,1.6c3.2,4.9,8.2,13.9,8.5,14.4
		C436.4,369.4,437.4,369,438,366.2z"/>
	<path class="layout" data-layout="5" d="M558.2,463.1c-3.5,3.7-7.1,11.5-7.4,12.8c-0.3,1.3,10.7-4.5,14.2-8.7c1.5-1.8,4.6-10.7,4.3-12
		C568.9,453.9,561.6,459.3,558.2,463.1z"/>
	<path class="layout" data-layout="5" d="M566.9,452.4c0.6-0.7,0.9-1.6,0.9-1.6c-0.8-0.5-5.1-3.4-5.4-6.6c-0.9-0.3-2.7,0.4-4.3,0.6c-1.6,0.2-11.2,5.6-17.3,13.7
		c-6.2,8.1-9.5,13.8-8,13.6c1.5-0.3,15.7-5.9,20.7-9.3C558.6,459.2,566.2,453.1,566.9,452.4z"/>
	<path class="layout" data-layout="5" d="M537.3,444.3c-5.7,2-13.7,10.5-14.1,11.2c-0.5,0.8,10.5,0.4,15.8-1.9c5.2-2.2,9-7.6,9.7-8.9
		C549.4,443.4,543,442.3,537.3,444.3z"/>
	<path class="layout" data-layout="5" d="M587.2,446.3c-1.1-8.6-4.9-12.4-12.1-14.4c-4.6-0.5-7.4,2-9,5.3c-1.8,3.8-0.6,10.1,4.9,10.6c5.6,0.6,8.3-2.8,8.6-6
		c0,0,2.4-1,1.4,2.6c-1,3.6-3.5,4.1-5,4.6c-1.6,0.4-1.5,1.8-3.6,8.9c-3.3,9.4-2.8,14.5-2,17.3C582.2,467.5,588.2,454.5,587.2,446.3z
		"/>
	<path class="layout" data-layout="5" d="M565,470.9c-2,1.9-10,6.3-12.2,8.1c-1,0.9-3.1,2.2-3.7,3.4c3.4,0.3,6.6-0.4,9.4-1.1c2.2-0.6,4.3-1.4,6.3-2.3
		c0.4-1.3,0.9-2.7,1.4-4C567.3,471.6,567,469,565,470.9z"/>
	<path class="layout" data-layout="5" d="M517.8,416.9c-1.2,0.5-2.2,1.1-3.1,1.8c-0.1,4.2-0.1,8.7,0,13.1c5.9-2.4,12.1-4.1,17.9-5.3
		C530,424.4,521.1,418.3,517.8,416.9z"/>
	<path class="layout" data-layout="5" d="M559.5,440.8c2.5-0.5,4.6-7.9,5.7-9.9c0.6-1.1,0.2-1.5-0.4-2.1c-3.1-1-4.3-1.4-7.2-2.6c-13.4-1-37.7,5.9-40.1,8.6
		C527.5,439.9,557,441.3,559.5,440.8z"/>
	<path class="layout" data-layout="5" d="M522.8,415c0.1,0.1,0.2,0.3,0.2,0.6c0.1,1.2,10.8,8.2,13.7,10c6.4-1.1,12.1-1.7,16.1-2c0.3,0,0.3-0.5-0.1-0.7
		c-5-2.9-10-6.7-14.6-10.7c-3.1,0-7.2,0.3-10.6,1.3C525.9,414,524.3,414.5,522.8,415z"/>
	<path class="layout" data-layout="5" d="M517.1,393c-0.5,1.2-1.5,8.6-2.1,18.4c1.9,2,5.1,1.1,9.5-0.5c4.1-1.5,8.4-1.6,10.3-1.9c-8.4-7.7-14.7-15.2-15.6-16.8
		C517.5,389.3,517.6,391.8,517.1,393z"/>
	<path class="layout" data-layout="5" d="M530.9,444.3c2.5-1.2,3.3-1.8,2.2-2.3c-1.1-0.4-9.4-0.8-13-2.5c-2.3-1-5.3-2.2-4.9-0.4c0.4,5.9,1.2,11.6,2.5,16.5
		C522.8,450,529,445.3,530.9,444.3z"/>
	<path class="layout" data-layout="5" d="M548.8,468.1c-0.9,0.8-8,4.4-11.7,5.5c-2.3,0.7-3.8,1.5-4.6,2.5c3.6,2.5,7.8,4.4,12.2,5.4c2.9-4.8,4.4-10.6,4.9-11.7
		C550.1,468.6,549.8,467.3,548.8,468.1z"/>
	<path class="layout" data-layout="5" d="M533.3,457.7c-2.3,0.7-11.2,1.4-14.6,1.7c1.6,4.5,5,9.4,9.6,13.4c2.7-5.2,7.9-14.1,8.2-14.6
		C536.9,457.6,536,456.9,533.3,457.7z"/>
	<path class="layout" data-layout="5" d="M602,398.5c1.3-0.3,7.5-7.5,8.3-9.7c1.8-5.1,1.4-17.6,0.4-16.7c-1,1-5.9,8-7.4,12.8C601.8,389.8,600.7,398.9,602,398.5z"/>
	<path class="layout" data-layout="5" d="M587.3,394c0.7,1.5,0.9,3.4,1.6,4c3-1.4,7.6,0.9,8.4,1.4c0,0,0.6-0.7,1-1.6c0.3-0.9,1.7-10.6,2.2-16.7
		c0.5-6.1-1.8-21.2-2.3-22.6c-0.5-1.4-3.8,4.4-7.7,13.8C586.6,381.5,586.7,392.5,587.3,394z"/>
	<path class="layout" data-layout="5" d="M582.6,385.9c0.8-1.3,3.5-7.2,2.8-12.9c-0.7-5.7-5.8-15.4-6.3-14.6c-0.4,0.7-3.8,11.9-2.6,17.8
		C577.8,382.2,581.9,387.2,582.6,385.9z"/>
	<path class="layout" data-layout="5" d="M605.7,399.8c-5.1,5.4-6.3,6-5.9,7.6c0.4,1.6,1.2,4-1.4,6.6c-2.6,2.7-2.9,0.1-2.9,0.1c2.6-1.8,4.2-5.9,0.9-10.4
		c-3.3-4.5-9.3-2.4-11.7,1c-2.1,3.1-2.8,6.7-0.1,10.5c5.3,5.3,10.5,6.7,18.5,3.3c7.6-3.2,15.9-15,16.6-29
		C616.9,390.2,612.3,392.3,605.7,399.8z"/>
	<path class="layout" data-layout="5" d="M617.7,386c0.9-1,1.9-2.2,2.8-3.2c-0.2-2.2-0.5-4.4-1.1-6.6c-0.7-2.8-1.7-5.9-3.7-8.7c-0.7,1.1-0.8,3.6-1.1,4.9
		c-0.5,2.8-0.3,11.9-1,14.6C612.9,389.7,615.3,388.6,617.7,386z"/>
	<path class="layout" data-layout="5" d="M558.7,380.9c-1.9-5.6-3.5-11.8-4.4-18.1c-3.9,2.1-7.8,4.3-11.4,6.5c-0.2,1.1-0.2,2.3,0,3.6
		C545.9,375.1,555.7,379.8,558.7,380.9z"/>
	<path class="layout" data-layout="5" d="M584.8,397.3c-0.8-2.4-16.8-27.2-26.2-33.3c-1.2,3.4,5,27.9,12.5,39c2.5,1.8,3.5,2.8,5.9,4.9c0.9,0.2,1.4,0.4,2.1-0.7
		C580.2,405.2,585.6,399.7,584.8,397.3z"/>
	<path class="layout" data-layout="5" d="M560.1,385c-3-1.6-14.5-7.3-15.5-6.8c-0.3,0.1-0.5,0.2-0.6,0.1c0.3,1.6,0.7,3.2,1.1,4.7c0.8,3.5,2.7,7.1,4.2,9.8
		c5.7,2,11.5,4.4,16.6,7.3c0.4,0.2,0.8,0.1,0.6-0.3C564.7,396.4,562.3,391.2,560.1,385z"/>
	<path class="layout" data-layout="5" d="M536.9,373.2c-8.1,5.3-14,9.9-14.9,11c-0.8,1.1-3,2.2,0.5,2.2c1.8,0,11.5,1.7,22.3,5.1c-0.7-1.8-2.8-5.6-3.5-9.9
		C540.4,377.1,539.6,373.8,536.9,373.2z"/>
	<path class="layout" data-layout="5" d="M560.9,359.6c-1.8,0.6,0.8,2.6,2.8,4.1c3.3,2.3,7.8,9.3,8.7,10.1c0.9,0.7,1-0.3,0.9-3c-0.1-2.1,0.9-9.8,3.3-17.2
		C571.6,354.8,566.2,357,560.9,359.6z"/>
	<path class="layout" data-layout="5" d="M603.1,374.4c-0.2,1.2,1.1,0.8,1.9-0.2c0.7-0.9,5-5.2,7.7-10.1c-3-3.4-6.8-6-10.8-7.9c-0.4,1.2-0.4,2.9,0.1,5.2
		C602.9,365.3,603.3,373.2,603.1,374.4z"/>
	<path class="layout" data-layout="5" d="M586.1,366.2c0.6,2.8,1.7,3.2,2.1,2.5c0.3-0.6,5.3-9.5,8.5-14.4c-5.8-1.9-11.7-2.5-16.4-1.6
		C581.7,355.8,585.6,363.8,586.1,366.2z"/>
	<path class="layout" data-layout="5" d="M512,248c-75.1,0-136,60.9-136,136c0,75.1,60.9,136,136,136c75.1,0,136-60.9,136-136C648,308.9,587.1,248,512,248z
		 M434.6,464.4c-7.8-8.9-5.8-23.5,6.1-32.9c2.8-2.2,18.5-5.8,27.1-10.1c8.6-4.3,32.7-25.6,37.1-33c-3.6-0.3-41.3,9.4-52.2,19.5
		c-10.8,10.1-13.5,13-17,14.3c-4.5,1.7-24.6,3.8-30.8-6.6c-3-10.1-4.6-20.7-4.6-31.7c0-50.3,33.3-92.9,79.1-106.8
		c10.9-1.7,25.1,5.9,27.3,22c0.5,3.6-4.2,18.9-4.8,28.5c-0.6,9.6,5.8,41.1,10,48.6c2.1-3,12.5-40.5,9.2-54.9
		c-3.3-14.4-4.5-18.2-3.9-21.9c0.8-4.9,6.7-24.6,22.3-23.7c48.3,12.3,84,56.1,84,108.2c0,11.1-1.6,21.8-4.6,32
		c-8,15.6-26.1,8.1-30.6,6.4c-3.5-1.4-6.2-4.3-17-14.3c-10.8-10.1-48.5-19.8-52.2-19.5c4.4,7.4,28.5,28.7,37.1,33
		c8.6,4.3,24.2,7.9,27.1,10.1c11.9,9.3,12,24,6.2,32.6c-20.1,19.5-47.5,31.4-77.7,31.4C481.9,495.6,454.7,483.8,434.6,464.4z"/>
</g>
</svg>