<svg xmlns="http://www.w3.org/2000/svg" xmlns:xlink="http://www.w3.org/1999/xlink" x="0px" y="0px" viewBox="0 0 1024 768" >
<g>
	<path class="layout" data-layout="5" d="M489.2,301.2c-5.5-1.1-5.5,1.1-6.6,1.5c-1.1,0.4-4.2-0.7-6.3,0.2c-2.1,0.9-7,3.4-5.9,9.2c1.1,5.8,1.7,5.1,0.8,6.9
		c-0.8,1.7-1.9,7.1,4.2,9.7c6.1,2.6,13.5-0.2,16.7-0.9c3.2-0.6,4.7,0.2,6.3,1.5c1.7,1.3,6.1,4.9,7.6,6.4c1.5,1.5,1,1.9,1,3.4
		c0,1.5,0,18.2,0,18.2s-1,2.6-3.3,0.9c-2.3-1.7-5.3-2.8-5.7-5.2c-0.4-2.4-0.2-6.9,0-9.4c0.2-2.6-0.8-6.9-5.3-8.6
		c-4.4-1.7-6.1,0.2-7.4,0.6c-1.3,0.4-4.2-0.4-6.3-0.6c-2.1-0.2-5.5,0.6-6.6,2.8c-1.1,2.1-2.3,5.8-1.1,8.4c1.3,2.6,1.3,2.6,0.4,4.5
		c-0.8,1.9-1.7,7.5,5.1,9.7c6.8,2.1,13.8-1.7,17.6-0.4c3.8,1.3,3.8,2.4,7.6,4.3c3.5,1.8,5.5,3,8.7,3s5.2-1.2,8.7-3
		c3.8-1.9,3.8-3,7.6-4.3c3.8-1.3,10.8,2.6,17.6,0.4c6.8-2.1,5.9-7.7,5.1-9.7c-0.8-1.9-0.8-1.9,0.4-4.5c1.3-2.6,0-6.2-1.1-8.4
		c-1.1-2.2-4.4-3-6.6-2.8c-2.1,0.2-5.1,1.1-6.3,0.6c-1.3-0.4-3-2.4-7.4-0.6c-4.5,1.7-5.5,6-5.3,8.6c0.2,2.6,0.5,7.1,0,9.4
		c-0.4,2.4-3.5,3.4-5.9,5.2c-2.3,1.7-3.5-0.9-3.5-0.9s0-16.7,0-18.2c0-1.5-0.4-1.9,1.1-3.4c1.5-1.5,5.9-5.1,7.6-6.4
		c1.7-1.3,3.2-2.1,6.4-1.5c3.2,0.6,10.6,3.4,16.8,0.9c6.1-2.6,5.1-7.9,4.2-9.7c-0.8-1.7-0.2-1.1,0.9-6.9c1.1-5.8-3.8-8.4-5.9-9.2
		c-2.1-0.9-5.3,0.2-6.3-0.2c-1.1-0.4-1.1-2.6-6.6-1.5c-5.5,1.1-8.2,6.6-8.2,9.2c0,2.6,0.5,10.1-0.6,11.6c-1.1,1.5-4.6,3.4-6.9,5.1
		c-2.3,1.7-2.4-1.5-2.4-1.5s0-17.8,0-19.5c0-1.7,0-2.8,1.2-4.1c1.3-1.3,4.9-4.9,8.1-7.1c3.2-2.1,6.2-2.4,11.3-1.3
		c5.1,1.1,5.3,2.8,11,0.6c5.7-2.1,3.8-7.9,2.8-9.2c-1.1-1.3-2.1-1.1-0.6-3.2c1.5-2.1,2.1-7.5,0.2-10.1c-1.9-2.6-5.9-3-8.9-2.4
		c-3,0.6-2.5,0.9-5.9-0.4c-3.4-1.3-8.4-0.6-9.5,4.5c-1.1,5.2,2,10.9-0.4,14.4c-1.7,2.6-3.3,3-6.1,4.9c-2.8,1.9-3.3,0-3.3-1.5
		c0-1.5,0-8.8,0-11.4c0-2.6,0.5-3,1.1-4.9c0.6-1.9,3.8-2.6,10.3-10.1c6.6-7.5-0.3-16.1-4-16.8c-3.4-0.6-2.8,0-4.4-3.1
		c-2.2-4.1-5.5-3.8-6.6-3.5c-1.1-0.2-4.4-0.6-6.6,3.5c-1.6,3.1-1,2.5-4.4,3.1c-3.6,0.6-10.6,9.2-4,16.8c6.6,7.5,9.7,8.2,10.3,10.1
		c0.6,1.9,1,2.4,1,4.9c0,2.6,0,9.9,0,11.4c0,1.5-0.4,3.4-3.1,1.5c-2.7-1.9-4.2-2.4-5.9-4.9c-2.3-3.4,0.7-9.2-0.4-14.4
		c-1.1-5.1-6.1-5.8-9.5-4.5c-3.4,1.3-3,1.1-5.9,0.4c-3-0.6-7-0.2-8.9,2.4c-1.9,2.6-1.3,7.9,0.2,10.1c1.5,2.1,0.4,1.9-0.6,3.2
		c-1.1,1.3-3,7.1,2.8,9.2c5.7,2.1,5.9,0.4,11-0.6c5.1-1.1,8-0.9,11.2,1.3c3.2,2.1,6.8,5.8,8.1,7.1c1.3,1.3,1.1,2.4,1.1,4.1
		c0,1.7,0,19.5,0,19.5s0,3.2-2.3,1.5c-2.3-1.7-5.7-3.6-6.8-5.1c-1.1-1.5-0.6-9-0.6-11.6C497.4,307.8,494.7,302.3,489.2,301.2z"/>
	<path class="layout" data-layout="5" d="M494.3,380.9c-4,0.5-8.1,1.6-12.2,2.3c-1,0.2-1.1,0.8-1.1,1.1c0.3,3.1,0.4,6.7,0.5,9.2c0,0.4,0.5,0.7,0.7,0.6
		c4.5-3.1,9.9-6.5,11.8-7.8C495.3,385.3,496.6,380.5,494.3,380.9z"/>
	<path class="layout" data-layout="5" d="M461.6,413c4.5-4.7,10-10.2,13.2-13.2c0.3-0.3,0.8-1.6,0.8-2.1c0.2-3.5,0.4-8.1,0.1-11.4c0-0.5-1-1.2-1.5-1.1
		c-4,1.2-7.9,2.6-11.7,4c-0.2,0.1-0.7,0.8-0.6,1.1c0.2,4.1-0.5,15.1-1.1,22C460.8,412.9,461.3,413.3,461.6,413z"/>
	<path class="layout" data-layout="5" d="M456.9,393.4c0.1-0.7-0.7-1.5-1.1-1.4c-3.4,1.5-6.6,3-9.6,4.6c-0.3,0.2-0.9,1.1-0.9,1.7c-0.1,5.1-0.6,22.5-3.8,31.4
		c-3.9,10.5-8.4,18.7-11.4,19.5c-3,0.9-2.8-0.4-0.6-3.4c2.1-2.9,13.3-27.3,10.8-44.4c-0.1-0.4-1-0.7-1.4-0.5c-0.8,0.5-1.6,1-2.3,1.5
		c-1.7,1.1-3.6,2.6-5.5,4.3c-0.2,0.2-0.7,1.1-0.8,1.4c-0.5,4.7-2.7,23.7-7,32.2c-4.9,9.7-9,12.9-10.7,13.1c-1.7,0.2-2.8,0.4-1.1-2.1
		c1.6-2.4,15-25.2,13.4-36.9c-0.1-0.5-0.9-0.9-1.2-0.6c-12.7,13-26.2,30.7-27.7,32.8c-2,2.9-3.7,0.3-2-2.6c1.6-2.7,8.3-15.1,24-31.2
		c0.4-0.4,0-0.8-0.6-0.6c-6.8,2.1-19.3,7.2-27.9,17.3c-1.7,2.2-4.3,0.4-0.6-3.9c3.4-4,17.6-17.6,34.4-18.6c0.3,0,1.6-0.6,1.9-0.8
		c2.4-2,4.9-4,7.6-5.8c0.5-0.3,0.2-0.9-0.5-0.9c-8.4,0-21.8,1.1-30.6,5c-13.5,6-21.7,12.9-23.2,13.9c-1.5,1.1-3.6-1.7,1.3-6
		c4.9-4.3,21.2-16.5,38.6-18.4c10.6-1.2,17.9-0.8,22.2,0.4c0.4,0.1,1.8-0.1,2.2-0.3c3.4-1.9,6.7-3.7,10-5.4c0.4-0.2,0.4-0.8-0.1-1
		c-29.3-7-55.8,4.1-58.5,5.2c-2.8,1.1-3-0.4-1.7-1.7c1.3-1.3,7.7-6.2,23.2-9.9c15.4-3.6,42.5,1.3,44.2,2.4c0.5,0.3,1.9,0.8,2.3,0.6
		c3.1-1.4,5.9-2.5,8.2-3.4c0.4-0.2,0.5-0.8,0.2-1c-9.9-4.7-34.1-11.1-65.4-1.2c-5.8,2.4-6.2-1.9-1.1-4.3c5.1-2.3,43.3-15.9,74.2,3
		c0.4,0.2,0.7,0.7,2.3,0.4c4.3-0.7,9.7-1.8,14.2-2.2c1.8-0.2,1.7-1.5,1.2-2c-2.4-2.2-25.4-16-46.6-17.2c-21.2-1.1-49.8,2-61.8,14.9
		c-12,12.9-6.6,23.7-6,25.2c-10.6,4-21.4,22.3-10.6,34c10.9,11.7,12,14.3,13.2,21.2c1.1,6.9,3.4,16.6,20.9,14.6
		c17.4-2,21.4-7.7,21.4-7.7s1.7-1.1,3.7,1.1c2,2.3,7.4,2.9,8.3,1.7c0.9-1.1,1.4-14.9,5.4-22.3c3.2-6,8.1-12.3,10-15.6
		C455.5,414.1,456.5,396.3,456.9,393.4z"/>
	<path class="layout" data-layout="5" d="M412.9,347.4c-1.6-0.3-4.5-0.3-5.3-3.3c-0.8-3-0.6-8.7-0.9-11.4c-0.3-2.7-3-4.9-5.4-5.4c-3.7-0.8-7.2,1.2-8.2,1.9
		c-1.1,0.6-7-1.9-9.3,3.1c-2.3,5,1.4,7.2,1.2,10c-0.1,2-2,7.9,4,10.1c6.1,2.2,14.9-4.4,17.9-2.5c3,1.9,6.1,4.4,10.2,4.4
		c4,0,7.2-2.5,10.2-4.4c3-1.9,11.8,4.7,17.9,2.5c6.1-2.2,4.2-8.1,4-10.1c-0.2-2.8,3.6-5,1.3-10c-2.3-5-8.3-2.5-9.3-3.1
		c-1.1-0.6-4.5-2.7-8.2-1.9c-2.5,0.5-5.1,2.8-5.4,5.4c-0.3,2.6-0.1,8.4-0.9,11.4c-0.8,3-3.8,3-5.4,3.3c-1.6,0.3-2.1-2.1-2.1-2.1
		s0-12.6,0-14.1c0-1.6,1.1-2.8,1.8-3.4c0.6-0.6,4.5-4.1,6.4-5.1c1.9-1.1,3.8-1.1,6.9-0.8c3.1,0.3,6.9,5,11.5,2.7
		c4.7-2.3,3.9-6.4,3.3-7.5c-0.6-1.1-0.6-1.2,0.8-3.4c1.4-2.2,2.5-8.1-0.3-10.3c-2.8-2.2-5.9-1.4-7-1.4c-1.1,0-0.9-0.2-2.5-2
		c-1.6-1.9-6.1-1.9-8.1-0.5c-2,1.4-3.9,5.3-3.7,8.4c0.2,3.1-0.9,9.3-1.4,10.7c-0.5,1.4-4,3.4-5.5,4.5c-1.6,1.1-2.1-1.8-2.1-1.8
		s0-9.4,0-10.8c0-1.4,0.8-3.1,0.8-4.5c0-1.4,3.6-3.7,8.6-7.8c4.4-3.6,6.1-9.8,4.2-12.7c-1.9-3-4.8-4.3-7-3.7
		c-2.2,0.6-1.9,0.1-2.2-2.1c-0.3-2.2-2.6-5.5-6.4-5.5c-3.7,0-6.1,3.3-6.4,5.5c-0.3,2.2,0,2.7-2.2,2.1c-2.2-0.6-5.2,0.7-7,3.7
		c-1.9,3-0.2,9.2,4.2,12.7c5,4,8.5,6.4,8.5,7.8c0,1.4,0.7,3.1,0.7,4.5c0,1.4,0,10.8,0,10.8s-0.4,2.9-2,1.8c-1.6-1.1-5-3.1-5.4-4.5
		c-0.5-1.4-1.5-7.6-1.4-10.7c0.2-3.1-1.7-7-3.7-8.4c-2-1.4-6.5-1.4-8.1,0.5c-1.6,1.9-1.4,2-2.5,2c-1.1,0-4.2-0.8-7,1.4
		c-2.8,2.2-1.7,8.1-0.3,10.3c1.4,2.2,1.4,2.3,0.8,3.4c-0.6,1.1-1.4,5.1,3.3,7.5c4.7,2.3,8.4-2.3,11.5-2.7c3.1-0.3,5-0.3,6.9,0.8
		c1.9,1.1,5.7,4.5,6.3,5.1c0.6,0.6,1.7,1.9,1.7,3.4c0,1.6,0,14.1,0,14.1S414.5,347.8,412.9,347.4z"/>
	<path class="layout" data-layout="5" d="M528.5,390.8c-3.4-1.7-4.6,1.1-4.6,2.2c0,1.1,1.7,1.8,4,4c16.3,10.8,28.3,28.8,33.7,41.1c5.4,12.3,6.6,22,5.6,23
		c-1,1-2.7,0.1-3.4-3.7c-0.7-3.9-11.9-28.1-20.4-39.2c-8.6-11.2-23.5-20.2-25.8-21.4c-2.3-1.1-2,0.9-2,2.6c0,1.7,0.3,3.4,0.6,4.7
		c0.3,1.3-0.1,1.8,12.1,10.7c17.1,12.4,28.9,46.2,29.8,53.4c1.2,9.8-1.4,11.4-2.1,10.7c-0.7-0.7,0-10.3-7.7-27.4
		c-7.7-17.2-26.5-34.5-29.8-36.9c-3.3-2.4-3.1,1.3-3.1,1.3s0,1.7,0,3.6c0,2.7,0.4,3.6,0.6,4.3c0.3,0.7,4.5,3.1,12.8,13.7
		c12,15.3,13.2,33.6,13.8,41.8c0.6,8.1-1.4,17.9-3,17.9c-1.6,0-1.7-2.3-1.4-6.1c0.3-3.9,0-21.4-4-32.2c-4-10.7-15.8-23.4-16.9-24.6
		c-1.1-1.1-1.9-0.9-1.9,0.6c0,1.4-0.3,11,0,11.9c0.3,0.9,2.6,1,9.9,14.9c7.3,13.9,4.4,35,3.6,40c-0.9,5-3.6,10.3-5.1,10.3
		c-1.6,0-1.6-2.3-0.7-5.3c0.9-3,2.4-14.2,1.9-24.3c-0.6-10.2-4.3-15.4-6.8-19.9c-2.6-4.4-4.1-2.1-3.8-1c0,0-0.8,48.6-0.8,51.8
		c0,3.3-1.5,4.8-1.5,4.8s-1.5-1.5-1.5-4.8c0-3.3-0.8-51.8-0.8-51.8c0.3-1.1-1.2-3.4-3.8,1c-2.6,4.4-6.3,9.7-6.8,19.9
		c-0.6,10.2,1,21.3,1.9,24.3c0.9,3,0.9,5.3-0.7,5.3c-1.6,0-4.3-5.3-5.1-10.3c-0.9-5-3.7-26.2,3.6-40c7.3-13.9,9.6-14,9.9-14.9
		c0.3-0.9,0-10.4,0-11.9c0-1.4-0.7-1.7-1.9-0.6c-1.1,1.1-12.9,13.9-16.9,24.6c-4,10.7-4.3,28.3-4,32.2c0.3,3.9,0.1,6.1-1.4,6.1
		c-1.6,0-3.6-9.7-3-17.9c0.6-8.2,1.7-26.5,13.7-41.8c8.3-10.6,12.4-13,12.7-13.7c0.3-0.7,0.5-1.6,0.5-4.3c0-1.9,0-3.6,0-3.6
		s0.3-3.7-2.9-1.3c-3.3,2.4-21.9,19.7-29.7,36.9c-7.7,17.2-7,26.7-7.7,27.4c-0.7,0.7-2.3-3.4-1.3-10.6c1-7.2,8.4-36,28.4-52.6
		c11.7-9.7,12.4-10.3,12.7-11.6c0.3-1.3,0.6-3,0.6-4.7c0-1.7,0.3-3.7-2-2.6c-2.3,1.1-17.2,10.2-25.8,21.4
		c-8.6,11.1-19.7,35.4-20.4,39.2c-0.7,3.9-2.4,4.7-3.4,3.7c-1-1,0.1-10.7,5.6-23c5.4-12.3,17.4-30.2,33.7-41.1c2.2-2.1,4-2.9,4-4
		c0-1.1-1.2-3.9-4.6-2.2c-5.1,2.5-33.9,21.1-49.2,56.4c-7.4,21.7,4.1,31.9,13.1,33.5c-2.9,10.7,9.9,26.6,28.4,28.7
		c5.3,11.1,11.4,17.2,24.2,17.2c12.9,0,19-6.1,24.3-17.2c18.4-2,31.3-18,28.4-28.7c9-1.6,20.5-11.8,13.1-33.5
		C562.4,411.8,533.6,393.3,528.5,390.8z"/>
	<path class="layout" data-layout="5" d="M541.9,394.1c0.3,0.2,0.7-0.2,0.7-0.6c0-2.6,0.1-6.1,0.5-9.2c0-0.3-0.1-1-1.1-1.1c-4.2-0.7-8.2-1.8-12.2-2.3
		c-2.4-0.3-1.1,4.4,0.3,5.4C532,387.6,537.4,391,541.9,394.1z"/>
	<path class="layout" data-layout="5" d="M561.4,389.2c-3.8-1.5-7.7-2.8-11.7-4c-0.4-0.1-1.4,0.6-1.5,1.1c-0.2,3.3-0.1,7.9,0.2,11.4c0,0.5,0.6,1.8,0.8,2.1
		c3.2,3,8.7,8.5,13.2,13.2c0.3,0.3,0.8-0.1,0.8-0.7c-0.6-6.9-1.3-17.9-1.1-22C562.1,390,561.6,389.3,561.4,389.2z"/>
	<path class="layout" data-layout="5" d="M642.7,396.3c0.6-1.4,6-12.3-6-25.2c-12-12.9-40.6-16-61.8-14.9c-21.2,1.1-44.2,14.9-46.6,17.2c-0.5,0.5-0.6,1.8,1.2,2
		c4.5,0.4,9.9,1.5,14.2,2.2c1.5,0.3,1.9-0.2,2.3-0.4c30.9-18.9,69.1-5.4,74.2-3c5.1,2.4,4.7,6.7-1.1,4.3
		c-31.2-9.9-55.5-3.5-65.4,1.2c-0.4,0.2-0.3,0.8,0.2,1c2.3,0.9,5.1,2,8.2,3.4c0.4,0.2,1.7-0.3,2.3-0.6c1.7-1.1,28.7-6,44.2-2.4
		c15.4,3.6,21.9,8.6,23.2,9.9c1.3,1.3,1.1,2.8-1.7,1.7c-2.7-1.1-29.2-12.2-58.5-5.2c-0.4,0.1-0.5,0.7-0.1,1c3.2,1.6,6.6,3.4,10,5.4
		c0.4,0.2,1.8,0.4,2.2,0.3c4.3-1.1,11.6-1.6,22.2-0.4c17.4,1.9,33.7,14.2,38.6,18.4c4.9,4.3,2.8,7.1,1.3,6
		c-1.5-1.1-9.6-7.9-23.2-13.9c-8.8-3.9-22.1-5-30.6-5c-0.6,0-0.9,0.6-0.5,0.9c2.7,1.8,5.2,3.8,7.6,5.8c0.3,0.3,1.6,0.8,1.9,0.8
		c16.8,1,30.9,14.6,34.4,18.6c3.6,4.3,1.1,6-0.6,3.9c-8.7-10.1-21.2-15.2-27.9-17.3c-0.6-0.2-1,0.3-0.7,0.6
		c15.7,16.1,22.4,28.5,24,31.2c1.7,2.9,0,5.4-2,2.6c-1.5-2.1-15-19.8-27.7-32.8c-0.3-0.3-1.1,0.1-1.2,0.6
		c-1.6,11.7,11.8,34.5,13.4,36.9c1.7,2.6,0.6,2.4-1.1,2.1c-1.7-0.2-5.8-3.4-10.7-13.1c-4.3-8.4-6.5-27.5-7-32.2
		c0-0.3-0.5-1.2-0.8-1.4c-2-1.7-3.8-3.2-5.5-4.3c-0.7-0.5-1.5-1-2.3-1.5c-0.4-0.2-1.3,0.1-1.4,0.5c-2.5,17.1,8.7,41.5,10.8,44.4
		c2.1,3,2.4,4.3-0.6,3.4c-3-0.8-7.5-9-11.4-19.5c-3.3-8.9-3.8-26.2-3.8-31.4c0-0.5-0.6-1.5-0.9-1.7c-3-1.5-6.2-3.1-9.6-4.6
		c-0.4-0.2-1.2,0.6-1.1,1.4c0.4,2.9,1.3,20.6,3.2,29.8c1.9,3.3,6.8,9.6,10,15.6c4,7.4,4.6,21.2,5.4,22.3c0.9,1.1,6.3,0.6,8.3-1.7
		c2-2.3,3.7-1.1,3.7-1.1s4,5.7,21.4,7.7c17.4,2,19.7-7.7,20.9-14.6c1.1-6.9,2.3-9.4,13.2-21.2C664.1,418.6,653.3,400.3,642.7,396.3z
		"/>
	<path class="layout" data-layout="5" d="M602.7,347.4c-1.6-0.3-4.5-0.3-5.2-3.3c-0.8-3-0.6-8.7-0.9-11.4c-0.3-2.7-3-4.9-5.4-5.4c-3.7-0.8-7.2,1.2-8.2,1.9
		c-1.1,0.6-7-1.9-9.3,3.1c-2.3,5,1.4,7.2,1.2,10c-0.1,2-2,7.9,4,10.1c6.1,2.2,14.9-4.4,17.9-2.5c3,1.9,6.2,4.4,10.2,4.4
		c4,0,7.2-2.5,10.2-4.4c3-1.9,11.8,4.7,17.9,2.5c6.1-2.2,4.2-8.1,4.1-10.1c-0.2-2.8,3.6-5,1.2-10c-2.3-5-8.3-2.5-9.3-3.1
		c-1.1-0.6-4.5-2.7-8.3-1.9c-2.5,0.5-5.1,2.8-5.5,5.4c-0.3,2.6-0.2,8.4-0.9,11.4c-0.8,3-3.8,3-5.4,3.3c-1.6,0.3-2.1-2.1-2.1-2.1
		s0-12.6,0-14.1c0-1.6,1.2-2.8,1.8-3.4c0.6-0.6,4.6-4.1,6.4-5.1c1.9-1.1,3.8-1.1,6.9-0.8c3.1,0.3,6.9,5,11.5,2.7
		c4.7-2.3,3.9-6.4,3.3-7.5c-0.6-1.1-0.6-1.2,0.8-3.4c1.4-2.2,2.5-8.1-0.3-10.3c-2.8-2.2-5.9-1.4-7-1.4c-1.1,0-0.9-0.2-2.5-2
		c-1.6-1.9-6.1-1.9-8.1-0.5c-2,1.4-3.9,5.3-3.7,8.4c0.2,3.1-0.9,9.3-1.4,10.7c-0.5,1.4-4,3.4-5.5,4.5c-1.6,1.1-2.1-1.8-2.1-1.8
		s0-9.4,0-10.8c0-1.4,0.9-3.1,0.9-4.5c0-1.4,3.6-3.7,8.6-7.8c4.4-3.6,6.1-9.8,4.2-12.7c-1.9-3-4.8-4.3-7-3.7
		c-2.2,0.6-1.9,0.1-2.2-2.1c-0.3-2.2-2.6-5.5-6.4-5.5c-3.7,0-6.1,3.3-6.4,5.5c-0.3,2.2,0,2.7-2.2,2.1c-2.2-0.6-5.2,0.7-7,3.7
		c-1.9,3-0.2,9.2,4.2,12.7c5,4,8.5,6.4,8.5,7.8c0,1.4,0.7,3.1,0.7,4.5c0,1.4,0,10.8,0,10.8s-0.4,2.9-2,1.8c-1.6-1.1-4.9-3.1-5.4-4.5
		c-0.5-1.4-1.5-7.6-1.4-10.7c0.2-3.1-1.7-7-3.7-8.4c-2-1.4-6.5-1.4-8.1,0.5c-1.6,1.9-1.4,2-2.5,2c-1.1,0-4.2-0.8-7,1.4
		c-2.8,2.2-1.7,8.1-0.3,10.3c1.4,2.2,1.4,2.3,0.8,3.4c-0.6,1.1-1.4,5.1,3.3,7.5c4.7,2.3,8.4-2.3,11.5-2.7c3.1-0.3,5-0.3,6.8,0.8
		c1.9,1.1,5.7,4.5,6.3,5.1c0.6,0.6,1.6,1.9,1.6,3.4c0,1.6,0,14.1,0,14.1S604.2,347.8,602.7,347.4z"/>
	<path class="layout" data-layout="5" d="M510.5,371.4c-5.1,0.6-10,5.4-9.1,10.9c0.9,5.4,4.3,10.3,10.3,10.3c6,0,10.9-4,11.1-10.6
		C523.1,374,515.7,370.8,510.5,371.4z"/>
</g>
</svg>