<svg xmlns="http://www.w3.org/2000/svg" xmlns:xlink="http://www.w3.org/1999/xlink" x="0px" y="0px" viewBox="0 0 1024 768" >
<path class="layout" data-layout="5" d="M647.6,353.9c-0.2-3.5-102.7-1.3-102.7-1.3s-28-96.3-33-97c-3.3-0.4-33,96.3-33,96.3s-103.7-1.5-102.5,2.2
	c1.2,3.7,82.8,60.3,82.8,60.3s-34.3,96.9-31,97.5c7,1.3,83.5-58,83.5-58s81.4,62.1,83.8,58.3c2.8-4.5-30-97-30-97
	S647.7,357.4,647.6,353.9z M509.2,291.6c1.4-0.2,1.2,98.1-0.1,97.8c-1.9-0.4-20.3-27.8-21-28.9C487.5,359.4,506.4,292,509.2,291.6z
	 M410.6,367.9c0.3-1.3,93.7,29.2,93,30.3c-1,1.7-32.7,10.7-34,11C468.2,409.6,410,370.7,410.6,367.9z M509.7,442.5
	c-0.1,1.4-55.8,43.8-58.3,42.3c-1.2-0.7,58.1-79.1,59-78.1C511.6,408.2,509.8,441.1,509.7,442.5z M576.7,482.2
	c-1,0.9-57.8-79.3-56.6-79.8c1.8-0.7,32.6,10.9,33.9,11.4C555.2,414.4,578.8,480.3,576.7,482.2z M520.3,392
	c-0.2-1.9,20.2-27.8,21.1-28.9c0.9-1.1,70.8-3.8,72-1.2C614,363.2,520.4,393.3,520.3,392z"/>
</svg>