<svg xmlns="http://www.w3.org/2000/svg" xmlns:xlink="http://www.w3.org/1999/xlink" x="0px" y="0px" viewBox="0 0 1024 768" >
	<path class="layout" data-layout="5" d="M548.5,333.1h-73L447.4,362l64.6,72.9l1.9-2.2l62.7-70.8L548.5,333.1z M537,363.7l-25,62.9l-25-62.9H537z M488.7,360.4
		l23-21.9l23.5,21.9H488.7z M516.2,338.2h28.7l-6.3,20.8L516.2,338.2z M485.4,359l-6.3-20.8h28.1L485.4,359z M482.3,360.4H456
		l20.1-20.6L482.3,360.4z M483.4,363.7l22.6,56.7l-50.3-56.7H483.4z M540.6,363.7h27.7L518,420.4L540.6,363.7z M541.7,360.4
		l6.2-20.6l20.1,20.6H541.7z"/>
</svg>