<svg xmlns="http://www.w3.org/2000/svg" xmlns:xlink="http://www.w3.org/1999/xlink" x="0px" y="0px" viewBox="0 0 1024 768" >
<path class="layout" data-layout="5" d="M541,351.8c-11.2,1.4-20.7,2.5-25.9,2.9l54,99.6l5.8-19.5l24.1,3.9L541,351.8z M424.9,440.3l24.1-3.9l5.8,19.5l54.8-101.1
	c-4.5-0.2-14.1-1.3-25.8-2.8L424.9,440.3z M528.3,348.8C528.3,348.9,528.3,348.9,528.3,348.8c18.8-2.1,46.4-5.9,47.5-5.9
	c1.6,0,3.9-0.8,3.9-2.3c0-1.6-6.2-28.8-8.6-28.4c-1.5,0.2-26.1,9.3-43.8,15.9c0.7,1.2,1.1,2.7,1.1,4.3V348.8z M447.5,342.9
	c1,0,29,3.8,47.8,6c0,0,0-0.1,0-0.1v-16.5c0-1.5,0.4-3,1-4.2c-17.8-6.6-42.6-15.7-44.1-16c-2.3-0.4-8.6,26.9-8.6,28.4
	C443.6,342.1,446,342.9,447.5,342.9z M502.6,352.7h18.3c1.6,0,2.9-1.7,2.9-3.8v-16.5c0-2.1-1.3-3.8-2.9-3.8h-18.3
	c-1.6,0-2.9,1.7-2.9,3.8v16.5C499.7,351,501,352.7,502.6,352.7z"/>
</svg>