<svg xmlns="http://www.w3.org/2000/svg" xmlns:xlink="http://www.w3.org/1999/xlink" x="0px" y="0px" viewBox="0 0 1024 768" >
<path class="layout" data-layout="5" d="M524.9,386.9c9.8-25.2,16.7-48.4,15.2-63.1c-2.5-25.4-21.4-29.6-28.1-29.5c-6.7-0.1-25.7,4.1-28.1,29.5
	c-1.4,14.7,5.5,38,15.2,63.1c-17.4,29.5-42.3,69.5-42.3,69.5l19.8,1.8l10.2,15.6c7-15.9,16.3-35.6,25.2-55.9
	c8.9,20.3,18.2,40,25.2,55.9l10.2-15.6l19.8-1.8C567.2,456.4,542.3,416.4,524.9,386.9z M511.3,363c-13.1-24.8-27.8-61.5,0.7-61.5
	c28.5,0,13.8,36.7,0.7,61.5c-0.2,0.4-0.4,0.8-0.7,1.3C511.8,363.9,511.5,363.4,511.3,363z"/>
</svg>