<svg xmlns="http://www.w3.org/2000/svg" xmlns:xlink="http://www.w3.org/1999/xlink" x="0px" y="0px" viewBox="0 0 1024 768" >
	<path class="layout" data-layout="5" d="M561.4,313.9h-49.5h-0.7h-48.6l-39.2,40.2l88.6,100l3.9-4.4l84.7-95.6L561.4,313.9z M541.8,358.9L512,433.8l-29.8-74.9
		H541.8z M486.9,349.7L486.9,349.7l24.7-23.5l25.2,23.5l0,0H486.9z M551.7,358.9h30.8l-55.8,63L551.7,358.9z M581.8,349.7h-27
		l6.4-21.1l0,0L581.8,349.7L581.8,349.7z M552.8,324.3l-6.5,21.6l-23.2-21.6H552.8z M477.7,345.8l-6.5-21.5h29.1L477.7,345.8z
		 M462.8,328.6l6.4,21.1h-27h0L462.8,328.6z M441.5,358.9h30.8l25.1,63l0,0L441.5,358.9z"/>
</svg>