<svg xmlns="http://www.w3.org/2000/svg" xmlns:xlink="http://www.w3.org/1999/xlink" x="0px" y="0px" viewBox="0 0 1024 768" >
<g>
	<path class="layout" data-layout="5" d="M406.1,385.9c4.2,0.7,7.5,1.1,10.4,1.3c-7.2,3.7-13.1,9.2-17,10.6c-5,1.9-8.6-1.1-13.7,0.2c-5.1,1.4-12.2,7.3-14.1,9.9
		c0,0,13.2-3.8,20.2,0.4c7,4.2,9.9,5.7,18.3,4.9c4.2-0.4,7.6-0.9,10.4-1.4c-6,5.4-10.3,12.2-13.7,14.7c-4.3,3.1-8.6,1.1-13.2,3.7
		c-4.5,2.6-9.9,10.2-11.1,13.2c0,0,11.8-7.1,19.6-4.9c7.9,2.2,11.1,2.9,19,0c4-1.5,7.1-2.8,9.7-4c-4.4,6.8-6.8,14.5-9.4,17.7
		c-3.4,4.2-8.1,3.3-11.8,7c-3.7,3.7-6.9,12.4-7.3,15.6c0,0,9.5-9.9,17.7-9.8c8.2,0.1,11.4-0.1,18.3-4.9c3.5-2.4,6.1-4.5,8.3-6.4
		c-2.5,7.7-2.8,15.8-4.5,19.6c-2.2,4.9-6.9,5.3-9.5,9.8c-2.6,4.5-3.5,13.8-3,16.9c0,0,6.6-12,14.6-14c7.9-2,11-3,16.4-9.5
		c2.7-3.2,4.7-5.9,6.4-8.3c-0.4,8.1,1.4,16,0.7,20.1c-0.9,5.3-5.3,6.9-6.7,12c-1.4,5.1,0.2,14.2,1.5,17.1c0,0,3.3-13.3,10.4-17.3
		c7.1-4,9.9-5.8,13.4-13.4c1.8-3.8,3-7,4-9.7c1.7,7.9,5.4,15.1,5.9,19.2c0.5,5.3-3.3,8-3.3,13.3c0,5.2,3.9,13.6,5.9,16.2
		c0,0-0.3-13.7,5.6-19.4c5.9-5.7,8-8.1,9.5-16.4c0.7-4.2,1.1-7.5,1.3-10.4c3.7,7.2,9.2,13.1,10.6,17c1.9,5-1.1,8.6,0.2,13.7
		c1.4,5.1,7.3,12.2,9.9,14.1c0,0-3.8-13.2,0.4-20.2c4.2-7,5.7-9.9,4.9-18.3c-0.4-4.2-0.9-7.6-1.4-10.4c5.4,6,12.2,10.3,14.7,13.7
		c3.1,4.3,1.1,8.6,3.7,13.2c2.6,4.5,10.2,9.9,13.2,11.1c0,0-7.1-11.8-4.9-19.6c2.2-7.9,2.9-11.1,0-19c-1.5-4-2.8-7.1-4-9.7
		c6.8,4.4,14.5,6.8,17.7,9.4c4.2,3.4,3.3,8.1,7,11.8c3.7,3.7,12.4,6.9,15.6,7.3c0,0-9.9-9.5-9.8-17.7s-0.1-11.4-4.9-18.3
		c-2.4-3.5-4.5-6.1-6.4-8.3c7.7,2.5,15.8,2.8,19.6,4.5c4.9,2.2,5.3,6.9,9.8,9.5c4.5,2.6,13.8,3.5,16.9,3c0,0-12-6.6-14-14.6
		c-2-7.9-3-11-9.5-16.4c-3.2-2.7-5.9-4.7-8.3-6.4c8.1,0.4,16-1.4,20.1-0.7c5.3,0.9,6.9,5.3,12,6.7c5.1,1.4,14.2-0.2,17.1-1.5
		c0,0-13.3-3.3-17.3-10.4c-4-7.1-5.8-9.9-13.4-13.4c-3.8-1.8-7-3-9.7-4c7.9-1.7,15.1-5.4,19.2-5.9c5.3-0.5,8,3.3,13.3,3.3
		c5.2,0,13.6-3.9,16.2-5.9c0,0-13.7,0.3-19.4-5.6c-5.7-5.9-8.1-8-16.4-9.5c-4.2-0.7-7.5-1.1-10.4-1.3c7.2-3.7,13.1-9.2,17-10.6
		c5-1.9,8.6,1.1,13.7-0.2c5.1-1.4,12.2-7.3,14.1-9.9c0,0-13.2,3.8-20.2-0.4c-7-4.2-9.9-5.7-18.3-4.9c-4.2,0.4-7.6,0.9-10.4,1.4
		c6-5.4,10.3-12.2,13.7-14.7c4.3-3.1,8.6-1.1,13.2-3.7c4.5-2.6,9.9-10.2,11.1-13.2c0,0-11.8,7.1-19.6,4.9c-7.9-2.2-11.1-2.9-19,0
		c-4,1.5-7.1,2.8-9.7,4c4.4-6.8,6.8-14.5,9.4-17.7c3.4-4.2,8.1-3.3,11.8-7c3.7-3.7,6.9-12.4,7.3-15.6c0,0-9.5,9.9-17.7,9.8
		c-8.2-0.1-11.4,0.1-18.3,4.9c-3.5,2.4-6.1,4.5-8.3,6.4c2.5-7.7,2.8-15.8,4.5-19.6c2.2-4.9,6.9-5.3,9.5-9.8c2.6-4.5,3.5-13.8,3-16.9
		c0,0-6.6,12-14.6,14c-7.9,2-11,3-16.4,9.5c-2.7,3.2-4.7,5.9-6.4,8.3c0.4-8.1-1.4-16-0.7-20.1c0.9-5.3,5.3-6.9,6.7-12
		c1.4-5.1-0.2-14.2-1.5-17.1c0,0-3.3,13.3-10.4,17.3c-7.1,4-9.9,5.8-13.4,13.4c-1.8,3.8-3,7-4,9.7c-1.7-7.9-5.4-15.1-5.9-19.2
		c-0.5-5.3,3.3-8,3.3-13.3c0-5.2-3.9-13.6-5.9-16.2c0,0,0.3,13.7-5.6,19.4c-5.9,5.7-8,8.1-9.5,16.4c-0.7,4.2-1.1,7.5-1.3,10.4
		c-3.7-7.2-9.2-13.1-10.6-17c-1.9-5,1.1-8.6-0.2-13.7c-1.4-5.1-7.3-12.2-9.9-14.1c0,0,3.8,13.2-0.4,20.2s-5.7,9.9-4.9,18.3
		c0.4,4.2,0.9,7.6,1.4,10.4c-5.4-6-12.2-10.3-14.7-13.7c-3.1-4.3-1.1-8.6-3.7-13.2c-2.6-4.5-10.2-9.9-13.2-11.1
		c0,0,7.1,11.8,4.9,19.6s-2.9,11.1,0,19c1.5,4,2.8,7.1,4,9.7c-6.8-4.4-14.5-6.8-17.7-9.4c-4.2-3.4-3.3-8.1-7-11.8
		c-3.7-3.7-12.4-6.9-15.6-7.3c0,0,9.9,9.5,9.8,17.7c-0.1,8.2,0.1,11.4,4.9,18.3c2.4,3.5,4.5,6.1,6.4,8.3c-7.7-2.5-15.8-2.8-19.6-4.5
		c-4.9-2.2-5.3-6.9-9.8-9.5c-4.5-2.6-13.8-3.5-16.9-3c0,0,12,6.6,14,14.6c2,7.9,3,11,9.5,16.4c3.2,2.7,5.9,4.7,8.3,6.4
		c-8.1-0.4-16,1.4-20.1,0.7c-5.3-0.9-6.9-5.3-12-6.7c-5.1-1.4-14.2,0.2-17.1,1.5c0,0,13.3,3.3,17.3,10.4c4,7.1,5.8,9.9,13.4,13.4
		c3.8,1.8,7,3,9.7,4c-7.9,1.7-15.1,5.4-19.2,5.9c-5.3,0.5-8-3.3-13.3-3.3c-5.2,0-13.6,3.9-16.2,5.9c0,0,13.7-0.3,19.4,5.6
		C395.4,382.3,397.8,384.4,406.1,385.9z M553.4,354.2c-6.6-0.1-9.7-2.2-14.5-6c-4.8-3.8-4.6-4.7-4.5-6.8c0.1-2.1,0.1-4.6,4.3-9.5
		c4.2-4.9,7.3-4.5,15.4-4.7c8.1-0.1,8.5,0.1,13.5,6.1c4.9,6,5.8,8.8,5.8,10.1c-0.1,1.3-2.1,3.2-7.7,7
		C560.2,354.2,553.4,354.2,553.4,354.2z M553,374.3c-0.3-3.5-3.7-6-7.5-6.2c-3.8-0.2-5.8,0.3-8.5-3.3c-2.8-3.6-2.6-6.6-1.4-7.2
		s2.9,2,4.2,3.4c1.3,1.4,3.4,2.2,6.1,2.4s7.1,0.3,10.8,4.5c3.7,4.3,0.9,10.4-1.3,13.5s-4,2.2-4,2.2c-0.9-0.5-0.8-1.6-0.2-2.6
		C551.9,380,553.3,377.8,553,374.3z M437.3,384c0-46,37.3-83.2,83.2-83.2c17.2,0,33.2,5.2,46.5,14.2c-4.3-2.1-9.6-4-11.5-2.7
		c-3.5,2.4,5.9,6.6,5.3,9.6c-0.6,2.9-7.9,2.1-13.2,1.4c-5.3-0.7-6.7-2.8-17.2,3.1c-10.5,5.9-12.5,9.4-12.3,16.4
		c0.2,7,0.7,10.8-2.1,13.6c-2.8,2.8-8.1-0.1-10.3,3c-2.2,3-1.7,8.2-0.4,8.5c1.3,0.3,2.3-1,2.6-3c0.3-2,1.1-3.2,2.2-3.3
		c1.2-0.1,2.3,2,1.4,4.9c-0.9,2.8-2.1,4.5-7.3,2.6c-5.3-1.8-7.6,0.3-14.4-2c-6.8-2.3-14.6-6.4-17.8-8.3c-3.2-1.9-2.2-4.3,0-4.3
		c2.2-0.1,6,0.8,6.4,0.1c0.3-0.7-5.4-4.7-9.7-1.8c-4.3,2.9-5.1,7-4.5,9.4c0.6,2.3,2.2,3.5,2.8,3.4s-0.9-6,0.7-5.8
		c1.6,0.3,11.7,5.9,18.3,8.7c6.6,2.8,9,2.6,11.5,2.7c2.4,0.1,7.8,0.7,11.9,2.2c4.1,1.6,8.8,3.2,17.9,3.5c9.1,0.3,16.3-2.2,17.2-1.6
		s-1.1,4.1-14.1,5c-13,0.9-21.2-0.6-25.5-2c-4.3-1.4-8.9-4.9-12.4-2.4c-3.5,2.5-0.1,6.6,4.2,7.1c4.3,0.5,8-0.9,14,2.7
		c6,3.7,5,6.2,3,9.1c-2,3-3.8,4.5-7.3,4.4c-3.5-0.1-9.3,2.6-11.1,10.7c-1.8,8.1,0.9,23.2,5.1,32.7c4.2,9.6,11.1,13.6,17.5,15.9
		c4.9,1.8,9.4,4.1,9.4,8.3c-2.3,0.2-4.6,0.3-7,0.3C474.5,467.2,437.3,430,437.3,384z M522.5,360.5c0.7,0.5,4.2-0.9,4.3,0.3
		s-3.5,2.2-3.5,2.2c-1.8,0.1-2-0.9-3.1-1.8c-1.1-0.9-3.5-0.9-3.7-2.1c-0.1-1.1,2.2-0.9,3.2-1.2c0.9-0.3,2.7-3.3,3.3-2.6
		S521.8,359.9,522.5,360.5z"/>
	<path class="layout" data-layout="5" d="M492.7,350.6c0.8,1.1,1.6,1.7,2.8-0.1c1.2-1.8,2.9-3.2,3.3-2.8s0.2,0.9-0.1,2s-1.2,2.6,1.3,4.3c2.4,1.7,2.3,2.9,2.3,2.9
		c-0.2,0.5-2.2,0.7-3.6-0.6c-1.4-1.3-1.8-0.7-4.8-1.7s-4.2-6.2-3.5-6.6C490.9,347.5,491.8,349.6,492.7,350.6z"/>
	<path class="layout" data-layout="5" d="M479.8,327.6c2.7,0.7,5.9,0.7,7.5-0.5c1.6-1.2,4.2-2.3,6.3-2.3c2.1,0,4,1,6.9,3.4c2.9,2.4,2.4,3.3,2.4,3.3
		c-0.4,1.1-3.7-1.4-6.7-3.1c-2.9-1.7-5.5-0.7-6.6,0c-1.2,0.7-3.8,2.4-7.4,2.1c-3.5-0.3-7-4-6.7-4.4
		C475.9,325.9,477.1,326.9,479.8,327.6z"/>
	<ellipse class="layout" data-layout="5" transform="matrix(0.9876 -0.1573 0.1573 0.9876 -46.5697 81.2488)" cx="490.1" cy="334.9" rx="1.7" ry="4.3"/>
	<path class="layout" data-layout="5" d="M551.8,344.7c-1.1-0.4-1.4-2.4-0.7-4.6c0.5-1.5,1.4-2.7,2.2-3.2c0,0-0.1,0-0.1-0.1c-2.5-2.3-10-0.9-10-1.5
		c0-0.6,3.6-2.7,8.3-2.4c4.7,0.3,7.5,6.2,10.8,8.4c3.4,2.3,7.3,1.7,7.2,2.2c-0.1,0.5-4.7,2.1-7.5,1s-5.9-5.1-5.9-5.1
		s-0.1-0.1-0.7-0.6c0,0.8-0.1,1.6-0.4,2.5C554.4,343.5,552.9,345,551.8,344.7z"/>
</g>
</svg>