<svg xmlns="http://www.w3.org/2000/svg" xmlns:xlink="http://www.w3.org/1999/xlink" x="0px" y="0px" viewBox="0 0 1024 768" >
<g>
	<path class="layout" data-layout="5" d="M592.8,390.5c0-43.2-35-78.2-78.2-78.2c-43.2,0-78.2,35-78.2,78.2c0,43.2,35,78.2,78.2,78.2
		C557.8,468.8,592.8,433.7,592.8,390.5z"/>
	<path class="layout" data-layout="5" d="M486.7,288.4c0.2,3.1,6.1,10.5,11.7,17c5.3-1,10.7-1.5,16.2-1.5c9.3,0,18.3,1.5,26.7,4.2c2-1.9,3.7-3.7,4.7-6
		c2.7-6.1-10.9-23-11.4-35.1c-0.4-12.1,6.4-16.9,2.7-31.3c-3.6-14.4-20.1-24-20.1-24c-1.4,13.2-6.8,18.5-18.5,27.2
		c-11.6,8.7-19.6,16-16,28.5C486.4,279.9,486.2,282.4,486.7,288.4z"/>
	<path class="layout" data-layout="5" d="M571.8,301.4c0.4-16.4-13-27.2-13-27.2s3.2,10.7-1.6,24.4c-1.7,4.9-4.7,9.1-7.8,12.4c5.6,2.4,10.8,5.5,15.7,9
		C568.6,314.8,571.6,308.3,571.8,301.4z"/>
	<path class="layout" data-layout="5" d="M597,363.6c14.4-1.1,17-15.5,22.7-22.3c7.5-8.9,19.6-5.9,34.9-11.9c15.3-5.9,24.9-19.6,24.9-19.6
		c-21.2,4.3-33.5-2.1-44.3-11.2c-10.7-9.1-25.6-18.3-45.9-0.2c-9.7,8.7-14.8,18.9-17.3,27.2C583.4,335.7,592.2,348.8,597,363.6z"/>
	<path class="layout" data-layout="5" d="M633.4,361.6c-9.3,7.2-24.1,8-34.8,7.4c1.6,6.3,2.5,13,2.6,19.8C629.9,382.9,633.4,361.6,633.4,361.6z"/>
	<path class="layout" data-layout="5" d="M661.5,431c-5-14.4,1.1-31.3-26-37.7c-13.7-3.2-25.7-2.1-34.2-0.3c-0.4,15.3-4.8,29.7-12.3,42c11.8,14.3,17.5,9.9,33,8.4
		c19.2-1.8,21.7,5.3,38.3,8.9c16.7,3.6,28.7-7.3,28.7-7.3C681.6,446.1,666.5,445.4,661.5,431z"/>
	<path class="layout" data-layout="5" d="M614.2,470.3c-14.8-7.1-24.2-19.1-29.7-28.4c-4.3,5.8-9.2,11.1-14.8,15.7C589.5,475,614.2,470.3,614.2,470.3z"/>
	<path class="layout" data-layout="5" d="M568.6,465.7c-2.4-0.9-4.4-1.9-6.2-2.8c-10.4,6.9-22.3,11.6-35.1,13.4c-2,11.5,0.9,17.3,7.8,24.5
		c9.4,9.8,0.9,10.3,9.6,31.5c8.7,21.2,41.5,24,41.5,24c-14.8-14.4-0.2-31.3,5-47.2C596.4,493.1,582.1,471,568.6,465.7z"/>
	<path class="layout" data-layout="5" d="M514.6,477.3c-5.1,0-10-0.4-14.8-1.3c-1.3,28.6,19.8,43.6,19.8,43.6c-4.1-15.1-2.3-31.5-0.1-42.4
		C517.8,477.2,516.2,477.3,514.6,477.3z"/>
	<path class="layout" data-layout="5" d="M446.1,526.4c21.9-3.9,33.1-6.8,42-22.1c4.8-8.2,5.7-20.2,5.5-29.6c-15.4-3.8-29.2-11.8-40.1-22.6
		c-12.6,3.7-20.6,10.8-23.4,27.8c-3.9,24.2-9.1,18.3-18.2,38.1c-9.1,19.8,3.6,37,3.6,37C416.8,547.9,424.1,530.3,446.1,526.4z"/>
	<path class="layout" data-layout="5" d="M415.2,475.1c8.1-15.1,22.6-23.9,33.1-28.6c-4.7-5.5-8.7-11.7-11.9-18.3C413.5,444.6,415.2,475.1,415.2,475.1z"/>
	<path class="layout" data-layout="5" d="M434.6,424.1c-4.3-10.3-6.7-21.7-6.7-33.5c0-2.7,0.1-5.3,0.4-7.9c-6.5-3.3-13.9-5.4-19.9-2.6c-12.6,5.9-19.2,12.1-39.3,8.2
		c-20.1-3.9-34.2,10.5-34.2,10.5c14.2-0.5,23.3,3.9,35.4,20.5c12.1,16.7,19.9,19.9,40.8,16.2C421,433.9,428.9,428.9,434.6,424.1z"/>
	<path class="layout" data-layout="5" d="M389.2,367.6c18.9-2.5,32,2,40.2,6.8c1.3-6.9,3.4-13.5,6.3-19.8C408.6,345.8,389.2,367.6,389.2,367.6z"/>
	<path class="layout" data-layout="5" d="M400.2,329c7.6,12.8,25.6,18.4,37.8,20.9c6.6-12.4,16.2-23.1,27.7-31c-2.8-16.2-10.1-16.3-20.1-18.7
		c-12.8-3-11.2-11-30.8-21.9c-19.6-10.9-46.1-1.6-46.1-1.6C396.8,291.1,388.1,308.7,400.2,329z"/>
	<path class="layout" data-layout="5" d="M472.4,314.8c5.5-3,11.3-5.5,17.4-7.3c-15.4-30.1-37.6-21.1-37.6-21.1C463.9,294.5,469.6,305.9,472.4,314.8z"/>
</g>
</svg>