<svg xmlns="http://www.w3.org/2000/svg" xmlns:xlink="http://www.w3.org/1999/xlink" x="0px" y="0px" viewBox="0 0 1024 768" >
<path class="layout" data-layout="5" d="M438,451.1c-43.2-25.3-38.9-80.8-9.9-106.1c13-11.7,27.8-11.7,24.7-6.2c-3.1,5.5-9.3,22.2,5.6,19.1
	c14.8-3.1,6.2-38.9,41.9-38.2c35.8,0.6,47.5-16.7,50.6-14.2c3.1,2.5,9.9,29.6-9.3,38.2c-19.1,8.6-20.4,20.4-9.9,22.2
	c10.5,1.9,16.7-4.3,22.8-13.6c6.2-9.3,21.6-21.6,38.2-11.7c14.8,7.4,25.3-1.2,25.3,3.1c0,4.3-10.5,20.4-25.9,21
	c-15.4,0.6-29.6,8.6-27.8,17.9c1.9,9.3,19.1-1.9,21.6-6.2c4.9,6.8,2.5,20.4-12.3,23.4c-14.8,3.1-35.2-2.5-41.3,6.2
	c-6.2,8.6,6.3,12.4,12.3,11.7c5.6-0.6,8-3.7,5.6,3.1C547.8,427.6,504,487.5,438,451.1z"/>
</svg>