<svg xmlns="http://www.w3.org/2000/svg" xmlns:xlink="http://www.w3.org/1999/xlink" x="0px" y="0px" viewBox="0 0 1024 768" >
<path class="layout" data-layout="10" d="M539,475.9c51.6-20.6,65-76.5,65-76.5s-6.9,10.2-17.8,10.2c-10.9,0-11.2-10.2-2.1-22.9
	c23-30.7,4.9-77.9-24.2-97.9c7.3,16.3-4.9,63.4-53.9,72.5c20-7.3,16.6-44,10.9-43.6c-2.4,0.2-3.6,16.3-41.7,30.9
	c-38.1,14.5-53.1,38.3-55.1,67.4c-2.4,35.6,23.6,54.5,61.7,62.6c0,0-42.7-28.1-28.1-63.6c2.7,0,8.2,8.2,16.3,7.3
	c2.7-4.5-0.9-28.2,22.7-38.1c0.9,5.4-3.6,20,4.5,20.9c8.2,0.9,45.4-18.2,55.4-31.8c5.4,13.6,0,50.9-16.3,63.6c0,0,9.1,1.8,15.4-5.4
	c6.4-7.3-6.4,33.6-29.1,46.3C518.7,480,529.9,479.6,539,475.9z"/>
</svg>