<svg xmlns="http://www.w3.org/2000/svg" xmlns:xlink="http://www.w3.org/1999/xlink" x="0px" y="0px" viewBox="0 0 1024 768" >
<g>
	<path class="layout" data-layout="5" d="M582.5,433.1c2.7-6.3,4.6-20.5,1.1-18.6c-3.6,1.9-13.1,10.7-13.1,10.7c0,8.8-6.2,19.7-6.2,19.7
		C569.9,443.8,579.9,439.4,582.5,433.1z"/>
	<path class="layout" data-layout="5" d="M567.5,430.9c0.4-5.2,2.9-7-10.3-0.5c-13.2,6.5-14.9,22.3-14.9,22.3C562.8,454.3,567.2,436.1,567.5,430.9z"/>
	<path class="layout" data-layout="5" d="M625.5,313c2.4,4.1,5.6,17.9,5.6,17.9c1.6,0.5,5-7.3,6.8-14.9c1.9-7.5-5.2-21-7.3-22C628.6,293,623.6,309.8,625.5,313z"/>
	<path class="layout" data-layout="5" d="M595.6,288.8c4.1-0.6,14.9,3.2,14.9,3.2c-0.6-8.5,1.9-12.7-5.8-18.7c-8.1-6.4-22.2-2.4-19.9-1.5
		C595.4,275.8,592,289.3,595.6,288.8z"/>
	<path class="layout" data-layout="5" d="M623.1,308.1c2.3-1.3,3.7-14.5,2.8-20.4c-0.9-5.9-9.9-14.7-11.7-15.4c-1.8-0.7-1.8,20.1,0,21.1
		C616,294.4,622.1,308.7,623.1,308.1z"/>
	<path class="layout" data-layout="5" d="M399.7,317.2c-4.6,7.9-4.6,15.6-4.1,16.4c0,0,13.7-9.4,16-10.6c2.4-1.2,10.7-14.6,9.2-15.2
		C419.3,307.2,404.3,309.4,399.7,317.2z"/>
	<path class="layout" data-layout="5" d="M441.3,433c2.7,6.3,12.6,10.7,18.2,11.8c0,0-6.1-11-6.2-19.8c0,0-9.6-8.8-13.1-10.7C436.8,412.6,438.7,426.8,441.3,433z"/>
	<path class="layout" data-layout="5" d="M481.5,452.7c0,0-1.6-15.8-14.8-22.3c-13.2-6.5-10.7-4.7-10.3,0.5C456.7,436,461.1,454.2,481.5,452.7z"/>
	<path class="layout" data-layout="5" d="M629.6,339.9c-0.8-6.8-16.3-14-18.4-13.9c-2.1,0.1,1.9,14.4,4.3,15.9c2.4,1.5,13.5,13,13.5,13
		C630.2,354.3,630.2,346.1,629.6,339.9z"/>
	<path class="layout" data-layout="5" d="M599.7,420.1c0.9-3.6,0-20.1-2.1-20.3c-2.1-0.2-10.8,11.9-10.8,11.9c1.8,9.7-1.5,21.2-1.5,21.2
		C590.5,432.4,598.8,423.7,599.7,420.1z"/>
	<path class="layout" data-layout="5" d="M608.2,293.3c-5.8-3.2-16.3-1.4-16.8-0.3c-0.5,1,8.3,10.1,9.8,11.3c1.6,1.2,1.6,1.2,5.2,1.2c3.6-0.1,14.8,6,14.8,6
		C622.8,308.1,614,296.5,608.2,293.3z"/>
	<path class="layout" data-layout="5" d="M628.7,376.3c0,0,12.2-7.3,15.7-12c3.5-4.7,2.2-23,1-22.4c-1.3,0.5-13,14.5-14,16.3C630.5,359.7,627.9,375.8,628.7,376.3z"
		/>
	<path class="layout" data-layout="5" d="M603.2,307.9c-1.5,0.6,6.8,14,9.2,15.2c2.3,1.2,16,10.7,16,10.7c0.5-0.8,0.5-8.5-4-16.4
		C619.7,309.5,604.7,307.3,603.2,307.9z"/>
	<path class="layout" data-layout="5" d="M623.9,382.3c-0.3-9.7-9.6-18.3-10.5-18.7c-1-0.4-3.9,14.5-3.6,18.6c4.3,5.3,5.4,17.4,5.4,17.4
		C616.5,400.1,624.2,391.9,623.9,382.3z"/>
	<path class="layout" data-layout="5" d="M613.9,398.9c-0.8-9.1-5.7-17.6-6.8-15.9c-1.1,1.8-7.4,15.6-7.4,15.6c2.1,5.7,2.6,19,2.6,19
		C604.4,417.8,614.7,408,613.9,398.9z"/>
	<path class="layout" data-layout="5" d="M628.2,357.7c-0.9-4.1-11.7-13.1-14-13.3c-2.3-0.2-1.6,16.3,0.7,17.8c2.4,1.5,10.2,13.6,10.2,13.6
		C628,377.1,629.1,361.8,628.2,357.7z"/>
	<path class="layout" data-layout="5" d="M422.7,304.2c1.6-1.2,10.3-10.3,9.8-11.3c-0.5-1-11-2.9-16.8,0.3c-5.8,3.2-14.6,14.8-13.1,18.2c0,0,11.2-6.1,14.9-6
		C421.2,305.5,421.2,305.5,422.7,304.2z"/>
	<path class="layout" data-layout="5" d="M631.2,353.8c1,0.7,11.1-10.9,12.5-14.5c1.4-3.6-1.5-19.5-2.9-21.3c-1.3-1.8-8.6,14.4-9.3,18.5
		C633.5,340.8,631.2,353.8,631.2,353.8z"/>
	<path class="layout" data-layout="5" d="M421.7,417.5c0,0,0.5-13.3,2.6-19c0,0-6.3-13.8-7.4-15.6c-1.1-1.8-6,6.8-6.8,15.8C409.2,407.9,419.5,417.7,421.7,417.5z"/>
	<path class="layout" data-layout="5" d="M440.8,435.3c-3.1-1.4-21.4-1.1-22.1-0.9c-0.8,0.2,8.7,12.1,16.9,13.3c8.2,1.3,19.1-2.6,19.1-2.6S443.7,441.1,440.8,435.3z
		"/>
	<path class="layout" data-layout="5" d="M404.9,398.5c0,0-6.5-6.4-7.6-17.5c0,0-7.9-6.8-11.3-9c-3.4-2.2-6.4-4.6-6.5-3.1c0,1.5,1.4,16.5,7.2,20.3
		C391.2,392.2,403.6,399.1,404.9,398.5z"/>
	<path class="layout" data-layout="5" d="M407.2,402.6c-3.2-3.2-19.2-10.6-19.9-8.7c-0.6,1.9,5.4,13.9,11.1,17.9c5.7,4,18,5.1,19.4,5.1
		C417.8,416.9,408.9,409.4,407.2,402.6z"/>
	<path class="layout" data-layout="5" d="M563.3,447.3c-3.3,0.4-8.2,4.1-11.3,6.6c-5.8,0.9-15.6,3.2-28.1,7.8c-3.1,1.2-7.4,3.4-12,6.1c-4.6-2.8-8.9-5-12-6.1
		c-12.4-4.6-22.2-7-28-7.8c-3.1-2.6-8-6.2-11.3-6.7c-5.1-0.7-20.6,1-19.2,4.6c1.4,3.6,18.4,12.5,32.4,5.1c0.9,0.3,1.8,0.5,2.8,0.8
		c12.2,3.6,22.1,8.4,29.9,13.5c-12.7,8-26.2,18.1-27.6,20l12,7.1c0,0,5.7-11.6,21.1-23.2c15.5,11.6,21.1,23.3,21.1,23.3l12-7.1
		c-1.4-1.9-14.9-12-27.6-20c7.8-5.1,17.7-9.9,29.9-13.4c1-0.3,1.9-0.6,2.8-0.8c14,7.4,31-1.5,32.4-5
		C584,448.3,568.5,446.6,563.3,447.3z"/>
	<path class="layout" data-layout="5" d="M434.4,432.3c0,0-11.2-5.7-13.3-12.5c0,0-19.2-4.9-19.5-3.6c-0.3,1.3,3.9,6.4,10.2,12.1
		C418.6,434.5,427.2,433.2,434.4,432.3z"/>
	<path class="layout" data-layout="5" d="M583.1,435.4c-2.9,5.7-13.9,9.9-13.9,9.9s10.9,3.8,19.1,2.6c8.2-1.2,17.7-13.1,16.9-13.3
		C604.5,434.4,586.2,434.1,583.1,435.4z"/>
	<path class="layout" data-layout="5" d="M616.7,402.7c-1.7,6.8-10.6,14.3-10.6,14.3c1.4,0,13.7-1.1,19.4-5.1c5.7-4,11.7-16,11.1-17.9
		C636,392.2,619.9,399.6,616.7,402.7z"/>
	<path class="layout" data-layout="5" d="M637.9,372.2c-3.4,2.2-11.4,9-11.4,9c-1.1,11.1-7.6,17.5-7.6,17.5c1.4,0.5,13.7-6.3,18.2-9.2c5.7-3.8,7.2-18.7,7.2-20.3
		C644.4,367.6,641.4,370,637.9,372.2z"/>
	<path class="layout" data-layout="5" d="M395.1,354.7c0,0,11.1-11.5,13.5-13c2.4-1.5,6.4-15.8,4.3-15.9c-2.1-0.1-17.7,7.1-18.4,13.9
		C393.8,345.9,393.8,354.2,395.1,354.7z"/>
	<path class="layout" data-layout="5" d="M602.8,420c-2.1,6.8-13.3,12.5-13.3,12.5c7.2,0.8,15.8,2.2,22.6-3.9c6.3-5.7,10.5-10.8,10.3-12.1
		C622,415.1,602.8,420,602.8,420z"/>
	<path class="layout" data-layout="5" d="M438.5,432.7c0,0-3.3-11.4-1.5-21.2c0,0-8.7-12.1-10.7-11.9c-2.1,0.2-3,16.7-2.1,20.3C425.1,423.6,433.4,432.3,438.5,432.7
		z"/>
	<path class="layout" data-layout="5" d="M428.4,288.7c3.6,0.6,0.2-13,10.8-17c2.4-0.9-11.7-4.8-19.9,1.5c-7.7,5.9-5.2,10.2-5.8,18.6
		C413.6,291.8,424.3,288,428.4,288.7z"/>
	<path class="layout" data-layout="5" d="M408.8,399.4c0,0,1.1-12.1,5.4-17.4c0.3-4-2.6-18.9-3.5-18.6c-1,0.4-10.3,9-10.6,18.7C399.8,391.8,407.4,400,408.8,399.4z"
		/>
	<path class="layout" data-layout="5" d="M395.2,376.1c0.8-0.5-1.7-16.5-2.6-18.1c-1-1.8-12.7-15.8-14-16.4c-1.3-0.5-2.5,17.7,0.9,22.4
		C383.1,368.8,395.2,376.1,395.2,376.1z"/>
	<path class="layout" data-layout="5" d="M398.9,375.7c0,0,7.8-12.1,10.2-13.6c2.4-1.5,3.1-17.9,0.7-17.8c-2.3,0.2-13.1,9.2-14,13.3
		C394.9,361.7,396,376.9,398.9,375.7z"/>
	<path class="layout" data-layout="5" d="M392.8,353.6c0,0-2.2-12.9-0.3-17.3c-0.7-4.1-7.9-20.3-9.3-18.6c-1.3,1.8-4.3,17.7-2.9,21.3
		C381.7,342.8,391.7,354.4,392.8,353.6z"/>
	<path class="layout" data-layout="5" d="M401,308c1,0.6,7.1-13.7,8.9-14.7c1.8-1,1.9-21.8,0.1-21.1c-1.8,0.7-10.8,9.5-11.8,15.4C397.3,293.5,398.7,306.6,401,308z"
		/>
	<path class="layout" data-layout="5" d="M392.9,330.7c0,0,3.2-13.8,5.6-17.9c1.9-3.1-3.1-19.9-5.1-19c-2.1,1-9.2,14.4-7.3,22C387.9,323.3,391.3,331.2,392.9,330.7z
		"/>
</g>
</svg>