<svg xmlns="http://www.w3.org/2000/svg" xmlns:xlink="http://www.w3.org/1999/xlink" x="0px" y="0px" viewBox="0 0 1024 768" >
<path class="layout" data-layout="5" d="M769.6,304v-11.6c-14.3-1.3-28.1-1.5-41.6-0.6c-1.5-16.6-3-33.2-5-49.1c-0.1-1,0.4-3-1.1-3.5
	c-0.8,0.1-1.7,0.1-2.5,0.2c-0.4,0.1-0.3,0.6-0.3,1.1c1.7,17.2,3.3,34.4,4.9,51.6c-29.7,2.3-57.6,9.5-84.3,20c-2.9-2-5.6-4.2-7.8-6.7
	c-2.6-3.1-4-7-5.6-11.4c-0.2-0.4-0.3-1.4-0.9-1.5c-0.6,0.1-1.2,0.2-1.8,0.3c-0.2,0.1-0.1,0.4-0.1,0.7c1.5,7.8,3,15.7,4.6,23.5
	c-11.3,4.9-22.4,10.3-33.3,16.1c-14.8,8-29.3,16.9-43.6,26.4c-3.2-1-6.2-1.8-8.6-4.6c-0.4-0.4-0.6-2.1-1.8-1.5
	c-0.2,0.1-0.3,0.2-0.5,0.2c1.5,3.4,3.1,6.7,4.6,10.1c-9.2,6.3-18.3,12.8-27.2,19.5c-7.7,5.8-15.3,11.6-22.7,17.2
	c-2.4-7.3-4.7-14.6-7.3-21.6c-0.1-0.4-0.1-1.2-0.8-1.3c-0.4,0.1-0.7,0.2-1,0.3c-0.1,0.1-0.1,0.3,0,0.5c2.6,7.7,5.1,15.4,7.7,23.1
	c-14.8,11.3-29.1,22.2-43.1,31.9c-1.3,0.9-2.6,1.8-3.8,2.6c-1.3-3-2.5-5.8-3.6-8.3c-0.1,0-0.2,0.1-0.3,0.1
	c-8.6,6.2-17.3,12.3-26.1,18.4c1,2.3,2,4.6,3,6.9c-3.9,2.3-7.9,4.4-11.9,6.5c-0.3-1.4-0.8-2.8-1.5-4.1c-3.4-6.1-9.8-6.1-14.2-9.2
	c-1.5-1.1-2.5-2.6-3.7-4.4c-0.1-0.1-0.3-0.6-0.6-0.6c-0.2,0.1-0.5,0.2-0.7,0.3c-0.1,0.1,0,0.2,0,0.3c3.5,7.6,7,15.1,10.5,22.7
	c-3.1,1.4-6.1,2.8-9.3,4.2c-4.8,2.1-9.5,4-14.3,5.8c-1.3-3.2-2.5-6.4-3.8-9.4c-0.1-0.2-0.1-0.6-0.4-0.7c-0.2,0.1-0.3,0.1-0.5,0.2
	c-0.1,0,0,0.1,0,0.2c1.3,3.3,2.7,6.6,4,10c-15.5,5.8-31.1,10-46.9,12.6c-4.3,0.7-8.5,1.3-12.8,1.8c-0.2-0.7-0.4-1.5-0.6-2.2
	c0.4-0.2,0.9-0.5,1.3-0.7c-0.3-1-0.5-2-0.8-2.9c-0.4,0.2-0.9,0.5-1.3,0.7c-0.5-1.8-1-3.7-1.5-5.5c-0.3,0.1-0.6,0.1-0.8,0.2
	c0.5,1.9,1.1,3.8,1.6,5.7c-0.6,0.3-1.2,0.7-1.9,1.1c-0.5-1.8-1-3.6-1.5-5.5c-0.3,0.1-0.6,0.1-0.8,0.2c0.5,1.9,1.1,3.8,1.6,5.7
	c-0.4,0.3-0.9,0.5-1.3,0.7c0.3,1,0.5,2,0.8,2.9c0.5-0.2,0.8-0.5,1.3-0.7c0.1,0.2,0.1,0.4,0.2,0.6c-2.3,0.2-4.6,0.4-7,0.6
	c0-0.2-0.1-0.4-0.1-0.5c-0.3,0.1-0.6,0.1-0.9,0.2c0,0.1,0.1,0.3,0.1,0.4c-2.1,0.1-4.3,0.2-6.4,0.3c-4.6,0.2-9.2,0.2-13.7,0.2
	c-0.3-1.8-0.6-3.5-1-5.2c3.3-3.7,7.4-8.7,7-16.7c-0.1-2-0.6-3.9-1.3-6c-0.5-1.5-1.5-4.3-2.9-4.6c-0.6-0.1-2.2,1.2-2.5,1.6
	c-3.6,4.2-4.5,13.9-2.5,20.1c-2.7,3.1-6.8,6.3-9.2,10.6c-1.6-0.1-3.3-0.1-4.9-0.2c-3.4-0.2-6.8-0.5-10.1-0.8v0.7
	c3.3,0.4,6.7,0.6,10,0.9c1.5,0.1,3.1,0.2,4.6,0.3c-0.3,0.7-0.6,1.4-0.9,2.2c-1.3-0.1-2.7-0.2-4-0.3c-3.2-0.3-6.5-0.7-9.7-1.1v0.7
	c3.2,0.4,6.4,0.8,9.6,1.1c1.3,0.1,2.6,0.2,3.9,0.4c-0.2,0.7-0.3,1.4-0.4,2.2c-1.3-0.1-2.5-0.3-3.8-0.4c-3.1-0.4-6.2-0.8-9.4-1.3v0.7
	c3.1,0.5,6.2,0.9,9.3,1.3c1.3,0.2,2.5,0.3,3.8,0.5c0,0.2,0,0.3,0,0.5c0,0.6,0,1.2,0.1,1.8c-1.4-0.2-2.7-0.4-4.1-0.6
	c-3-0.5-6-1-9-1.5v0.7c3,0.5,5.9,1.1,8.9,1.5c1.4,0.2,2.9,0.4,4.3,0.6c0.1,0.8,0.3,1.6,0.6,2.4c-1.7-0.3-3.4-0.6-5.1-0.9
	c-2.9-0.5-5.8-1.1-8.7-1.7v0.7c2.9,0.6,5.7,1.2,8.6,1.7c1.8,0.3,3.7,0.7,5.5,1c0.7,1.6,1.6,3.1,2.6,4.3c2.6,3.1,7.6,5.9,13.3,4.2
	c0.2,2.4,1.3,5.4,1.5,8.1c0.2,3.2-0.8,5.6-3.1,6.7c-1.9,0.9-5.7,1.2-6.3-1.1c5.6,0.5,5.3-8,0.3-7.9c-3.7,0.1-5.1,4.9-3.3,7.8
	c1.1,1.7,3.7,3.2,5.9,3.2c4.1,0.1,7.3-2.3,7.8-6c0.5-4.5-1.2-7.2-1.5-11.4c2.2-1.1,4.2-2.6,5.5-4.7c2,0.2,4.1,0.5,6.1,0.7
	c1.9,0.2,3.7,0.4,5.6,0.6c0.4,1.6,0.7,3.2,1.1,4.7c0.3,0,0.6-0.1,0.8-0.2c-0.3-1.5-0.7-3-1-4.5c0.7,0.1,1.5,0.1,2.2,0.2
	c0.2,0.9,0.4,1.9,0.6,2.8c0.3,0,0.6-0.1,0.8-0.2c-0.2-0.8-0.4-1.7-0.6-2.6c8.6,0.7,17.1,1,25.6,1c4.7,0,9.5-0.1,14.1-0.4
	c0.2,1.4,0.4,2.8,0.6,4.1c0,0.2,0,0.5,0.2,0.6c0.2,0,0.3,0,0.5-0.1c0.1,0,0-0.1,0-0.2c-0.2-1.5-0.4-3-0.6-4.5
	c18.7-1,36.9-3.6,54.8-7.7c7.4-1.6,14.8-3.5,22.1-5.7c0.1,0.7,0.3,1.4,0.6,2c2.4,4.5,7.7,1.7,9.7-1.1c0.9-1.3,1.7-3,1.9-4.7
	c11.6-3.9,23-8.3,34-12.9c22.7-9.5,44.8-20,66.8-28.2c22.5-8.5,45.8-14.2,70.5-16.4c48.7-4.2,102.5,5.3,161.8,39.1v-11.1
	c-59.7-32.2-113.7-40-162.7-34.5c-24.9,2.9-48.4,9.3-71,18.4c-22.1,8.8-44.2,19.8-66.8,29.6c-3.5,1.5-6.9,3-10.4,4.5
	c2.2-2.2,3.2-5.5,2.9-8c-0.1-0.7-0.3-1.6-0.6-2.6c1.5-0.7,3-1.4,4.4-2.2c22.4-10.8,44.4-23,66.9-33.5c23-10.8,47-19.1,72.2-24
	c49.7-9.4,104.1-6.2,165,21.6v-11.2c-61.3-26.1-115.8-27.7-165.8-16.8c-25.4,5.7-49.5,14.7-72.7,26.1c-22.6,11-44.6,23.7-66.9,34.8
	c-1.4,0.7-2.8,1.4-4.3,2.2c-0.8-1.9-1.7-3.9-2.5-5.7c-0.3-0.7-0.6-1.4-0.9-2.2c1.4-0.8,2.8-1.5,4.2-2.3c9-4.9,18-10.2,27-15.5
	c0.1,0.1,0.1,0.3,0.2,0.4c0.9,1.6,3.2,2.5,4.4,2.6c7.1,0.6,13.3-8.1,12.7-13.1c7.5-4.4,15.1-8.8,22.7-13c2.3-1.3,4.5-2.5,6.8-3.7
	c1.3,2.7,2.7,5.4,4,8.1c0.6-1.4,1.1-3.4,2-5.4c0.7-1.8,1.8-3.7,2.2-5.3c0.1-0.5,0.2-1.1,0.2-1.7c1.5-0.8,3-1.5,4.5-2.2
	c0.2,0.7,0.6,1.4,1.1,2c1.2,1.5,3.8,1.7,5.5,1.2c4.4-1.2,7.9-6.2,8.4-10.2c12.8-5.6,25.8-10.5,39.2-14.5c4.1-1.2,8.2-2.3,12.3-3.4
	c-0.1,1.2,0,2.4,0.4,3.6c1.3,3.9,5.9,5.6,8.9,5.5c1.2,0,3.1-0.4,4.5-0.9c6.2-1.9,12.2-8.4,13.5-13.4c0-0.1,0-0.2,0.1-0.3
	c16.4-2.5,33.3-3.6,50.8-2.8c-1.8,3.8-2.8,8.4-1.6,12.8c1.2,4.3,6.1,7.4,8.8,8.2c12.7,4.1,27.4-5.8,33.4-16
	c12.1,2.4,24.4,5.8,37,10.1v-11.3c-11.7-3.7-23.1-6.5-34.3-8.6c0-8.8-1.7-18.7-2.9-28.8c12.1,1.1,24.4,3.1,37.1,6.1v-11.4
	c-13.1-2.7-25.7-4.3-38.1-5.1c-0.9-9.5-1.7-19-2.5-28.5C742.2,301.7,755.7,302.3,769.6,304z M635.7,342.4
	c-1.3-6.7-2.6-13.2-3.8-19.5c2.9-1.1,5.9-2.3,8.8-3.3c7,2.6,12.6,8.1,14.8,16.1c0.1,0.5,0.2,0.9,0.4,1.4
	C649.1,338.6,642.3,340.4,635.7,342.4z M595.6,339.2c11.1-5.6,22.4-10.8,33.9-15.4c1.3,6.4,2.5,12.9,3.8,19.3
	c-12,3.7-23.9,8.2-35.5,13.1c-10.8,4.7-21.4,9.9-31.9,15.6c-1.6-5-5.6-8.3-9.3-10.3C569.4,353.4,582.4,345.9,595.6,339.2z
	 M567.7,378.3c3.2,3.4,3.9,8.4,3.9,12.7c-3.5,1.5-6.9,3-10.4,4.6c-0.6-1.1-1.2-2.2-1.7-3.3c-1.5-3.2-2.8-6.2-4.2-9.1
	c3.7-2,7.5-4,11.2-5.9C567,377.6,567.4,377.9,567.7,378.3z M541.2,405.6c-1.6-1.3-3.9-1.2-5.7,0.4c-0.9,0.9-1.2,2.2-2,2.8
	c-1.6-3.3-3.3-6.5-4.9-9.8c8.4-5.3,16.9-10.3,25.6-15.1c1.6,3.4,3.1,6.8,4.7,10.2c-4.8-0.4-9.6,3.7-11.2,8.2
	C545.5,403.3,543.4,404.5,541.2,405.6z M537.4,407.7c-0.8,0.5-1.7,0.9-2.5,1.4C535.4,408.1,536.4,407.5,537.4,407.7z M553.2,363.6
	c4.7,1,8.9,3.3,11.4,8.9c-0.3,0.2-0.7,0.4-1,0.6c-4.8-2.4-10.3-2.8-14.6-6.7C550.4,365.4,551.8,364.5,553.2,363.6z M560.2,374.9
	c-2.3,1.3-4.6,2.6-6.9,3.9c-0.7-1.6-1.5-3.2-2.3-4.9C553.7,374.4,557,374.4,560.2,374.9z M546,362.7c0.1,0,0.2,0,0.3,0
	c-0.1,0-0.1,0.1-0.2,0.1C546,362.8,546,362.7,546,362.7z M518.9,387.1c9.1-6.7,18.5-13.2,28-19.4c1.8,3.9,3.6,7.8,5.4,11.7
	c-8.6,5-17.1,10.2-25.5,15.7c-0.7-1.5-1.5-3-2.2-4.5c-0.4,0.4-1.7,0.4-1.2,1.1c0.7,1.4,1.4,2.9,2.1,4.3c-1.1,0.7-2.3,1.5-3.4,2.2
	c-7.7,5.1-15.2,10.3-22.7,15.4c-1.1-3.2-2.1-6.5-3.2-9.8C503.6,398.4,511.2,392.7,518.9,387.1z M451.7,436
	c14-9.5,28.3-20.1,43.1-31.1c1.1,3.2,2.1,6.4,3.2,9.7c-14.7,10.1-29,20-43.1,28.8c-1.3,0.8-2.6,1.7-3.9,2.5
	c-1.1-2.5-2.1-4.9-3.1-7.3C449.2,437.7,450.4,436.8,451.7,436z M302.5,502.7c-0.2-1-0.4-2.1-0.7-3.1c0.7,0,1.4,0,2.2,0
	c0.2,1,0.5,2.1,0.7,3.2C303.9,502.7,303.2,502.7,302.5,502.7z M289.6,503.7c0,0.6-0.1,1.2-0.3,1.8c-1.6-0.2-3.3-0.4-4.9-0.6
	c-0.2-0.9-0.3-1.8-0.5-2.7c1.9,0.2,3.7,0.4,5.6,0.6C289.5,503.1,289.6,503.4,289.6,503.7z M277.4,501.6c1.7,0.2,3.4,0.4,5.1,0.6
	c0.2,0.9,0.3,1.8,0.5,2.6c-1.8-0.2-3.7-0.5-5.5-0.8C277.3,503.2,277.2,502.4,277.4,501.6z M279.3,498.4c0.9,0.1,1.8,0.1,2.6,0.2
	c0.1,0.9,0.3,1.7,0.4,2.6c-1.6-0.2-3.1-0.3-4.7-0.5C278.1,499.8,278.6,499,279.3,498.4z M313.4,491.6c-0.7,0.3-1.3,0.7-1.9,1
	c-0.2-0.7-0.4-1.3-0.6-2c0.7-0.1,1.4-0.1,2.1-0.2C313.2,490.8,313.3,491.2,313.4,491.6z M344.1,491.3c0.1,1.4,0.4,2.8,0.6,4.3
	c-5.2,0.8-10.4,1.4-15.6,1.9c-4.3,0.4-8.6,0.6-12.9,0.8c-0.3-1.1-0.6-2.3-1-3.4c4.3-0.3,8.6-0.7,12.9-1.2
	C333.4,493.1,338.8,492.3,344.1,491.3z M393.6,483.7C393.6,483.8,393.6,483.8,393.6,483.7c-4.6,1.6-9.3,3.1-14,4.4
	c-0.5-1.2-1.1-2.5-1.6-3.7c-0.2-0.4-0.3-0.9-0.5-1.3c5.5-1.7,10.9-3.6,16.4-5.7c-0.4,0.8-0.7,1.7-0.8,2.5
	C392.8,481,392.9,482.6,393.6,483.7z M378.8,488.4c-0.4,0.1-0.9,0.2-1.3,0.4c-0.4,0.1-0.9,0.2-1.3,0.4c-10.2,2.7-20.4,4.9-30.8,6.4
	c-0.1-1-0.3-1.9-0.4-2.9c1,0.5,2.3,0.5,3.6,0c1-0.4,2.3-1.4,3-2.4c0.1-0.1,0.1-0.2,0.2-0.4c8.4-1.8,16.7-3.9,25-6.5
	C377.4,485,378.1,486.7,378.8,488.4z M314.4,494.9c0.3,1.1,0.6,2.2,1,3.4c-0.7,0-1.4,0.1-2.2,0.1c-0.2-0.9-0.5-1.8-0.8-2.7
	c0.4-0.2,0.8-0.5,1.2-0.7C313.9,495,314.1,494.9,314.4,494.9z M310.3,496.9c0.5-0.2,0.8-0.5,1.3-0.7c0.2,0.7,0.4,1.5,0.6,2.2
	c-2.5,0.1-5.1,0.1-7.6,0.1c0-0.1-0.1-0.3-0.1-0.4c0.5-0.2,0.9-0.5,1.3-0.6c-0.2-0.7-0.3-1.4-0.5-2.1c1.5,0,2.9-0.1,4.4-0.2
	C310,495.7,310.1,496.3,310.3,496.9z M303.1,495.5c-0.7,0.3-1.3,0.6-2,1c-0.1-0.4-0.2-0.7-0.2-1.1c0.7,0,1.4,0,2.2,0
	C303.1,495.4,303.1,495.5,303.1,495.5z M300.3,496.9c-0.4,0.2-0.9,0.5-1.3,0.7c0.1,0.3,0.1,0.6,0.2,0.9c-2.5,0-5-0.1-7.5-0.2
	c-0.4-1-0.9-2-1.6-2.8c3.3,0.1,6.6,0.1,9.9,0.1C300.1,495.9,300.2,496.4,300.3,496.9z M282.9,497c1.3,0,2.4,0.3,3.4,1
	c-1.1-0.1-2.2-0.1-3.3-0.2C283,497.5,283,497.2,282.9,497z M281.8,497.6c-0.4,0-0.8-0.1-1.3-0.1c0.4-0.2,0.8-0.3,1.2-0.4
	C281.7,497.3,281.8,497.5,281.8,497.6z M283.7,501.3c-0.2-0.9-0.3-1.8-0.5-2.6c1.5,0.1,2.9,0.2,4.4,0.3c0.8,0.8,1.3,1.8,1.6,2.8
	C287.4,501.7,285.6,501.5,283.7,501.3z M292,499.2c2.5,0.1,5,0.2,7.4,0.3c0.1,0.3,0.1,0.7,0.2,1c0.5-0.2,0.8-0.5,1.3-0.6
	c0.2,0.9,0.4,1.8,0.6,2.7c-3.1-0.1-6.2-0.3-9.3-0.6C292.3,501.1,292.2,500.1,292,499.2z M306.8,501.7c-0.5,0.2-0.9,0.4-1.3,0.7
	c-0.2-0.9-0.4-1.8-0.6-2.8c2.6,0,5.1,0,7.7,0c0.2,0.7,0.4,1.4,0.6,2c0.3-0.1,0.6-0.2,0.8-0.2c-0.2-0.6-0.3-1.2-0.5-1.8
	c0.7,0,1.5,0,2.2-0.1c0,0.1,0.1,0.2,0.1,0.3c0.3-0.1,0.6-0.2,0.8-0.2c0,0,0-0.1,0-0.1c4.3-0.1,8.6-0.4,12.9-0.7
	c5.2-0.4,10.3-1,15.4-1.7c0.2,1.4,0.4,2.9,0.6,4.3c-5,0.5-10,0.9-15,1.2c-7.8,0.4-15.6,0.4-23.5,0.2
	C307,502.5,306.9,502.1,306.8,501.7z M345.6,497.1c9.2-1.3,18.3-3,27.3-5.2c-0.4,0.5-0.6,1.1-0.8,1.6c-0.3,1-0.5,2.6,0.2,3.7
	c0,0.1,0.1,0.1,0.1,0.2c-8.7,1.7-17.4,3.1-26.2,4C346,500,345.8,498.5,345.6,497.1z M380.7,491.1c-0.1-0.4-0.2-0.7-0.4-1.1
	c5.3-1.4,10.6-3,15.8-4.7c0.7,0.1,1.3,0.1,1.8-0.1c0.5-0.1,1.3-0.5,1.8-0.8c0.3-0.2,0.6-0.4,0.8-0.6c9.3-3.2,18.5-6.8,27.6-10.8
	c1,2.3,1.9,4.5,2.9,6.8c-17.1,6.9-34.4,12.3-52,16.3C380.4,494.4,381.1,492.4,380.7,491.1z M403.2,480.5c0.6-1.2,0.9-2.4,0.9-3.4
	c0-0.8-0.2-1.6-0.5-2.4c-0.1-0.3-0.3-0.7-0.4-1c7.1-3,14.2-6.2,21.2-9.7c0.9,2.2,1.9,4.4,2.8,6.6
	C419.3,474.2,411.3,477.5,403.2,480.5z M425.5,463.4c8.6-4.3,17.1-9,25.6-14.2c1.1,2.5,2.2,5,3.2,7.6c-8.6,4.8-17.2,9.2-26,13.2
	C427.4,467.8,426.4,465.6,425.5,463.4z M424.5,461c-0.9-2.2-1.8-4.4-2.7-6.4c8.4-4.7,16.7-9.8,25-15.3c1,2.4,2.1,4.8,3.1,7.3
	C441.5,451.8,433,456.6,424.5,461z M419.9,449.9c8.2-5.4,16.3-11.6,24.3-16.8c0.5,1.2,1,2.3,1.5,3.5c-8.4,5.7-16.6,10.9-24.8,15.7
	C420.6,451.5,420.2,450.7,419.9,449.9z M420.7,455.3c0.9,2.1,1.8,4.2,2.7,6.3c-7,3.6-14,6.9-21.1,10c-0.8-1.8-1.8-3.7-2.7-5.5
	c2.6-1.2,5.2-2.4,7.7-3.7c0.3,1.9,0.3,3.7,0.4,5.3c0,0.3-0.2,0.8,0.2,0.9c0.6-0.2,0.4-0.9,0.5-1.4c0.1-1.6,0.1-3.4-0.2-5.3
	C412.4,459.7,416.6,457.5,420.7,455.3z M398.4,463.3c-1.9-4-3.6-7.8-5.3-11.5c4.8-1.1,9.9,0.6,12.6,5.3c0.6,1,1,2,1.3,2.9
	c-2.7,1.4-5.4,2.7-8.2,4C398.6,463.8,398.5,463.5,398.4,463.3z M398.6,466.5c0.9,1.8,1.7,3.7,2.6,5.5c-0.3,0.1-0.7,0.3-1,0.4
	c-1,0.1-2,0.4-3.2,1.1c-0.2,0.1-0.4,0.3-0.6,0.4c-6.5,2.6-13,5-19.6,7.2c-0.6-1.7-1.3-3.3-1.9-5
	C382.8,473.4,390.7,470.1,398.6,466.5z M326.8,488.7c15.9-2.5,31.7-6.6,47.3-12.1c0.7,1.6,1.3,3.3,2,4.9c-7.9,2.5-15.8,4.7-23.8,6.5
	c0-0.3,0-0.6-0.1-0.9c-0.3-0.8-1.2-1.3-1.7-1.4c-2.7-0.7-5.8,1.9-6.3,4c-5.4,1.1-10.9,1.9-16.3,2.6c-3.9,0.5-7.8,0.9-11.7,1.2
	c0.1-0.1,0.2-0.1,0.3-0.2c-0.3-1-0.6-2-0.8-3c-0.4,0.3-0.9,0.5-1.3,0.7c-0.1-0.3-0.2-0.5-0.2-0.8
	C318.3,489.9,322.6,489.4,326.8,488.7z M310.3,488.4c0.6-0.3,1.2-0.6,1.8-1c0,0,0.1,0,0.1,0c0.2,0.6,0.4,1.2,0.5,1.9
	c-0.7,0.1-1.4,0.2-2.1,0.2C310.5,489.1,310.4,488.8,310.3,488.4z M310.1,490.7c0.2,0.8,0.4,1.6,0.7,2.4c-0.4,0.3-0.8,0.5-1.3,0.8
	c0,0.1,0,0.1,0,0.2c-1.9,0.1-3.9,0.2-5.8,0.3c-0.2-1-0.5-2-0.7-3.1C305.4,491.1,307.7,490.9,310.1,490.7z M302.8,494.3
	c-0.7,0-1.4,0-2.2,0.1c-0.2-1-0.4-2-0.7-3c0.7,0,1.4-0.1,2.1-0.1C302.4,492.3,302.6,493.3,302.8,494.3z M299.1,491.4
	c0.2,1,0.4,2,0.7,3c-3.5,0.1-7.1,0.1-10.6,0c-1.8-1.6-4.2-2.5-7.1-2.2c0-0.2-0.1-0.4-0.1-0.5C287.7,491.7,293.4,491.6,299.1,491.4z
	 M283.8,464.2c1.3-0.4,2.4,1.2,2.5,2.5c0.2,2.6-1,5.2-2.2,7.2c-1.3,2-2.8,3.7-4.4,4.8C278.4,473.6,279.6,465.6,283.8,464.2z
	 M276.5,489.3c1-1,2-2.1,3.2-2.9c0.3,1.4,0.6,2.9,0.8,4.4c-1.8,0-3.5-0.1-5.3-0.1C275.7,490.1,276.1,489.7,276.5,489.3z
	 M274.4,491.4c2.1,0.1,4.2,0.1,6.2,0.2c0,0.2,0.1,0.5,0.1,0.7c-0.3,0.5-1,0.6-1.4,0.8c-0.4,0.2-0.7,0.5-1.1,0.8
	c-1.9-0.1-3.7-0.2-5.6-0.3C273.2,492.9,273.8,492.1,274.4,491.4z M272.1,494.5c1.7,0.1,3.5,0.2,5.2,0.3c-0.6,0.7-1.1,1.4-1.5,2.3
	c-1.6-0.1-3.2-0.3-4.8-0.5C271.4,495.9,271.7,495.2,272.1,494.5z M270.8,497.5c1.6,0.2,3.1,0.3,4.7,0.5c-0.2,0.7-0.4,1.5-0.4,2.4
	c-1.6-0.2-3.2-0.4-4.7-0.6C270.4,499,270.6,498.2,270.8,497.5z M270.3,502.3c0-0.6-0.1-1.1,0-1.6c1.6,0.2,3.2,0.4,4.8,0.6
	c0,0,0,0.1,0,0.1c0.1,0.8,0.3,1.7,0.7,2.4c-1.8-0.3-3.6-0.5-5.4-0.8C270.4,502.7,270.3,502.5,270.3,502.3z M270.6,503.9
	c1.9,0.3,3.8,0.6,5.7,0.9c0.5,0.7,1,1.4,1.5,1.8c0.7,0.6,1.9,1.4,2.9,1c-0.1-0.8-0.9-1-1.3-1.2c-0.4-0.3-1-0.7-1.3-1.1
	c-0.1-0.1-0.1-0.2-0.2-0.2c1.7,0.3,3.5,0.5,5.2,0.8c0.3,1.7,0.6,3.3,0.9,5C277.2,512.3,271.9,508.7,270.6,503.9z M285.3,510.3
	c-0.2-1.5-0.5-2.9-0.7-4.4c1.5,0.2,2.9,0.4,4.4,0.6C288.3,508.2,286.9,509.5,285.3,510.3z M297,506.4c-1.8-0.2-3.6-0.4-5.5-0.6
	c0.3-0.8,0.6-1.7,0.7-2.7c0,0,0,0,0,0c3.2,0.3,6.4,0.5,9.6,0.7c0,0.1,0.1,0.2,0.1,0.4c-0.4,0.2-0.9,0.5-1.3,0.7
	c0.1,0.7,0.3,1.3,0.4,2C299.7,506.7,298.4,506.6,297,506.4z M303.4,507c0-0.1,0-0.1,0-0.2c0.7-0.3,1.3-0.6,2-0.9
	c0.1,0.4,0.2,0.9,0.3,1.3C304.9,507.1,304.2,507,303.4,507z M332,508c-8.4,0.1-16.9-0.1-25.5-0.7c-0.1-0.6-0.3-1.2-0.4-1.8
	c0.5-0.2,0.9-0.4,1.3-0.7c-0.1-0.2-0.1-0.5-0.2-0.7c7.8,0.3,15.7,0.3,23.6,0c5-0.2,9.9-0.5,14.8-1c0.2,1.5,0.4,2.9,0.6,4.4
	C341.6,507.7,336.8,507.9,332,508z M347.1,507.4c-0.2-1.5-0.4-2.9-0.6-4.4c29.4-2.8,58-10,85.8-20.7c0.4,0.9,0.8,1.8,1.2,2.7
	c-4.5-1.1-8.4,3.4-9.1,7.9C399.2,500.7,373.5,505.7,347.1,507.4z M450.2,479.8c0.7,1.4,2.3,2.3,3.7,2.5c-5.8,2.3-11.7,4.5-17.6,6.6
	c-0.5-2.1-1.7-4.6-2.9-7.1c5.4-2.1,10.8-4.4,16.2-6.7C449.4,476.7,449.5,478.4,450.2,479.8z M458.7,467.2c-3.1-0.6-5.9,1.2-7.6,3.9
	c-6.2,2.9-12.5,5.7-18.8,8.2c-0.9-2.2-1.9-4.5-2.9-6.8c8.8-3.9,17.5-8.2,26.1-12.9C456.6,462.1,457.7,464.7,458.7,467.2z
	 M459.5,453.8c-1.4,0.8-2.7,1.6-4.1,2.3c-1.1-2.5-2.2-5-3.2-7.6c1.3-0.8,2.7-1.6,4-2.5c14.2-8.6,28.4-18.3,43.1-28
	c0.9,2.6,1.7,5.2,2.6,7.8c-2.4-0.7-5.4-0.1-8,1.5c-2.1,1.4-4.7,4.3-5.8,6.9c-0.3,0.9-0.6,2-0.7,3.1
	C478,443.1,468.7,448.6,459.5,453.8z M526.5,413.8c-7.6,4.4-15.1,8.9-22.5,13.4c-1-3.2-2.4-6.5-3.5-9.9c0,0,0,0,0,0
	c7.5-5,15-10,22.7-14.9c1.4-0.9,2.7-1.7,4.1-2.6c1.8,3.5,3.5,7.1,5.3,10.6C530.5,411.5,528.5,412.6,526.5,413.8z M538.4,418.6
	c-0.8-1.7-1.7-3.4-2.5-5.1c1.3-0.7,2.6-1.4,3.9-2.1C540,414.1,538.9,417.1,538.4,418.6z M600.8,379.8c-9.8,3.2-19.4,6.9-28.9,11
	c1-1.1,0.5-3.1,0.3-4.8c-0.5-3.5-1.9-7.1-4-9.5c10-5.1,20.2-9.8,30.5-13.9c11.8-4.7,23.8-8.9,36.1-12.3c1,5.4,2.1,10.7,3.1,16.1
	c-3-1.1-5.9-1.3-10.4,0.1c-3.8,1.2-8.1,4.9-10.7,8.7C611.4,376.6,606.1,378.2,600.8,379.8z M730.5,358.4c-5.2-2.8-12.4-3.2-19.3-0.7
	c-3.9,1.4-8.6,4.4-12.5,7.9c-19.9-0.8-39.1,0.7-57.6,4c-1-6.3-2.6-13.4-4-20.1c6.5-1.7,13-3.3,19.6-4.6c-0.1,5.3-1.5,9.9-2.4,14.1
	c-0.1,0.5-0.9,1.6,0,2.1c1.3-0.1,1.5-1.7,1.8-2.7c1.3-4,2.5-8.9,2.9-14c22.2-4.2,45.4-5.8,69.8-3.8
	C729.4,346.6,730,352.5,730.5,358.4z M727.9,330.4c-24.1-1.1-47,1.1-69,5.9c-0.2-1.3-0.4-2.7-0.8-4c-1.9-7-6.1-11.4-10.9-15.1
	c24.8-8.4,50.6-13.8,78-15C726.1,311.6,727,321,727.9,330.4z"/>
</svg>