<svg xmlns="http://www.w3.org/2000/svg" xmlns:xlink="http://www.w3.org/1999/xlink" x="0px" y="0px" viewBox="0 0 1024 768" >
<path class="layout" data-layout="5" d="M643,384c0,0-1.9-2-3.3-3.2c-5.6-4.6-46.6-44-68.8-70.1c-24.1-28.3-51.9-69.8-55.6-76.1c-1.6-2.7-2.1-4.1-3.3-4.2
	c-1.2,0.2-1.7,1.5-3.3,4.2c-3.7,6.2-31.6,47.8-55.6,76.1c-22.1,26-63.2,65.5-68.8,70.1c-1.4,1.1-3.3,3.2-3.3,3.2s1.9,2,3.3,3.2
	c5.6,4.6,46.6,44,68.8,70.1c24.1,28.3,51.9,69.8,55.6,76.1c1.6,2.7,2.1,4.1,3.3,4.2c1.2-0.2,1.7-1.5,3.3-4.2
	c3.7-6.2,31.6-47.8,55.6-76.1c22.1-26,63.2-65.5,68.8-70.1C641.1,386,643,384,643,384z"/>
</svg>