<svg xmlns="http://www.w3.org/2000/svg" xmlns:xlink="http://www.w3.org/1999/xlink" x="0px" y="0px" viewBox="0 0 1024 768" >
<g>
	<path class="layout" data-layout="5" d="M385.7,319c0,0,1,0.3,0.3-0.4c-1-1.1-2-3.9-1.9-5.1c0,0,1.1,4.1,2.9,5.1c0.9,0.5,1.7-3.7-0.7-6.3c-2.5-2.6-2.7-5-2.9-4.9
		C383.1,307.5,379,315.6,385.7,319z"/>
	<path class="layout" data-layout="5" d="M387.2,322.9c2,0.4,5.5-2,5.5-2c-0.7,0.9-3.3,2.5-4.7,2.7c-1,0.2,0,0.5,0,0.5c7.3,1.6,9.3-7.3,9.2-7.6
		c-0.1-0.2-1.8,1.5-5.3,2C388.2,319,386.3,322.8,387.2,322.9z"/>
	<path class="layout" data-layout="5" d="M392.9,313.4c7.7,2,10.2-7.4,10.1-7.7c-0.1-0.3-1.9,1.6-5.8,1.9c-3.8,0.3-6.1,4.3-5.1,4.5c2.1,0.5,5.9-2,5.9-2
		c-0.8,1-3.6,2.5-5.1,2.7C391.9,312.9,392.9,313.4,392.9,313.4z"/>
	<path class="layout" data-layout="5" d="M391.8,307.3c0,0,1,0.6,0.4-0.4c-0.8-1.3-1.2-4.5-0.9-5.7c0,0,0.3,4.5,2,5.9c0.8,0.7,2.6-3.5,0.6-6.8c-2-3.3-1.7-5.8-2-5.8
		C391.6,294.7,385.6,302.3,391.8,307.3z"/>
	<path class="layout" data-layout="5" d="M378.9,401.7c0,0,1.2-0.5-0.1-0.7c-1.8-0.3-5.1-2.2-6-3.4c0,0,4.4,3.1,7,2.5c1.2-0.3-1.3-5-5.8-5.6
		c-4.6-0.5-6.7-2.8-6.8-2.4C367.1,392.5,369.6,403.7,378.9,401.7z"/>
	<path class="layout" data-layout="5" d="M376.8,345c0,0,1.2,0.2,0.3-0.6c-1.3-1.1-2.9-4.2-3-5.5c0,0,2,4.6,4.2,5.4c1.1,0.4,1.4-4.6-1.9-7.2
		c-3.3-2.6-3.9-5.4-4.1-5.2C372,332.1,368.5,342.1,376.8,345z"/>
	<path class="layout" data-layout="5" d="M376.6,387.6c0,0,1.2-0.4,0-0.7c-1.7-0.3-4.8-2.3-5.7-3.5c0,0,4.2,3.2,6.7,2.7c1.2-0.2-1.1-4.9-5.4-5.6
		c-4.4-0.7-6.4-2.9-6.5-2.6C365.5,378.3,367.5,389.2,376.6,387.6z"/>
	<path class="layout" data-layout="5" d="M375.3,359.6c0,0,1.2,0.1,0.2-0.6c-1.4-0.9-3.5-3.9-3.8-5.2c0,0,2.6,4.4,4.9,4.9c1.1,0.3,0.9-4.8-2.8-7
		c-3.7-2.3-4.6-5-4.8-4.8C368.8,347.1,366.6,357.7,375.3,359.6z"/>
	<path class="layout" data-layout="5" d="M375.4,373.1c0,0,1.2-0.3,0-0.6c-1.7-0.5-4.5-2.8-5.2-4c0,0,3.8,3.5,6.2,3.4c1.2-0.1-0.5-4.9-4.7-6
		c-4.2-1.1-5.9-3.5-6.1-3.2C365.5,362.8,366.4,373.8,375.4,373.1z"/>
	<path class="layout" data-layout="5" d="M388.8,418.4c8.8-3.6,4.5-14.3,4.2-14.5c-0.3-0.2-0.7,2.9-4.2,5.9c-3.4,3-2.8,8.4-1.6,7.9c2.4-1,4.3-6.1,4.3-6.1
		c-0.1,1.5-1.6,4.9-3,6.2C387.5,418.7,388.8,418.4,388.8,418.4z"/>
	<path class="layout" data-layout="5" d="M385,405.6c9-3.1,5.3-14,5-14.2c-0.3-0.2-0.9,2.8-4.5,5.7c-3.6,2.8-3.2,8.2-2.1,7.8c2.4-0.9,4.6-5.8,4.6-5.8
		c-0.2,1.5-1.9,4.8-3.3,6C383.7,405.8,385,405.6,385,405.6z"/>
	<path class="layout" data-layout="5" d="M379.5,364.1c-1.1,0.5,0.1,0.6,0.1,0.6c8.9-0.7,8-11.5,7.8-11.8c-0.2-0.2-1.5,2.4-5.4,4.1c-3.9,1.8-4.8,6.7-3.7,6.6
		c2.4-0.2,5.5-4.2,5.5-4.2C383.5,360.7,381.1,363.3,379.5,364.1z"/>
	<path class="layout" data-layout="5" d="M394.9,433.1c8.1-5.5,1.5-15.3,1.1-15.5c-0.3-0.1-0.1,3.1-3,6.8c-2.8,3.8-0.9,8.9,0.1,8.2c2.2-1.5,2.9-6.9,2.9-6.9
		c0.2,1.5-0.6,5.3-1.7,6.9C393.7,433.6,394.9,433.1,394.9,433.1z"/>
	<path class="layout" data-layout="5" d="M381.1,392.4c-1,0.7,0.3,0.6,0.3,0.6c8.9-2.3,6.1-13.2,5.8-13.4c-0.2-0.2-1.1,2.7-4.8,5.1c-3.7,2.5-3.7,7.7-2.6,7.4
		c2.4-0.7,4.9-5.3,4.9-5.3C384.5,388.3,382.6,391.4,381.1,392.4z"/>
	<path class="layout" data-layout="5" d="M379,376.8c-1.1,0.6,0.2,0.6,0.2,0.6c9-0.8,8-11.8,7.8-12c-0.2-0.2-1.5,2.4-5.4,4.2c-4,1.8-4.8,6.9-3.7,6.7
		c2.5-0.3,5.6-4.4,5.6-4.4C383,373.3,380.6,376,379,376.8z"/>
	<path class="layout" data-layout="5" d="M378.3,351c2.4,0.1,5.9-3.5,5.9-3.5c-0.6,1.2-3.3,3.5-4.8,4.1c-1.1,0.4,0.1,0.6,0.1,0.6c8.8,0.3,9.2-10.3,9-10.6
		c-0.2-0.3-1.7,2.1-5.7,3.4C378.6,346.2,377.1,351,378.3,351z"/>
	<path class="layout" data-layout="5" d="M382.3,337c8.6,1.9,10.9-8.5,10.7-8.8c-0.1-0.3-2.1,1.8-6.3,2.3c-4.2,0.5-6.5,4.9-5.4,5.2c2.3,0.5,6.4-2.4,6.4-2.4
		c-0.8,1.1-3.8,2.9-5.5,3.1C381.2,336.5,382.3,337,382.3,337z"/>
	<path class="layout" data-layout="5" d="M380.2,331.9c0,0,1.1,0.4,0.4-0.5c-1.1-1.3-2.2-4.6-2.1-6c0,0,1.2,4.8,3.3,6c1,0.6,2.2-4.3-0.7-7.4c-2.8-3.1-2.9-6-3.2-5.8
		C377.6,318.3,372.5,327.7,380.2,331.9z"/>
	<path class="layout" data-layout="5" d="M407.7,293.8c-0.2-0.2-9.3-0.9-10,6.5c0,0,0.1,1,0.5,0.1c0.6-1.3,2.9-3.3,4-3.7c0,0-3.4,2.6-3.6,4.6
		c-0.1,1,4.1,0.2,5.6-3.1C405.8,295.1,407.9,294,407.7,293.8z"/>
	<path class="layout" data-layout="5" d="M411.4,448.1c0.6,1.5,0.6,5.8-0.2,7.6c-0.6,1.3,0.6,0.4,0.6,0.4c7.4-7.6-1.9-16.6-2.3-16.7c-0.4-0.1,0.5,3.3-1.6,7.9
		c-2.1,4.6,0.9,9.9,1.8,8.9C411.6,454.1,411.4,448.1,411.4,448.1z"/>
	<path class="layout" data-layout="5" d="M409.7,456.3c4.4,10.5,19.3,18,19.3,18l-1.8-4.8C416.8,464.6,409.7,456.3,409.7,456.3z"/>
	<path class="layout" data-layout="5" d="M403.1,428.6c-0.3-0.1-0.1,3.1-2.9,7c-2.8,3.9-0.8,9.3,0.3,8.5c2.2-1.6,2.9-7.3,2.9-7.3c0.3,1.5-0.5,5.4-1.6,7
		c-0.8,1.1,0.5,0.5,0.5,0.5C410.4,438.7,403.4,428.8,403.1,428.6z"/>
	<path class="layout" data-layout="5" d="M396.6,442.3c0,0,1-1-0.3-0.6c-1.9,0.5-5.8-0.1-7.1-0.9c0,0,5.6,1.3,7.8-0.2c1.1-0.7-3.3-4.4-7.9-3.2
		c-4.6,1.3-7.6,0-7.6,0.3C381.4,438.1,388.4,448,396.6,442.3z"/>
	<path class="layout" data-layout="5" d="M389,429.7c0,0,1.1-0.8-0.2-0.7c-1.9,0.1-5.6-1.1-6.8-2c0,0,5,2.1,7.5,1c1.1-0.5-2.3-4.8-7-4.3c-4.7,0.5-7.3-1.3-7.4-0.9
		C375,423.2,380.1,433.9,389,429.7z"/>
	<path class="layout" data-layout="5" d="M397.5,449.6c-4.9,1.5-8.1,0.1-8.1,0.5c0,0.4,7.6,10.8,16.2,4.6c0,0,1-1-0.3-0.7c-2,0.5-6.2,0-7.6-0.8c0,0,6,1.1,8.4-0.5
		C407.1,451.9,402.4,448.2,397.5,449.6z"/>
	<path class="layout" data-layout="5" d="M383.2,415.1c0,0,1.2-0.6-0.1-0.7c-1.8-0.1-5.2-1.8-6.2-2.9c0,0,4.7,2.7,7.2,2c1.2-0.3-1.7-4.9-6.3-5.1
		c-4.6-0.2-6.9-2.2-7-1.9C370.6,407,374.1,418,383.2,415.1z"/>
	<path class="layout" data-layout="5" d="M646.4,386.2c2.5,0.4,6.7-2.7,6.7-2.7c-0.8,1.2-3.9,3.2-5.7,3.5c-1.2,0.2,0,0.7,0,0.7c9.1,1.7,11.1-9.3,11-9.7
		c-0.1-0.3-2.1,2-6.5,2.6C647.5,381.2,645.3,386,646.4,386.2z"/>
	<path class="layout" data-layout="5" d="M646.1,376.4c1.2,0.1,0.3-4.9-3.7-6.7c-4-1.8-5.2-4.5-5.4-4.2c-0.2,0.3-1.2,11.2,7.8,12c0,0,1.3-0.1,0.2-0.6
		c-1.6-0.8-3.9-3.5-4.4-4.8C640.5,372,643.7,376.1,646.1,376.4z"/>
	<path class="layout" data-layout="5" d="M647.5,371.8c2.5,0.2,6.2-3.4,6.2-3.4c-0.7,1.2-3.5,3.5-5.2,4c-1.2,0.4,0,0.6,0,0.6c9,0.7,9.9-10.2,9.7-10.6
		c-0.2-0.3-1.9,2.1-6.1,3.2C648.1,366.9,646.4,371.7,647.5,371.8z"/>
	<path class="layout" data-layout="5" d="M645.7,344.3c2.2-0.8,4.2-5.4,4.2-5.4c-0.1,1.4-1.7,4.5-3,5.5c-0.9,0.8,0.3,0.6,0.3,0.6c8.3-2.9,4.8-12.9,4.5-13.1
		c-0.2-0.2-0.8,2.6-4.1,5.2C644.3,339.7,644.7,344.7,645.7,344.3z"/>
	<path class="layout" data-layout="5" d="M650.1,351.7c-3.7,2.2-3.9,7.3-2.8,7c2.4-0.5,4.9-4.9,4.9-4.9c-0.3,1.4-2.3,4.3-3.8,5.2c-1,0.7,0.2,0.6,0.2,0.6
		c8.7-1.9,6.5-12.5,6.2-12.7C654.7,346.7,653.8,349.4,650.1,351.7z"/>
	<path class="layout" data-layout="5" d="M644.1,392.1c1.1,0.3,1.1-4.9-2.6-7.4c-3.7-2.5-4.5-5.3-4.8-5.1c-0.3,0.2-3.1,11.1,5.8,13.4c0,0,1.3,0.1,0.3-0.6
		c-1.4-1-3.4-4.2-3.6-5.6C639.2,386.8,641.7,391.5,644.1,392.1z"/>
	<path class="layout" data-layout="5" d="M641.4,345c-4-1.2-5.6-3.6-5.7-3.4c-0.2,0.3,0.2,10.9,9,10.6c0,0,1.2-0.2,0.1-0.6c-1.6-0.6-4.2-2.9-4.8-4.1
		c0,0,3.5,3.5,5.9,3.5C646.9,351,645.4,346.2,641.4,345z"/>
	<path class="layout" data-layout="5" d="M645.6,363.6c1.1,0.1,0.3-4.9-3.7-6.6c-3.9-1.8-5.2-4.4-5.4-4.1c-0.2,0.3-1.1,11.1,7.8,11.8c0,0,1.2-0.1,0.1-0.6
		c-1.5-0.8-3.9-3.4-4.4-4.7C640,359.4,643.2,363.4,645.6,363.6z"/>
	<path class="layout" data-layout="5" d="M640.6,404.8c1.2,0.4,1.5-5-2.1-7.8c-3.6-2.8-4.2-5.9-4.5-5.7c-0.3,0.2-4,11.1,5,14.2c0,0,1.3,0.2,0.3-0.6
		c-1.4-1.2-3.2-4.5-3.3-6C636,399,638.2,403.9,640.6,404.8z"/>
	<path class="layout" data-layout="5" d="M637.2,330.5c-4.2-0.5-6.1-2.6-6.2-2.3c-0.1,0.3,2.2,10.7,10.7,8.8c0,0,1.1-0.4,0-0.6c-1.7-0.3-4.7-2.1-5.5-3.1
		c0,0,4.1,2.9,6.4,2.4C643.7,335.4,641.4,331,637.2,330.5z"/>
	<path class="layout" data-layout="5" d="M636.8,417.7c1.1,0.5,1.8-4.9-1.6-7.9c-3.4-3-3.9-6.1-4.2-5.9c-0.3,0.2-4.6,10.9,4.2,14.5c0,0,1.3,0.3,0.3-0.6
		c-1.3-1.3-2.9-4.7-3-6.2C632.6,411.6,634.5,416.7,636.8,417.7z"/>
	<path class="layout" data-layout="5" d="M630.8,432.6c1,0.7,2.9-4.4,0.1-8.2c-2.8-3.8-2.6-7-3-6.8c-0.4,0.1-7,10,1.1,15.5c0,0,1.2,0.6,0.5-0.5
		c-1.1-1.5-1.9-5.4-1.7-6.9C627.9,425.7,628.6,431.1,630.8,432.6z"/>
	<path class="layout" data-layout="5" d="M642.2,331.4c2.1-1.2,3.3-6,3.3-6c0.1,1.4-1,4.7-2.1,6c-0.8,0.9,0.4,0.5,0.4,0.5c7.7-4.2,2.6-13.5,2.3-13.7
		c-0.3-0.1-0.4,2.7-3.2,5.8C640.1,327.2,641.3,332,642.2,331.4z"/>
	<path class="layout" data-layout="5" d="M641.5,423.7c-4.7-0.5-8.2,3.8-7,4.3c2.4,1.1,7.5-1,7.5-1c-1.2,1-4.9,2.2-6.8,2c-1.3-0.1-0.2,0.7-0.2,0.7
		c8.8,4.2,14-6.5,13.9-6.9C648.8,422.5,646.2,424.2,641.5,423.7z"/>
	<path class="layout" data-layout="5" d="M635,437.4c-4.6-1.3-9,2.4-7.9,3.2c2.3,1.5,7.8,0.2,7.8,0.2c-1.3,0.8-5.3,1.4-7.1,0.9c-1.3-0.3-0.3,0.6-0.3,0.6
		c8.2,5.7,15.1-4.2,15.2-4.6C642.6,437.4,639.6,438.7,635,437.4z"/>
	<path class="layout" data-layout="5" d="M626.5,449.6c-4.9-1.5-9.6,2.3-8.5,3c2.4,1.7,8.4,0.5,8.4,0.5c-1.4,0.8-5.6,1.4-7.6,0.8c-1.4-0.4-0.4,0.7-0.4,0.7
		c8.6,6.2,16.2-4.2,16.2-4.6C634.6,449.7,631.4,451.1,626.5,449.6z"/>
	<path class="layout" data-layout="5" d="M637,318.6c1.8-1,2.9-5.1,2.9-5.1c0,1.2-1,4-1.9,5.1c-0.7,0.8,0.3,0.4,0.3,0.4c6.7-3.4,2.6-11.5,2.3-11.7
		c-0.2-0.1-0.4,2.3-2.9,4.9C635.2,314.9,636.1,319,637,318.6z"/>
	<path class="layout" data-layout="5" d="M621.8,444.5c0,0,1.2,0.6,0.5-0.5c-1.1-1.6-1.9-5.5-1.6-7c0,0,0.7,5.7,2.9,7.3c1,0.8,3.1-4.6,0.3-8.5
		c-2.8-3.9-2.5-7.2-2.9-7C620.6,428.8,613.6,438.7,621.8,444.5z"/>
	<path class="layout" data-layout="5" d="M650,394.6c-4.5,0.5-7,5.3-5.9,5.6c2.5,0.5,7-2.5,7-2.5c-0.9,1.2-4.2,3.1-6,3.4c-1.3,0.2-0.1,0.7-0.1,0.7
		c9.3,2.1,11.8-9.2,11.7-9.5C656.7,391.8,654.5,394.1,650,394.6z"/>
	<path class="layout" data-layout="5" d="M640,413.6c2.5,0.7,7.2-2,7.2-2c-1,1.1-4.4,2.8-6.2,2.9c-1.3,0.1-0.1,0.7-0.1,0.7c9.1,2.8,12.5-8.2,12.4-8.5
		c-0.1-0.3-2.4,1.7-7,1.9C641.7,408.7,638.8,413.2,640,413.6z"/>
	<path class="layout" data-layout="5" d="M630.7,307.2c1.7-1.4,2-5.9,2-5.9c0.3,1.2-0.1,4.4-0.9,5.7c-0.5,0.9,0.4,0.4,0.4,0.4c6.2-5,0.2-12.6-0.1-12.7
		c-0.3-0.1,0.1,2.5-2,5.8C628,303.7,629.9,307.8,630.7,307.2z"/>
	<path class="layout" data-layout="5" d="M631.1,313.4c0,0,1-0.4-0.1-0.6c-1.5-0.2-4.3-1.7-5.1-2.7c0,0,3.8,2.5,5.9,2c1-0.2-1.2-4.2-5.1-4.5
		c-3.8-0.3-5.7-2.1-5.8-1.9C620.9,306,623.3,315.4,631.1,313.4z"/>
	<path class="layout" data-layout="5" d="M626.8,316.6c-0.1,0.3,1.9,9.2,9.2,7.6c0,0,1-0.4,0-0.5c-1.4-0.2-4-1.8-4.7-2.7c0,0,3.5,2.4,5.5,2c0.9-0.2-1-4-4.6-4.4
		C628.6,318.1,626.9,316.3,626.8,316.6z"/>
	<path class="layout" data-layout="5" d="M596.9,469.4l-1.8,4.8c0,0,14.9-7.6,19.3-18C614.3,456.3,607.2,464.6,596.9,469.4z"/>
	<path class="layout" data-layout="5" d="M625.3,301.5c-0.2-2-3.6-4.6-3.6-4.6c1.1,0.4,3.3,2.4,4,3.7c0.4,0.9,0.5-0.1,0.5-0.1c-0.6-7.5-9.7-6.7-10-6.5
		c-0.2,0.2,2,1.2,3.5,4.5C621.2,301.7,625.4,302.4,625.3,301.5z"/>
	<path class="layout" data-layout="5" d="M614.6,439.5c-0.4,0.1-9.7,9-2.3,16.7c0,0,1.2,0.9,0.6-0.4c-0.8-1.9-0.8-6.1-0.2-7.6c0,0-0.3,6.1,1.7,8.2
		c0.9,1,3.9-4.2,1.8-8.9C614,442.7,614.9,439.4,614.6,439.5z"/>
</g>
</svg>