<svg xmlns="http://www.w3.org/2000/svg" xmlns:xlink="http://www.w3.org/1999/xlink" x="0px" y="0px" viewBox="0 0 1024 768" >
<g>
	<path class="layout" data-layout="5" d="M511,249c29.3,3.7,58.8,23.9,59.7,59.7c0.9,33-26.7,59.7-59.7,59.7c-28.1,0-51.7-19.4-58-45.5c0,0-60.3,14.1-75.5,84
		c0,0-15.2-66.5,38.9-121.5C456.5,244.4,501.2,247.7,511,249z"/>
	<path class="layout" data-layout="5" d="M394.3,451.1c-11.5-27.2-8.7-62.9,21.9-81.6c28.1-17.2,65.1-6.7,81.6,21.9c14.1,24.3,9,54.4-10.4,73
		c0,0,42.4,45.2,110.4,23.4c0,0-50,46.4-124.7,27.1C417.6,500.6,398.1,460.3,394.3,451.1z"/>
	<path class="layout" data-layout="5" d="M627.7,451.1c-17.8,23.6-50.1,39-81.6,21.9c-29-15.8-38.4-53-21.9-81.6c14-24.4,42.6-35.1,68.5-27.5
		c0,0,17.9-59.3-35-107.4c0,0,65.2,20.1,85.8,94.4C659,406.2,633.7,443.2,627.7,451.1z"/>
</g>
</svg>