<svg xmlns="http://www.w3.org/2000/svg" xmlns:xlink="http://www.w3.org/1999/xlink" x="0px" y="0px" viewBox="0 0 1024 768" >
<path class="layout" data-layout="5" d="M484,379.6c8-12,16.7-21.7,26.3-29.2l4.6,24.1c-8.6,2.3-15.7,7-21.2,14.1c-5.5,7.2-8.3,15.2-8.3,24.2
	c0,8.7,3.6,17.1,10.6,25.2c7,8,14.9,12.5,23.6,13.3v-1.7c-5.6,0-11.5-3.2-17.7-9.6c-6.2-6.4-9.3-12.4-9.3-18c0-7.6,2.3-14.2,6.9-20
	c4.6-5.8,10.5-9.3,17.7-10.4l12.9,65.1c-4.3,1.7-8.7,2.5-13.1,2.5c-12,0-22.8-4.2-32.2-12.6c-9.9-8.8-14.8-19.1-14.8-31.1
	C470,405.4,474.6,393.5,484,379.6z M534.8,318.8c5.2-11.3,7.7-23.2,7.7-35.6c0-7.6-1.7-17.3-5.1-29.2c-4.2-14.6-9-21.8-14.4-21.8
	c-7.3,0-13.6,7.1-18.8,21.3c-4.2,11.4-6.3,21.6-6.3,30.7c0,4.9,0.8,12,2.4,21.2c1.6,9.2,3.3,15.7,4.8,19.5
	c-6.8,6.5-13.8,13.9-21,22.3c-8.8,10.4-15.5,19.8-20.3,28.3c-6,10.7-9,19.9-9,27.7c0,16.1,5.7,30.4,17.2,42.7
	c11.5,12.3,25.2,18.4,41.1,18.4c1.5,0,4.1,0,7.8-0.1c3.7,0,7.3-0.5,10.8-1.3c1.5,7,3.1,14.5,4.8,22.4c1.7,7.9,2.6,14.6,2.6,20.2
	c0,5.2-2.7,10.9-8.1,16.9c-5.4,6.1-10.6,9.1-15.7,9.1c-3,0-5.8-0.6-8.6-1.9c-2.8-1.3-5.3-3-7.6-5.1c1.2,0.3,2.5,0.5,3.6,0.5
	c4.7,0,8.6-1.8,11.9-5.6c3.3-3.7,5-7.9,5-12.6c0-5.1-1.7-9.3-5.2-12.6c-3.5-3.3-7.7-5-12.7-5c-5.2,0-9.9,1.9-13.9,5.7
	c-4,3.8-6,8.3-6,13.7c0,6.8,3.1,13.1,9.2,18.8c6.2,5.7,12.7,8.6,19.5,8.6c8,0,15.3-3,22-9.1c6.6-6.1,10-13.1,10-21.1
	c0-5.6-1.4-14.8-4.2-27.8c-1.4-6.2-2.5-11.6-3.2-16.2c9.9-2.5,18.1-7.3,24.5-14.5c6.4-7.2,9.6-15.7,9.6-25.4
	c0-13.5-3.5-24.8-10.6-33.8c-7.7-9.8-18.2-14.7-31.4-14.7l-9.1,0.5l-5-26.6C522.4,339.6,529.7,330.1,534.8,318.8z M552.8,442.4
	c-4.2,6.4-10.4,10.5-18.5,12.4l-12.8-63.3c1,0,2.6,0,4.8,0c7.6,0,14.9,2.9,21.9,8.8c6.9,5.8,10.4,12.6,10.4,20.2
	C558.6,429.2,556.7,436.5,552.8,442.4z M511,270.3c4.5-11.6,8.9-17.5,13.3-17.5c4.5,0,7.6,2.7,9.4,8.1c1.2,3.3,1.7,7.8,1.7,13.7
	c0,7.2-1.7,14.2-5.2,21c-3.5,6.8-10.8,15.6-21.8,26.3c-0.8-2.3-1.5-6.7-2.2-13.3c-0.7-6.5-1.1-11.5-1.1-14.8
	C505.1,288.3,507.1,280.5,511,270.3z"/>
</svg>