<svg xmlns="http://www.w3.org/2000/svg" xmlns:xlink="http://www.w3.org/1999/xlink" x="0px" y="0px" viewBox="0 0 1024 768" >
<g>
	<circle class="layout" data-layout="5" cx="512" cy="281.1" r="20.6"/>
	<path class="layout" data-layout="5" d="M567.3,384.9l-15.1-53.8c-4.2-14.1-13.5-23.4-24.1-23.4c-7.8,0-16.1,0-16.1,0s-8.3,0-16.1,0c-10.5,0-19.9,9.3-24.1,23.4
		l-15.2,53.8c-1.1,4.5,1.7,9.2,6.2,10.3c4.5,1.1,9.1-1.5,10.2-6.1l15.1-53.6h4.5l-26.3,93.3h24.8v69.2c0,5.3,4.3,9.6,9.6,9.6
		c5.3,0,9.6-4.3,9.6-9.6v-69.2h5.3v69.2c0,5.3,4.3,9.6,9.6,9.6c5.3,0,9.6-4.3,9.6-9.6v-69.2h23l-26.3-93.3h4.5l15.1,53.6
		c1.1,4.5,5.7,7.2,10.2,6.1C565.7,394,568.4,389.4,567.3,384.9z"/>
</g>
</svg>