<svg xmlns="http://www.w3.org/2000/svg" xmlns:xlink="http://www.w3.org/1999/xlink" x="0px" y="0px" viewBox="0 0 1024 768" >
	<path class="layout" data-layout="5" d="M468.7,307.7v30.6v89.1c-5.9-2.2-13-2.8-20.2-1.4c-17.4,3.3-29.4,17.1-26.8,30.6c2.6,13.6,18.8,21.9,36.2,18.5
		c15.4-3,26.6-14.1,27.1-26.1h0.1v-86.1l101.1-11.1v60.9c-6-2.2-13-2.8-20.2-1.4c-17.4,3.3-29.4,17.1-26.8,30.6
		c2.6,13.6,18.8,21.9,36.2,18.5c15.4-3,26.6-14.1,27.1-26.1h0.1V323.6v-31.4L468.7,307.7z M586.2,339.6l-101.1,11.1v-13.5
		l101.1-12.5V339.6z"/>
</svg>