<svg xmlns="http://www.w3.org/2000/svg" xmlns:xlink="http://www.w3.org/1999/xlink" x="0px" y="0px" viewBox="0 0 1024 768" >
<g>
	<path class="layout" data-layout="5" d="M465.4,332.8c10.7,0,19.4,8.7,19.4,19.4c0,10.7-10.8,20.9-21.4,20.9c-24.1,0-34.7-16.6-32.7-39.2
		c1.8-19.8,26.1-41.9,56.4-42.3c32.2-0.4,68,19.9,68,65.7c0,80.9-89.6,111.4-109.2,118.8c-7,2.6-10.1-6.5-3.1-9.2
		c17.2-6.6,79.8-36.1,79.8-107.5c0-40.3-17-55.5-38.3-55.5c-26.8,0-38.9,19.4-36.1,31.9C449.9,343.7,453.5,332.8,465.4,332.8z"/>
	<circle class="layout" data-layout="5" cx="579.6" cy="321.7" r="14"/>
	<circle class="layout" data-layout="5" cx="579.6" cy="382.8" r="14"/>
</g>
</svg>