<svg xmlns="http://www.w3.org/2000/svg" xmlns:xlink="http://www.w3.org/1999/xlink" x="0px" y="0px" viewBox="0 0 1024 768" >
<g>
	<g>
		<path class="layout" data-layout="5" d="M454.5,483c-1.8-1.8-11.1-7.6-21.9-17.4l0.3-3.2c4.5-1.8,4.4-8.7,4-12c-0.5-4.2-4.7-12-5.5-10.7
			c-6.2,9.5-4.2,19.8-1.8,21.3l-0.1,1.6c-6.2-6-12.7-13.2-18.3-21.7c-10-15.1-15.6-30.9-16.9-48.4c7.4,2.8,14.4-17.5,10.6-20.5
			c-0.7-0.5-7.4,6.8-10.9,12.7c0-4.9,0.3-9.9,0.9-15.1c14.3-0.8,13.4-18.5,12.2-17.6c-4.9,3.2-8.5,6.5-10.9,9.3
			c0.7-3.8,1.5-7.6,2.5-11.6c10.9-0.7,16.8-17.6,15.6-17.7c-3.8-0.2-8.7,3.1-12.5,6.9c0.1-0.3,0.2-0.6,0.3-1
			c1.2-3.8,2.4-7.3,3.7-10.5c12.7,4.5,17.9-14.8,16.5-14.2c-6,2.7-10.8,5.4-13.9,7.8c1.9-4.4,3.8-8.2,5.6-11.4
			c13.4,2.3,20.4-12.1,19-11.8c-6.7,1.6-12.2,4.1-15.8,6.3c2.6-4.3,4.6-6.8,5.4-7.8c15.6-5.9,20.1-19.7,18.4-19.2
			c-15.1,4.1-23.1,17.1-22,19.6c-0.9,1-2.1,2.6-3.7,4.8c-0.2-0.9-0.3-2.5-0.2-5.6c0.3-6.9,0-8.1-0.9-8.3c-1.6-0.4-5.5,4.8-7.6,11.3
			c-2.8,8.5-0.6,12.3,1.6,14.2c-2,3.7-4.1,8.1-6.1,13c0.1-11.6-2.9-21.4-4.4-21.3c-1.5,0.1-4,1.8-5.6,12.3
			c-2.4,16.2,4.5,16.6,7.6,15.5c-0.6,1.7-1.2,3.4-1.7,5.2c-6.1,19.3-8.6,37.5-7.8,54c-3.3-6.7-12.4-16.9-14-15.7
			c-0.6,0.4-0.5,9.3,1.6,13.3c4.6,8.7,9.7,10,13,9.8c0.5,4.8,1.4,9.5,2.5,14c-3.8-4.5-13.3-15.6-15.8-14c-2.8,1.8,8.3,23,18.1,22
			c1,2.8,2,5.6,3.3,8.3c-4.1-2.1-12.5-5.9-14-4.3c-1.8,2,10,15.8,13.5,17c2.9,1,4.9-0.2,6.5-1.5c0.6,0.9,1.2,1.8,1.8,2.7
			c1.4,2.1,2.9,4.1,4.4,6.1c-5.2-1-15.5-2.1-16.4-1.1c-1,1.3,8,11.5,14.5,12.5c5.1,0.8,7.4-1.4,8.4-3.1c3.1,3.7,6.4,7.3,9.5,10.6
			c-1.2,0.6-2.9,0.4-3.6,0.4c-2.7,0.2-12-0.5-17.5-0.8c-2.9-0.1,4,5.4,6.9,6.8c3.3,1.5,8.9,4.2,14.4,1.3c1.4-0.8,1.1-4,0.9-4.5
			s-0.3-0.5-0.3-0.5l1.6-0.2c11.4,11.6,21.7,19.5,24.1,19.8C455.2,491,455.7,484.3,454.5,483z"/>
		<path class="layout" data-layout="5" d="M409.2,430.1c6.5,0.7,4.3-21.9,2-22.2C408.7,407.7,400.8,429.1,409.2,430.1z"/>
		<path class="layout" data-layout="5" d="M407.7,390.3c-9,3-12.9,19.3-7.8,21C408.9,414.3,408.8,389.9,407.7,390.3z"/>
		<path class="layout" data-layout="5" d="M418.2,432.3c-2.5,4.3-2.6,16.5,2,16.3c6-0.2,6.3-16,3.7-21.2C419.4,418.7,419.8,429.6,418.2,432.3z"/>
		<path class="layout" data-layout="5" d="M390.3,354.8c2.3,0.4,2-7,2.1-13.8s-7.5-14.8-8.9-14.4s-1.1,8.3-0.9,13.9S389.1,354.5,390.3,354.8z"/>
		<path class="layout" data-layout="5" d="M386.3,377.8c1.6,0.4,2.3-4.4,1-13s-10.3-14.5-10.3-14.5s-0.6,3.5,0,11.1S384.6,377.4,386.3,377.8z"/>
	</g>
	<g>
		<path class="layout" data-layout="5" d="M569.5,483c1.8-1.8,11.1-7.6,21.9-17.4l-0.3-3.2c-4.5-1.8-4.4-8.7-4-12c0.5-4.2,4.7-12,5.5-10.7
			c6.2,9.5,4.2,19.8,1.8,21.3l0.1,1.6c6.2-6,12.7-13.2,18.3-21.7c10-15.1,15.6-30.9,16.9-48.4c-7.4,2.8-14.4-17.5-10.6-20.5
			c0.7-0.5,7.4,6.8,10.9,12.7c0-4.9-0.3-9.9-0.9-15.1c-14.3-0.8-13.4-18.5-12.2-17.6c4.9,3.2,8.5,6.5,10.9,9.3
			c-0.7-3.8-1.5-7.6-2.5-11.6c-10.9-0.7-16.8-17.6-15.6-17.7c3.8-0.2,8.7,3.1,12.5,6.9c-0.1-0.3-0.2-0.6-0.3-1
			c-1.2-3.8-2.4-7.3-3.7-10.5c-12.7,4.5-17.9-14.8-16.5-14.2c6,2.7,10.8,5.4,13.9,7.8c-1.9-4.4-3.8-8.2-5.6-11.4
			c-13.4,2.3-20.4-12.1-19-11.8c6.7,1.6,12.2,4.1,15.8,6.3c-2.6-4.3-4.6-6.8-5.4-7.8c-15.6-5.9-20.1-19.7-18.4-19.2
			c15.1,4.1,23.1,17.1,22,19.6c0.9,1,2.1,2.6,3.7,4.8c0.2-0.9,0.3-2.5,0.2-5.6c-0.3-6.9,0-8.1,0.9-8.3c1.6-0.4,5.5,4.8,7.6,11.3
			c2.8,8.5,0.6,12.3-1.6,14.2c2,3.7,4.1,8.1,6.1,13c-0.1-11.6,2.9-21.4,4.4-21.3c1.5,0.1,4,1.8,5.6,12.3c2.4,16.2-4.5,16.6-7.6,15.5
			c0.6,1.7,1.2,3.4,1.7,5.2c6.1,19.3,8.6,37.5,7.8,54c3.3-6.7,12.4-16.9,14-15.7c0.6,0.4,0.5,9.3-1.6,13.3c-4.6,8.7-9.7,10-13,9.8
			c-0.5,4.8-1.4,9.5-2.5,14c3.8-4.5,13.3-15.6,15.8-14c2.8,1.8-8.3,23-18.1,22c-1,2.8-2,5.6-3.3,8.3c4.1-2.1,12.5-5.9,14-4.3
			c1.8,2-10,15.8-13.5,17c-2.9,1-4.9-0.2-6.5-1.5c-0.6,0.9-1.2,1.8-1.8,2.7c-1.4,2.1-2.9,4.1-4.4,6.1c5.2-1,15.6-2.1,16.4-1.1
			c1,1.3-8,11.5-14.5,12.5c-5.1,0.8-7.4-1.4-8.4-3.1c-3.1,3.7-6.4,7.3-9.5,10.6c1.2,0.6,2.9,0.4,3.6,0.4c2.7,0.2,12-0.5,17.5-0.8
			c2.9-0.1-4,5.4-6.9,6.8c-3.3,1.5-8.9,4.2-14.4,1.3c-1.4-0.8-1.1-4-0.9-4.5s0.3-0.5,0.3-0.5l-1.6-0.2
			c-11.4,11.6-21.7,19.5-24.1,19.8C568.8,491,568.3,484.3,569.5,483z"/>
		<path class="layout" data-layout="5" d="M614.8,430.1c-6.5,0.7-4.3-21.9-2-22.2C615.3,407.7,623.2,429.1,614.8,430.1z"/>
		<path class="layout" data-layout="5" d="M616.3,390.3c9,3,12.9,19.3,7.8,21C615.1,414.3,615.2,389.9,616.3,390.3z"/>
		<path class="layout" data-layout="5" d="M605.8,432.3c2.5,4.3,2.6,16.5-2,16.3c-6-0.2-6.3-16-3.7-21.2C604.6,418.7,604.2,429.6,605.8,432.3z"/>
		<path class="layout" data-layout="5" d="M633.7,354.8c-2.3,0.4-2-7-2.1-13.8s7.5-14.8,8.9-14.4s1.1,8.3,0.9,13.9S634.9,354.5,633.7,354.8z"/>
		<path class="layout" data-layout="5" d="M637.7,377.8c-1.6,0.4-2.3-4.4-1-13s10.3-14.5,10.3-14.5s0.6,3.5,0,11.1S639.4,377.4,637.7,377.8z"/>
	</g>
</g>
</svg>