<svg xmlns="http://www.w3.org/2000/svg" xmlns:xlink="http://www.w3.org/1999/xlink" x="0px" y="0px" viewBox="0 0 1024 768" >
<g>
	<path class="layout" data-layout="5" d="M688.7,271.5c-1.5,0.6-3.3,2.9-4.4,2.9c-1,0.1-1.3-0.9-1.7-2.3c-0.4-1.3-0.4-2.5-0.2-3.6c0.1-1.1,1.5-2.3,0.9-3.2
		c-0.5-1-2.8-1.3-3.5-1.4c-0.8-0.1-1.2-2.4-1.1-3.7c0.1-1.3,3.2-5.2,4.5-6.8c1.3-1.7,1.4-4.2,0.6-4.3c-0.8-0.1-3.5,2.1-5.5,4
		c-2,1.9-4,2.9-6.4,3.8c-2.4,0.9-3.2-0.4-5.1-1.2c-1.9-0.8-3.8-2-5.2-2.9c-1.4-1-5.7-0.6-7.2-1.2c-1.5-0.6-0.9-2.7-1.6-3.2
		c-0.7-0.5-6.7-2.9-8.5-4.4c-1.8-1.4-4.7-6.1-6.4-8.8c-1.7-2.7-6.9-9.3-9.7-12.9c-2.8-3.6-3.3-4.7-4-6.2c-0.7-1.4-0.9-3.1-2.1-3.1
		s-1.6,1.8-2.2,2.9c-0.6,1.1-1.9,0.5-2.8,1.7c-0.9,1.1-1.6,2.3-1.6,4.2c0,1.9,3.6,11.1,3.9,12.3c0.3,1.1-4.5,11.4-4.9,12.4
		c-0.4,1-0.2,4.3-0.9,6.3c-0.7,2-3.7,4.5-4.6,6.2c-0.9,1.6-0.4,4.6-0.2,8.2c0.2,3.6-1.3,4.4-1.8,5c-0.6,0.7-6.8-0.4-9.7-1.7
		c-2.9-1.3-4.4-2.6-5.6-2.8c-1.2-0.3-3.3,0.5-3.6,1.5c-0.2,0.9-0.3,2.4,0.3,3.5c0.6,1.1,1,3.6,0.7,5.2c-0.2,1.5-3.6,3.3-4.5,3.9
		c-1,0.6-6,1.4-6.6,1.7c-0.6,0.4-1.8,2.1-2.2,4.9c-0.4,2.8,0.3,6.1,0.5,7.2c0.2,1.1,2.8,4.3,3.4,4.7c0.6,0.5,0.8,2.4,0.9,2.9
		c0.1,0.6-1.5,6.3-1.8,7.1c-0.2,0.8-0.9,5.5-0.4,6.1c0.5,0.6,3.8,1,5.4,0c1.5-0.9,2.4-3.8,3.4-5.1c0.9-1.3,2.9-3.1,5.3-2.6
		c2.4,0.5,3.5,2.6,4.9,2.7c2.1,0.2,3.9-1.8,4-2.6c0.2-0.8-2.6-3-5.9-5.6c-3.3-2.6-8.5-6.8-9-7.1c-0.4-0.3-0.4-1.9-0.4-3
		c0-1.1,0.8-3.4,1.7-4.4c1-0.9,3.7-0.6,4.8-0.4c1,0.2,3.4,2.9,4.3,4c0.9,1.2,0.5,1.8,1,2.3c0.5,0.5,1.8,0,2.3,0c0.6,0,0.8-1,0.9-1.4
		c0.2-0.5,1.2-1,2.1-1.1c1-0.1,3.2-2.4,3.2-2.4s5.6-0.1,7.1,0c1.5,0.1,5.4,0.7,7.2,2.6c1.7,1.9,6.4,6.2,8.2,7.6
		c1.7,1.4,4.2,2.2,6.3,3.3c2.1,1.1,5.7,4.2,6.5,4.1c0.8-0.1,1.5-1.1,2.1-2.3s1.1-6.1,1.1-7.4c0-1.3,1.5-4.7,3.6-7.6
		c2-2.9,5-5.5,7.9-6.3c2.9-0.7,12.8-1.3,13.5-1.3c0.8,0,2.6-2.5,3.2-2.5c0.6,0,3.4,1.6,4.1,1.6s3.1-2.8,3.9-3.8
		c0.8-0.9,4.5-0.2,5.2-0.9c0.6-0.6,3.9-3,4.8-3.9C691.9,272,690.2,270.9,688.7,271.5z"/>
	<path class="layout" data-layout="5" d="M612.5,356c0-3.3-1.5-7.1-5.2-12.5c-3.7-5.3-3.9-7.5-3.8-10.1c0.1-2.5,0.5-7.5,1.1-9.4c0.5-1.9,1-4.6,0.7-5.3
		c-0.4-0.7-4.1,0.5-5.4,0.5c-1.3,0-3.2-3.6-4.4-4c-1.2-0.4-3,2.4-3.6,3.8c-0.6,1.4-1.1,2.5-1.1,4c0,1.5,1,2.1,2.2,2.1
		c1.3-0.1,2.8-1.8,3.6-1.8c0.8,0.1,2.8,2.5,3.1,3.6c0.3,1.1-1.4,3.2-2,3.5c-0.7,0.3-2-0.9-2.6-1.5c-0.6-0.6-2-1-2.7-0.5
		c-0.6,0.5-0.5,2.8-1.1,3.2c-0.7,0.4-1.7-0.2-2.4-0.8c-0.7-0.6-0.8-2.4-0.6-3.1c0.3-0.7,1.5-2.5,1.2-3.1c-0.4-0.7-2.7-0.5-3.4-0.6
		c-0.7-0.1-1.2-2.6-1.7-2.6c-0.5,0-2.9,1.4-3.1,2.4c-0.2,1.1,0.7,2.3,1.3,3.1c0.5,0.8,0.3,1.6,0.4,2.7c0.1,1.2-0.6,1.8-3.7,2.9
		c-3.1,1.1-5.1,1.8-6.2,3.2c-0.8,1-0.7,2.8-0.4,4c0.4,1.2,1.6,2.7,2.1,5.9c0.5,3.2-1.8,3.9-3.4,5.4c-1.5,1.5-3.3,0.4-3.9,0.8
		c-0.7,0.4-0.3,0.8-0.3,2.2c0,1.4,1,1.8,2.1,1.8c1.2,0,3.4-2.7,4.2-2.1c0.7,0.6-0.2,4.2-0.1,6.7c0.2,2.5-0.4,7.5-2.3,11.2
		c-1.8,3.7-16.6,29.3-18.1,30.8c-1.6,1.5-5,2.8-6.8,3.7c-1.7,0.9-3.2,2.7-4.9,5.2c-1.7,2.5-6.4,7.6-7.3,8.7c-0.9,1.1-4,1.1-5.8,1.5
		c-1.9,0.4-4.6,2-5.7,2.8c-1.1,0.8-4.2,0.2-6.8,1.3c-2.6,1.1-6,4.3-7.6,5c-1.6,0.7-2.3-1.4-3.5-2.9c-1.3-1.5-0.2-2-0.8-3.5
		c-0.6-1.6-2.7-1.2-2.8-2.8c-0.1-1.6,0.6-1.9,1.4-2.2c0.8-0.3,2,0,2.8-0.2c0.8-0.2,2-1.1,3.8-3.7c1.7-2.6,1.6-2.7,1.5-3.6
		c-0.2-0.9-2.6-0.3-5.2,0.3c-2.7,0.6-6.6,3-7.4,4.7c-0.8,1.7,0.2,6.1,0.2,8.1c0,2-0.1,3-3.5,7.1c-3.4,4.1-6.1,4.5-9.7,6.9
		c-3.7,2.4-5.7,5.3-6.1,6.8c-0.4,1.5,0.9,2,1.1,4.4c0.2,2.4-0.2,2.7-2.5,5.2c-2.3,2.5-4.6,3.1-6.8,3.2c-2.2,0.1-2.3-2.5-2.5-3.2
		c-0.2-0.7-1.2,0.4-2.2,1.3c-1,0.9-1.1,2.6-1.1,2.6c-0.6-0.1-1.7-2.2-1.6-3.7c0.1-1.5,2.1-3.3,2.1-4.3c0.1-0.9-2.5-1.1-4.2-1.1
		c-1.7,0-3.2,1.5-5.1,1.5c-1.9,0-7.4-1.3-9.4-1.3c-2,0-6.9,2.6-9,3c-2.1,0.4-6.2-1.8-9-1.8c-2.7,0-6.3,1.3-8.1,1.4
		c-1.8,0.1-1.2-1-1.4-2c-0.2-1.1,1.1-1.7,1.1-2.3c0-0.6-5.7-0.8-7.9-0.5c-2.2,0.4-5.4,4.2-6.9,5.7c-1.5,1.5-6.5,4-10.1,7.1
		c-3.6,3.1-6.7,3.4-10.2,4.2c-3.5,0.8-3.9,1.3-5.2,3c-1.3,1.7-3.8,3.3-6.4,3.5c-2.6,0.2-3.4-1.4-5-1.4c-1.6,0-3.1,3.9-3.7,6.1
		c-0.7,2.2-0.2,5.7,0.3,6.2c0.6,0.5,1.8-1.9,2.7-1.5c0.9,0.4,1.7,2.4,2.3,2.6c0.6,0.2,1.6,0,3.1-1c1.5-1,5.1-0.1,7.5,0.2
		c2.4,0.2,2.8,1,4.9,3c2.1,2,2.9,3,3.7,2.5c0.8-0.4,1.5-3.3,1.8-5.3c0.2-2,0.8-3,2-4.1c1.3-1.1,3.3-1.5,4.8-0.6
		c1.5,0.9,1.8,2.1,4,2.1c2.3,0.1,3.5-1.4,4.2-2.1c0.7-0.7,0.3-0.7,2.4-0.7c2.1,0,2,0,2.8,0.8c0.9,0.9,1.6,0.9,3.6,0.6
		c2-0.3,3.6-1.8,4.7-2.5c1.1-0.7,4.1-0.3,5.2,0.3c1.1,0.7,2.5,2.4,3.7,2.9c1.3,0.5,2.7,0,4-1.3c1.2-1.2,4.2-3.2,6.7-4
		c2.4-0.8,5.9-0.4,7.5,0.1c1.7,0.5,5.9,3.5,7.1,3.6c1.2,0,2.5-1,4-1.2c1.5-0.2,2.9,0.1,3.4,0.8c0.6,0.7,0.7,1.7,0.2,3.6
		c-0.5,2-4.9,3.3-6,4.6c-1.1,1.3,0.8,3,1.1,4.2c0.3,1.2-3.1,3.4-3.5,4.8c-0.4,1.4,0.9,4.5,2.9,7.7c2,3.2,2.8,5.1,4.8,6
		c2,0.9,5.6,0.4,7.5-0.3c2-0.7,2.3-3.6,4.4-6c2.1-2.4,5.6-2.3,6.2-3.7c0.6-1.4,0.7-4,1.2-5c0.5-0.9,1.4-0.4,3.5-0.8
		c2.1-0.4,7.5-0.1,8.1-0.1c0.6,0,1.3-1,1.5-2.2c0.2-1.2,0.3-3.4-1.1-4c-1.4-0.7-3.1-2.7-3.6-3.5c-0.5-0.8-0.3-4-0.3-5.2
		c0-1.1,0.6-2.4,1.8-4.3c1.2-1.9,3.3-3,3.9-2.7c0.6,0.3,0.3,2.4,0.3,3.6c0.1,1.2-0.7,2-0.5,3.6c0.1,1.7,0.1,2.4,0.8,2.4
		c0.7,0,1.3-1.4,1.3-2.3c0-1,1.5-1.9,1.5-1.9s1.2,1.7,2.3,2.4c1,0.8,2.6,0.8,3.1,1.2c0.5,0.4,0,0.8-1.4,1.9c-1.4,1.1-4.8,1.3-5,1.9
		c-0.2,0.5,1.2,1,3.7,1.2c2.5,0.2,4.8-0.5,7.1-1.3c2.3-0.8,3.1-1.3,3.5-1.1c0.4,0.2,2.2,2.3,6,3.7c3.8,1.4,6.2,2.3,6.7,1.8
		c0.5-0.5,1.2-5.4,4.2-9.4c3-4,9.4-3.2,9.8-3c0.4,0.2,0,0.6-0.2,1.2c-0.2,0.7-1,1.4-1.8,2.6c-0.9,1.2-2,2.4-2,5.3
		c0,2.9,1.7,3.9,3.1,3.9c1.4,0,3.7-2.8,4.8-4.8c1.1-2,1.8-4.1,1.4-5c-0.5-1-1.2-1.3-1.1-2.3c0-1,2.6-2.4,3.8-3.4
		c1.2-1,3.5-0.8,5.9-0.4c2.4,0.4,1.6,2.7,2.6,3.3c0.9,0.6,0.9,0.3,1.5-0.5c0.6-0.8,1.6-0.7,1.9-1.4c0.3-0.7-0.8-1.9-1-3.2
		c-0.1-1.3,2.4-6.4,3-7.5c0.5-1.1,1.4-1.2,2.8-0.5c1.4,0.7,2.8,1.7,2.8,2.7c0,1-0.8,1.5-2.1,3c-1.3,1.5-1.8,2.5-2.7,5
		c-1,2.5-3.3,3.4-3.4,6.1c-0.1,2.7,0.5,3.5,1.8,3.5c1.3,0,3.8-2.6,4.5-3.1c0.6-0.5,1.4-0.7,3-0.9c1.6-0.2,3.3-1.3,4.1-2.3
		c0.8-1,0.2-3,0.7-4.9c0.5-1.9,3.9-6.1,4.6-6.7c0.7-0.6,4.2,0.1,5.2-0.5c1-0.6,0.7-2.8-0.8-6.1c-1.5-3.3-2.6-4.7-2.6-8.1
		c0-3.4,2.3-10.9,3.7-13.4c1.4-2.5,4.6-4.1,5.9-7.1c1.2-3,1.9-10,1.4-15.3c-0.5-5.3-0.2-9.3,0.5-12.6c0.7-3.3,5.9-5.7,7.7-5.7
		c1.8,0,4,2.8,4.7,2.1c0.7-0.6-0.4-4.4-0.7-6.7c-0.3-2.2,0.5-5,2.6-8.1c2-3.1,7.4-6.1,7.9-6.8c0.6-0.8,0.2-1.5,0.5-3.1
		c0.3-1.7,2.1-4.7,2.6-5.8c0.5-1.1-0.8-2.8-1.1-4.2C612.5,362.3,612.5,359.3,612.5,356z M482.4,464.4c-0.3,1.2-1.1,4.1-3.1,5.4
		c-2,1.3-3,1.5-3.8,1.3c-1-0.3,0.7-2.7,2.1-4.7c1.4-2,2.9-4.5,3.7-4.5C482.2,461.9,482.6,463.2,482.4,464.4z M571.1,456
		c-1.6-0.8-3.8-2.8-3.5-2.8c0.4,0,2.2,0.4,2.5,0c0.2-0.4,0-1.5,0.3-1.5c0.3,0,1.1,3.2,4,4.3C574.4,456,572.7,456.8,571.1,456z"/>
	<path class="layout" data-layout="5" d="M535.1,406.5c2.3-1.5,4.3-4.4,4.7-5.6c0.4-1.3-1.5-1.4-1.8-1.8c-0.3-0.3,0.6-1.9,0.9-3.3c0.3-1.4,0.3-2.6-1-2.5
		c-1.3,0.1-5.5,5.1-6,7.5c-0.6,2.4,0.8,2.1,0.7,3.4c-0.1,1.4-1,2-1.4,2.9C530.3,408.8,532.8,407.9,535.1,406.5z"/>
	<path class="layout" data-layout="5" d="M451.6,480.9c-1.5-0.1-3.4,0.5-5.1,2.5c-1.7,2.1-0.6,4,0.1,4.9c0.8,1,2.3-0.2,3.1-1.3c0.8-1.1,0.2-1.8,0.3-3
		C450.3,483,452.3,481,451.6,480.9z"/>
	<path class="layout" data-layout="5" d="M437,480.7c0.7-0.8,1.2-1.4,0.5-1.9c-0.7-0.5-2.5-0.2-3-0.2c-1.4,0.1,0.1,1.4,0.9,2.1C436.2,481.3,436.3,481.5,437,480.7z"
		/>
	<path class="layout" data-layout="5" d="M432.6,481.9c-1.2-0.7-4,0.3-7.1,1.1c-3.1,0.8-3.7,3.4-4.2,4.3c-0.4,0.9-0.6,1.3-2.4,2c-1.7,0.8-6.5,0.4-8.5-0.7
		c-2-1.1-2.5-4.2-2.9-4.2c-1.2,0-3.9,3-5.9,4.3c-2.1,1.3-1.8,3.4-2,5.1c-0.2,1.7-5.9,3-7.6,3.6c-1.7,0.6-2,1.8-1.1,3.6
		c0.8,1.8,2.5,2.7,2.5,3.6c0,1-0.9,1.6-1.8,2.8c-0.9,1.2-0.8,3-0.2,4.7c0.7,1.7,3.4,2.1,3.6,3c0.2,0.9-1.5,2.3-1.5,3.4
		c0,1.1,1.5,1.7,3.5,2c2,0.3,3.3,2.2,4.6,1c1.4-1.2-0.1-5.5,0.5-6.7c0.6-1.3,8.8-8,10.1-9.3c1.3-1.3,5.8-3,7.4-3
		c1.5,0,5.3,3,6.8,4.3c1.5,1.3,2,5,2.8,4.9c0.8-0.1,0.8-3.7,1.5-4.8c0.8-1.1,3.6-2.5,6-4.3c2.4-1.8,6.1-3.8,6.2-5.5
		c0.1-1.8-0.1-7.2-1.5-8.8C440.1,486.6,433.8,482.6,432.6,481.9z"/>
	<path class="layout" data-layout="5" d="M382.2,509.8c-0.5-0.2-0.1-1.7-0.2-2.4c-0.1-0.8-1.1-0.7-1.4-1.1c-0.3-0.4-0.2-2.1-0.8-2.9c-0.6-0.7-4.7-0.7-5.5-0.9
		c-0.8-0.2-0.5-1.3,0-2.8c0.5-1.4,4.3-1.5,4.9-3c0.5-1.5-0.9-5.9-2.7-5.9c-1.7,0-4.2,1.7-6.4,1.9c-2.2,0.2-2.2-0.3-3.1-0.9
		c-0.9-0.7-0.3-3.3-1.2-5.2c-0.9-1.9-2.4-4.3-5.5-4.6c-3-0.3-5.7,1.7-6.8,3c-1.1,1.4-4.1,1.7-5.3,2.6c-1.3,0.9-1.1,1.7-1.7,2.1
		c-0.6,0.4-2.2,0.3-3.4,0.1c-1.2-0.3-2.4-2-3-2c-0.5,0.1-0.1,2.1-0.1,3c0,0.8-0.7,1.8-1.5,2.4c-0.8,0.6-2.1-1.4-2.9-1.1
		c-0.8,0.4-1,2.8-0.7,4c0.3,1.2,2.2,4.3,3.2,5.7c1.1,1.4,1.2,2.5,1.1,3.6c-0.1,1.1-1.7,0.8-2.3,0.7c-0.7-0.2-0.4-2-0.7-3.1
		c-0.3-1.1-1-2.7-2.1-2.6c-1.8,0.1-1.1,2.3-1.3,3.8c-0.1,1.5,0.8,2,1.7,3.2c0.8,1.1,0.4,1.3-0.7,2.3c-1,1,0,1.7,1.3,2.2
		c1.4,0.5,2.6-0.9,3.3-2c0.7-1.1,1.3-1.2,3.5-1.2c2.3,0,1.1,0,1.2,0.7c0.1,0.7-2.1,2.1-2,2.7c0.1,0.7,0.3,1.1,1.9,1.5
		c1.7,0.4,2.2-0.3,3.5-0.6c1.3-0.3,0.8-1.3,0.8-3c0-1.7-1.2-3.9-2-4.9c-0.8-1-0.4-3.4,0.1-4.1c0.4-0.7,2,0.1,3.1,1.4
		c1.1,1.3,1.1,2.4,1.2,3.9c0,1.5,1.4,2.3,2.3,3.3c0.9,0.9,0.1,1.2-0.5,2.7c-0.6,1.4-5.2,3.3-5.3,4c-0.1,0.7,1.7,1.2,3,2.1
		c1.3,0.9,0.2,1-0.1,2.3c-0.2,1.3-2.8,2.3-3.5,2.8c-0.6,0.5-0.4,2.2-0.7,2.7c-0.4,0.5-3.7-0.4-4.6,0.5c-0.9,1-0.4,3.7-0.8,5
		c-0.4,1.4-1.8,1.9-1.8,3c0,1,0.7,1.3,1.3,1.8c0.5,0.5,0.3,1.5,0.3,3.7c0,2.2-1.4,2.6-2.1,2.6c-0.7,0-1.4-1.5-2.4-0.9
		c-1.1,0.6,0.7,2.3,1,3.3c0.3,1-0.8,2-0.2,3.1c0.7,1.1,3.9,0,5.1,0c1.1,0,1,0.6,1.5,1.6c0.6,1,0.4,2.2,1.1,2.4c0.7,0.1,2-2,2-2.8
		c0.1-0.8-1.4-1.5-1.8-1.7c-0.4-0.2-0.4-1.5-0.4-3.6c0-2,1.5-4.3,2.6-5.5c1.1-1.1,3.9-0.8,4.5-0.5c0.6,0.3,0.2,0.8,0,2.4
		c-0.2,1.5-2,1.8-2.9,2.4c-0.8,0.7,0.5,3.3,0.9,4.7c0.3,1.4-0.6,2.1-0.9,3.4c-0.3,1.4-3.1,2.4-3.1,2.9c0,0.5,2.4,0.8,4.6,0.7
		c2.2-0.1,4.9-2.7,6-3.7c1.1-1.1,0.2-2.4-0.2-3.1c-0.4-0.6,0.4-1.5,1.1-1.9c0.7-0.4,1,0.5,2,1.8c0.9,1.4,0.7,2.8,1.4,2.8
		c0.7,0,0.8-1.3,1.3-2.4c0.4-1.1,3.8-4.6,4.9-6.8c1.1-2.3,0.8-3.3,1.4-7.4c0.6-4.1,7.5-12.5,9.4-15.6c1.9-3.1,8.1-7.1,8.9-8
		C385.6,510,382.7,510.1,382.2,509.8z"/>
	<path class="layout" data-layout="5" d="M341.1,520.6c1.1-2.2,1.4-4.2,0.2-4.4c-1.2-0.2-3.2,0.4-3.3,1.5c-0.1,1.1-0.6,4.8,0.2,5
		C338.9,522.8,340.1,522.7,341.1,520.6z"/>
</g>
</svg>