<svg xmlns="http://www.w3.org/2000/svg" xmlns:xlink="http://www.w3.org/1999/xlink" x="0px" y="0px" viewBox="0 0 1024 768" >
<path class="layout" data-layout="5" d="M564.6,408.4c0-22.6-18.3-41-41-41c-0.9,0-1.8,0-2.8,0.1c-1-7.7-1.9-15.1-2.8-22.1c8.1-6.4,16.2-12.7,22.8-19.2
	c25.9-25.5,19-64.6-8.5-63.7c-30.9,1-31.6,33.8-30.4,42.6c0.6,4.7,2.3,18.9,3.9,30.9c-0.6,0.5-1.2,0.9-1.6,1.2
	c-26.7,17.4-45.6,38.7-44.8,68.4c0.6,24.5,24,48.3,54.9,48.3c2.4,0.1,4.7-0.1,7-0.3c0.3,2.3,0.5,4.2,0.8,5.7
	c2.7,19.3-4.3,31.7-13.1,34.4c-8.9,2.7-17-0.4-18.6-3.5c-1.5-3.1,1.9-2.3,6.6-3.5c4.6-1.2,7.7-8.5,8.1-12.4c1-10-8.1-18.2-18.2-18.2
	c-10,0-16.9,8.2-18.2,18.2c-0.8,6.2,0.8,11.2,3.5,15.9c7.7,11.2,20.5,17,34.8,14.7c17.7-2.9,27.8-18.1,26.3-36.3
	c-0.3-3.2-1-9.3-1.9-17.3C550.8,444.6,564.6,426.1,564.6,408.4z M513.6,307.1c-2.3-24,13.9-33.3,24-25.7
	c11.7,8.9-7.6,32.1-21.7,45.8C514.8,318.3,514,311.3,513.6,307.1z M495,441.2c-19.3-10.4-21.3-40.6-9.7-61.8
	c5.3-9.8,13.9-18.3,23.3-26.2c0.5,2.4,1.3,8.4,2.4,16.5c-15.6,5.8-25.4,22-23.7,38.7c1.2,11.6,13,17.4,15.5,14.3
	c1.4-1.8-5.9-4.1-6.2-13.9c-0.2-6.2,4.3-13.5,10.4-18.6c1.9-1.5,4-2.8,6.2-3.7c2.4,19.4,5.1,42.8,7.1,58.7
	C512.4,446.6,503.5,445.8,495,441.2z M542.2,433.5c-2.3,3.2-6.6,6.4-11.9,8.8c-2-16.1-4.6-37-7.2-57.7c5.5,0.1,11.2,2,16.4,6
	C554.1,401.8,548.7,424.6,542.2,433.5z"/>
</svg>