<svg xmlns="http://www.w3.org/2000/svg" xmlns:xlink="http://www.w3.org/1999/xlink" x="0px" y="0px" viewBox="0 0 1024 768" >
<g>
	<polygon class="layout" data-layout="5" points="474.9,325.6 455.6,325.6 376.7,462.3 463.4,462.3 453.7,445.6 405.6,445.6 	"/>
	<polygon class="layout" data-layout="5" points="480.5,445.6 490.2,462.3 647.3,462.3 604,387.2 594.4,403.9 618.4,445.6 	"/>
	<polygon class="layout" data-layout="5" points="549.1,442.3 568.4,442.3 647.3,305.7 560.7,305.7 570.3,322.4 618.4,322.4 	"/>
	<polygon class="layout" data-layout="5" points="443.1,387.2 433.4,403.9 512,540.1 555,465.5 535.7,465.5 512,506.6 	"/>
	<polygon class="layout" data-layout="5" points="405.6,322.4 543.5,322.4 533.9,305.7 376.7,305.7 420,380.7 429.7,364 	"/>
	<polygon class="layout" data-layout="5" points="580.9,380.7 590.6,364 512,227.9 469,302.4 488.3,302.4 512,261.3 	"/>
</g>
</svg>