<svg xmlns="http://www.w3.org/2000/svg" xmlns:xlink="http://www.w3.org/1999/xlink" x="0px" y="0px" viewBox="0 0 1024 768" >
<path class="layout" data-layout="5" d="M578,290.6c-5.4-1.8-16.3-4.9-29.7,0.7c-14.7,6.1-25.8,23.4-38.9,66.6c-0.2,0.5-0.3,1-0.5,1.6h-40.9v17.8h35.7
	c-5.3,18-11.9,40.8-14.9,50.6c-4.7,15.3-20.8,47.2-38,37.8c-0.5-0.3-1.1-0.9,0.2-1.2c8.1-1.8,13.5-9.6,12.1-17.9
	c-1.4-8.6-10.6-16.8-22.3-12.9c-10.2,3.4-12.1,14.3-11.8,22c0.1,2.7,1.6,6.2,2.3,7.5c7.3,14.2,33.2,26,57.3,5.9
	c18-15,32-58.4,41.1-91.8h40.8v-17.8h-36.2c1.1-4.4,2.1-8.5,3-11.9c7.6-29.5,16.4-42.1,22.2-45c7.8-3.9,11.4,0.4,11.7,2.8
	c0.5,4-5.5,7.1-6.1,13c-0.6,5.9,4.3,13.4,13.4,13.4c9.1,0,16.5-7.4,16.5-16.5C595,305.8,589.6,294.4,578,290.6z"/>
</svg>