<svg xmlns="http://www.w3.org/2000/svg" xmlns:xlink="http://www.w3.org/1999/xlink" x="0px" y="0px" viewBox="0 0 1024 768" >
<path class="layout" data-layout="5" d="M594.2,350.9c-13.6,0-26.3,3.6-37.2,10c17.8-13.6,29.3-35,29.3-59.2c0-41.1-33.3-74.3-74.4-74.3
	c-41.1,0-74.3,33.3-74.3,74.3c0,24.1,11.5,45.6,29.3,59.2c-10.9-6.3-23.6-10-37.2-10c-41.1,0-74.4,33.3-74.4,74.4
	c0,41.1,33.3,74.3,74.4,74.3c34.3,0,63.2-23.3,71.8-54.9c-0.8,18.5-4.1,61.5-18.6,86.4c-6.3,10.2-1.6,9.4,2.3,9.4
	c3.9,0,22-0.8,26.7-0.8c4.7,0,22.8,0.8,26.8,0.8c3.9,0,8.7,0.8,2.4-9.4c-14.6-24.8-17.9-67.9-18.7-86.4
	c8.5,31.6,37.4,54.9,71.8,54.9c41.1,0,74.3-33.3,74.3-74.3C668.6,384.2,635.3,350.9,594.2,350.9z"/>
</svg>