<svg xmlns="http://www.w3.org/2000/svg" xmlns:xlink="http://www.w3.org/1999/xlink" x="0px" y="0px" viewBox="0 0 1024 768" >
<g>
	<path class="layout" data-layout="5" d="M512,543.4c-81.4,0-147.6-66.2-147.6-147.6c0-28.6,8.3-56.4,23.9-80.4c7.6-11.7,23.3-15,35.1-7.4
		c11.7,7.6,15.1,23.4,7.4,35.1c-10.3,15.8-15.7,34-15.7,52.7c0,53.4,43.4,96.9,96.9,96.9c53.4,0,96.9-43.4,96.9-96.9
		c0-18.7-5.4-37-15.7-52.7c-7.6-11.7-4.3-27.4,7.4-35.1c11.7-7.6,27.4-4.3,35.1,7.4c15.6,24,23.9,51.8,23.9,80.4
		C659.6,477.2,593.4,543.4,512,543.4L512,543.4z"/>
	<path class="layout" data-layout="5" d="M512,422.1c-14,0-25.3-11.3-25.3-25.3V249.9c0-14,11.3-25.4,25.3-25.4c14,0,25.3,11.4,25.3,25.4v146.8
		C537.3,410.7,526,422.1,512,422.1L512,422.1z"/>
</g>
</svg>