<svg xmlns="http://www.w3.org/2000/svg" xmlns:xlink="http://www.w3.org/1999/xlink" x="0px" y="0px" viewBox="0 0 1024 768" >
<path class="layout" data-layout="5" d="M305.6,239.8v288.3h412.7V239.8H305.6z M554,378.8l153.2-12.4v59.7l-154-28.4c0.7-4.1,1-8.2,1-12.4
	C554.2,383,554.1,380.9,554,378.8z M552.2,367.4c-1.2-5.1-2.9-10.1-5.1-14.7l160.1-84.9v61.7L552.2,367.4z M527.8,251h40.7
	l-53.3,66.9c-4.8-2.8-9.8-5-15.2-6.7L527.8,251z M443.5,314.9c-4.8,2.3-9.4,5-13.6,8.2L391.7,251h34.5L443.5,314.9z M434,450.2
	c4.3,2.8,8.8,5.2,13.6,7.1l-21,59.7h-35L434,450.2z M465.8,462.1c3.5,0.5,7.1,0.8,10.8,0.8c2.3,0,4.6-0.1,6.8-0.3l3.1,54.4h-29.6
	L465.8,462.1z M459.8,251h37l-15.4,56.7c-1.6-0.1-3.3-0.2-4.9-0.2c-4.4,0-8.7,0.4-12.8,1.1L459.8,251z M498.5,459.7
	c3.8-1.1,7.5-2.5,11.1-4.2l31.8,61.5h-30.8L498.5,459.7z M522.7,447.7c3.8-2.8,7.3-6,10.6-9.4L635.3,517H576L522.7,447.7z
	 M530.5,329.3l75.3-78.3h66.5l-130.5,92C538.5,338,534.7,333.4,530.5,329.3z M358.2,251l60.9,82c-4,4.4-7.5,9.2-10.4,14.5
	l-91.9-81.7V251H358.2z M398.9,386.2c0,2.9,0.2,5.8,0.6,8.6l-82.7,9.7v-31.9L398.9,386.2z M316.8,337.6v-32.5l85.6,57
	c-1.2,3.9-2.1,7.9-2.7,12L316.8,337.6z M402.5,408.5c0.9,2.9,2,5.7,3.2,8.4L316.8,469v-32.4L402.5,408.5z M316.8,512.3l96.7-81.8
	c2.6,3.6,5.5,7,8.7,10.1L360.8,517h-44V512.3z M694.6,517l-153.1-89.2c3.4-5.2,6.2-10.8,8.3-16.7l157.4,56V517H694.6z"/>
</svg>