<svg xmlns="http://www.w3.org/2000/svg" xmlns:xlink="http://www.w3.org/1999/xlink" x="0px" y="0px" viewBox="0 0 1024 768" >
<g>
	<path class="layout" data-layout="5" d="M402.8,384.9c-1.6,0.8,0.2,0.9,0.2,0.9c12.9-1.7,11-17.3,10.6-17.7c-0.3-0.3-2,3.5-7.6,6.3c-5.6,2.8-6.6,10.1-4.9,9.9
		c3.5-0.5,7.8-6.5,7.8-6.5C408.3,379.7,405.1,383.7,402.8,384.9z"/>
	<path class="layout" data-layout="5" d="M405,402.8c-1.5,0.9,0.3,0.9,0.3,0.9c13-2.3,10.2-18.1,9.8-18.4c-0.3-0.3-1.8,3.7-7.4,6.8c-5.5,3.1-6.2,10.6-4.5,10.2
		c3.5-0.7,7.6-7,7.6-7C410.3,397.2,407.2,401.5,405,402.8z"/>
	<path class="layout" data-layout="5" d="M465.2,287.9c0.1-0.4-3.7,0.3-8.6-2.4c-5-2.7-10.9,0.3-9.9,1.4c2.2,2.4,8.9,2.4,8.9,2.4c-1.7,0.5-6.4,0.1-8.5-0.9
		c-1.4-0.7-0.5,0.6-0.5,0.6C454.5,297.9,465.1,288.4,465.2,287.9z"/>
	<path class="layout" data-layout="5" d="M411.6,318.7c-1.1-2.1-1.5-7.1-1-8.9c0,0,0.1,7,2.6,9.3c1.2,1.1,4.4-5.2,1.5-10.4c-2.9-5.2-2.1-9.2-2.5-9.1
		c-0.5,0.1-10.5,11.4-1.2,19.6C411,319.3,412.4,320.2,411.6,318.7z"/>
	<path class="layout" data-layout="5" d="M410.3,328.3c3,1.5,9.6-1,9.6-1c-1.5,1.2-6.3,2.6-8.6,2.3c-1.7-0.2-0.3,0.8-0.3,0.8c11,5.6,17.9-7.7,17.9-8.2
		c-0.1-0.4-3.5,1.7-9.4,0.9C413.6,322.4,408.9,327.6,410.3,328.3z"/>
	<path class="layout" data-layout="5" d="M399.7,365.1c3.5,0.1,8.6-5.1,8.6-5.1c-0.9,1.8-4.7,5.1-7.1,5.9c-1.6,0.6,0.1,0.9,0.1,0.9c12.8,0.5,13.4-15,13.1-15.4
		c-0.2-0.4-2.5,3.1-8.4,4.9C400.2,358.1,398,365,399.7,365.1z"/>
	<path class="layout" data-layout="5" d="M422.4,304.8c-0.6-2.3,0-7.2,1-8.9c0,0-1.4,6.9,0.5,9.7c0.9,1.3,5.4-4.2,3.6-9.9c-1.7-5.7-0.1-9.4-0.6-9.4
		c-0.5,0-12.7,8.9-5.4,18.9C421.6,305.2,422.8,306.5,422.4,304.8z"/>
	<path class="layout" data-layout="5" d="M404.7,347.9c12.1,4,17-10.7,16.9-11.2c-0.1-0.4-3.3,2.3-9.4,2.4c-6.1,0.1-10.1,6.2-8.5,6.7c3.3,1,9.6-2.5,9.6-2.5
		c-1.4,1.4-6,3.6-8.4,3.7C403.2,347,404.7,347.9,404.7,347.9z"/>
	<path class="layout" data-layout="5" d="M437.6,290.5c-0.5-2.3,0.2-7,1.2-8.6c0,0-1.6,6.6,0.2,9.4c0.8,1.3,5.3-3.9,3.8-9.4c-1.5-5.6,0.2-9.1-0.3-9.1
		c-0.5,0-12.5,8.2-5.8,18.2C436.8,290.9,438,292.1,437.6,290.5z"/>
	<path class="layout" data-layout="5" d="M448.8,462c8.9-11.1-4.6-22-5.2-22c-0.5,0,1.1,4.3-1.1,10.8c-2.3,6.5,2.6,12.8,3.7,11.4c2.4-3.1,1.1-10.9,1.1-10.9
		c1,2,1.5,7.7,0.6,10.3C447.3,463.3,448.8,462,448.8,462z"/>
	<path class="layout" data-layout="5" d="M450.8,298c0.1-0.4-3.7,0.5-8.9-2.1c-5.2-2.6-11.1,0.8-10,1.9c2.3,2.3,9.1,2.1,9.1,2.1c-1.8,0.6-6.5,0.4-8.6-0.5
		c-1.5-0.7-0.5,0.7-0.5,0.7C440.2,308.6,450.7,298.4,450.8,298z"/>
	<path class="layout" data-layout="5" d="M420.1,312.5c2.9,1.6,9.7-0.5,9.7-0.5c-1.6,1.1-6.4,2.3-8.7,1.9c-1.7-0.3-0.3,0.8-0.3,0.8c10.8,6.2,18.3-6.9,18.2-7.4
		c0-0.4-3.6,1.5-9.4,0.4C423.6,306.7,418.7,311.7,420.1,312.5z"/>
	<path class="layout" data-layout="5" d="M421.2,436.5c12.3-6.3,4.8-21.3,4.3-21.5c-0.4-0.2-0.7,4.3-5.3,9.1c-4.6,4.8-3,12.5-1.4,11.7c3.3-1.8,5.4-9.3,5.4-9.3
		c0.1,2.1-1.8,7.4-3.6,9.3C419.4,437,421.2,436.5,421.2,436.5z"/>
	<path class="layout" data-layout="5" d="M433,450.3c11.3-7.9,1.8-21.7,1.3-21.9c-0.5-0.2-0.1,4.3-4,9.7c-3.9,5.4-1.2,12.8,0.2,11.7c3.1-2.2,4.1-10,4.1-10
		c0.4,2.1-0.8,7.5-2.2,9.7C431.2,451.2,433,450.3,433,450.3z"/>
	<path class="layout" data-layout="5" d="M411.7,421c12.6-4.5,7.2-19.9,6.7-20.2c-0.4-0.3-1.2,4-6.2,8.1c-5,4.1-4.4,11.7-2.8,11.1c3.4-1.3,6.4-8.3,6.4-8.3
		c-0.2,2.1-2.6,6.9-4.6,8.5C409.8,421.3,411.7,421,411.7,421z"/>
	<path class="layout" data-layout="5" d="M439.1,459.9c0,0,1.2-1.6-0.6-0.8c-2.6,1-8.2,0.9-10.3,0.1c0,0,7.9,0.7,10.8-1.8c1.4-1.2-5.3-5.6-11.6-2.9
		c-6.3,2.7-10.7,1.4-10.7,1.9C416.8,456.9,428.6,469.6,439.1,459.9z"/>
	<path class="layout" data-layout="5" d="M453.8,470.7c0,0,1-1.7-0.7-0.8c-2.4,1.4-8.2,2.1-10.4,1.5c0,0,8.4-0.4,10.9-3.4c1.2-1.4-6.4-4.9-12.4-1.3
		c-6,3.6-10.7,2.9-10.5,3.4C430.9,470.7,444.5,481.9,453.8,470.7z"/>
	<path class="layout" data-layout="5" d="M462.6,471.5c9.2-11.3-4.5-22.5-5.1-22.5c-0.5,0,1.1,4.4-1.3,11c-2.4,6.6,2.6,13.4,3.7,11.9c2.5-3.1,1.2-11.4,1.2-11.4
		c1,2,1.4,7.8,0.6,10.5C461.1,472.8,462.6,471.5,462.6,471.5z"/>
	<path class="layout" data-layout="5" d="M452.8,280.9c-0.4-2.2,0.5-6.8,1.5-8.4c0,0-1.8,6.4-0.1,9.2c0.8,1.3,5.4-3.6,4.1-9.1c-1.2-5.5,0.5-8.9,0.1-9
		c-0.5,0-12.6,7.5-6.4,17.6C452,281.2,453.1,282.5,452.8,280.9z"/>
	<path class="layout" data-layout="5" d="M472,272c2.9,0.9,8.3-2.1,8.3-2.1c-1.2,1.2-5.1,3.1-7.2,3.2c-1.5,0.1-0.1,0.8-0.1,0.8c10.4,3.4,14.6-9.2,14.5-9.6
		c-0.1-0.4-2.8,2-8.1,2.1C474.1,266.3,470.7,271.5,472,272z"/>
	<path class="layout" data-layout="5" d="M402.7,335.9c0,0,1.6,0.8,0.6-0.7c-1.4-2-2.5-7-2.1-9c0,0,1,7.2,3.8,9.2c1.3,1,3.8-5.9,0.2-10.8c-3.6-5-3.4-9.1-3.8-8.9
		C401,315.8,392.2,328.6,402.7,335.9z"/>
	<path class="layout" data-layout="5" d="M464.4,273.2c0-2.2,1.7-6.4,2.9-7.6c0,0-2.9,5.8-1.8,8.7c0.5,1.4,5.7-2.4,5.6-7.9c-0.2-5.5,2.1-8.3,1.7-8.4
		c-0.4-0.1-13.3,4.9-9.2,15.4C463.6,273.4,464.4,274.7,464.4,273.2z"/>
	<path class="layout" data-layout="5" d="M479.7,281.2c0.1-0.4-3.5-0.1-8-3.2c-4.5-3.1-10.5-0.9-9.6,0.3c1.8,2.5,8.2,3.3,8.2,3.3c-1.7,0.3-6.2-0.5-8-1.7
		c-1.3-0.9-0.6,0.6-0.6,0.6C468.4,289.6,479.6,281.6,479.7,281.2z"/>
	<path class="layout" data-layout="5" d="M395.3,376.5c0,0,1.8,0.1,0.3-0.9c-2.1-1.4-5-5.7-5.5-7.6c0,0,3.7,6.4,7.2,7.2c1.6,0.4,1.3-7-4-10.3c-5.3-3.3-6.7-7.3-7-7
		C385.9,358.3,382.6,373.7,395.3,376.5z"/>
	<path class="layout" data-layout="5" d="M397.6,353.9c0,0,1.8,0.3,0.4-0.8c-1.9-1.6-4.2-6.1-4.4-8.1c0,0,2.9,6.7,6.1,7.9c1.5,0.6,2.1-6.7-2.7-10.5
		c-4.8-3.8-5.6-7.9-6-7.6C390.6,335.1,385.6,349.7,397.6,353.9z"/>
	<path class="layout" data-layout="5" d="M424,447.5c0,0,1.5-1.2-0.4-0.9c-2.6,0.4-8-0.8-9.8-2.1c0,0,7.5,2.3,10.8,0.5c1.6-0.9-4-6.4-10.6-5.2
		c-6.6,1.3-10.5-0.9-10.5-0.4C403.5,440,412,454.5,424,447.5z"/>
	<path class="layout" data-layout="5" d="M398,393.8c0,0,1.7-0.6,0-0.9c-2.5-0.5-6.9-3.5-8-5.2c0,0,5.9,4.6,9.4,4.1c1.7-0.2-1.4-7.1-7.6-8.2c-6.3-1.1-9-4.4-9.2-4
		C382.4,380.2,385,396,398,393.8z"/>
	<path class="layout" data-layout="5" d="M411.7,432c0,0,1.7-1-0.2-1c-2.7,0-7.8-2.1-9.3-3.6c0,0,7,3.5,10.6,2.3c1.7-0.6-2.9-7-9.6-6.8c-6.7,0.2-10.2-2.6-10.3-2.2
		C392.7,421.2,398.7,436.9,411.7,432z"/>
	<path class="layout" data-layout="5" d="M404,413.7c0,0,1.7-0.8-0.1-1c-2.6-0.3-7.3-2.8-8.7-4.4c0,0,6.5,4.1,10,3.1c1.7-0.4-2.2-7-8.6-7.4c-6.4-0.4-9.6-3.4-9.8-3
		C386.7,401.6,391.1,417.2,404,413.7z"/>
	<path class="layout" data-layout="5" d="M585.2,307.4c0,0.5,7.5,13.5,18.2,7.4c0,0,1.3-1.1-0.3-0.8c-2.3,0.4-7.2-0.8-8.7-1.9c0,0,6.7,2.1,9.7,0.5
		c1.4-0.8-3.5-5.8-9.4-4.7C588.7,309,585.2,307,585.2,307.4z"/>
	<path class="layout" data-layout="5" d="M630.7,365.1c-5.3,3.3-5.7,10.6-4.1,10.3c3.5-0.8,7.2-7.2,7.2-7.2c-0.4,2-3.4,6.3-5.5,7.6c-1.5,1,0.3,0.9,0.3,0.9
		c12.7-2.8,9.4-18.2,9.1-18.6C637.4,357.8,636,361.8,630.7,365.1z"/>
	<path class="layout" data-layout="5" d="M595.2,322.4c-0.1,0.5,6.8,13.9,17.8,8.3c0,0,1.4-1-0.3-0.8c-2.4,0.2-7.1-1.1-8.6-2.3c0,0,6.6,2.5,9.6,1
		c1.4-0.7-3.3-5.9-9.2-5.1C598.6,324.1,595.2,322,595.2,322.4z"/>
	<path class="layout" data-layout="5" d="M600.2,305.7c1.9-2.8,0.6-9.7,0.6-9.7c0.9,1.7,1.6,6.6,0.9,8.9c-0.4,1.6,0.8,0.4,0.8,0.4c7.3-10-4.9-18.9-5.4-18.9
		c-0.4,0,1.2,3.7-0.6,9.4C594.9,301.6,599.3,307,600.2,305.7z"/>
	<path class="layout" data-layout="5" d="M618,356.5c-5.9-1.8-8.1-5.3-8.4-4.9c-0.3,0.4,0.3,15.9,13.1,15.4c0,0,1.7-0.3,0.1-0.9c-2.3-0.8-6.2-4.2-7.1-5.9
		c0,0,5.1,5.2,8.6,5.1C626,365.2,623.8,358.3,618,356.5z"/>
	<path class="layout" data-layout="5" d="M619,335.6c2.8-2,3.8-9.2,3.8-9.2c0.3,2-0.7,6.9-2.1,9c-1,1.4,0.6,0.7,0.6,0.7c10.5-7.2,1.8-20,1.3-20.2
		c-0.4-0.2-0.1,4-3.8,8.9C615.2,329.7,617.6,336.5,619,335.6z"/>
	<path class="layout" data-layout="5" d="M624.3,353c3.3-1.2,6.1-7.8,6.1-7.8c-0.2,2-2.6,6.5-4.4,8.1c-1.3,1.1,0.4,0.8,0.4,0.8c12-4.2,7-18.8,6.6-19.1
		c-0.3-0.3-1.2,3.8-6,7.6C622.2,346.4,622.7,353.6,624.3,353z"/>
	<path class="layout" data-layout="5" d="M610.8,319.3c2.5-2.3,2.6-9.3,2.6-9.3c0.6,1.8,0.1,6.8-1,8.9c-0.8,1.5,0.7,0.6,0.7,0.6c9.3-8.3-0.7-19.5-1.2-19.6
		c-0.4-0.1,0.4,3.9-2.6,9.1C606.5,314.1,609.6,320.4,610.8,319.3z"/>
	<path class="layout" data-layout="5" d="M593.5,450c1.4,1,4.1-6.3,0.3-11.7c-3.9-5.4-3.6-9.9-4-9.7c-0.5,0.2-10.1,14,1.2,21.9c0,0,1.7,0.8,0.7-0.7
		c-1.5-2.2-2.6-7.6-2.2-9.7C589.4,440,590.4,447.8,593.5,450z"/>
	<path class="layout" data-layout="5" d="M624.6,392c3.6,0.5,9.4-4.1,9.4-4.1c-1.1,1.7-5.5,4.6-8,5.1c-1.8,0.4,0,0.9,0,0.9c13,2.1,15.6-13.6,15.4-14.1
		c-0.2-0.4-3,2.9-9.2,3.9C626,384.9,622.9,391.7,624.6,392z"/>
	<path class="layout" data-layout="5" d="M620.6,402.4c1.7,0.3,1-7.1-4.5-10.2c-5.5-3.1-7-7.1-7.4-6.8c-0.4,0.4-3.1,16.1,9.8,18.4c0,0,1.8,0,0.3-0.9
		c-2.2-1.3-5.3-5.5-5.8-7.5C613.1,395.4,617.1,401.7,620.6,402.4z"/>
	<path class="layout" data-layout="5" d="M622.8,384.5c1.7,0.2,0.7-7.1-4.9-9.9c-5.6-2.8-7.3-6.7-7.6-6.3c-0.3,0.4-2.3,16.1,10.6,17.7c0,0,1.8-0.1,0.3-0.9
		c-2.2-1.2-5.5-5.2-6.1-7.1C615,377.9,619.3,384,622.8,384.5z"/>
	<path class="layout" data-layout="5" d="M614.5,420c1.6,0.6,2.3-7-2.8-11.1c-5-4.1-5.9-8.3-6.2-8.1c-0.4,0.3-5.9,15.7,6.7,20.2c0,0,1.8,0.3,0.5-0.8
		c-2-1.7-4.4-6.5-4.6-8.5C608.2,411.7,611.1,418.7,614.5,420z"/>
	<path class="layout" data-layout="5" d="M605.1,435.8c1.6,0.8,3.2-6.8-1.4-11.7c-4.6-4.8-4.9-9.3-5.3-9.1c-0.5,0.3-8.1,15.3,4.3,21.6c0,0,1.8,0.6,0.6-0.8
		c-1.8-2-3.6-7.2-3.6-9.3C599.7,426.4,601.8,434,605.1,435.8z"/>
	<path class="layout" data-layout="5" d="M620.4,345.9c1.6-0.5-2.4-6.6-8.5-6.7c-6.1-0.1-9.3-2.8-9.4-2.4c-0.1,0.5,4.7,15.2,16.8,11.2c0,0,1.6-0.8-0.2-0.9
		c-2.4-0.1-7.1-2.3-8.4-3.7C610.7,343.4,617,346.9,620.4,345.9z"/>
	<path class="layout" data-layout="5" d="M570.3,468.1c2.6,3,10.9,3.4,10.9,3.4c-2.2,0.6-7.9-0.2-10.4-1.5c-1.7-1-0.7,0.8-0.7,0.8c9.2,11.2,22.9,0.1,23.1-0.5
		c0.1-0.5-4.5,0.2-10.5-3.4C576.7,463.2,569.1,466.7,570.3,468.1z"/>
	<path class="layout" data-layout="5" d="M582.2,296c-5.2,2.6-9,1.6-8.9,2.1c0.1,0.5,10.5,10.6,18.9,2.1c0,0,1-1.4-0.5-0.7c-2.1,1-6.9,1.1-8.7,0.5
		c0,0,6.8,0.2,9.2-2.1C593.4,296.8,587.4,293.4,582.2,296z"/>
	<path class="layout" data-layout="5" d="M551.2,273.8c0,0,1.4-0.7-0.1-0.8c-2.1-0.1-6.1-2-7.2-3.2c0,0,5.4,3,8.3,2.1c1.3-0.4-2.1-5.6-7.3-5.7
		c-5.3-0.1-7.9-2.4-8.1-2.1C536.6,264.7,540.8,277.3,551.2,273.8z"/>
	<path class="layout" data-layout="5" d="M596.5,454.6c-6.3-2.7-13,1.7-11.6,2.9c2.9,2.6,10.8,1.9,10.8,1.9c-2,0.8-7.7,0.9-10.3-0.1c-1.8-0.7-0.6,0.8-0.6,0.8
		c10.5,9.7,22.2-3,22.3-3.6C607.2,456,602.8,457.3,596.5,454.6z"/>
	<path class="layout" data-layout="5" d="M627.3,404.2c-6.4,0.4-10.3,7-8.6,7.4c3.5,0.9,10-3.1,10-3.1c-1.4,1.6-6.1,4.1-8.6,4.3c-1.8,0.2-0.1,1-0.1,1
		c12.9,3.6,17.3-12.1,17.2-12.6C636.9,400.8,633.8,403.8,627.3,404.2z"/>
	<path class="layout" data-layout="5" d="M609.9,440c-6.6-1.3-12.1,4.3-10.6,5.2c3.3,1.9,10.8-0.5,10.8-0.5c-1.8,1.2-7.1,2.5-9.8,2.1c-1.9-0.3-0.4,0.9-0.4,0.9
		c12,7,20.5-7.5,20.4-8.1C620.3,439.1,616.4,441.3,609.9,440z"/>
	<path class="layout" data-layout="5" d="M620.7,423c-6.7-0.2-11.2,6.2-9.6,6.8c3.6,1.3,10.6-2.2,10.6-2.2c-1.5,1.5-6.6,3.6-9.3,3.6c-1.9,0-0.2,1-0.2,1
		c12.9,4.9,19-10.8,18.8-11.3C631,420.4,627.4,423.2,620.7,423z"/>
	<path class="layout" data-layout="5" d="M565.1,477.2c-5.6-4.4-13.6-2.3-13.2-0.7c-1.7,0.3-3.8,0.7-6.1,1.2c2.2-1.4,5.5-5.7,5.3-10.9c-0.4-7.4,2.6-11.5,2.1-11.6
		c-0.6-0.1-17.9,7-12.1,21.3c0,0,1.1,1.8,1.1-0.3c-0.1-3,2.1-8.7,3.8-10.5c0,0-3.6,8.1-2.1,12c0,0.1,0.1,0.2,0.2,0.2
		c-9,2-21.1,5.5-32,11.4c-10.9-5.9-23-9.4-32-11.5c0.1-0.1,0.1-0.1,0.2-0.2c1.5-3.9-2.1-12-2.1-12c1.6,1.8,3.8,7.5,3.8,10.5
		c0,2.1,1.1,0.3,1.1,0.3c5.9-14.3-11.5-21.5-12.1-21.4c-0.5,0.1,2.5,4.1,2.1,11.6c-0.3,5.2,3,9.4,5.2,10.9c-2.3-0.5-4.4-0.9-6.1-1.2
		c0.4-1.6-7.6-3.8-13.2,0.6c-5.9,4.6-10.9,4.4-10.7,4.9c0.2,0.6,16.1,10.6,24.4-2.4c0,0,0.9-2-0.8-0.7c-2.4,1.8-8.4,3.3-10.8,2.9
		c0,0,7.9-1.5,10.7-4.7c16.8,4.9,27.9,10.3,35.2,15.4c-4.3,2.8-8.3,5.9-11.7,9.6c0,0,7.1,0,7.9,7.9c0,0,0.3-5.9,8.9-13.5
		c8.6,7.6,8.9,13.5,8.9,13.5c0.9-7.9,7.9-7.9,7.9-7.9c-3.4-3.7-7.4-6.8-11.7-9.6c7.3-5,18.4-10.5,35.2-15.4
		c2.8,3.2,10.7,4.8,10.7,4.8c-2.4,0.3-8.4-1.2-10.8-3c-1.7-1.2-0.8,0.7-0.8,0.7c8.3,13,24.2,3,24.4,2.4
		C575.9,481.7,570.9,481.8,565.1,477.2z"/>
	<path class="layout" data-layout="5" d="M567.5,285.6c-5,2.7-8.7,2-8.6,2.4c0.1,0.5,10.8,10,18.7,1.2c0,0,0.9-1.4-0.5-0.7c-2,1-6.7,1.4-8.5,0.9
		c0,0,6.7-0.1,8.9-2.4C578.4,285.9,572.5,282.9,567.5,285.6z"/>
	<path class="layout" data-layout="5" d="M558.6,274.3c1.1-2.9-1.8-8.7-1.8-8.7c1.2,1.3,2.9,5.4,2.9,7.6c0,1.5,0.8,0.2,0.8,0.2c4.1-10.6-8.8-15.6-9.2-15.4
		c-0.4,0.1,1.9,3,1.7,8.4C552.9,271.9,558.1,275.6,558.6,274.3z"/>
	<path class="layout" data-layout="5" d="M577.7,462.2c1.1,1.5,6-4.9,3.7-11.4c-2.3-6.5-0.7-10.8-1.1-10.8c-0.6,0-14.1,10.9-5.2,22c0,0,1.5,1.3,0.9-0.5
		c-0.8-2.6-0.3-8.3,0.6-10.3C576.7,451.3,575.3,459.2,577.7,462.2z"/>
	<path class="layout" data-layout="5" d="M585.1,291.4c1.8-2.7,0.3-9.4,0.3-9.4c1,1.6,1.7,6.3,1.2,8.6c-0.4,1.6,0.8,0.4,0.8,0.4c6.8-9.9-5.3-18.2-5.7-18.2
		c-0.4,0,1.2,3.5-0.3,9.1C579.8,287.6,584.2,292.7,585.1,291.4z"/>
	<path class="layout" data-layout="5" d="M552.4,278c-4.5,3.1-8.1,2.8-8,3.2c0.1,0.4,11.3,8.4,18-0.8c0,0,0.7-1.4-0.6-0.6c-1.8,1.2-6.3,2.1-8,1.7
		c0,0,6.4-0.8,8.2-3.2C562.9,277.2,556.9,274.9,552.4,278z"/>
	<path class="layout" data-layout="5" d="M570,281.8c1.7-2.8-0.1-9.2-0.1-9.2c1,1.5,1.9,6.1,1.5,8.4c-0.3,1.6,0.8,0.3,0.8,0.3c6.2-10-5.9-17.6-6.4-17.6
		c-0.4,0,1.3,3.4,0.1,9C564.6,278.2,569.2,283.1,570,281.8z"/>
	<path class="layout" data-layout="5" d="M563.9,471.9c1.1,1.5,6.1-5.3,3.8-11.9c-2.4-6.6-0.7-11-1.2-11c-0.6,0-14.3,11.2-5.1,22.5c0,0,1.5,1.3,0.9-0.5
		c-0.9-2.7-0.4-8.5,0.6-10.5C562.8,460.5,561.5,468.8,563.9,471.9z"/>
</g>
</svg>