<svg xmlns="http://www.w3.org/2000/svg" xmlns:xlink="http://www.w3.org/1999/xlink" x="0px" y="0px" viewBox="0 0 1024 768" >
<g>
	<path class="layout" data-layout="5" d="M513.8,298.8c11.8,0,21.4-9.6,21.4-21.4c0-11.8-9.6-21.4-21.4-21.4c-11.8,0-21.4,9.6-21.4,21.4
		C492.4,289.2,502,298.8,513.8,298.8z"/>
	<path class="layout" data-layout="5" d="M540.1,304.8h-56.2c-10.4,0-21.6,11.3-21.6,21.6v71.9c0,5.2,4.2,9.4,9.4,9.4c5.2,0,9.4-4.2,9.4-9.4v-59.1h4.3v160.4
		c0,6.8,5.5,12.3,12.3,12.3c6.8,0,12.3-5.5,12.3-12.3v-93.1h4v93.1c0,6.8,5.5,12.3,12.3,12.3c6.8,0,12.3-5.5,12.3-12.3V339.2h4.3
		v59.1c0,5.2,4.2,9.4,9.4,9.4c5.2,0,9.4-4.2,9.4-9.4v-71.9C561.7,316.1,550.5,304.8,540.1,304.8z"/>
</g>
</svg>