<svg xmlns="http://www.w3.org/2000/svg" xmlns:xlink="http://www.w3.org/1999/xlink" x="0px" y="0px" viewBox="0 0 1024 768" >
<path class="layout" data-layout="5" d="M513.7,511l36-24.4l14.9-10.7l15.9-7.1l40-19.4l2.3-1.3l-3.3-45.7l-1.8-18.2l1.8-17.3l3.3-46.6l-2.9-1.7l-38.5-18.7
	l-16.7-7.6l-14.1-10.2l-36.2-24.5l-2.3-1.4l-7.4,4.3l-31.1,21.1l-14.9,10.7l-15.9,7.1L408.2,316l-7,4.1v10.5l2.5,35.2l1.8,18.2
	l-1.8,17.3l-2.5,35.9V448l6.2,3.6l34.5,16.7l16.7,7.6l14.1,10.2l32.4,21.9l7,4L513.7,511z M600.1,439.5L516,488v-12.3l73.5-42.4
	L600.1,439.5z M516,445.3v-12.9l35.9-20.7l11.2,6.4L516,445.3z M571.1,422.7l10.4,6L516,466.5v-12L571.1,422.7z M508,377.1l-9.7-5.6
	l9.7-5.6V377.1z M516,365.9l9.7,5.6l-9.7,5.6V365.9z M486.3,373.8v20.4l-10.2,5.9v-32.3L486.3,373.8z M504,384l-9.7,5.6l0-11.2
	L504,384z M529.7,378.4v11.2L520,384L529.7,378.4z M498.3,396.5l9.7-5.6v11.2L498.3,396.5z M516,390.9l9.7,5.6l-9.7,5.6V390.9z
	 M537.7,394.2v-20.4l10.2-5.9v32.2L537.7,394.2z M555.9,363.3l11.1-6.4v54.4l-11.1-6.4V363.3z M543.9,360.9l-10.2,5.9L516,356.6
	v-11.8L543.9,360.9z M508,356.6l-17.7,10.2l-10.2-5.9l27.9-16.1V356.6z M468.1,363.3v41.5l-11.2,6.4v-54.4L468.1,363.3z
	 M480.1,407.1l10.2-5.9l17.7,10.2v11.8L480.1,407.1z M516,411.4l17.7-10.2l10.2,5.9L516,423.2V411.4z M575.1,415.8l0-63.6l10.4-6
	v75.6L575.1,415.8z M563.1,349.9l-11.2,6.4L516,335.6v-12.9L563.1,349.9z M516,313.5v-12l65.5,37.8l-10.4,6L516,313.5z M508,313.5
	l-55.1,31.8l-10.4-6l65.4-37.8V313.5z M508,322.7v12.9l-35.9,20.7l-11.2-6.4L508,322.7z M448.9,352.2v63.6l-10.4,6v-75.6
	L448.9,352.2z M460.9,418.1l11.2-6.4l35.9,20.7v12.9L460.9,418.1z M508,454.5v12l-65.4-37.8l10.4-6L508,454.5z M604.1,432.6
	l-10.6-6.1v-84.8l10.6-6.1V432.6z M600.1,328.5l-10.6,6.1L516,292.2V280L600.1,328.5z M423.9,328.5L508,280v12.3l-73.4,42.4
	L423.9,328.5z M419.9,335.4l10.7,6.1v84.8l-10.7,6.1V335.4z M423.9,439.5l10.6-6.1l73.5,42.4V488L423.9,439.5z"/>
</svg>