<svg xmlns="http://www.w3.org/2000/svg" xmlns:xlink="http://www.w3.org/1999/xlink" x="0px" y="0px" viewBox="0 0 1024 768" >
<polygon class="layout" data-layout="5" points="619.8,430.8 614.5,427.7 608.7,430.2 597.4,423.6 589.9,424.3 580.3,419.1 593.7,414 597,407.6 589.4,404 
	567.8,411.6 562.6,408.2 568.7,405.6 569.3,400.9 563.6,398.4 551.2,401.2 544.7,397.5 549.9,395.5 551.6,392.5 547.4,390.4 
	539.7,393.2 531.1,388.2 523.8,384 531.1,379.8 539.7,374.8 547.4,377.6 551.6,375.5 549.9,372.5 544.7,370.5 551.2,366.8 
	563.6,369.6 569.3,367.1 568.7,362.4 562.6,359.8 567.8,356.4 589.4,364 597,360.4 593.7,354 580.3,348.9 589.9,343.7 597.4,344.4 
	608.7,337.8 614.5,340.3 619.8,337.2 620.5,332.8 624.8,330.3 624.5,319.1 614.9,313.1 610.6,315.6 606.5,314 601.1,317.1 
	600.3,323.3 589,329.8 585.8,336.7 576.6,342.4 578.8,328.2 575,322.2 568,326.9 563.8,349.4 558.3,352.3 559.1,345.7 555.3,342.8 
	550.2,346.5 546.5,358.7 540.1,362.4 540.9,356.9 539.1,354 535.3,356.6 533.8,364.6 525.2,369.6 517.9,373.8 517.9,365.4 
	517.9,355.4 524.1,350.1 524.4,345.5 521,345.5 516.7,348.9 516.7,341.4 525.4,332.1 526,325.9 521.6,324 516.3,328.1 516,321.9 
	533.4,307 534.1,298.6 526.9,298.3 515.7,307.3 516,296.4 520.4,290.2 520.4,277.1 525.4,273.4 525.4,267.2 521.9,264.4 
	521.9,259.4 512,254.2 502.1,259.4 502.1,264.4 498.6,267.2 498.6,273.4 503.6,277.1 503.6,290.2 508,296.4 508.3,307.3 
	497.1,298.3 489.9,298.6 490.6,307 508,321.9 507.7,328.1 502.4,324 498,325.9 498.6,332.1 507.3,341.4 507.3,348.9 503,345.5 
	499.6,345.5 499.9,350.1 506.1,355.4 506.1,365.4 506.1,373.8 498.8,369.6 490.2,364.6 488.7,356.6 484.9,354 483.1,356.9 
	483.9,362.4 477.5,358.7 473.8,346.5 468.7,342.8 464.9,345.7 465.8,352.3 460.2,349.4 456,326.9 449,322.2 445.2,328.2 
	447.4,342.4 438.2,336.7 434.9,329.8 423.6,323.3 422.9,317.1 417.5,314 413.4,315.6 409.1,313.1 399.5,319.1 399.2,330.3 
	403.5,332.8 404.2,337.2 409.5,340.3 415.3,337.8 426.6,344.4 434.1,343.7 443.7,348.9 430.3,354 427,360.4 434.6,364 456.2,356.4 
	461.4,359.8 455.3,362.4 454.7,367.1 460.4,369.6 472.8,366.8 479.3,370.5 474.1,372.5 472.4,375.5 476.6,377.6 484.3,374.8 
	492.9,379.8 500.2,384 492.9,388.2 484.3,393.2 476.6,390.4 472.4,392.5 474.1,395.5 479.3,397.5 472.8,401.2 460.4,398.4 
	454.7,400.9 455.3,405.6 461.4,408.2 456.2,411.6 434.6,404 427,407.6 430.3,414 443.7,419.1 434.1,424.3 426.6,423.6 415.3,430.2 
	409.5,427.7 404.2,430.8 403.5,435.2 399.2,437.7 399.5,448.9 409.1,454.9 413.4,452.4 417.5,454 422.9,450.9 423.6,444.7 
	434.9,438.2 438.2,431.3 447.4,425.6 445.2,439.8 449,445.8 456,441.1 460.2,418.6 465.8,415.7 464.9,422.3 468.7,425.2 
	473.8,421.5 477.5,409.3 483.9,405.6 483.1,411.1 484.9,414 488.7,411.4 490.2,403.4 498.8,398.4 506.1,394.2 506.1,402.6 
	506.1,412.6 499.9,417.9 499.6,422.5 503,422.5 507.3,419.1 507.3,426.6 498.6,435.9 498,442.1 502.4,444 507.7,439.9 508,446.1 
	490.6,461 489.9,469.4 497.1,469.7 508.3,460.7 508,471.6 503.6,477.8 503.6,490.9 498.6,494.6 498.6,500.8 502.1,503.6 
	502.1,508.6 512,513.8 521.9,508.6 521.9,503.6 525.4,500.8 525.4,494.6 520.4,490.9 520.4,477.8 516,471.6 515.7,460.7 
	526.9,469.7 534.1,469.4 533.4,461 516,446.1 516.3,439.9 521.6,444 526,442.1 525.4,435.9 516.7,426.6 516.7,419.1 521,422.5 
	524.4,422.5 524.1,417.9 517.9,412.6 517.9,402.6 517.9,394.2 525.2,398.4 533.8,403.4 535.3,411.4 539.1,414 540.9,411.1 
	540.1,405.6 546.5,409.3 550.3,421.5 555.3,425.2 559.1,422.3 558.3,415.7 563.8,418.6 568,441.1 575,445.8 578.8,439.8 
	576.6,425.6 585.8,431.3 589.1,438.2 600.3,444.7 601.1,450.9 606.5,454 610.6,452.4 614.9,454.9 624.5,448.9 624.8,437.7 
	620.5,435.2 "/>
</svg>