<svg xmlns="http://www.w3.org/2000/svg" xmlns:xlink="http://www.w3.org/1999/xlink" x="0px" y="0px" viewBox="0 0 1024 768" >
<path class="layout" data-layout="5" d="M625.1,443.3l-18.5-10.7l11.3-8.1c2.5-1.8,3.6-5.3,2.5-7.8c-1.1-2.5-4.1-3.1-6.6-1.3l-16.6,11.8l-10-5.8l11.3-8.1
	c2.5-1.8,3.6-5.3,2.5-7.8c-1.1-2.5-4.1-3.1-6.6-1.3l-16.6,11.8l-1-0.6v-63.2l1-0.6l16.6,11.8c2.5,1.8,5.4,1.2,6.6-1.3
	c1.1-2.5,0-6-2.5-7.8l-11.3-8.1l10-5.8l16.6,11.8c2.5,1.8,5.4,1.2,6.6-1.3c1.1-2.5,0-6-2.5-7.8l-11.3-8.1l18.5-10.7
	c2-1.1,2.4-4.1,1-6.5c-1.4-2.5-4.2-3.6-6.1-2.4l-18.5,10.7l-1.3-13.9c-0.3-3.1-2.7-5.8-5.5-6.1c-2.7-0.3-4.7,2-4.4,5l1.9,20.3
	l-10,5.8l-1.3-13.9c-0.3-3.1-2.7-5.8-5.5-6.1c-2.7-0.3-4.7,2-4.4,5l1.9,20.3l-1,0.6l-54.7-31.6v-1.2l18.5-8.5
	c2.8-1.3,3.8-4.1,2.1-6.3c-1.6-2.2-5.2-3-8-1.7l-12.7,5.8v-11.5l18.5-8.5c2.8-1.3,3.8-4.1,2.1-6.3c-1.6-2.2-5.2-3-8-1.7l-12.7,5.8
	v-21.3c0-2.3-2.3-4.1-5.2-4.1c-2.9,0-5.2,1.8-5.2,4.1v21.3l-12.7-5.8c-2.8-1.3-6.4-0.5-8,1.7c-1.6,2.2-0.7,5.1,2.1,6.3l18.5,8.5V300
	l-12.7-5.8c-2.8-1.3-6.4-0.5-8,1.7c-1.6,2.2-0.7,5.1,2.1,6.3l18.5,8.5v1.2l-54.7,31.6l-1-0.6l1.9-20.3c0.3-3.1-1.7-5.3-4.4-5
	c-2.7,0.3-5.2,3-5.5,6.1l-1.3,13.9l-10-5.8l1.9-20.3c0.3-3.1-1.7-5.3-4.4-5c-2.7,0.3-5.2,3-5.5,6.1l-1.3,13.9L404,315.7
	c-2-1.1-4.7,0-6.1,2.4c-1.4,2.5-1,5.4,1,6.5l18.5,10.7l-11.3,8.1c-2.5,1.8-3.6,5.3-2.5,7.8c1.1,2.5,4.1,3.1,6.6,1.3l16.6-11.8
	l10,5.8l-11.3,8.1c-2.5,1.8-3.6,5.3-2.5,7.8c1.1,2.5,4.1,3.1,6.6,1.3l16.6-11.8l1,0.6v63.2l-1,0.6l-16.6-11.8
	c-2.5-1.8-5.4-1.2-6.6,1.3c-1.1,2.5,0,6,2.5,7.8l11.3,8.1l-10,5.8L410,415.5c-2.5-1.8-5.4-1.2-6.6,1.3c-1.1,2.5,0,6,2.5,7.8
	l11.3,8.1l-18.5,10.7c-2,1.1-2.4,4.1-1,6.5c1.4,2.5,4.2,3.6,6.1,2.4l18.5-10.7l1.3,13.9c0.3,3.1,2.7,5.8,5.5,6.1
	c2.7,0.3,4.7-2,4.4-5l-1.9-20.3l10-5.8l1.3,13.9c0.3,3.1,2.7,5.8,5.5,6.1c2.7,0.3,4.7-2,4.4-5l-1.9-20.3l1-0.6l54.7,31.6v1.2
	l-18.5,8.5c-2.8,1.3-3.8,4.1-2.1,6.3c1.6,2.2,5.2,3,8,1.7l12.7-5.8v11.5l-18.5,8.5c-2.8,1.3-3.8,4.1-2.1,6.3c1.6,2.2,5.2,3,8,1.7
	l12.7-5.8v21.3c0,2.3,2.3,4.1,5.2,4.1c2.9,0,5.2-1.8,5.2-4.1v-21.3l12.7,5.8c2.8,1.3,6.4,0.5,8-1.7c1.6-2.2,0.7-5.1-2.1-6.3
	l-18.5-8.5V468l12.7,5.8c2.8,1.3,6.4,0.5,8-1.7c1.6-2.2,0.7-5.1-2.1-6.3l-18.5-8.5v-1.2l54.7-31.6l1,0.6l-1.9,20.3
	c-0.3,3.1,1.7,5.3,4.4,5c2.7-0.3,5.2-3,5.5-6.1l1.3-13.9l10,5.8l-1.9,20.3c-0.3,3.1,1.7,5.3,4.4,5c2.7-0.3,5.2-3,5.5-6.1l1.3-13.9
	l18.5,10.7c2,1.1,4.7,0,6.1-2.4C627.5,447.4,627.1,444.5,625.1,443.3z M571.1,412.1l-16.8-9.7v-36.8l16.8-9.7V412.1z M517.2,348.4
	l23.1,13.3L517.2,375V348.4z M506.8,375l-23.1-13.3l23.1-13.3V375z M501.6,384l-23.1,13.3v-26.6L501.6,384z M506.8,393v26.6
	l-23.1-13.3L506.8,393z M517.2,393l23.1,13.3l-23.1,13.3V393z M522.4,384l23.1-13.3v26.6L522.4,384z M565.9,346.9l-16.8,9.7
	l-31.9-18.4v-19.5L565.9,346.9z M506.8,318.8v19.5l-31.9,18.4l-16.8-9.7L506.8,318.8z M452.9,355.9l16.8,9.7v36.8l-16.8,9.7V355.9z
	 M458.1,421.1l16.8-9.7l31.9,18.4v19.5L458.1,421.1z M517.2,449.2v-19.5l31.9-18.4l16.8,9.7L517.2,449.2z"/>
</svg>