<svg xmlns="http://www.w3.org/2000/svg" xmlns:xlink="http://www.w3.org/1999/xlink" x="0px" y="0px" viewBox="0 0 1024 768" >
<path class="layout" data-layout="5" d="M678.9,434.5c-10.1-11.3-24.9-10.9-26.5-10.8c-1.7,0-31.2-0.9-34.7-18c-3.3-16.4,9.9-33.7,16.2-42c0.9-1.1,1.6-2.1,2.2-3
	c4-5.6,5.5-12,4-17.6c-1.7-6.6-7-12-15.9-16.3c-12.5-6-24.3-6.7-39.3-7.6c-9.1-0.6-19.4-1.2-31.5-3.2c-22.4-3.7-37.4-10.8-46.4-15
	c-6.9-3.3-10-4.7-12.1-2.1c-0.9,1.1-1.2,2.6-1,4.5c-7,0.7-29.8,1.6-64.4-8.5c-22.8-6.7-46.1-16-63.2-22.8
	c-23.8-9.5-26.9-10.6-29-8.2c-1.9,2.2-1.1,6.5-0.7,8.3c1.5,6,7.9,20.1,34.3,32.7c0.1,6.2,2.6,24.1,28.2,33.5
	c0.6,5.9,4.2,21.9,26,27.8c1.3,5.4,7.3,23.6,31.6,25c1.4,5.6,7.2,22.3,26,22.3c0.4,0,0.8,0,1.2,0c2.3,7.3,8.5,17.6,19.7,18.9
	c2,3.1,9.7,13.5,22.6,13.5c1.1,3,4.1,9.7,10.4,13.2c2.5,1.4,5.2,2.1,8,2.2c1.3,3.4,4.8,10.9,11.4,14.3c2.2,1.1,4.5,1.6,6.8,1.6
	c0.6,0,1.2,0,1.8-0.1c3.3,5.2,10.5,12.5,19.6,12.5c1.9,0,3.9-0.3,6-1c0.2-0.1,0.3-0.1,0.5-0.2c1.8,2.6,6.1,7,14.3,7
	c2.6,0,5.7-0.5,9.2-1.6c2.7,3.5,10,11.4,19.2,11.4c1.3,0,2.7-0.2,4.1-0.5c3.3-0.9,6.3-2,9.2-3.6c1.9,0.6,7.4,2.2,13.7,2.2
	c2.9,0,5.9-0.3,8.8-1.3c10.9-3.5,16.6-21.8,16.8-22.6c0-0.1,0.1-0.2,0.1-0.3C689.9,459.1,687.4,444.1,678.9,434.5z M668.6,470.5
	c-2.2-0.6-4-2.1-5.4-4.5c7.2-3,14.8-8.9,18.9-12.2c0.6,3.9,0.8,8.3,0.5,13C680,468.6,673.6,471.9,668.6,470.5z M680.8,448.3
	c-4.5,3.9-14.1,11.3-21.4,13.8c-0.3,0-0.5,0.1-0.8,0.2c-0.1,0-0.2,0.1-0.3,0.2c-1.2,0.3-2.4,0.5-3.4,0.5c-2.2-0.1-4.1-0.5-5.8-1
	c11.6-6.2,24.2-19.8,25.9-21.7c0.1-0.1,0.2-0.2,0.3-0.4c0.4-0.1,0.7-0.2,1.1-0.3C678.3,442.1,679.8,445,680.8,448.3z M562,336
	c0.6,0.1,1.3,0.1,1.9,0.2c-0.4,2.5-0.3,6.2,2.4,9.6c0.1,0.1,0.2,0.2,0.3,0.3c-2.2,1.1-8,3-20.6,1.1c-19.1-2.9-24.8-6.1-27.9-10.4
	c-1.9-2.6-3.1-7.2-3.8-10.9C528.9,332.4,545.8,334.5,562,336z M602,381.2c-0.5,1.3-1,2.7-1.5,4c-2.2,0.5-7.5,1.3-10.9-1.2
	c-1.9-1.4-2.9-3.4-3.5-5.3c1.8,0.7,3.7,1.2,5.9,1.4c1.1,0.1,2.1,0.2,3.1,0.2c3,0,5.6-0.5,7.7-1.1C602.5,380,602.3,380.6,602,381.2z
	 M611.5,352.2c0.3,2,0.1,4.3-0.6,6.8c-2.6,1-10.4,3.6-20,3c-6.3-0.4-9.4-1.3-11.3-2.6c0,0,0,0-0.1-0.1c-1.4-1-2-2.2-2.7-3.5
	l-0.1-0.2c-0.6-1.1-1.2-2.5-1.8-3.9c3.6,1.2,8.6,2.1,16.1,3.2c2.9,0.4,5.4,0.6,7.6,0.6C605.8,355.6,609.6,353.7,611.5,352.2z
	 M606,371.7c-0.2,0.4-0.3,0.8-0.5,1.1c-1.2,0.7-6.3,3.1-13,2.3c-6.6-0.7-10.4-3.8-11.5-9.6c2.4,0.7,5.4,1.2,9.5,1.5
	c1,0.1,2,0.1,3,0.1c6.2,0,11.6-1.1,15.2-2.2C608,367.1,607,369.3,606,371.7z M608.7,347.8c0,0-3.2,4.2-16.9,2.1
	c-16.4-2.5-18.5-3.5-21.5-7.3c-1.7-2.1-1.6-4.5-1.4-5.9c20.1,2.4,35,6.4,40,10.7C608.9,347.6,608.8,347.7,608.7,347.8z M520.3,346.7
	c0.1-0.3,0.2-0.7,0.2-1c0-0.1,0-0.1,0-0.2c5.2,2.9,12.8,5,24.8,6.8c4.1,0.6,7.6,0.9,10.5,0.9c7,0,11.1-1.4,13.3-2.5
	c0.8,2.3,2,5.3,3.1,7.4l0.1,0.1c0.2,0.4,0.4,0.7,0.6,1c-3,1.6-10.4,4.5-24.5,4.3c-19.4-0.4-24.8-4.5-27.5-8.6
	C519.7,353.2,519.8,349.8,520.3,346.7z M548.3,368.6c0.6,0,1.2,0,1.8,0c14.2,0,22-3.1,25.5-5.1c0.2,3,0.9,5.5,2,7.8
	c-2.2,1.6-8,5.1-17.6,5.4c-1.5,0-3,0.1-4.4,0.1c-10.7,0.3-17.7,0.6-22.5-2.3c-2.6-1.6-4.6-5.5-5.8-8.9
	C532.1,367.3,538.7,368.4,548.3,368.6z M546.9,382.1c2.7,0,5.7-0.1,9-0.2c1.4,0,2.9-0.1,4.4-0.1c10.3-0.3,16.9-3.9,20-6.1
	c0.2,1.9,0.7,5.1,2.5,8.1c-2.5,2-8.3,6-17.1,6.8l-1.8,0.2c-11.3,1-18.7,1.7-23.2-1.6c-3.3-2.4-4.7-5.3-5.5-8.3
	C538.5,381.8,542.3,382.1,546.9,382.1z M543.1,395.8c2.3,0.6,5,0.9,7.9,0.9c3.8,0,8.2-0.4,13.3-0.8l1.8-0.2
	c10.2-0.9,16.9-5.5,19.9-8c0.2,0.1,0.3,0.3,0.5,0.4c2.9,2.2,6.4,2.8,9.4,2.8c1,0,2-0.1,2.9-0.2c-0.1,0.4-0.2,0.8-0.3,1.1
	c-1.3,1.2-10.1,9-24,12c-16.5,3.6-22.5,3.6-27.1,0.1C544.8,401.9,543.7,398.5,543.1,395.8z M555.5,411.6c0.3,0,0.6,0,1,0
	c4.9,0,11.1-1.1,19.1-2.8c9.7-2.1,17.1-6.3,21.6-9.4c-0.3,3.6-0.2,7.3,0.8,10.7c-2.5,1.6-9.5,5.8-19,7.9c-12.5,2.7-16.1,0.9-19.7-2
	C557.6,414.7,556.4,413,555.5,411.6z M569.5,425c-0.1-0.2-0.2-0.4-0.4-0.6c0,0,0-0.1-0.1-0.1c2.9,0,6.5-0.5,10.9-1.4
	c9.4-2,16.5-5.9,19.9-8c1.4,2.7,3.5,5.3,6.3,7.7c-2.9,1.8-7.9,4.4-14.2,6.2l-0.3,0.1c-7.3,2-11.2,3.1-14.1,2.6
	c-0.2-0.1-0.3-0.1-0.5-0.1c-1.2-0.3-2.2-0.8-3.3-1.6C571.9,428.5,570.5,426.7,569.5,425z M582.1,436.5c3-0.4,6.5-1.4,10.8-2.6
	l0.3-0.1c8.4-2.4,14.6-6.1,17.3-7.9c2.3,1.4,4.5,2.7,6.7,3.9c-5.6,3.7-14.6,9.3-19.4,10.4C591.8,441.6,587,441.4,582.1,436.5z
	 M599.1,445c7-1.7,19.5-10.1,23.4-12.8c2.9,1.4,5.8,2.5,8.7,3.6c-5.4,5.2-14.7,13.1-20.9,14c-6.1,0.8-11.6-0.7-15.2-4
	C596.5,445.6,597.9,445.4,599.1,445z M636.7,437.6c3,0.8,6,1.5,9.2,2.1c-4.3,4.9-12.7,13.6-19.5,15.6c-4.8,1.4-9.4,0.5-13-0.9
	C622.4,451.6,633.2,441.2,636.7,437.6z M651.9,440.5c2.1,0.2,4.3,0.4,6.6,0.6c0.7,0.1,4,0.5,8.5,0.2c-7.4,7.4-19.8,18.1-27.2,18.6
	c-3.6,0.2-6.4-0.5-8.3-1.3C640.1,454.2,649,444,651.9,440.5z M505,305.7c9.2,4.3,24.5,11.6,47.7,15.4c12.4,2,22.8,2.7,32,3.2
	c14.4,0.9,25.8,1.6,37.4,7.1c7.4,3.6,11.9,7.9,13.1,12.9c1.5,5.9-1.8,11.3-3.2,13.4c-0.6,0.8-1.3,1.8-2.2,2.9
	c-6.8,8.9-21,27.4-17.2,46.1c4.4,21.5,38.2,22.1,39.7,22.1c0.1,0,0.1,0,0.2,0c0.1,0,11.2-0.6,19.8,6.6c-7.4,1.6-13.2,0.7-13.3,0.7
	c-0.1,0-0.2,0-0.3,0c-2.7-0.2-5.2-0.4-7.7-0.7c-0.1,0-0.2,0-0.2,0c-13.9-1.8-25.1-6-38.1-14c-0.2-0.1-0.4-0.3-0.6-0.4
	c-0.2-0.2-0.4-0.3-0.6-0.4c-10.8-7.4-12.2-18.6-4.9-37.3c1.3-3.3,2.6-6.4,3.9-9.4c4.8-11.2,8.7-20.1,3.9-27.6
	c-6-9.4-35.2-13.5-52-15.2c-16.4-1.6-33.6-3.7-47.8-10.4c-11-5.2-15.4-14.2-15.7-17.6C500.4,303.5,502.7,304.6,505,305.7z
	 M342.8,274.3c-1.3-2.9-1.6-4.9-1.6-6.1c3.7,0.9,13.7,4.9,23.3,8.7c17.1,6.9,40.6,16.2,63.6,23c37.1,10.9,60.7,9.4,67.2,8.6
	c2,4.7,6.2,10,12.4,14.1c-27,1-79.1-1.4-121.9-16.9c-3.8-1.4-7.3-2.8-10.5-4.3c-0.4-0.4-0.9-0.7-1.5-0.7c-0.1,0-0.1,0-0.2,0
	C352.9,290.8,345.4,280.3,342.8,274.3z M376.2,307.3c2.5,1.1,5.2,2.1,8,3.2c38,13.8,83.2,17.4,112.2,17.4c4.8,0,9.2-0.1,13-0.3
	c0.8,3.9,2.2,9,4.6,12.3c0.6,0.8,1.3,1.6,2,2.4c-0.1,0.4-0.2,0.8-0.3,1.3c-17.5,1.8-62.9,1.7-103.8-6.8c-3.1-0.6-5.9-1.4-8.5-2.2
	c-0.4-0.4-1-0.7-1.6-0.7c-0.1,0-0.2,0-0.3,0C380.8,326.5,376.8,313.6,376.2,307.3z M404.6,340.2c2,0.6,4.1,1.1,6.3,1.5
	c28,5.8,58.6,7.9,81.2,7.9c9.1,0,16.9-0.3,22.8-0.9c-0.2,3.1,0.1,6.6,1.7,9c0.8,1.2,1.8,2.5,3.1,3.6c-14.6,2.9-42.5,3.6-79.6,2
	C412,362.1,405.9,347.3,404.6,340.2z M430.8,367.5c2.8,0.5,5.8,0.8,9.1,0.9c11.2,0.5,23.8,0.9,36,0.9c17.9,0,35.2-0.8,46.2-3.2
	c1.1,3.6,3.2,8.5,6.7,11.6c-13.8,5.4-36.8,8.3-68.5,8.6c-0.2,0-0.3,0-0.5,0C439.4,386.2,432.8,373.7,430.8,367.5z M462.1,391.3
	c31.6-0.4,54-3.3,68.3-8.8c1,4,3.1,7.8,7.3,10.8c0.1,0.8,0.2,1.8,0.4,3.1c-8.7,4.9-29.8,9.7-52.4,11.9
	C469.3,409.9,463.7,397,462.1,391.3z M489.2,413c18.5-2,39.7-6.2,50.3-11.7c1,2.4,2.5,4.9,4.8,6.6c1.5,1.2,3.1,2,4.9,2.6
	c0.3,0.8,0.8,1.8,1.5,3c-7.8,3.8-25.6,11-42.1,13.6C496.6,429.1,491.2,418.3,489.2,413z M509.7,432.2c17.5-2.8,36.5-10.6,44.1-14.4
	c0.7,0.8,1.5,1.5,2.3,2.2c2.1,1.7,4.2,2.9,6.9,3.6c0.2,0.5,0.5,1.1,0.9,1.9c-5.5,4.6-17.3,10.8-32.3,14.7
	C520.4,443,513.1,436.4,509.7,432.2z M531.5,445.3c0.4-0.1,0.9-0.2,1.4-0.3c15.4-4,27.5-10.2,33.8-15.2c1.1,1.4,2.4,2.9,4,4.1
	c1.6,1.2,3.1,2,4.7,2.4c1,1.3,1.9,2.5,2.9,3.5c-3.4,2.9-14,11.3-27.9,15.5c-4.3,1.3-8.1,1.1-11.3-0.7
	C535,452.4,532.6,448,531.5,445.3z M558.4,471c-4.4-2.2-7.1-7.2-8.5-10.3c0.6-0.1,1.3-0.3,1.9-0.5c15.9-4.9,27.3-14.4,30.3-17.1
	c2.2,1.4,4.3,2.2,6.5,2.6c2.1,3.5,5.4,6.1,9.3,7.7c-0.5,0.4-1,0.8-1.6,1.1c-8.2,6.1-16,11.8-28.7,16.6
	C564.2,472.4,561.2,472.4,558.4,471z M570,475.7c13.1-5,21-10.8,29.4-17c1.5-1.1,3.1-2.3,4.7-3.4c0.1,0.1,0.2,0.1,0.3,0.2
	c2.5,1.5,7.7,4.7,14.3,5.5c-9.6,11.8-19.2,19.1-30.1,22.9C579.6,486.8,572.9,479.6,570,475.7z M595.6,486.3
	c10.6-4.9,20.1-13.1,29.6-25.6c1.6,1.3,6,4.2,13.1,4.2c0.6,0,1.2,0,1.8-0.1c0.8-0.1,1.6-0.2,2.4-0.4c0,0,0,0,0.1,0
	c-6.6,9.9-15,19.3-29.8,24.2C602.7,492.1,597.7,488.7,595.6,486.3z M636.3,499.7c-7.3,1.9-13.9-4.3-17-7.9
	c13.6-5.8,21.6-15.3,28-25.1c2.1,0.7,4.6,1.3,7.4,1.4c0.1,0,0.3,0,0.4,0c1,0,2-0.1,3.1-0.4c1.4,2.7,3.3,4.7,5.4,6.1
	C654.7,490.1,647.7,496.7,636.3,499.7z M667.7,497.1c-5.3,1.7-11.3,1-15.4,0.1c5.6-4.6,10.6-11.5,16.1-21.5c0.9,0.2,1.9,0.3,2.8,0.3
	c4.1,0,8-1.5,10.7-2.9c-0.2,1.6-0.5,3.3-0.8,5C679.7,482.7,674.6,494.9,667.7,497.1z"/>
</svg>