<svg xmlns="http://www.w3.org/2000/svg" xmlns:xlink="http://www.w3.org/1999/xlink" x="0px" y="0px" viewBox="0 0 1024 768" >
<g>
	<path class="layout" data-layout="5" d="M670.8,496.4l-4-4.9c0,0-1.9-2.3-4.1-2.4c-2.3-0.1-18.3,1.4-20.5,3.3c-2.2,1.9,19.7,7.3,27.4,6.4
		C669.6,498.8,672.7,498.8,670.8,496.4z"/>
	<path class="layout" data-layout="5" d="M661.7,484.2l0-2.9c0,0,1-4.3-7.2-4.4l3.6-2.4c0,0,2.6-1.7,0.9-3c-1.7-1.2-3.5-0.9-5.6-0.7c-2,0.2-16.2,3.9-27.3,4.6
		c0,0-5.5,0.3-4.8,2.8c0.6,2.5,12.8,6.7,35.3,7.9C656.6,486.1,661.7,487.1,661.7,484.2z"/>
	<path class="layout" data-layout="5" d="M510.1,353.9c0,0-15.2-4.4-31.3-12.7c-15.8-8.2-43.2-22.8-52.6-26.3c0,0-10.1-4.7-11.5-4.4c-1.4,0.3-0.6,3,3.7,7.2
		c4.3,4.1,30.6,34.1,104.7,56.6c0,0-12.5-1.7-16.5-2.9c-4-1.1-16.6-4.1-25.2-5.4c-8.5-1.3-16.3-2.5-19.8-2.9
		c-3.4-0.4-5.9-0.8-6.5-0.1c-0.6,0.7,7.4,10.4,30,17.6c23.3,7.4,31.4,9.4,31.4,9.4s-24.1-1.7-27-1.9c-2.9-0.2-8.4-0.7-8.7,1
		c-0.4,1.7,2.9,5.4,7.8,8c4.9,2.7,22.3,12.5,71.4,18.1c0,0-9.6,1.7-26.4,0.1c0,0-10-1.2-10.2,1.3c-0.2,2.5,8.5,10.4,28.2,13.1
		c20.3,2.8,31.5,3.3,43.7,3.7c0,0-3.6,5.2-23,5.6c0,0-13.2,0.1-11.7,3.6c1.4,3.5,24.6,10.5,67.2,10.1c0,0-5.3,4.4-24.9,6.4
		c0,0-12.3,1-6.5,4.1c0,0,20.1,11.3,55.1,4.5c0,0,6.2-0.8,7.8-8.8c1.6-8,1.6-7.9,13.9-18.1c0,0,2.8-1.1,2.6-5
		c-0.2-3.8-0.9-19.4-0.9-19.4s0.6-24-21.6-32.4c-21.8-8.1-52.2-19-57.3-21.1c-5.1-2-41.4-16.6-71.8-33.8
		c-29.5-16.6-40.3-25.2-60.1-43c0,0-3.3-3.8-5.6-3.1c-2.3,0.7-3.2,9.1,15.2,25.4c0,0-27.9-10.2-69-54.2c0,0-2.3-3.2-4.1-2.9
		c-1.9,0.3-1.5,6.3,2.2,13.3c3.7,6.9,14,22.4,30.6,39.8C450.2,321.8,480.8,340.2,510.1,353.9z M630.7,462.5
		c21.2-10.5,27.8-32.7,27.8-32.7C666.5,460.4,630.7,462.5,630.7,462.5z M602.7,440.8c28.3-5.2,46-20,46-20
		C638.9,446.7,602.7,440.8,602.7,440.8z M569.8,422.9c64.2-5,73.1-16.8,73.1-16.8C637.3,429.4,569.8,422.9,569.8,422.9z
		 M550.7,400.8c53,2.6,80.3-1.2,80.3-1.2C600.3,413.7,550.7,400.8,550.7,400.8z M535.3,382.1c26.7,4.6,84.7,11.6,84.7,11.6
		C599.1,401,535.3,382.1,535.3,382.1z M513.3,344.1l109.9,44.2c-59-3.4-92.3-21.9-92.3-21.9c42.4,12.5,54.6,11.8,54.6,11.8
		C544.3,363.6,513.3,344.1,513.3,344.1z"/>
	<path class="layout" data-layout="5" d="M632.4,516.6c0,0-4.7-0.5-4.9-5.7c-0.2-5.2-0.6-7.9,2.6-23.9c0,0,0.2-2,3.5-1.6c3.3,0.4,5.5,0.7,5.5,0.7s2.9,0.4,2.9,1.2
		c0,1-3,0.7-4,1c-1.1,0.2-3,0.7-2.3,3.5c0.7,2.8,4.9,4.9,6.5,5.4c1.6,0.5,4.2,0.7,4.1,2.2c-0.1,1.5-1,3.4-1,3.4l2.5-2.6
		c0,0,0.8-1.5,3.6-0.7c2.8,0.9,2.6,1.8,2.2,3.1C653.2,504,644.7,519,632.4,516.6z"/>
	<path class="layout" data-layout="5" d="M580,509c0,0-2.3-0.8-0.7-4.2c1.7-3.4,21.5-33.3,21.5-33.3s0.9-2.5,4.7-1.8c3.7,0.8,3.4,2.1,3.7,2.8
		c0.3,0.7-2.2,8.6-6.1,16c0,0,3.1-0.9,6-8.2c0,0,0.4-2.3,4.2-1.4c3.8,0.9,3.4,1.6,3.3,2.4c-0.1,0.8-1.4,19.1-31.2,27.9
		C585.3,509.2,581.7,509.8,580,509z"/>
	<path class="layout" data-layout="5" d="M572.3,474.2c0,0,7.4-3.6,12.3-8.3c0,0,1.8-2.2,4.2-1.3c2.4,1,4.1,1.7,4.1,1.7s2.5,1,1.1,3c-1.4,2-19.1,24.9-58.5,24.5
		c0,0-3.1-0.2-3.4-0.8c-0.3-0.6-1-0.8,2.1-2.7c3.2-2,23.1-20.9,46.8-35c0,0,2.5-2,4.4-1.6c1.9,0.4,1.9,0.4,1.9,0.4s3.3,0.7,1.8,2.3
		C588.1,457.9,584.2,464,572.3,474.2z"/>
	<path class="layout" data-layout="5" d="M539.6,461.3c0,0,10.2-2.2,23-10.5c0,0,1.9-1.6,4.2-1.2c2.7,0.5,7.2,1.4,7.2,1.4s3.4,0.6,1.9,2
		c-1.4,1.4-42.6,28.5-78.6,22.2c0,0-5.3-0.9-6.4-1.9c-1-1-1.3-2.6,0.5-3.9c1.8-1.3,35.4-17.7,59.5-23.3c0,0,3.4-1.2,6-0.5
		c2.6,0.7,3.6,1.1,3.6,1.1s2.9,0.8,0.8,1.9C559,449.7,549.5,457,539.6,461.3z"/>
	<path class="layout" data-layout="5" d="M514.6,443.5c0,0,12.1-0.9,27.1-7.9c0,0,5.2-2.7,8.8-2.3c3.6,0.4,10.7,1.9,10.7,1.9s6.7,1.4,2.7,2.2
		c-4,0.8-8.5,1.1-9.8,2.8c-1.2,1.7-1.7,2.3-3.7,3.1c-2,0.8-52.6,20.9-93,6.8c0,0-4.6-1.6-5-2.6c-0.5-1-0.6-2.5,2.7-3.3
		c3.3-0.8,11.7-1.3,22.4-4c10.8-2.8,46.7-10.1,47.9-10.3c1.1-0.2,3.3-0.7,5.9-0.3c2.6,0.4,5.3,1.1,7.8,1.5c2.5,0.3,6.1,0.9,1,2.7
		C534.9,435.4,520.5,441.4,514.6,443.5z"/>
	<path class="layout" data-layout="5" d="M482.6,422.8c0,0,5.8,0.2,14.2-1.1c8.5-1.3,15.8-2.7,15.8-2.7s2.2-0.2,2.4-1.5c0.3-1.3-0.6-1.8,0.8-3.8
		c0,0,1.2-2.3-2.9-2.4c-4.1,0-28,0.2-37.2,1c-9,0.8-39,0.4-68-1.6c0,0-4.5-0.7-4.6,0.1c-0.1,0.8,2.3,2.6,4.8,3.8
		c2.4,1.2,28.3,10.4,59.8,13.8c33.1,3.6,53.9-2,53.9-2s4.2-0.4,2.6-2.4l-2.3-1.9c0,0-2.6-2.1-7.7-1.5
		C509,421.3,492.3,425.4,482.6,422.8z"/>
	<path class="layout" data-layout="5" d="M460.4,397.2l18.5,1.3c0,0,5,0.5,2.4-2c-2.6-2.5-2.3-1.8-5.7-5c0,0-1.7-2.5-5.2-2.8c-3.5-0.3-56.6-6.9-94.1-16.2
		c0,0-5.1-1.4-5.8-0.9c-0.7,0.5,0.9,2.4,3.9,4.2c3,1.9,44.3,28.7,117,30c0,0,5.8,0.3,3.5-1c-2.3-1.3-4.8-2.5-4.8-2.5
		s-2.6-1.6-6.4-1.9C479.8,400.1,470,399,460.4,397.2z"/>
	<path class="layout" data-layout="5" d="M465.9,384.2c0,0,5.3,1.1,8.2,0.6c2.9-0.5,4.4-2.2-0.3-3.3c-4.7-1.1-9-2.2-28-9.1c0,0,7.4,1.7,14.4,3.2
		c0,0,5.7,1.3,1.4-1.3c-4.3-2.6-10.6-8.5-10.6-8.5s-3-3.9-14.2-7.2c-11-3.3-31.2-6.4-83.6-28.5c0,0-3.6-1.9-4.8-1.3
		c-1.2,0.6,1.3,3.1,2.1,3.9c0.8,0.8,11.3,14.5,42.1,27.5C424.6,373.7,457.3,382.5,465.9,384.2z"/>
</g>
</svg>