<svg xmlns="http://www.w3.org/2000/svg" xmlns:xlink="http://www.w3.org/1999/xlink" x="0px" y="0px" viewBox="0 0 1024 768" >
<path class="layout" data-layout="5" d="M640.5,351.8c1.4-3.5,1.1-4.9,0.6-5c-0.6-0.1-6.1,4-6.1,4c-28.8,19.4-82.6,34.6-82.6,34.6c37.8-16.7,51.4-33.3,50-33.3
	c-1.5-0.1-6.1,1-6.1,1c-20.6,4.2-66.6,21.9-66.6,21.9c18.5-8.6,34.7-17.1,34.7-17.1c38.1-20.4,43.6-38.8,44.4-40.3
	c0.8-1.5,1.3-3.2,0.5-3.3c-0.8-0.1-4.5,2.7-4.5,2.7c-50.7,32.4-82.8,43.6-82.8,43.6c89.8-44.5,74.1-83.7,73.3-86.7
	c-0.8-3-3.1-5.4-4-5.3c-0.9,0-2.5,4.1-2.5,4.1C572.8,309,532.9,344.8,473,375.5c-57,29.2-76,57.4-76,57.4
	c16-15.9,32.6-25.6,49.1-34.9c-46.4,26.8-49.8,46.3-49.8,46.3c15.3-29.6,77.8-47.4,77.8-47.4c-54.8,18.8-68.1,39.8-68.1,39.8
	c10.8-8.6,26.8-16.4,42.5-22.7c-31.7,14.7-38,29-38,29c24.1-25.5,59-27.9,59-27.9c-30.9,9.6-52.1,24.8-52.1,24.8
	c38.4-16.2,49.8-10.5,49.8-10.5c-39.7,2.5-63.9,19.9-63.9,19.9c10.9-4.9,27.4-7.3,44.1-8.5C423.5,442.3,395,456,395,456
	c54-16.2,75.9-6.5,75.9-6.5c-48.4-7.9-87,19.3-87,19.3c34.8-22.4,80.6-10.6,80.6-10.6c-50.5-2.6-60.4,5.4-60.4,5.4
	c28.1-0.9,54.3,11.2,54.3,11.2c-34.2-11.4-60.1-7.3-60.1-7.3c11.2,0.7,20.5,3.1,27.2,5.5c-22.5-6.5-43,5.1-43,5.1
	c16.2-5.7,26.9,1.3,37.7,10.8c11.3,10,21,11,22.2,10.5c1.2-0.6,2-2.8,2-2.8c2.4-9.7-1.1-14.2-1.1-14.2
	c10.4,12.1,25.6,14.9,30.3,15.7c4.8,0.7,4.1-2.2,4.1-2.2c-0.5-6.8-6.6-13.8-7.1-14.2c-0.5-0.4-0.9-1.2,0.2-1.8
	c1.1-0.6,3.4,0.7,3.4,0.7s10,6.6,17.8,9c7.9,2.5,34.1,2.3,34.3,1.6c0.2-0.7-3-3.3-3-3.3c-2.7-2.5-24-17.7-24-17.7
	c25.6,16.5,57.1,11.2,57.4,10.3c0.3-0.8-2.1-2.5-2.1-2.5c-11.4-9-39-18.6-39-18.6c66.4,10.8,81-6.6,80.9-7.3c-0.1-0.7-5-0.8-5-0.8
	c-21-1-49.5-4.9-49.5-4.9c56.5,0.5,77.9-17.3,77.1-17.8c-0.8-0.4-5.9-0.2-5.9-0.2c-64.9,1-92.4-5.3-92.4-5.3c17.1,2.1,47.6,2,47.6,2
	c56.5-1.9,61.1-27.2,60.2-27.4c-0.9-0.2-6.4,0.9-6.4,0.9c-51,8.9-80.5,11-80.5,11c27.1-4.6,42.4-10.7,42.4-10.7
	C633.1,380.3,639,355.3,640.5,351.8z"/>
</svg>