<svg xmlns="http://www.w3.org/2000/svg" xmlns:xlink="http://www.w3.org/1999/xlink" x="0px" y="0px" viewBox="0 0 1024 768" >
<path class="layout" data-layout="5" d="M431.6,365.5c2.3,1.6-1.4,2.6-5.9-1.3c-4.5-3.9-6.7-3.9-8.6-2.5c-3.5,2.7-0.2,13.5,8.4,23c7.7,8.6,13.9,14.3,17,16.3
	c0,0-7.9-2.3-6.7,4.8c1.3,7.5,13.7,19.6,27.7,26.1c0,0-7.6-0.2-7.5,4.2c0.1,4.4,10.9,14,23.9,16.7c3.3,0.7-3.7,0.6-5.8,2.9
	c-3,3.1,3.6,11.9,20.7,11.9c0,0-3.5,1.9-3.1,4.5c0.6,4.5,16,11,29.2,8c1-0.2-1.7,0.7-4.1,3.1c-1.6,1.6-1.6,4.4,4,5.2
	c3.4,0.5,13.6,0.5,20.1-2.8c0,0-4.1,5.7,0.4,6.6c4.5,0.9,13.5-3.2,14.4-4c0,0-2.9,6.7,5.7,3.7c8.4-3,11.1-7.2,11.1-7.2
	s0.2,4.9,8.8-0.9c7-4.8,10.2-10.6,10.2-11.2c0,0,6-0.3,11-8.1c2.8-4.5,3.1-8.8,2.8-12.3c0,0,9.9-6.1,12.2-9.7
	c1.3-2.1,1.8-5.5-2.8-2.8c-4.7,2.7-9.9,2.6-11.4-1.1c-1.6-3.7-1.3-8.4-6.9-6.9c-1.5,0.4-5.7,4.5-7.2,4.6c-1.6,0.1-4.7,0.7-4-10.3
	c0.4-7.1,12.1-16.3,11.9-22c-0.2-5.7-15-5.8-24.6-7.7c-2.2-0.4-14.2-4.6-26.5-13.7c-14.8-10.9-22.4-19.8-27.8-32.1
	c-1.8-4.1-7.9-0.5-5.1,11c0,0-13.5-12.6-21.9-24c-6.9-9.4-8.2-20.3-11.8-20.1c-7.3,0.4-5.5,18.1-5.5,18.1
	c-0.6-0.6-15.8-10.4-31.6-24.3c-16.5-14.6-27.1-35-30.3-35.9c-3.8-1.1-9,8.8-3.2,26.6c1.6,4.8,8.5,17.3,12.6,21.8
	c0,0-9.8-7.9-11.8-7.9c-2,0-4.7,0.7-3.1,9.6C409.1,341.3,421,357.9,431.6,365.5z M488.7,370.3c0.6,3.5-7-1.4-9.6-3.6
	c-2.8-2.4-5.4-1.1-6.9-0.9c-1.3,0.2-38.2-31.9-40.1-34.3c-2-2.5-19.6-21.9-21.4-37.3c-0.5-4.4-2.2-15.1,0.7-15.4
	c2.1-0.3,4.6,5.5,7.4,10.2c5,8.7,19.8,23.5,26,28.9c6.2,5.3,30.4,22.3,30.4,22.3C476.7,355.5,488.4,368.7,488.7,370.3z M515.4,369.8
	c-0.2,3.4,5.9,13.1,5.9,13.1c-6.1,4.6,4.4,16.8,4.4,16.8c-2.8-0.4-3.8,1.2-3.5,3.5c1.2,9.6,8.8,16.1,15,18.5c3.8,1.5,8.1,1.4,6,3.2
	c-0.6,0.5-11.6-1.9-12.9-0.8c-1.4,1.1,2.7,5.1,1.3,5.8c-4.6,2.1-32.3-8.5-38.5-15.5c-4.9-5.5,0.1-4.7,4.2-3.2
	c3.7,1.4,9.1,1.8,14.6,1.1c3.5-0.4,8.6,0.3,8.6,0.3c-0.6-1.5-2.1-4.2-4.6-4.4c-7.6-0.5-24.4-11.7-29.3-17.2
	c-5-5.6-8.6-14.9-9.8-19.2c-1.4-4.9,2.9-2.4,5.9-0.5c1.7,1.1,18.6,9.5,24.1,12.2c2.9,1.4,5.3-0.5,3.8-1.2
	c-17.3-8.8-31.2-26.7-32.6-46.4c-1.2-16.1,2.2-8.8,4.4-4.9c7.3,12.9,14.1,19.2,15.5,21.4C500.4,355.8,515.4,369.8,515.4,369.8z
	 M547.3,441.1c-23,8.1-39.5-0.2-43.1-1.9c-4.8-2.2,3.2-3.4,15-5.6c11.5-2.1,13-2.7,22.5,2.1c9.3,4.7,18.5,0.2,18.7,1.2
	c0.3,1.6-6.4,4.9-8.5,5.6c-13.7,5-13.9,8.9-5,9.5c10,0.6,21.5-5.6,20.7-4c-0.9,1.6-5.5,6.9-9.1,8.7c-3.6,1.8-1.6,4.5,0.5,5
	c2.1,0.6,5.9,0,5.6,1.2c-0.7,2.9-20.3,6.2-25.2,1.1c-2.2-2.3,5.2-2.6,10-4.9c5-2.4,14.4-8.3,11.4-7.1c-3,1.2-13.2,2.8-22,3.4
	c-8.9,0.6-16.4-2.1-16.3-3.6c0.1-0.9,11.8-5.8,19.7-7.4C550.4,442.8,552.2,439.3,547.3,441.1z M561,468.5
	c4.5-1.9,15.5-11.1,16.5-12.3c1-1.1,3.2-3.9,2.8-1.9c-2,10.5-13.2,15.2-20.8,17C556.7,472.1,554.9,471,561,468.5z M604.7,450.1
	c-7.4,0.2-11.3-9.7-12.5-9.2c-1.8,0.7,2.7,9.9-4.2,15.6c-7.6,6.3-7.4,2.8-6.1,0.5c0.7-1.3,1.3-6.2,1.4-12.2c0.1-3.8-3.3-5.2-3.2-4.1
	c0.2,6.3-1.7,16.5-14.4,19.9c-6.7,1.8-7.6-1.4-2.2-5.5c8.1-6.2,14.9-20.6,13-20.6c-1.9,0,0.7,1.3-6.4,8.4
	c-7.2,7.1-20.2,8.7-23.7,6.9c-3.6-1.7,3.4-4.1,11.1-8c10.7-5.5,14.2-12.9,13.4-13.3c-0.8-0.4-4.8,3.1-14.6,6.1
	c-10,3-19-2.8-20.4-5.3c-1.5-2.5-1.2-2.9,6.5-2.1c8,0.8,18.4-1.6,19.4-1.7c1-0.2,9.5-2,8.7-2.3c-0.8-0.3-6.2,0.5-14.5,0.7
	c-8.5,0.1-17-3.3-23.2-8.2c-6.2-5-8.2-13.1-6.6-12.9c0.5,0.1,11,7.8,14.4,8.9c3.4,1.1,14.2,4.4,19.6,4.6c3.3,0.1,11.9,3.6,11.4,2.8
	c-2.3-3.9-14.1-6-26.6-9.8c-12.8-4-21.8-19.3-22-22.4c-0.1-3.2,1.7-2.1,3.6,0.2c3.2,3.8,5.9,6.4,12.5,11c7.1,4.8,18.6,7.5,22.6,8.8
	c3.9,1.4,6.6,4.2,6.2,3.1c-0.4-1-7.8-5.8-20.9-11c-18.2-7.2-29-25-31-39.6c-0.9-6.3,1.6-4.9,2.4-2.3c3.9,12.8,27.6,29.3,32.8,32.9
	c19.3,13,38.2,8.6,42.6,13.8c3.1,3.8-6.5,7.9-9.9,16.5c-3.4,8.6-2.3,18.1,3.7,18.8c5.9,0.7,6.3-5.5,9.9-4.5c2.7,0.7,0.4,2,4.4,7.8
	c4,5.7,8.9,0.1,9,1.3C610.6,444.6,608.8,450,604.7,450.1z M594.8,464.9c3.6-4.4,2.9-9.2,3.1-11.6c0.2-2.9,4.5-2.2,4.6-0.8
	c0.9,8.3-5.7,16.3-7.4,16.7C595,469.2,594.3,465.4,594.8,464.9z M576.9,480.9c0.9-2.2,10.8-22,11.9-22.8c2.9-2.2,4.1-5.7,4.5-7.1
	c0.4-1.4,2.8-0.5,2.5,4.4c-0.7,12.4-12.6,23.9-15.2,26.1C578.1,483.8,575.5,484.1,576.9,480.9z M568.4,475.8
	c5.6-7.9,19.4-21.1,14.6-11c-6.7,14.1-21.1,25.4-22.6,24.5C558.1,487.8,566.8,478.1,568.4,475.8z M567.4,471
	c3.7-2.8,5.2-0.5-4.8,8.8c-10.1,9.5-19.1,10.1-19.8,9.2C540.5,486.3,563.4,474,567.4,471z M521.4,484c0-2.2,32.6-14.2,32.7-12.7
	c0.1,3.5,5.6,1,5.1,2.5c-1.5,4.1-22.8,10.7-27.8,11.4C527.6,485.8,521.4,486.2,521.4,484z M496.8,471.4c1.7-0.9,37.3-5.7,39.7-5.7
	c2.5,0,4,2.7,6.4,3.4c2.4,0.7,5.8-0.9,5.8,0.6c0.1,1.4-12,6-24.5,7.7C508.8,479.4,494.7,472.5,496.8,471.4z M524.9,456.4
	c5.1,1,10.6,2.8,16.2,1.9c1.8-0.3,4.6-1.4,4.3-0.3c0,0,0.6,2.4-18.2,6.5c-22.2,4.8-54-2.6-48-7.7
	C482.4,454.1,520.3,455.6,524.9,456.4z M475.5,437.6c10.2,0.2,19.6,0.5,25.9,3.4c14.5,6.8,27,5.6,26.9,6.2c-0.2,0.9-6,2.6-7.5,2.7
	c-2.5,0.2-2.9,0.3-3,2.9c0,2-9.5,1-11.6,0.9c-4.4-0.2-13.7-0.8-19.1-2.4c-2.3-0.7-14.9-1.2-22.1-9.1c-1.4-1.5-5.3-4.6-3.5-6.4
	C462.4,435,469.3,437.4,475.5,437.6z M450.3,407.6c5.7,2.1,14.3,5.1,18.8,6.6c4.5,1.5,28,8,28,8c7.4,6.6,19,7.2,18.3,8.2
	c-1.5,2.2-18,7.1-26.1,5.6c-10.9-2-19.8-4.8-25.5-7.7c-2.5-1.3-17.1-9.3-21.4-16.5c-1.3-2.1-4.1-6.5-2.7-7.2
	C440.9,404.1,444.8,405.6,450.3,407.6z M457.3,386.1c2.6,1.3,48.3,20.9,50.7,22.6c2.4,1.6-7.8,0.5-10.1,0.1
	c-3.9-0.7-9.6-2.8-11.4,0.3c-0.7,1.2,5,5.8,3.9,7.5c-0.5,0.9-3.9,0.1-7.1-1c-6.6-2.2-25.4-7.7-32.9-12.6c-3.3-2.1-20.9-14.5-26-25.4
	c-1.5-3.2-6.8-12.6-4.7-13.5c1.6-0.7,7.2,4.4,11.1,6.8C436.5,374.3,449.7,382.3,457.3,386.1z M411,331.7c-0.7-3.6-3.6-11.7-1.2-12.2
	c1.8-0.4,1.7,0.8,8.4,6.2c6.9,5.5,20.2,17.2,25.7,21.3c5.4,4,29.6,22.4,29.6,22.4c0.4,13,12,24.3,12.2,25.7
	c0.5,2.9-13.2-5.5-22.7-9.5c-10.8-4.5-23.7-15.4-30.1-22.1C430.1,360.8,413.4,344.2,411,331.7z"/>
</svg>