<svg xmlns="http://www.w3.org/2000/svg" xmlns:xlink="http://www.w3.org/1999/xlink" x="0px" y="0px" viewBox="0 0 1024 768" >
<path class="layout" data-layout="5" d="M672.7,430.8c-2.9-20.6-17.2-41.8-33.4-56.4c-5-4.5-10.5-8.7-16.3-12.3c0,0-17.4-13.7-57.5-15.2
	c-40-1.4-177.9-28.3-214.8-62.9c0,0,13.7,46.2,59.1,80.6c0,0,18.8,16.8,54.6,16.4c35.9-0.4,104.8-4,131.1,7.3c0,0-22.1-0.6-36.8,1.4
	c-14.7,2-114.2,12.1-141.9-7c0,0,17.7,41.4,70.2,45.5c0,0,10,0,29.2-4.1c19.3-4.2,58.6-14.1,76.4-15.8c0,0-77.1,32.4-100.6,33
	c0,0-9.4,0.9-16,0c0,0,12.7,20.7,52.6,18.7c0,0,9.6,0,26.1-8.9c16.7-9,38.7-20.5,49.2-23.3c0,0-48,38.9-63,42.5
	c0,0-8.5,3.1-12.6,2.7c0,0,19.7,13.2,42.5,4.9c0,0,7.7-2.1,27.7-19.7c6.5-5.7,13.1-11,20.1-15.3c-10.1,13.6-17.6,28.9-32.6,37.1
	c5.9,2.4,12.3,4.1,18.8,4.1c6.4,0,12.9-2,17.2-6c4.3-4.1,6-9.8,8.9-14.9c4.2-7.6,11-14.1,19.5-18.3c6.9-3.5,16.8-5.1,22.3,0.2
	c0.5-3.2,0.5-6.4,0.5-7.5C673.2,435.3,673.1,433.1,672.7,430.8z"/>
</svg>