<svg xmlns="http://www.w3.org/2000/svg" xmlns:xlink="http://www.w3.org/1999/xlink" x="0px" y="0px" viewBox="0 0 1024 768" >
<g>
	<path class="layout" data-layout="5" d="M556.8,472.1H552l-1.1-29.8l-3.7-7h-8.5c0,0-0.2-3.1-2.2-5.2c0.4-6.3-3.5-7.2-5.2-8.8c1.8-5.2-2.2-5.5-2.2-5.5
		s0.7-1.5,0.7-6.6s-4.1-9.2-7.6-12.7c0.2-2.4-2.4-2.4-2.4-2.4s0.4-3.7,0.4-5.9c5.5-2.2,3.3-4.8,3.3-4.8c39.8-25.4,33.2-70,33.2-76.6
		c-4.1-6.3-35.5-4.4-44.8-4.4c-9.2,0-40.7-1.8-44.8,4.4c0,6.6-6.6,51.2,33.2,76.6c0,0-2.2,2.6,3.3,4.8c0,2.2,0.4,5.9,0.4,5.9
		s-2.6,0-2.4,2.4c-3.5,3.5-7.6,7.6-7.6,12.7s0.7,6.6,0.7,6.6s-4.1,0.4-2.2,5.5c-1.7,1.7-5.5,2.6-5.2,8.8c-2,2-2.2,5.2-2.2,5.2h-8.5
		l-3.7,7l-1.1,29.8h-4.8l-2.9,3.3v8.1H512h47.7v-8.1L556.8,472.1z"/>
	<path class="layout" data-layout="5" d="M467.6,310.9c0.1,2.5-0.6,8.8-5,11.3c-4.4,2.5-9.9-0.6-10.5-4.7c-0.6-4.1,1.1-7.2,3.9-7.5c4.2-0.5,5.2,5.3,1.9,5.3
		c-3.3,0-2.3,4,0,4.4c4.1,0.7,9.4-8.6-1.1-16.3c-10.5-7.7-35.9,6.4-16.9,34.5c0,0-1.7-5.8,2.5-6.6c4.2-0.8,3,5.5,0.6,3.9
		c-2.2,3.6,3,16.3,21,25.7c11.1,5.8,19.6,5.8,24,11.3c4.4,5.5,1.4,11-2.8,10.8c-4.1-0.3-6.9-3.9-4.7-6.6c2.2-2.8,6.1,1.4,3,2.8
		c1.9,1.9,6.1-3,1.9-5.5c-4.1-2.5-19.7-6.2-31.2-13c-16-9.4-24.6-29.6-27.6-37.3c-3-7.7-5.5-6.1-6.1-5c0.8,1.1,1.9,3.3-1.1,3.6
		c-3,0.3-3-6.3,0.6-7.7c3.7-1.5,5.8,1.4,5.8,1.4s-2.2-19.3,21.3-22.7c5,0.3,3.9-6.1,1.9-5.5c0,1.9,0,2.5-2.2,2.8
		c-2.2,0.3-2.2-6.6,3-5.5c5.2,1.1,5.2,7.7,2.5,9.4C462.7,296.2,467.4,304.5,467.6,310.9z"/>
	<path class="layout" data-layout="5" d="M556.4,310.9c-0.1,2.5,0.6,8.8,5,11.3c4.4,2.5,9.9-0.6,10.5-4.7c0.6-4.1-1.1-7.2-3.9-7.5c-4.2-0.5-5.2,5.3-1.9,5.3
		c3.3,0,2.3,4,0,4.4c-4.1,0.7-9.4-8.6,1.1-16.3c10.5-7.7,35.9,6.4,16.9,34.5c0,0,1.7-5.8-2.5-6.6c-4.1-0.8-3,5.5-0.6,3.9
		c2.2,3.6-3,16.3-21,25.7c-11.1,5.8-19.6,5.8-24,11.3c-4.4,5.5-1.4,11,2.8,10.8c4.1-0.3,6.9-3.9,4.7-6.6c-2.2-2.8-6.1,1.4-3,2.8
		c-1.9,1.9-6.1-3-1.9-5.5c4.1-2.5,19.7-6.2,31.2-13c16-9.4,24.6-29.6,27.6-37.3c3-7.7,5.5-6.1,6.1-5c-0.8,1.1-1.9,3.3,1.1,3.6
		c3,0.3,3-6.3-0.6-7.7c-3.7-1.5-5.8,1.4-5.8,1.4s2.2-19.3-21.3-22.7c-5,0.3-3.9-6.1-1.9-5.5c0,1.9,0,2.5,2.2,2.8
		c2.2,0.3,2.2-6.6-3-5.5c-5.2,1.1-5.2,7.7-2.5,9.4C561.3,296.2,556.6,304.5,556.4,310.9z"/>
</g>
</svg>