<svg xmlns="http://www.w3.org/2000/svg" xmlns:xlink="http://www.w3.org/1999/xlink" x="0px" y="0px" viewBox="0 0 1024 768" >
<g>
	<path class="layout" data-layout="5" d="M637.1,319.7c-3.8,0-6.8,3.1-6.6,6.9c0.1,2,0.9,3.7,2.3,5c-5.4,7.7-41.4,42.3-45.6,40.9c-2-0.7,1-9.1,2.6-14.5
		c0,0,0.9,0.2,1.5,0.2c3.1,0,5.6-2.6,5.5-5.8c-0.1-3.2-2.7-5.8-5.8-5.8c-3.1,0-5.6,2.6-5.5,5.8c0,1.8,0.9,3.4,2.1,4.4
		c0,0-10.6,10.9-11.4,11.3c-1,0.5-2.2-6.8-2.7-14.6c-0.4-6.2-0.8-15.6-0.4-20.7c0.3,0,0.7,0.1,1,0.1c3.6,0,6.5-3,6.5-6.7
		c-0.1-3.7-3.1-6.6-6.7-6.6c-3.6,0-6.5,3-6.5,6.6c0,2.2,1.2,4.2,2.8,5.4c-3.7,6.3-15.2,25-25,31.2c0,0-2.1-4.9-1.6-12.2
		c2.1-0.6,3.7-2.5,3.7-4.9c0-2.8-2.3-5.1-5.1-5.1c-2.8,0-5,2.3-5,5.1c0,1.5,0.6,2.8,1.6,3.7c-1,3.3-2.9,9-4.9,10.5
		c-2.9,2.2-13.7-21.5-16.1-30.7c-1.9-7-4.1-14.8-5.1-19.4h3.3c1.5,0,2.7-1.2,2.7-2.6l-8.4-11.1l-8.9,11.1c0,1.4,1.2,2.6,2.7,2.6h3.3
		c-0.9,4.6-3.2,12.3-5.1,19.4c-2.4,9.1-13.3,32.8-16.2,30.7c-2-1.5-3.9-7.2-4.9-10.5c1-0.9,1.6-2.2,1.6-3.7c0-2.8-2.2-5.1-5-5.1
		c-2.8,0-5,2.3-5.1,5.1c0,2.4,1.5,4.3,3.7,4.9c0.5,7.4-1.6,12.2-1.6,12.2c-9.8-6.1-21.3-24.8-25-31.2c1.7-1.2,2.8-3.2,2.8-5.4
		c0.1-3.7-2.8-6.6-6.5-6.6c-3.6,0-6.6,3-6.7,6.6c-0.1,3.7,2.8,6.7,6.5,6.7c0.3,0,0.7,0,1-0.1c0.4,5.1,0,14.5-0.4,20.7
		c-0.5,7.8-1.8,15.1-2.7,14.6c-0.8-0.4-8.1-8.3-11-11.5c0.4-0.7,0.6-1.5,0.6-2.3c0.1-2.8-2.1-5.1-4.9-5.1s-5.1,2.3-5.1,5.1
		c-0.1,2.8,2.1,5.1,4.9,5.1c0.8,0,1.6-0.2,2.3-0.6c1.5,5.4,2.4,14.2,2.4,14.2c-16-6-38.6-32.8-42.6-37.6c1.4-1.2,2.3-3,2.4-5
		c0.1-3.7-2.7-6.7-6.4-6.7c-3.6,0-6.7,3-6.8,6.7c-0.1,3.7,2.7,6.7,6.4,6.7c0.5,0,1.1-0.1,1.6-0.2c5.1,5.3,38.9,78.4,38.9,78.4
		s-4,0.2-3.8,4.8c0.2,4.6,5,4.1,5,4.1l-0.2,16.4c0,0-4.7,0-5.1,4.7c-0.2,2.6,1.5,5.7,5.9,5.4h82.3h81.1c4.3,0.3,6.1-2.8,5.9-5.4
		c-0.4-4.7-5.1-4.7-5.1-4.7l-0.2-16.4c0,0,4.8,0.5,5-4.1c0.2-4.6-3.7-4.8-3.7-4.8s34.2-73.6,40.8-82.6c1,0.5,2.1,0.8,3.2,0.8
		c3.8,0,6.8-3.1,6.6-6.9C644.1,322.8,640.9,319.7,637.1,319.7z M563.5,360.2l1.9,16.3l-16,11.7l-2.4-13.7L563.5,360.2z M534.5,378.4
		c-2.2,19.2-15.8,29-15.8,29l1.5-11.7L534.5,378.4z M524.7,372.9l-10.1,14.9l0-31.5L524.7,372.9z M504.3,356.3l-0.1,31.5l-10.1-14.9
		L504.3,356.3z M498.6,395.7l1.4,11.7c0,0-13.6-9.8-15.7-29L498.6,395.7z M456,360.2l16.2,13.8l-2.8,14.7L453,375.5L456,360.2z
		 M433.4,414l-16.8-41.3l17.5,10.4c0.6,1,4.4,31,4.4,31H433.4z M444.6,437.3c-2.6,0-4.6-2.2-4.5-4.8c0.1-2.7,2.2-4.8,4.7-4.8
		c2.6,0,4.6,2.2,4.5,4.8C449.3,435.2,447.2,437.3,444.6,437.3z M459.3,411.1l-9.8-4.4l0-16.4l11.5,10.6L459.3,411.1z M475.2,438.6
		c-3.2,0-5.8-2.7-5.7-6.1c0-3.3,2.7-6,5.9-6c3.2,0,5.8,2.7,5.7,6C481,435.8,478.4,438.6,475.2,438.6z M484.1,408.7
		c-6.5-5.9-4.4-14.3-1.6-9.7c3.2,5.3,16.5,16,19.7,17.2C502.2,416.2,492.6,416.5,484.1,408.7z M510.5,440c-4,0-7.2-3.4-7.2-7.5
		c0-4.1,3.2-7.5,7.2-7.5c4,0,7.2,3.4,7.2,7.5C517.7,436.7,514.5,440,510.5,440z M536.1,408.7c-8.6,7.8-18.1,7.5-18.1,7.5
		c3.1-1.2,16.4-11.9,19.7-17.2C540.5,394.5,542.6,402.8,536.1,408.7z M546.4,438.6c-3.2,0-5.8-2.7-5.9-6.1c0-3.3,2.5-6,5.7-6
		c3.2,0,5.8,2.7,5.9,6C552.2,435.8,549.6,438.6,546.4,438.6z M570.7,406.7l-9.8,4.4l-1.6-10.2l11.5-10.6L570.7,406.7z M576.5,437.3
		c-2.6,0-4.7-2.2-4.7-4.8c0-2.7,2-4.8,4.6-4.8c2.6,0,4.7,2.2,4.7,4.8C581.1,435.2,579,437.3,576.5,437.3z M585.3,414.2h-5.1
		c0,0,3.8-30,4.5-31l17.5-10.4L585.3,414.2z"/>
	<rect class="layout" data-layout="5" x="428.8" y="454.3" width="164.6" height="4.8"/>
	<path class="layout" data-layout="5" d="M592.8,462.7H427c-2.5,0-4.5,2-4.5,4.5c0,2.5,2,4.5,4.5,4.5h165.7c2.5,0,4.5-2,4.5-4.5
		C597.3,464.8,595.2,462.7,592.8,462.7z"/>
</g>
</svg>