<svg xmlns="http://www.w3.org/2000/svg" xmlns:xlink="http://www.w3.org/1999/xlink" x="0px" y="0px" viewBox="0 0 1024 768" >
<g>
	<path class="layout" data-layout="5" d="M558.8,499.6c0.5-4.5-5-9.4-15.9-12.9c-10.9-3.5-11.4-12.9-11.4-12.9s3.5-4.5,0.5-6c2-1.5,4.5-7,2-8.9
		c36.2-55.6,34.3-105.7,34.3-117.7c0-11.9-6.9-9.9-11.4-14.4c-4.5-4.5,3-9.9,3.5-16.9c0.5-7-48.4-9.4-48.4-9.4s-48.9,2.5-48.4,9.4
		c0.5,7,7.9,12.4,3.5,16.9c-4.5,4.5-11.4,2.5-11.4,14.4c0,11.9-2,62.1,34.3,117.7c-2.5,2,0,7.4,2,8.9c-3,1.5,0.5,6,0.5,6
		s-0.5,9.4-11.4,12.9c-10.9,3.5-16.4,8.4-15.9,12.9c-4.5,2.5-4.2,12.9,46.9,12.9C563,512.5,563.3,502.1,558.8,499.6z"/>
	<path class="layout" data-layout="5" d="M460.8,319c0,0-0.5-3.4,3.2-3.2c6.4,0.2,3.2,9.2-2.6,7.7c-4.5-1.1-16.4-4.5-7.6-21.3c6.4-12.3,15.3-42.1-15.7-41.3
		c-30.4,0.7-25.2,62.7,0.5,105.4c25.7,42.7,34.5,61.6,36.8,66.5c1.8,2.5-0.6,4.2-2.9-0.2c-2.3-4.5-20.8-42.1-37.9-65.9
		c-23.1-32-39.8-109.1,4.1-111c20.5-0.9,28.8,13.7,27.2,24.6c-1.9,12.2-6.8,21.8-9.1,25.4C449.8,316.5,460.8,319,460.8,319z"/>
	<path class="layout" data-layout="5" d="M563.2,319c0,0,0.5-3.4-3.2-3.2c-6.4,0.2-3.2,9.2,2.6,7.7c4.5-1.1,16.4-4.5,7.6-21.3c-6.4-12.3-15.3-42.1,15.7-41.3
		c30.4,0.7,25.2,62.7-0.5,105.4c-25.7,42.7-34.5,61.6-36.8,66.5c-1.8,2.5,0.6,4.2,2.9-0.2c2.3-4.5,20.8-42.1,37.9-65.9
		c23.1-32,39.8-109.1-4.1-111c-20.5-0.9-28.8,13.7-27.2,24.6c1.9,12.2,6.8,21.8,9.1,25.4C574.3,316.5,563.2,319,563.2,319z"/>
</g>
</svg>