<svg xmlns="http://www.w3.org/2000/svg" xmlns:xlink="http://www.w3.org/1999/xlink" x="0px" y="0px" viewBox="0 0 1024 768" >
		<path class="layout" data-layout="5" d="M591.3,350.8c-26.7-18.2-55.3-1.8-55.8-5.1c-0.5-3.3-3.8-3.8-3.8-3.8c-1.6-9.8-8.8-12.6-8.8-12.6
			c-0.5-4.9-2.5-24.1-2.5-24.1c6,0.6,26.8,2.3,26.8,2.3l0.1-24.1c-15.3,1.6-26.3,1.5-26.3,1.5c0.6-9.3,2.8-27.3,2.8-27.3l-11.7,0
			v0.2h-11.2c0,0,2.2,18.1,2.7,27.4c0,0-10.9,0-26.3-1.6v24.1c0,0,20.8-1.6,26.8-2.2c0,0-2.1,19.2-2.6,24.1c0,0-7.2,2.7-8.9,12.6
			c0,0-3.3,0.6-3.8,3.8c-0.5,3.3-29-13.1-55.8,4.9c-26.8,18.1-31.2,56.9-20.2,81.5c10.9,24.6,17.5,38.3,15.3,43.2
			c-2.2,4.9-2.2,7.1,1.6,11.5c0,0,1.6,0.6,0,3.4c-1.6,2.7-3.8,6-1.6,10.4c2.2,4.4,40.2,9.8,84,9.8v-0.2c43.8,0.1,81.3-5.2,83.5-9.5
			c2.2-4.4,0-7.7-1.6-10.4c-1.6-2.7,0.1-3.4,0.1-3.4c3.8-4.4,3.8-6.5,1.7-11.5c-2.2-4.9,4.4-18.6,15.5-43.2
			C622.2,407.8,618,368.9,591.3,350.8z M484.9,476c0,0-32.3-0.5-34.5-2.2c0,0-7.1-25.2-11.5-39.9c-4.4-14.8-12-46.4,2.2-61.8
			c18.1-19.7,42.1-8.8,44.9-6.6C486,365.5,480,407.6,484.9,476z M585.1,433.8c-4.4,14.8-11.5,39.9-11.5,39.9
			c-2.2,1.6-34.5,2.2-34.5,2.2c4.9-68.4-1.1-110.5-1.1-110.5c2.7-2.2,26.8-13.1,44.9,6.6C597,387.5,589.4,419.1,585.1,433.8z"/>
</svg>