<svg xmlns="http://www.w3.org/2000/svg" xmlns:xlink="http://www.w3.org/1999/xlink" x="0px" y="0px" viewBox="0 0 1024 768" >
<g>
	<path class="layout" data-layout="5" d="M439,504h146v-29H439V504z M512,482.5l33.5,7l-34,13l-34-13L512,482.5z"/>
	<path class="layout" data-layout="5" d="M563,360c0,0,0,71.5-22.5,71c-23-0.5,6-64.5,16.5-76c0,0-43.5-77-45-91c0,0-35.5,81-46.5,90.5c0,0,31.1,45.9,24.5,71
		c-5.5,21-37.5-16.5-29.5-65c0,0-67.5-19.5-86-45c0,0,60.5,93.5,64,148.5h146c0,0,5.5-39,25.5-79s39.5-69.5,39.5-69.5
		S615.5,347,563,360z"/>
</g>
</svg>