<svg xmlns="http://www.w3.org/2000/svg" xmlns:xlink="http://www.w3.org/1999/xlink" x="0px" y="0px" viewBox="0 0 1024 768" >
<path class="layout" data-layout="5" d="M611.7,514.5H411.1c-4.1,0-7.4,3.9-7.4,8.7c0,4.8,3.3,8.7,7.4,8.7h200.6c4.1,0,7.4-3.9,7.4-8.7
	C619.1,518.4,615.8,514.5,611.7,514.5z M671.3,303.9c-11.1,0-20,9-20,20c0,6.4,3,12,7.6,15.7c-25.9,35.7-71.2,93.4-86.1,81.2
	c-12.2-10-5.2-97.1-0.3-144.7c0.1,0,0.2,0,0.3,0c11,0,20-9,20-20c0-11.1-9-20-20-20c-11.1,0-20,9-20,20c0,8.9,5.8,16.5,13.9,19
	c-13.5,43.8-37,114.8-54.7,114.8c-17.6,0-41.1-71-54.7-114.8c8.1-2.6,13.9-10.1,13.9-19c0-11.1-9-20-20-20c-11.1,0-20,9-20,20
	c0,11,8.9,20,20,20c0.1,0,0.2,0,0.3,0c4.9,47.6,11.9,134.7-0.3,144.7c-14.9,12.2-60.2-45.6-86.1-81.2c4.6-3.7,7.6-9.3,7.6-15.7
	c0-11.1-9-20-20-20c-11,0-20,9-20,20c0,11,9,20,20,20c2.5,0,4.9-0.5,7.1-1.3c17.6,40.7,47.1,114.8,51.3,166H512h100.8
	c4.3-51.2,33.7-125.3,51.3-166c2.2,0.8,4.6,1.3,7.2,1.3c11,0,20-9,20-20C691.3,312.8,682.3,303.9,671.3,303.9z"/>
</svg>