<svg xmlns="http://www.w3.org/2000/svg" xmlns:xlink="http://www.w3.org/1999/xlink" x="0px" y="0px" viewBox="0 0 1024 768" >
	<path class="layout" data-layout="5" d="M658.3,333.3c-32.2,27-75.5,5-128.1,23.5c-9.7,3.4-13.7,7.6-18.3,7.6c-4.6,0-8.6-4.1-18.3-7.6
		c-52.6-18.6-95.8,3.4-128.1-23.5c-1.1,28.5,9.9,59.2,32.2,81.1c35.9,35.4,86.9,15.6,95.3,6.3c10.8-12,18.8-9.7,18.8-9.7
		s8-2.3,18.8,9.7c8.4,9.3,59.3,29.1,95.3-6.3C648.4,392.5,659.5,361.8,658.3,333.3z M479.6,397.4c-2.1,1.2-20.7,12.1-41.7,5.8
		c-20.9-6.3-27.6-28-26.5-29.9c1-1.9,12.7-2.3,34.1-2.5c25-0.2,38.3,13.9,43.3,19.5C490.4,392.1,481.7,396.2,479.6,397.4z
		 M586.1,403.2c-20.9,6.3-39.5-4.6-41.7-5.8c-2.1-1.2-10.8-5.3-9.2-7.1c5-5.6,18.3-19.7,43.3-19.5c21.4,0.1,33.1,0.6,34.1,2.5
		C613.6,375.2,607,396.9,586.1,403.2z"/>
</svg>