<svg xmlns="http://www.w3.org/2000/svg" xmlns:xlink="http://www.w3.org/1999/xlink" x="0px" y="0px" viewBox="0 0 1024 768" >
<ellipse class="layout" data-layout="5" cx="1463.9" cy="233.8" rx="67.6" ry="64.5"/>
<g>
	<path class="layout" data-layout="5" d="M1463.9,569.3c0.5-6.2-2-14.9-21.1-18.7c-17.6-3.5-24,2.4-26.3,6.2c-34.1,3.3-60.7,30.8-60.7,64.2
		c0,35.6,30.3,64.5,67.6,64.5c37.3,0,67.6-28.9,67.6-64.5C1491,599.8,1480.3,581,1463.9,569.3z"/>
	<path class="layout" data-layout="5" d="M1435.2,551.5c0,0,5.8-2.9,7-8.4s-2.8-12.2-6.5-18.3c-3.7-6.2-6-14.8-6.1-21c-0.1-6.2,2.8-12.7,10.1-19.2
		s11.3-6.4,13.7-11.2c2.3-4.8,10.5-22.2,12.8-25.8l-3.8,17.2l13.8-16.1l-7.6,16.6l13.9-12.2l-7,12.6l20.6-9.8l-14.9,13.7l20.6-3.5
		l-18.8,10.7l14.3,5.6l-19.6-0.4l11.9,7.9l-22.3-2.9l14.1,9.5c0,0-21.5-7.1-24.8-8c-3.3-0.9-4.1-0.9-7.6,1.9
		c-3.5,2.8-8.3,7-8.5,14.2c-0.2,7.2,2.8,12.7,6,18.5c3.3,5.8,6.3,10.7,6.2,17.6c-0.2,6.9-1.8,11.6-6.8,14.1
		C1445.9,554.7,1440.9,552.5,1435.2,551.5z"/>
</g>
<path class="layout" data-layout="5" d="M430.5,283.7l23.3-0.5l-14.2,9.4l26.6-3.5l-16.8,11.3c0,0,25.6-8.4,29.5-9.5c3.9-1.1,4.9-1.1,9,2.3
	c4.2,3.4,9.9,8.3,10.1,16.9c0.2,8.5-3.3,15.1-7.2,22c-3.9,7-7.5,12.7-7.3,21c0.1,6.1,1.2,10.7,4.1,13.9
	c-15.9,5.1-18.1,13.9-17.5,20.3c-19.6,14-32.3,36.4-32.3,61.6c0,42.5,36.1,76.9,80.6,76.9s80.6-34.4,80.6-76.9
	c0-39.8-31.7-72.6-72.4-76.5c-2.4-4-8.8-10.1-25.3-8.3c-2.1-1.7-4.6-4.4-5.3-8c-1.4-6.6,3.4-14.5,7.7-21.9c4.4-7.3,7.2-17.7,7.3-25
	c0.1-7.3-3.4-15.1-12-22.8s-13.5-7.6-16.3-13.3c-2.8-5.7-12.5-26.4-15.3-30.8l4.5,20.5l-16.4-19.2l9,19.8l-16.6-14.5l8.3,15
	l-24.5-11.6l17.8,16.3l-24.5-4.2l22.4,12.7L430.5,283.7z M583.7,465.3c2.8-6.3,6.8-18.8,7.5-18.5c0.7,0.3,1.1,5.7,0.7,10.2
	c-0.4,4.5-0.7,10.2-5.8,17.6c-5.1,7.4-8.6,6-8.6,6C575.2,478.1,580.9,471.6,583.7,465.3z M542.1,384.3c2.8-2.5,20.7,7.6,30.5,16.3
	c9.8,8.7,16.3,26,16.1,35.2c-0.2,9.2-3.5,9.9-3.5,9.9c-1.8,0.2-4.6-4.1-7.1-11s-10.4-21.2-20.5-32.1
	C547.5,391.7,539.3,386.8,542.1,384.3z M466.9,410.7c-4.8,6.3-11,16.7-13,22c-1.9,5.3-2,7.2-3.4,7.1c-1.3-0.1-1.6-3.7-4.2-2.7
	c-2.6,1-1.9,12.7-0.1,18.9c1.8,6.3-0.4,8-0.4,8c-3.6,2.8-6.1-13.2-4.2-26.4c1.9-13.3,11.2-25.9,17.2-33.1c6-7.2,9.2-5.6,10.8-3.7
	C471.3,402.6,471.7,404.4,466.9,410.7z M505.4,310.3c-1.5,0.3-2.5-1.4-2.8-4.7c-0.3-3.3,0.1-5.2,1.7-5.7c1.6-0.5,3.1,0.1,4.2,5.4
	C509.5,310.5,505.6,310.3,505.4,310.3z M479.5,379.3c-0.5,1.1-2.7,0.7-3.6-1c-0.9-1.7-0.1-2.8,0.5-3.2c0.6-0.4,1.5-0.3,2.5,1.6
	C479.9,378.5,479.5,379.3,479.5,379.3z M492,377.1c10.2-2,19.2-6.6,21.7-8c2.5-1.5,3.6-2.8,4.6-1.9c1,0.9,1.8,2-2.3,4.5
	c-4.1,2.5-13.2,6.6-23,8.7c-9.8,2.1-10.6,0-10.6,0S481.8,379.2,492,377.1z M491.2,341.8c1.5,0.9,1.5,2.2,0,6.9
	c-1.5,4.8-3.1,3.7-3.1,3.7c-1.3-0.2-1.9-2.2-1-5.7C488.1,343.2,489.7,340.9,491.2,341.8z M497.7,328.1c0.9,0.4,2.1,1.9-0.7,7.1
	c-2.8,5.2-4.6,3.7-4.6,3.7c-0.9-0.2-1.1-1.6,0.8-6.3C495.1,328.1,496.8,327.8,497.7,328.1z M499,319.2c1.9-4.8,3.9-6.1,5-5.3
	s1.3,2-0.7,7.4c-2.1,5.4-5.1,4.2-5.1,4.2C497.1,325,497.2,324,499,319.2z M497,289.8c1-0.8,2.3-1,5.4,2.9c3.1,3.9,0,5.6,0,5.6
	c-1.4,0.8-2.1,1-4.5-2.3C495.5,292.7,496,290.7,497,289.8z M485.6,282.3c0.9-1.2,3.3-0.3,6.9,2.2c3.6,2.5,1.8,4.5,1.8,4.5
	c-0.2,0.4-1.3,1.6-4.8-1S484.7,283.5,485.6,282.3z M450.4,278.8l8.7-1.5l-14.3-6l14.1,1.4l-4.2-6.8l12.1,7.2l-0.8-7.4l7.3,7.3l1-5.8
	c0,0,2,5.6,5.3,9.7c3.3,4.1,1.7,6.7,1.7,6.7c-0.7,1.4-3,1.3-5.9,1.4c-2.8,0.1-17.3,1.2-17.3,1.2l5.1-5.2L450.4,278.8z"/>
<g>
	<path class="layout" data-layout="5" d="M1862.9,362.8l18.8-10.7l-20.6,3.5l14.9-13.7l-20.6,9.8l7-12.6l-13.9,12.2l7.6-16.6l-13.8,16.1l3.8-17.2
		c-2.3,3.7-10.5,21.1-12.8,25.8c-2.3,4.8-6.4,4.7-13.7,11.2s-10.2,13-10.1,19.2c0.1,6.2,2.4,14.8,6.1,21c3.7,6.2,7.7,12.8,6.5,18.3
		c-0.6,3.1-2.7,5.3-4.5,6.7c-13.8-1.5-19.2,3.6-21.2,6.9c-34.1,3.3-60.7,30.8-60.7,64.2c0,35.6,30.3,64.5,67.6,64.5
		c37.3,0,67.6-28.9,67.6-64.5c0-21.1-10.7-39.9-27.1-51.7c0.5-5.4-1.4-12.8-14.7-17c2.4-2.7,3.3-6.5,3.5-11.6
		c0.2-6.9-2.9-11.8-6.2-17.6c-3.3-5.8-6.2-11.3-6-18.5c0.2-7.2,5-11.3,8.5-14.2s4.3-2.8,7.6-1.9c3.3,0.9,24.8,8,24.8,8l-14.1-9.5
		l22.3,2.9l-11.9-7.9l19.6,0.4L1862.9,362.8z"/>
	<path class="layout" data-layout="5" d="M1828.8,426.1c0,0-1.3,0.9-2.6-3.1s-1.3-5.1,0-5.8s2.6,1.1,3.4,4.1S1829.8,425.9,1828.8,426.1z"/>
	<path class="layout" data-layout="5" d="M1825.3,414.7c0,0-1.5,1.3-3.9-3.1s-1.4-5.6-0.6-5.9s2.2-0.1,3.8,3.8S1826,414.6,1825.3,414.7z"/>
	<path class="layout" data-layout="5" d="M1820.4,403.5c0,0-2.6,1.1-4.3-3.5s-1.6-5.6-0.6-6.3s2.6,0.4,4.2,4.4S1821.3,403,1820.4,403.5z"/>
	<path class="layout" data-layout="5" d="M1814.3,390.7c-0.2,0-3.5,0.1-2.6-4.3s2.1-4.9,3.5-4.5s1.7,2.1,1.4,4.8S1815.6,391,1814.3,390.7z"/>
	<path class="layout" data-layout="5" d="M1816.8,380.6c0,0-2.6-1.4,0-4.7c2.6-3.3,3.7-3.1,4.5-2.4s1.3,2.4-0.8,5.2S1818,381.3,1816.8,380.6z"/>
	<path class="layout" data-layout="5" d="M1823.7,372.8c0,0-1.5-1.8,1.5-3.8s5-2.8,5.8-1.8s-0.3,2.5-3.3,4.8S1823.9,373.2,1823.7,372.8z"/>
	<path class="layout" data-layout="5" d="M1834.5,368.4c0,0-1.4-2.1,1.4-5.6c2.8-3.5,4.5-8.2,4.5-8.2l0.8,4.9l6.1-6.2l-0.7,6.3l10.2-6l-3.5,5.7
		l11.8-1.2l-12,5l7.3,1.3l-10.8,1.9l4.3,4.3c0,0-12.2-0.9-14.5-1C1837,369.4,1835.1,369.5,1834.5,368.4z"/>
	<path class="layout" data-layout="5" d="M1833.6,449.5c0,0-0.6,1.8-8.9,0s-15.9-5.3-19.3-7.3s-2.8-3-1.9-3.8s1.8,0.3,3.9,1.6s9.6,5.1,18.2,6.8
		S1833.6,449.5,1833.6,449.5z"/>
	<path class="layout" data-layout="5" d="M1836.1,448.6c0,0-0.3-0.7,0.5-2.2c0.8-1.5,1.6-1.6,2.1-1.3s1.2,1.3,0.4,2.7
		C1838.3,449.1,1836.5,449.5,1836.1,448.6z"/>
	<path class="layout" data-layout="5" d="M1747.4,504.3c0,0-2.8-0.6-2.9-8.3s5.3-22.3,13.5-29.6s23.2-15.8,25.6-13.7s-4.6,6.3-13,15.4
		s-15.1,21.2-17.2,26.9S1748.9,504.5,1747.4,504.3z"/>
	<path class="layout" data-layout="5" d="M1753.8,533.6c0,0-2.9,1.1-7.2-5.1s-4.6-11-4.9-14.8c-0.3-3.8,0-8.3,0.6-8.6s4,10.3,6.3,15.6
		S1755.7,531.5,1753.8,533.6z"/>
	<path class="layout" data-layout="5" d="M1864.3,519.6c0,0-1.9-1.4-0.4-6.7c1.5-5.3,2.1-15.1-0.1-15.9c-2.2-0.8-2.4,2.1-3.5,2.3s-1.2-1.5-2.8-5.9
		s-6.9-13.2-10.9-18.4s-3.6-6.8-2.3-8.4s4.1-3,9.1,3.1s12.9,16.7,14.4,27.8S1867.3,521.9,1864.3,519.6z"/>
</g>
</svg>