<svg xmlns="http://www.w3.org/2000/svg" xmlns:xlink="http://www.w3.org/1999/xlink" x="0px" y="0px" viewBox="0 0 1024 768" >
<path class="layout" data-layout="5" d="M625.2,437.2c-3.4-24.2-18.9-39.9-21.6-40.2c-2.7-0.3-2.8,3-3.9,8.2c-1,5.2-8.2,26.2-23.5,33.9c-4.2,2.1-7.6,3.6-10.4,4.6
	c-13.2-6.2-28-11.2-39.6-15.6c-1-20.4-2.2-50.1-3.1-72.6c21-12.2,48.4-30.2,56.6-49.9c3.6-0.5,6.5-1,8.2-1.3
	c10.4-1.8,13.4-1.9,13.5-7c0.1-5.1,0.6-5.8-9.5-5.7c-1.8,0-5.4,0-9.9,0.1c-2-24.8-34.1-36-47.9-39.6c-4.7-6-12.9-9.9-22.2-9.9
	c-14.6,0-26.4,9.7-26.4,21.6c0,9.5,7.6,17.6,18.1,20.5l-0.5,7.5c0,0-61.1,0.1-71.2,0c-10.1-0.1-9.7,0.6-9.5,5.7
	c0.1,5.1,3.1,5.2,13.5,7c10.4,1.8,65.9,9.4,65.9,9.4s0.1,1.5,0,10.6c0,2.6-0.4,13-0.9,26.8c-3.6,2.2-7.5,4.5-11.8,7.3
	c-18.3,11.7-22.8,22-23.3,32.5c-0.5,10.5,2,19.9,18.9,32.4c3.9,2.9,8.2,5.5,12.7,8c-0.5,9.3-0.9,16.2-1.2,19.1
	c-1.3,13.4-16.8,23.5-31.4,23.8c-14.6,0.3-26-15.5-25.9-17.1c0.1-1.6,3.3-2.7,13.7-3.9c10.4-1.2,15.9-2.4,15.6-5.1
	c-0.3-2.7-5.4-1.3-20.7-9.1c-15.3-7.7-22.5-28.7-23.5-33.9c-1-5.2-1.2-8.5-3.9-8.2c-2.7,0.3-18.1,15.9-21.6,40.2
	c-3.4,24.2,5.2,45.4,6.7,45.4c1.5,0,3.6-5.1,6.7-9.5s7.4-7.9,8.6-8c1.2-0.1,3.1,11,18.6,22.9c15.5,11.9,41.9,17.7,53.6,20.4
	c11.7,2.7,13.6,10.9,13.8,13.8c0.2,2.8,2,3.6,3.3,3.6c1.3,0,1.9,0,1.9,0s0.6,0,1.9,0c1.3,0,3-0.8,3.3-3.6
	c0.2-2.8,2.2-11.1,13.8-13.8c10.4-2.4,32.5-7.2,48.1-16.6c-5.2,12.6-23.2,14.6-28.3,15.2c-5.7,0.6-11.7,3.2-10.9,8.5
	c0.8,5.4,9.9,7.6,26.2,3c16.3-4.7,33.4-14.5,32.1-42.9c0-0.5-0.1-1-0.1-1.5c3.5-5.3,4.5-8.9,5.1-8.8c1.2,0.1,5.5,3.6,8.6,8
	c3.1,4.5,5.2,9.5,6.7,9.5S628.6,461.5,625.2,437.2z M565.2,291.9c-20.4,0-44.4-0.1-44.4-0.1l-0.5-7.5c8.7-2.4,15.5-8.4,17.5-15.8
	C554.5,275,564.1,282.8,565.2,291.9z M498.8,263.8c0-6,5.9-10.8,13.2-10.8s13.2,4.8,13.2,10.8c0,6-5.9,10.8-13.2,10.8
	S498.8,269.8,498.8,263.8z M522.1,324.4c-0.1-9.1,0-10.6,0-10.6s19.2-2.6,37.1-5.2c-5.2,6.8-13.5,13.7-23.9,21
	c-4.6,3.3-8.8,6-12.8,8.6C522.3,331.1,522.1,326.1,522.1,324.4z M483.3,393.7c-0.2-8.2,3.6-15.8,15.7-24.2c0.4-0.3,0.8-0.5,1.3-0.8
	c-0.6,14.7-1.3,30.9-1.9,45.1C488.1,406.4,483.5,399.7,483.3,393.7z M527.6,450.5c-0.1-1.2-0.3-3.3-0.4-5.9c6.8,2.6,13.8,5,20.8,7.4
	c12.8,4.5,22.1,9.6,27.4,16.1c-4.4,3.4-10.1,6.3-16.4,6.1C544.4,474,529,463.9,527.6,450.5z"/>
</svg>