<svg xmlns="http://www.w3.org/2000/svg" xmlns:xlink="http://www.w3.org/1999/xlink" x="0px" y="0px" viewBox="0 0 1024 768" >
<path class="layout" data-layout="5" d="M463.3,348.8c2.1,0,5.4-0.1,7.5-0.1l0.1,2.4c-2.3,0-6,0.1-8.3,0.1c-0.8,0-1.6,0.3-1.6,1.5c0,1.5,1,1.5,2.6,1.5
	c2.1,0,5.3-0.1,7.4-0.1l0.1,2.3c-0.5-0.1-1.3-0.2-2.5-0.2c-4.9,0-7.4,2.2-7.4,5c0,3.3,3.2,5,7.5,5c5.3,0,5.8-2.9,6-5.5
	c0.5,0.2,1,0.5,1.7,1c1.3,0.8,2.5,1.8,3.3,2.4c0.8,0.7,1.2,1.1,1.9,1.1c0.9,0,1.8-1,1.8-2c0-0.3,0-0.9-1.1-1.7
	c-1.3-1-4.3-3.2-7.6-4.3l-0.1-3.1c0.9,0,5.2-0.2,6.2-0.2c1.3,0,2.3-0.1,2.3-1.5c0-1.4-1.1-1.5-1.6-1.5c-0.1,0-0.3,0-0.7,0
	c-0.9,0-5.3,0.1-6.3,0.2l-0.1-2.4c3.3-0.1,3.7-0.1,6.6-0.2c1.2,0,2.2-0.1,2.2-1.5c0-1.5-1.2-1.5-1.6-1.5c-0.1,0-0.3,0-0.7,0
	c-1,0.1-5.6,0.2-6.6,0.2l0-1.4c0-1.2-0.8-1.6-1.8-1.6c-0.9,0-1.8,0.3-1.8,1.6l0,1.5c-1,0-5.7,0.1-6.7,0.1h-1.4c-0.6,0-1.9,0-1.9,1.5
	C460.7,348.8,461.7,348.8,463.3,348.8z M470.9,361.6c-0.2,1.1-0.9,1.7-2.8,1.7c-2,0-3.8-0.6-3.8-2.1c0-2,2.8-2.2,3.9-2.2
	c1.4,0,2.2,0.3,2.7,0.4C470.9,360.8,470.9,361.1,470.9,361.6z M474.2,429.4c-5.7,0-11.1,2.5-12.1,3c-1.1,0.5-1.7,0.9-1.7,1.9
	c0,0.8,0.5,2,1.8,2c0.3,0,0.5-0.1,1-0.2c0.4-0.2,2.3-1.2,2.8-1.4c2.7-1.3,6.1-2,7.7-2c0.6,0,2.3,0.1,3.5,0.9
	c0.8,0.6,1.4,1.8,1.4,3.2c0,3.8-3.6,6.3-10.2,6.4c-1.8,0.1-2.8,0.1-2.8,1.6c0,1.8,1.7,1.8,2.2,1.8c1.5,0,3-0.1,4.4-0.3
	c4.3-0.6,10.2-2.6,10.2-9.6C482.5,434.8,481.7,429.4,474.2,429.4z M482,411.9c-1.8-1.4-3.9-2.5-6.1-3.2l-0.1-3.9
	c2.9,0,5.8-0.1,6.1-0.2c1.1-0.2,1.2-1.1,1.2-1.6c0-0.7-0.3-1.6-1.5-1.6c-0.2,0-1.4,0.1-1.7,0.1c-1.9,0.1-3.2,0.1-4.2,0.1l0-1.9
	c0-1.1-0.5-1.7-1.7-1.7c-1.2,0-1.7,0.7-1.7,1.7l0.2,8.3c-0.5-0.1-0.8-0.1-1.4-0.1c-3.9,0-6.6,1.7-6.6,4.8c0,3.2,2.7,4.6,6.1,4.6
	c5.3,0,5.2-3.3,5.2-5.3c2,0.9,3.2,1.9,3.9,2.6c1.3,1.3,1.5,1.5,2.2,1.5c0.9,0,1.8-0.9,1.8-2C483.7,413.5,483.5,413,482,411.9z
	 M472.4,413.7c-0.3,0.7-1.7,0.7-2,0.7c-1,0-2.6-0.2-2.6-1.7c0-1.8,2.5-1.9,3.3-1.9c0.7,0,1.1,0.1,1.6,0.2
	C472.6,413.1,472.6,413.2,472.4,413.7z M477.5,427.6c0.6,0,0.9-0.1,1.2-0.3c0.3-0.2,0.7-0.8,0.7-1.5c0-1.6-1.4-1.7-2.1-1.7
	c-4-0.2-7.5-0.6-10.2-1.1c-0.9-0.2-1.1-0.2-1.4-0.2c-1,0-1.4,0.8-1.5,1.5c-0.2,1.6,1,1.8,2.2,2.1
	C469.1,426.8,475.7,427.6,477.5,427.6z M548.5,389.7c-1.8,0.1-2.8,0.1-2.8,1.6c0,1.8,1.7,1.8,2.2,1.8c1.5,0,3-0.1,4.4-0.3
	c4.3-0.6,10.2-2.6,10.2-9.6c0-1.8-0.9-7.2-8.3-7.2c-5.7,0-11.1,2.5-12.1,3c-1.1,0.5-1.7,0.9-1.7,1.9c0,0.8,0.5,2,1.8,2
	c0.3,0,0.5-0.1,1-0.2c0.4-0.2,2.3-1.2,2.8-1.4c2.7-1.3,6.1-2,7.7-2c0.6,0,2.3,0.1,3.5,0.9c0.8,0.6,1.4,1.8,1.4,3.2
	C558.7,387.1,555.2,389.6,548.5,389.7z M541.2,356.3c0.6,0.1,3.1,0.2,4,0.2c0,0.6-0.1,1.8-0.1,2.4c0,5,2.3,7.5,8.7,7.5
	c5.1,0,9.6-1.2,9.6-8c0-1.9-0.4-3.6-0.9-4.6c-0.4-0.7-0.9-1.4-1.9-1.4c-0.8,0-1.8,0.4-1.8,1.3c0,0.3,0.1,0.5,0.3,1.2
	c0.2,0.7,0.6,1.9,0.6,3.2c0,3.6-2,4.8-5.9,4.8c-4.7,0-5.1-1.8-5.1-4.1c0-0.3,0-1.2,0.1-2.4h0.4c1.2,0,6.1-0.2,6.8-0.3
	c0.3,0,1.3-0.2,1.3-1.6c0-1.6-1.3-1.6-1.7-1.6c-0.3,0-1.7,0.1-2,0.1c-1,0.1-1,0.1-4.5,0.1l0.4-3.5c3,0,6.1-0.1,9.1-0.2
	c1-0.1,2.2-0.1,2.2-1.6c0-1.6-1.3-1.6-1.8-1.6c-0.3,0-1.8,0.1-2.1,0.1c-2.9,0.1-5.2,0.1-7.1,0.2l0.2-2c0.2-1.5-0.8-1.9-1.9-1.9
	c-1.7,0-1.8,1-1.8,1.8l-0.2,2.1c-0.5,0-3-0.1-3.5-0.1c-0.6,0-1.8,0.1-1.8,1.6c0,0.8,0.4,1.4,1,1.5c0.6,0.2,3.2,0.1,4.1,0.1l-0.3,3.6
	c-1,0-2.5-0.1-3.5-0.1c-0.4,0-1.8,0-1.8,1.6C540.3,355.6,540.6,356.1,541.2,356.3z M557.5,374.2c0.6,0,0.9-0.1,1.2-0.3
	c0.3-0.2,0.7-0.8,0.7-1.5c0-1.6-1.4-1.7-2.1-1.7c-4-0.2-7.5-0.6-10.2-1.1c-0.9-0.2-1.1-0.2-1.4-0.2c-1,0-1.4,0.8-1.5,1.5
	c-0.2,1.6,1,1.8,2.2,2.1C549.1,373.5,555.7,374.2,557.5,374.2z M517.2,348.6c0.3,0.2,0.9,0.8,1.3,1.5c1.4,2.3,1.7,5.5,1.8,7.1
	c0.1,0.7,0.2,1.7,1.7,1.7c2,0,2-1.4,2-1.9c0-0.2-0.1-3.4-1.2-6.3c-1.3-3.3-3.8-5.4-5.2-5.4c-0.2,0-0.6,0-1,0.3
	c-0.2,0.1-0.6,0.6-0.6,1.1C515.8,347.3,516.2,347.6,517.2,348.6z M519.5,344.6c0.2,0.3,0.5,1,0.7,1.4c0.1,0.1,0.3,0.5,0.7,0.5
	c0.3,0,1-0.2,1-0.8c0-0.5-0.6-1.6-0.9-2.2c-0.8-1.4-1-1.5-1.4-1.5c-0.4,0-1,0.3-1,0.8c0,0.2,0.1,0.4,0.1,0.5
	C518.9,343.5,519.4,344.4,519.5,344.6z M479.8,381.5c-0.1,0.4-0.5,2.2-0.6,2.6c-0.7,2.5-2.2,5.4-7.9,5.4c-5.1,0-5.1-3-5.1-6.5
	c0-1.1,0-2,0.2-7.1c0-0.6,0.2-3.8,0.2-4.5c0-0.6,0-2-1.8-2c-1.5,0-1.9,0.7-2,1.8c0,0.1-0.2,8.6-0.2,12.8c0,3.7,0.6,5.6,2.6,7.2
	c1.4,1.1,3.5,1.7,6.3,1.7c4.1,0,7.5-1.2,9.7-4.3c1.8-2.7,2.3-5.6,2.3-6.6c0-1.5-1.6-1.6-2-1.6C481.2,380.4,480.2,380.4,479.8,381.5z
	 M502.1,392.6c1.3,0,1.5-0.8,1.9-2.2c0.5-2.2,0.9-3.3,1.2-4.1c1-2.5,3-4.1,4.5-4.1c1.8,0,1.8,1.2,1.8,2.3c0,0.5-0.1,2.7-0.1,3.2
	c0,0.7,0,1.8,0.7,3.1c0.9,1.5,2.7,2,4.2,2c0.3,0,1,0,1.9-0.2c2.9-0.7,4.1-3.4,4.4-4.3c0.7-2,1.1-4.8,1.1-6.8c0-0.7,0-2.1-1.8-2.1
	c-1.6,0-1.7,1-1.8,1.9c-0.1,2.3-0.1,2.8-0.3,3.6c-0.4,2.2-1.2,4.4-3.2,4.4c-1.8,0-1.8-1.8-1.8-2.2c0-0.1,0.2-3.1,0.2-3.7
	c0-2.4-0.9-4.6-4.2-4.6c-1.7,0-2.6,0.7-3.9,1.7c1.2-3.1,1.7-4.6,2.5-6.5c0.8-1.9,1-2.6,1-3.2c0-1.2-1.3-1.5-1.9-1.5
	c-1.3,0-1.6,0.9-1.9,1.9l-0.9,2.5c-1.7,4.9-3.3,9.8-4.8,14.8c-0.6,1.8-0.6,2-0.6,2.5C500.2,392.3,501.4,392.6,502.1,392.6z
	 M548,445.5c1.2,0.1,2.8,0.3,5,0.3c3.9,0,7.3-0.4,8.6-0.7c1.2-0.3,1.7-0.7,1.7-1.9c0-1.6-1.4-1.6-1.7-1.6c-0.4,0-0.5,0-2,0.3
	c-1.9,0.4-4.7,0.6-7.2,0.6c-3.2,0-7.5-0.3-7.5-2.8c0-0.6,0.1-1.1,1.3-2.2c1-1,1.5-1.4,1.5-2c0-0.6-0.6-1.6-1.8-1.6
	c-0.5,0-0.8,0.2-1.4,0.6c-1.3,1-3.1,2.9-3.1,5.5C541.2,444.3,546.2,445.3,548,445.5z M522.7,341.5c-0.4,0-1,0.3-1,0.7
	c0,0.2,0.1,0.4,0.1,0.6c0.1,0.2,0.6,1.1,0.7,1.3c0.1,0.2,0.6,1.1,0.7,1.4c0.1,0.3,0.4,0.5,0.7,0.5s0.9-0.2,0.9-0.8
	c0-0.6-0.8-2-1.1-2.5C523.3,341.7,523.1,341.5,522.7,341.5z M551.5,429.9c0,0.9,0.7,1.6,1.7,1.6c0.5,0,0.9-0.2,1.7-0.6
	c0.6-0.4,3.6-2.3,4.3-2.7c1.8-1.1,2.1-1.3,2.1-2.4c0-1.6-1.3-1.7-2.3-1.7c-0.2,0-1.3,0.1-1.6,0.1c-1.3,0.1-7,0.2-8,0.2
	c-0.7,0-4-0.1-4.4-0.1c-1.1,0-2.3,0-2.3,1.7c0,1.7,1.4,1.7,2.2,1.7c2.8,0,6.9-0.2,9.6-0.4c-0.2,0.2-1.4,0.7-1.7,0.9
	C551.9,428.9,551.5,429.3,551.5,429.9z M562.1,398.7c-0.2,0-3.7,0.1-4.2,0.1v-1.2c0-0.4,0-1.8-1.8-1.8c-1.8,0-1.8,1.4-1.8,1.8l0,1.2
	c-2.1,0.1-5.6,0.1-9.2,0.1h-3c-0.9,0-2.1,0-2.1,1.6c0,1.1,0.7,1.4,0.9,1.5c0.3,0.1,0.5,0.1,3.4,0.1c3.4,0,6.7-0.1,10-0.1l0.1,2.3
	c-1.5-0.8-3.5-0.8-3.9-0.8c-4.3,0-6.6,2.5-6.6,5.3c0,2.9,2.3,5.3,6.6,5.3c2.8,0,3.7-1,4.5-1.8c-0.5,1.9-1.7,4.2-7.8,4.2
	c-1.7,0-2.6,0-2.6,1.4c0,1.7,1.6,1.7,2.1,1.7c0.3,0,2,0,4-0.3c4.3-0.6,7.9-2.9,7.9-8.2c0-1.8-0.4-2.8-0.6-3.6V402
	c0.5,0,2.7-0.1,3.3-0.1c1.7-0.1,2.7-0.1,2.7-1.6C563.8,398.8,562.7,398.7,562.1,398.7z M550.9,411.5c-1.3,0-3.4-0.6-3.4-2.5
	c0-2,2.2-2.6,3.7-2.6c0.9,0,3.4,0.3,3.4,2.5C554.4,410,553.6,411.5,550.9,411.5z M561.5,460.4c-0.3,0-1.3,0-1.6,1.1
	c-0.1,0.4-0.5,2.2-0.6,2.6c-0.7,2.5-2.2,5.4-7.9,5.4c-5.1,0-5.1-3-5.1-6.5c0-1.1,0-2,0.2-7.1c0-0.6,0.2-3.8,0.2-4.5c0-0.6,0-2-1.8-2
	c-1.5,0-1.9,0.7-2,1.8c0,0.1-0.2,8.6-0.2,12.8c0,3.7,0.6,5.6,2.6,7.2c1.4,1.1,3.5,1.7,6.3,1.7c4.1,0,7.5-1.2,9.7-4.3
	c1.8-2.7,2.3-5.6,2.3-6.6C563.5,460.5,561.9,460.4,561.5,460.4z M514.1,423.2c-1.6,0-3.3,0.5-4.8,1.7c-1.7,1.4-2.4,2.7-3,3.8
	c0.1-1,0.2-1.7,0.6-3.2c0.1-0.4,0.2-1,0.2-1.4c0-0.8-0.4-1.5-1.9-1.5c-1.4,0-1.7,0.8-1.8,1.3c-0.4,1.6-0.9,7.3-0.9,11.3
	c0,1.1,0.1,3.1,0.3,4c0.2,1,1,1.1,1.7,1.1c1.7,0,1.7-1.2,1.7-1.7c0-0.3-0.1-2.1-0.1-2.4c0-2.1,0.6-4.2,2.3-6.5
	c0.8-1,2.7-3.3,5.3-3.3c3.7,0,4,5.1,4,8c0,5.4-1.9,7.7-6.9,8.4c-0.9,0.1-1.2,0.1-3.6,0.1c-0.5,0-2,0-2,1.6c0,1.8,1.4,1.8,2.9,1.8
	c11.5,0,13.3-5.8,13.3-11.9c0-3.3-0.5-6.3-1.9-8.5C518.6,424.7,516.8,423.2,514.1,423.2z M504.9,417.9c0-0.4-0.1-1.2-0.2-1.6
	c-0.3-1.8-0.5-4.5-0.5-7.3c0-2.1,0.1-4.6,0.4-6.8c0.1-0.7,0.6-3.9,0.6-4.3c0-0.6-0.1-1.4-1.4-1.5c-1.6-0.2-1.9,0.7-2.1,1.3
	c-0.1,0.5-1,5.1-1,11.1c0,3.4,0.3,7.7,0.7,9.4c0.3,1.1,1.1,1.3,1.7,1.3C504.2,419.4,504.9,419,504.9,417.9z M520,395.5
	c-0.3,0-0.9,0.2-0.9,0.8c0,0.2,0,0.3,0.1,0.4c0.1,0.2,0.4,1.1,0.5,1.3c0.1,0.2,0.5,1.3,0.6,1.5c0.1,0.3,0.4,0.5,0.7,0.5
	c0.2,0,1-0.1,1-0.9c0-0.6-0.6-2.1-0.8-2.4C520.7,395.9,520.6,395.5,520,395.5z M500.9,362.4c-0.6,1-0.8,1.4-0.8,1.9
	c0,0.9,1.1,1.7,2,1.7c0.7,0,1.3-0.3,2-1.9c0.9-1.9,3.1-7.3,4.6-13.4c0.7-0.1,1-0.1,1.5-0.1c3,0,3.4,1.3,3.4,4.2
	c0,2.4-0.2,4.4-0.5,5.8c-0.4,1.7-0.9,2.3-2.2,2.3c-0.6,0-1.4-0.2-1.9-0.4c-1.1-0.5-1.2-0.5-1.7-0.5c-1,0-1.4,1.1-1.4,1.7
	c0,0.9,0.5,1.3,1.1,1.5c1.3,0.6,2.7,1,4.2,1c4.6,0,5.9-3.8,5.9-11.2c0-4.9-2-6.4-2.5-6.8c-1.3-0.9-2.7-0.9-5.1-0.9
	c0.2-0.7,0.7-2.7,0.7-3.3c0-1.4-1.5-1.4-1.9-1.4c-0.8,0-1.4,0.3-1.6,1.2c0,0.1-0.7,3.3-0.8,3.8c-2.9,0.1-3.9,0.2-4.6,0.3
	c-0.4,0.1-1.3,0.2-1.3,1.7c0,0.2,0,0.7,0.3,1.1c0.3,0.5,0.9,0.6,1.3,0.6c0.1,0,3-0.3,3.4-0.3c-0.6,2.1-1,3.5-1.4,4.6
	C503.1,357.4,501.8,360.7,500.9,362.4z M518.6,410.2l-0.1-5.9c1.2-0.1,3.4-0.2,3.7-0.2c0.8-0.1,1.3-0.7,1.3-1.6
	c0-1.7-1.3-1.7-1.7-1.7c-0.3,0-2.9,0.1-3.3,0.1l-0.1-2.9c0-0.7,0-1.8-1.8-1.8c-1.7,0-1.8,1.2-1.8,1.9l0.1,3c-1.3,0-5.1,0.1-6.7,0.1
	c-0.5,0-1.8,0-1.8,1.7c0,1.7,1.3,1.7,1.8,1.7c2.3,0,4.1-0.1,6.8-0.1l0.1,4.7c-0.5-0.1-1.2-0.3-2.3-0.3c-3.7,0-6.3,2-6.3,5.3
	c0,2.7,1.8,5.3,6.3,5.3c1.1,0,4-0.2,5.1-2.3c0.4-0.9,0.5-2,0.5-3.1c0.8,0.6,1.3,1,1.8,1.5c1.1,1.2,1.3,1.4,1.9,1.4
	c0.9,0,1.8-0.9,1.8-1.9c0-0.5-0.3-1.1-1-1.8C522.5,412.9,521.1,411.6,518.6,410.2z M515,415.4c-0.5,1-1.8,1.2-2.5,1.2
	c-0.7,0-3-0.2-3-2.3c0-2.2,2.4-2.4,3.2-2.4c1.2,0,1.8,0.2,2.4,0.5C515.2,414,515.2,414.8,515,415.4z M523.1,395c-0.3,0-1,0.2-1,0.8
	c0,0.2,0,0.3,0.1,0.4c0.1,0.2,0.5,1.1,0.5,1.3c0.1,0.2,0.4,1.2,0.5,1.4c0.1,0.3,0.4,0.5,0.7,0.5c0.1,0,1,0,1-0.8
	c0-0.5-0.5-1.8-0.7-2.2C523.8,395.3,523.6,395,523.1,395z M630.1,369c0-5.3-0.8-10.6-2.5-15.8l-4.2,1.3l4.2-1.4
	c-7.1-21.7-27.1-35.4-48.7-35.4c-5.2,0-10.4,0.8-15.6,2.4c-0.1-28.2-23-51-51.2-51c-28.2,0-51.1,22.8-51.2,51
	c-5.2-1.7-10.4-2.4-15.6-2.4c-21.6,0-41.7,13.8-48.7,35.4c-1.7,5.2-2.5,10.6-2.5,15.8c0,21.5,13.7,41.5,35.2,48.6
	c-6.5,9-9.6,19.5-9.6,29.9c0,15.8,7.3,31.5,21.1,41.5c9.1,6.6,19.6,9.8,30.1,9.8c15.7,0,31.3-7.3,41.3-20.9
	c10,13.7,25.6,20.9,41.3,20.9c10.4,0,21-3.2,30.1-9.8c13.8-10,21.1-25.7,21.1-41.5c0-10.4-3.1-20.8-9.6-29.9
	C616.4,410.5,630.1,390.5,630.1,369z M591.9,409.4c-1.8,0.6-3.7,1-5.7,1.4l-8.2,1.4l5.8,6c1.4,1.4,2.7,2.9,3.8,4.5
	c5.5,7.5,8.1,16.2,8.1,24.9c0,13.1-6.1,26.1-17.5,34.4c-7.6,5.5-16.3,8.1-24.9,8.1c-13.1,0-26.1-6.1-34.4-17.5
	c-1.1-1.6-2.1-3.2-3.1-5l-3.9-7.3l-3.9,7.3c-0.9,1.8-1.9,3.5-3.1,5c-8.3,11.5-21.3,17.5-34.4,17.5c-8.6,0-17.3-2.6-24.9-8.1
	c-11.4-8.3-17.5-21.2-17.5-34.4c0-8.6,2.6-17.4,8.1-24.9c1.1-1.6,2.4-3,3.8-4.5l5.7-5.9l-8.1-1.4c-2-0.4-3.9-0.8-5.7-1.4
	c-17.9-5.8-29.3-22.5-29.3-40.3c0-4.3,0.7-8.8,2.1-13.1c5.8-17.9,22.4-29.3,40.3-29.3c4.3,0,8.8,0.7,13.1,2.1
	c1.8,0.6,3.6,1.4,5.4,2.2l7.4,3.6l-1.1-8.1c-0.3-2-0.5-4-0.5-5.9c0-23.4,19-42.4,42.4-42.4c23.4,0,42.4,19,42.4,42.4
	c0,1.9-0.2,3.9-0.5,5.9l-1.1,8.2l7.4-3.6c1.8-0.9,3.6-1.7,5.4-2.3c4.3-1.4,8.8-2.1,13.1-2.1c17.9,0,34.5,11.4,40.4,29.4l0,0
	c1.4,4.4,2.1,8.8,2.1,13.1C621.3,386.9,609.9,403.5,591.9,409.4z"/>
</svg>