<svg xmlns="http://www.w3.org/2000/svg" xmlns:xlink="http://www.w3.org/1999/xlink" x="0px" y="0px" viewBox="0 0 1024 768" >
<path class="layout" data-layout="5" d="M573.3,399.1c-9.4-3.7-7.7-3.7-14.1-6.2c-6.4-2.5-5.6-7-0.9-11.7c4.7-4.7-0.6-7.1-0.4-10.8c0.3-3.7,2.4-7.1,11.2-7.5
	c10.7-0.5,5.6-11.4-0.7-6.5c-3.5,2.8-7.7,2.5-13.4,1.7c-5.7-0.7-6-7-6.5-11.4c-0.5-4.5,5.8-9.8,16.4-18.6
	c10.5-8.7-4.5-21.4-10.3-4.3c-3.5,10.4-10.1,15.2-14.3,16.7c-4.2,1.5-3.7-1.3-8.9-4.1c-6.6-3.5-11.2,0-11.2,0
	c-9.9,1-5.7-3.9-11.1-18.3c-5.2-13.6-3.7-12.9-6.7-25.3c-4.6-19.2-22.9-10.3-13.7,4.6c2.7,4.3,9,7,13.6,23.6
	c4.1,14.6-1.5,17.2-6.1,19.4c-7.2,3.4-8.7,3.8-10.7,8.7c-2,4.9-2,4.9-14.8-2c-12.9-6.9-12.9,8.9,1,9.9c13.8,1,4.9,14.8,2,18.8
	c-3,4-4.1,4.9-20,9.8c-15.8,4.9-8.2,22.6,2.9,12.5c5.7-5.2,15-11.5,23.9-12.5c8.9-1,7.9,10.9-1,18.8c-8.9,7.9,2,13.8,5.9,8.9
	c4-4.9,0-13.8,7.9-12.9c7.9,1,7.7,17.4,4,27.7c-1.2,3.2-4.3,16.6,0.9,18.1c5.2,1.5,6.5-7.9,6.2-12.7c-0.2-4.7-1.9-14.1,2.2-17.9
	c2.7-2.5,6-2.2,8.9,1.7c3,4,2,29.7,1.2,37.7c-1,11.2-4.6,29.5,5.5,30.5c10.2,1,11.6-9.5,5.1-30.7c-4.1-13.5-3.9-35.5,1-38.3
	c5-2.7,5-9.6,7.8-9.9c3.7-0.3,3.7-2.3,7.9,4.4c6.1,9.9,13.6,2.4,4.7-3.7c-4.9-3.4-2.6-10.7,2.6-11.2c5.2-0.5,6,4,17.6,10.9
	C581,414.5,582.7,402.8,573.3,399.1z"/>
</svg>