<svg xmlns="http://www.w3.org/2000/svg" xmlns:xlink="http://www.w3.org/1999/xlink" x="0px" y="0px" viewBox="0 0 1024 768" >
<path class="layout" data-layout="5" d="M542.3,507.8c3.8-2.8,0.3-36.6,10-48.2c5.7-6.8,25.6-39.7,8.7-47.7c-10-4.7-11-12.3-8-29c9.9-54.8,19.2-99.8,21.4-109.8
	c5-22.3-17.8-23.8-23.1-1.8c-5.1,20.9-17.1,96.3-30.5,93.1c-11.8-2.8-10.3-97.9-10.9-106.5c-0.8-11.4-15.5-17-20.5-6
	s4.3,97.1,0.3,98.8s-11-1.3-15,5.3s-1.3,12.7-19.7,15c-9.9,1.3-8,17-6,19.7c2,2.7-6.5,9.2-8.5,10.9s0.9,12.8,2.6,14.1
	c1.7,1.3,7.6,28.7,7.3,35.3c-0.3,6.7,10.7,29.3,18,36.7c3,3,0.1,19.2,2.3,21.7C477.6,517.2,530.8,516.3,542.3,507.8z"/>
</svg>