<svg xmlns="http://www.w3.org/2000/svg" xmlns:xlink="http://www.w3.org/1999/xlink" x="0px" y="0px" viewBox="0 0 1024 768" >
<path class="layout" data-layout="5" d="M628.3,384.5c7.3-10.1,10.6-19.1,12-24.4c0.4-1.5,0.6-2.9,0.6-4.5c0-1.9-0.3-3.7-0.9-5.6c-1.2-3.2-3.7-4.5-5.8-5.6
	c-0.9-0.4-1.8-0.9-2.6-1.2c1.2-2,2.8-4.8,3-8c0-0.6-0.1-1.3-0.3-2c-1.1-3.3-3.1-6.3-5.9-8.5c-4.4-3.5-11.5-8.1-21.6-11.7
	c-0.7-9.1-2.7-16-4.3-20.1c-1.2-3.1-3.3-5.9-6.1-7.9c-1.4-1-3-1.2-4.3-1.2c-2.4,0-5,0.7-6.7,1c-0.3-2.8-0.3-7.1-3.7-10.1
	c-2.7-2-6-3.1-9.4-3.3c-0.8,0-1.7-0.1-2.6-0.1c-4.8,0-11.2,0.6-18.7,2.5c-7.7-10.9-15.7-17.1-20.4-20.2c-2.8-1.8-6.1-2.8-9.5-2.9
	c-0.1,0-0.1,0-0.2,0v0c0,0,0,0-0.1,0c-0.1,0-0.2,0-0.3,0c-3.2,0.3-5.1,2.2-6.8,3.8c-0.7,0.7-1.4,1.5-2,2.2c-0.6-0.6-1.2-1.3-1.8-2
	c-1.5-1.5-3.3-3.3-6.2-3.6c-0.3-0.1-0.5-0.1-0.7-0.1c-0.1,0-0.1,0-0.2,0c-3.4,0-6.7,1.1-9.6,3c-4.6,3.1-12.4,9.3-19.9,19.9
	c-7.5-1.9-14-2.5-18.7-2.5c-1.2,0-2.2,0-3.2,0.1c-3.4,0.2-6.5,1.4-9.2,3.3c-3.4,3-3.5,7.4-3.8,10.4c-1.7-0.3-4-0.9-6.2-0.9
	c-1.4,0-3,0.2-4.5,1.3c-2.7,2-4.8,4.8-6,8c-1.5,4.1-3.4,10.7-4.1,19.6c-11.2,4-18.6,9.1-22.3,12.1c-2.7,2.1-4.7,5-5.8,8.3
	c-0.3,0.7-0.3,1.5-0.3,2.2c0.2,3.4,1.9,6.3,3.1,8.4c-0.8,0.3-1.6,0.7-2.4,1.1c-2,1.1-4.5,2.3-5.7,5.5c-0.6,1.8-0.9,3.6-0.9,5.5
	c0,1.6,0.2,3.2,0.7,4.8c1.4,5.1,4.7,13.9,11.9,23.8c-7,9.9-10.2,18.6-11.6,23.8c-0.4,1.4-0.6,2.9-0.6,4.4c0,1.8,0.3,3.7,0.9,5.5
	c1.1,3,3.6,4.3,5.6,5.4c1,0.5,2.1,1,3,1.4c-1.2,2.1-3,4.9-3.2,8.2c0,0.6,0.1,1.3,0.3,2c1,3.2,3,6.1,5.7,8.2
	c4.2,3.4,11.2,7.8,20.9,11.4c0.7,9.5,2.8,16.7,4.4,20.9c1.2,3.2,3.4,6,6.2,8.1c1.5,1.1,3.2,1.3,4.5,1.3c2.3,0,4.6-0.6,6.3-0.9
	c0.1,0.9,0.2,1.9,0.4,2.9c0.4,2.3,0.8,5,3.5,7.1c2.8,2,6.1,3.2,9.6,3.3c0.8,0,1.7,0.1,2.6,0.1c0,0,0.1,0,0.1,0
	c4.9,0,11.6-0.6,19.4-2.7c7.5,10.5,15.3,16.6,19.9,19.6c2.8,1.8,6.1,2.8,9.4,2.8c0,0,0,0,0,0c3.2-0.1,5.2-2,6.9-3.7
	c0.8-0.8,1.6-1.7,2.3-2.5c0.6,0.7,1.4,1.5,2.1,2.3c1.4,1.3,3,2.9,5.3,3.4l0.2,0.2h1.2c3.4,0,6.7-1,9.6-2.9c4.5-3,12.1-9.1,19.4-19.3
	c7.9,2.1,14.5,2.6,19.5,2.6c1.2,0,2.2,0,3.2-0.1c3.4-0.2,6.7-1.4,9.4-3.4c2.7-2.1,3.1-4.9,3.5-7.2c0.2-1.1,0.3-2.1,0.4-3
	c1.6,0.3,3.7,0.8,5.8,0.8c1.4,0,3.1-0.2,4.7-1.3c2.8-2.1,5-4.9,6.2-8.2c1.5-4.2,3.5-11.1,4.2-20.3c10.8-3.9,18-8.8,21.6-11.7
	c2.6-2.1,4.6-4.9,5.6-8.2c0.2-0.7,0.3-1.4,0.3-2c-0.1-3.4-2-6.4-3.3-8.6c0.9-0.4,1.9-0.8,2.8-1.3c2-1.1,4.4-2.3,5.5-5.2
	c0.6-1.7,0.8-3.5,0.8-5.3c0-1.6-0.2-3.2-0.6-4.7C638.3,402.7,635.1,394.1,628.3,384.5z M569.6,276.8c0.8,0,1.6,0,2.3,0
	c2.4,0.1,4.5,0.9,6.4,2.2c0.8-0.1,1.2,5.4,2,9.4l0.6,2.1l2.2-0.1c0.2,0,0.4,0,0.6,0c3-0.1,6.3-1.2,8.2-1.2c0.7,0,1,0.2,1,0.2
	c1.9,1.4,3.3,3.2,4.1,5.3c1.3,3.3,2.9,8.9,3.8,16.3c-8-2.2-17.5-3.8-28.6-3.8c-0.1,0-0.2,0-0.3,0c-1.9,0-3.8,0.1-5.7,0.1
	c-3.2-11.7-7.6-21.1-12.3-28.7C560.3,277.3,565.6,276.8,569.6,276.8z M523.4,255.6L523.4,255.6C523.4,255.6,523.4,255.7,523.4,255.6
	C523.4,255.7,523.4,255.6,523.4,255.6z M502.7,257.3L502.7,257.3L502.7,257.3c-0.1,0-0.3,0-0.4,0
	C502.5,257.3,502.6,257.3,502.7,257.3z M500.2,256.1c-0.3-0.3-0.5-0.7-0.5-0.9C499.8,255.5,500,255.8,500.2,256.1z M426.7,295.4
	c0.8-2.2,2.2-4,4.1-5.4c0,0,0.3-0.2,1.1-0.2c2-0.1,5.1,1.1,8.2,1.2c0.2,0,0.3,0,0.3,0h2.1l0.6-2.1c0.7-4,1.2-9.7,2.1-9.7
	c1.8-1.3,3.9-2.1,6.2-2.2c0.9,0,1.8-0.1,2.8-0.1c3.9,0,9.2,0.5,15.5,1.9c-4.7,7.6-9.1,17.1-12.3,28.7c-1.8-0.1-3.7-0.1-5.5-0.1
	c-11.2,0-20.8,1.6-28.8,3.8C424,304,425.5,298.6,426.7,295.4z M416.6,448.5c0,0.1,0,0.2,0,0.3c-7.9-3.2-13.6-6.9-17.1-9.7
	c-1.8-1.4-3.2-3.4-3.9-5.6c0,0,0-0.1,0-0.2c-0.2-1.3,2.5-5.2,3.9-8.5l0.7-2.1l-1.8-1.2c-1.8-1.2-3.9-1.9-5.7-2.8
	c-1.8-0.9-2.9-1.9-2.8-2.1c-0.4-1.3-0.6-2.5-0.6-3.8c0-1,0.1-2,0.4-2.9c1.2-4.4,3.8-11.9,9.7-20.6c5.9,7.2,13.8,14.7,24.5,21.8
	C418.4,425.5,416.6,438.1,416.6,448.5z M527.8,509.5c-1.9,1.3-4.1,1.9-6.3,2c-0.1,0-0.1,0-0.2,0v0c0,0,0,0,0,0c0,0,0,0-0.1,0
	c-0.3,0-1.4-0.6-2.6-1.9c-1.4-1.4-2.7-3.1-4.4-4.4l-1.7-1.3l-1.7,1.4c-1.7,1.4-3.1,3.2-4.5,4.6c-1.4,1.5-2.7,2.1-2.9,2
	c-2.3,0-4.5-0.7-6.4-1.9c-3.9-2.5-10.6-7.7-17.3-16.6c9.7-3.3,20.8-8.8,32.4-18.1c11.7,9.3,22.8,14.9,32.6,18.2
	C538.1,501.8,531.6,506.9,527.8,509.5z M596.9,472.9c-0.8,2.1-2.1,3.9-4,5.2c0,0-0.2,0.1-0.9,0.1c-1.9,0.1-5-1.1-8.2-1.2
	c-0.3,0-0.3,0-0.3,0h-2.5l-0.6,2.4c-0.6,2.2-0.6,4.4-0.9,6.4c-0.2,2-0.9,3.1-1,3.1c-1.7,1.3-3.8,2-6,2.2c-0.8,0-1.8,0.1-2.8,0.1
	c-11,0-32-3-55.7-22.7l-2-1.7l-2,1.7c-23.6,19.7-44.6,22.7-55.5,22.7c-0.8,0-1.6,0-2.3,0c-2.3-0.1-4.4-0.8-6.2-2.1
	c0,0-0.1-0.1-0.4-0.6c-0.7-1.7-0.7-5.4-1.5-8.5l-0.7-2.3l-2.5,0.1c-0.2,0-0.4,0-0.6,0c-3.2,0.1-6.4,1.2-8.2,1.2
	c-0.3,0-0.5,0-0.6-0.1c-0.1,0-0.2-0.1-0.2,0c-1.8-1.3-3.2-3.1-4-5.1c-1.7-4.5-4.3-13.1-4.3-25c0-10.2,1.8-22.9,7.7-37.6l1-2.5
	l-2.3-1.4c-28.5-17.9-37-39.3-39.4-48c-0.3-1-0.4-2-0.4-3.1c0-1.2,0.2-2.4,0.6-3.5c0,0,0-0.2,0.5-0.5c1.3-1.2,4.9-2.3,7.6-4.1
	l2.1-1.4l-0.9-2.3c-1.5-3.4-4.2-7.4-4-8.6c0-0.1,0-0.1,0-0.1c0.7-2.2,2-4,3.7-5.4c5.8-4.7,23-16.2,52.8-16.3c2.5,0,5.1,0.1,7.7,0.3
	l2.6,0.2l0.7-2.6c8.3-32.6,25.9-47.3,33.5-52.3c1.7-1.1,3.5-1.7,5.4-1.9l3.6,2.2c1.2,1.3,2.6,2.9,4.1,4.1l2,1.5l1.9-1.6
	c1.7-1.4,3.1-3.2,4.5-4.6c1.1-1.2,2.2-1.8,2.5-1.9c-0.1,0-0.2,0-0.3,0h0.3c0,0,0,0-0.1,0h0c0.1,0,0.2,0,0.3,0c-0.1,0-0.1,0-0.2,0h0
	c0.1,0,0.2,0,0.4,0c-0.1,0-0.1,0-0.2,0c2.2,0,4.2,0.7,6,1.8c7.6,4.9,25.5,19.5,33.9,52.6l0.7,2.6l2.7-0.2c2.8-0.2,5.5-0.3,8.1-0.3h0
	c0,0,0,0,0.1,0c27.9,0,44.5,10.1,51.9,15.9c1.8,1.4,3.1,3.3,3.8,5.4c0,0,0,0,0,0.1c0.3,1-2.5,4.9-3.9,8.4l-0.8,2.3l2.1,1.4
	c1.9,1.2,4,2,5.8,2.8c1.8,0.8,2.6,1.8,2.6,1.9c0.4,1.2,0.6,2.5,0.6,3.6c0,1-0.1,1.9-0.4,2.9c-2.3,8.8-10.7,30.3-39.6,48.6l-2.3,1.4
	l1,2.5c5.9,14.7,7.7,27.4,7.7,37.6C600.9,460,598.5,468.4,596.9,472.9z M634.2,416c0.1,0.1-0.9,1.1-2.7,1.9
	c-1.7,0.9-3.8,1.6-5.6,2.8l-1.8,1.3l0.8,2c1.4,3.3,4.2,7.3,4,8.8c0,0.2,0,0.3,0,0.3c-0.7,2.2-2,4.1-3.8,5.5c-3,2.4-8.9,6.5-17.8,10
	c0-0.1,0-0.2,0-0.3c0-10.4-1.8-23.1-7.2-37.5c10.7-7.1,18.7-14.7,24.6-21.9c5.7,8.5,8.5,15.8,9.6,20.1c0.3,1,0.4,2.1,0.4,3.2
	C634.8,413.6,634.6,414.8,634.2,416z M629.8,356.4c0.1-0.4,0.2-0.8,0.2-1.3c0-0.5-0.1-1-0.2-1.5l-1.5,0.5l1.5-0.5
	c-0.4-1.3-1.4-2.5-2.8-3l-8-3.2l4.4-7c0.5-0.8,0.8-1.7,0.8-2.6c0-0.5-0.1-1-0.2-1.5c-0.3-0.9-0.8-1.7-1.6-2.3
	c-6.7-5.4-22.5-14.8-48.8-14.8c-5.1,0-10.5,0.3-16.4,1.1c-7-37.7-26.7-53.6-33.6-58c-0.8-0.5-1.7-0.8-2.6-0.8h0c0,0,0,0,0,0
	c-1.4,0-2.8,0.6-3.8,1.8l-5.5,6.6l-5.3-6.4c-0.9-1.2-2.3-1.8-3.8-1.8c-0.9,0-1.9,0.3-2.7,0.8c-8.5,5.6-26.6,21.7-33.1,57.7
	c-5.7-0.8-11-1.1-15.9-1.1c-28.1,0-44.3,10.7-49.6,15.1c-0.8,0.6-1.3,1.4-1.6,2.3c-0.2,0.5-0.2,1-0.2,1.5c0,0.9,0.2,1.8,0.8,2.6
	l4.6,7.3l-7.7,3.1c-1.4,0.5-2.4,1.7-2.9,3c-0.2,0.5-0.2,1-0.2,1.5c0,0.4,0.1,0.9,0.2,1.3c2.7,9.9,12.4,32,44.7,49.3
	c-8.3,17.4-10.8,32.3-10.8,43.7c0,11.3,2.4,19.2,3.8,23c0.4,0.9,1,1.6,1.7,2.2c0.8,0.6,1.8,0.9,2.9,0.9c0.4,0,0.8,0,1.2-0.1l8.4-2.1
	l0.5,8.3c0.1,1.5,0.9,2.8,2,3.6c0.8,0.5,1.7,0.9,2.7,0.9c0.7,0,1.4,0,2.1,0c0,0,0.1,0,0.1,0c11.2,0,33.8-3.7,58.5-27.3
	c25.4,24.2,48.8,27.3,58.8,27.3c0.9,0,1.7,0,2.4-0.1c1-0.1,1.9-0.4,2.6-0.9c1.1-0.8,1.9-2.1,2-3.6l0.6-8.6l8,2
	c0.4,0.1,0.8,0.2,1.2,0.2c1,0,2-0.3,2.9-0.9c0.8-0.6,1.4-1.3,1.7-2.3c1.7-4.5,3.8-12.2,3.7-22.6c0-11.5-2.5-26.3-10.9-43.6
	C618.7,388,627.8,364.3,629.8,356.4z M592.8,449.9c0,9.9-2,17.2-3.5,21.5c-0.1,0.3-0.4,0.6-0.6,0.8c-0.3,0.2-0.7,0.3-1,0.3
	c-0.1,0-0.3,0-0.4-0.1l-11.6-3l-0.8,12.3c0,0.5-0.3,1-0.7,1.3c-0.3,0.2-0.6,0.3-0.9,0.3c-0.6,0-1.4,0.1-2.3,0.1
	c-9.5,0-32.5-2.9-57.8-27.4l-1.1-1.1l-1.1,1.1c-24.6,24-46.9,27.4-57.5,27.4c-0.7,0-1.4,0-2,0c-0.4,0-0.7-0.1-1-0.3
	c-0.4-0.3-0.7-0.8-0.7-1.3l-0.8-12l-12,3c-0.1,0-0.3,0.1-0.4,0.1c-0.4,0-0.7-0.1-1-0.3c-0.3-0.2-0.5-0.5-0.6-0.8
	c-1.3-3.5-3.6-11-3.6-21.9c0-11.3,2.5-26.1,11.1-43.7l0.7-1.4l-1.3-0.7c-32.5-17.1-41.8-38.8-44.5-48.1c0-0.2-0.1-0.3-0.1-0.5
	c0-0.2,0-0.4,0.1-0.5c0.2-0.5,0.5-0.9,1-1.1l11.2-4.5l-6.6-10.5c-0.2-0.3-0.3-0.6-0.3-0.9c0-0.2,0-0.4,0.1-0.5
	c0.1-0.3,0.3-0.6,0.6-0.8c5-4,20.4-14.4,47.7-14.4c5.2,0,10.9,0.4,17,1.2l1.5,0.2l0.3-1.5c6.2-36.2,23.9-51.8,32-57.1
	c0.3-0.2,0.6-0.3,1-0.3c0.5,0,1,0.2,1.4,0.6l7.7,9.2l7.9-9.5c0.3-0.3,0.6-0.5,1-0.6l1.9,0.9v-0.3c6.9,4.7,25.5,20.3,31.9,57l0.3,1.5
	l1.5-0.2c6.3-0.9,12.1-1.3,17.4-1.3c25.5,0,40.5,9.1,46.8,14.1c0.3,0.2,0.5,0.5,0.6,0.8c0.1,0.2,0.1,0.4,0.1,0.6
	c0,0.3-0.1,0.7-0.3,0.9l-6.4,10.2l11.5,4.6c0.5,0.2,0.9,0.6,1,1.1c0.1,0.2,0.1,0.4,0.1,0.5c0,0.2,0,0.3-0.1,0.4
	c-2,7.4-10.6,30.7-44.6,48.6l-1.3,0.7l0.7,1.4C590.3,423.8,592.8,438.6,592.8,449.9z M458.9,343.6c2.1,0,5.4-0.1,7.5-0.1l0.1,2.4
	c-2.3,0-6,0.1-8.3,0.1c-0.8,0-1.6,0.3-1.6,1.5c0,1.5,1,1.5,2.6,1.5c2.1,0,5.3-0.1,7.4-0.1l0.1,2.3c-0.5-0.1-1.3-0.2-2.5-0.2
	c-4.9,0-7.4,2.2-7.4,5c0,3.3,3.2,5,7.5,5c5.3,0,5.8-2.9,6-5.5c0.5,0.2,1,0.5,1.7,1c1.3,0.8,2.5,1.8,3.3,2.4c0.8,0.7,1.2,1.1,1.9,1.1
	c0.9,0,1.8-1,1.8-2c0-0.3,0-0.9-1.1-1.7c-1.3-1-4.3-3.2-7.6-4.3l-0.1-3.1c0.9,0,5.2-0.2,6.2-0.2c1.3,0,2.3-0.1,2.3-1.5
	c0-1.4-1.1-1.5-1.6-1.5c-0.1,0-0.3,0-0.7,0c-0.9,0-5.3,0.1-6.3,0.2l-0.1-2.4c3.3-0.1,3.7-0.1,6.6-0.2c1.2,0,2.2-0.1,2.2-1.5
	c0-1.5-1.2-1.5-1.6-1.5c-0.1,0-0.3,0-0.7,0c-1,0.1-5.6,0.2-6.6,0.2l0-1.4c0-1.2-0.7-1.6-1.8-1.6c-0.9,0-1.8,0.3-1.8,1.6l0,1.5
	c-1,0-5.7,0.1-6.7,0.1h-1.4c-0.6,0-1.9,0-1.9,1.5C456.3,343.6,457.3,343.6,458.9,343.6z M466.5,356.4c-0.2,1.1-0.9,1.7-2.8,1.7
	c-2,0-3.8-0.6-3.8-2.1c0-2,2.8-2.2,3.9-2.2c1.4,0,2.2,0.3,2.7,0.4C466.6,355.7,466.6,355.9,466.5,356.4z M475.5,376.3
	c-0.1,0.4-0.5,2.2-0.6,2.6c-0.7,2.5-2.2,5.4-7.9,5.4c-5.1,0-5.1-3-5.1-6.5c0-1.1,0-2,0.2-7.1c0-0.6,0.2-3.8,0.2-4.5c0-0.6,0-2-1.8-2
	c-1.5,0-1.9,0.7-2,1.8c0,0.1-0.2,8.6-0.2,12.8c0,3.7,0.6,5.6,2.6,7.2c1.4,1.1,3.5,1.7,6.3,1.7c4.1,0,7.5-1.2,9.7-4.3
	c1.8-2.7,2.3-5.6,2.3-6.6c0-1.5-1.6-1.6-2-1.6C476.8,375.2,475.8,375.2,475.5,376.3z M475.8,395.7c0-1.6-1.3-1.7-1.7-1.7
	c-0.3,0-1.7,0.1-2.1,0.1c-2.7,0.1-5.2,0.2-7.1,0.2c0.1-0.6,0.3-1.4,0.3-2c0-1-0.6-1.5-1.9-1.5c-0.3,0-1.2,0.1-1.5,0.9
	c-0.1,0.3-0.4,2.1-0.5,2.7c-0.2,0-2.6,0-2.7,0l-0.7,0c-1.3-0.1-1.8,0.6-1.8,1.7c0,1,0.5,1.4,0.9,1.5c0.6,0.1,2.9,0.1,3.7,0.1
	c-1.4,6.6-3.5,11.9-4.1,13.3c-0.6,1.3-0.6,1.6-0.6,1.9c0,1.3,1.4,1.6,2,1.6c1,0,1.3-0.7,1.4-0.9c0.6-1,2-5.4,2.6-7.3
	c1.5-4.8,1.6-5.6,2.3-8.6c3.3-0.1,6.6-0.2,9.8-0.3C474.7,397.3,475.8,397.2,475.8,395.7z M467.6,400.5c-1.1,0.2-1.5,0.8-1.5,1.6
	c0,0.2,0,1.6,1.5,1.6c0.2,0,0.6,0,2.6-0.2c0.4,0,1.8-0.1,3.5-0.1c0.6,0,0.9,0,1.3,0c0.6,0,1.7,0.1,1.8,0.1c0.4,0,0.8,0,1.1-0.3
	c0.4-0.3,0.6-0.9,0.6-1.3c0-1.3,0-2-4.3-2C472.3,400.1,469.4,400.2,467.6,400.5z M516.2,350.7l-0.1-5.3c3.3,0,7.1-0.1,7.7-0.2
	c0.9-0.1,1.3-0.7,1.3-1.7c0-1-0.5-1.7-1.7-1.7c-0.2,0-0.6,0-0.8,0c-1.8,0.1-5.1,0.2-6.7,0.2v-2.6c0-1.1-0.4-1.9-1.9-1.9
	c-1.5,0-1.9,0.8-1.8,1.9l0.3,10.6c-0.5-0.1-1.2-0.1-2.1-0.1c-4.3,0-7.8,1.9-7.8,5.7c0,4.1,3.8,5.5,7.3,5.5c6.2,0,6.3-3.6,6.2-6.8
	c1.8,0.8,3.4,1.6,5.2,3.4c1.3,1.3,1.8,1.8,2.6,1.8c1,0,2-1,2-2.2c0-0.7-0.4-1.2-1.2-1.9C522.4,353.2,519.3,351.8,516.2,350.7z
	 M512.1,357.2c-0.5,0.5-1.5,0.7-2.5,0.7c-1.3,0-3.5-0.4-3.5-2.3c0-2.2,2.8-2.6,4.3-2.6c1.1,0,1.6,0.1,2.2,0.3
	C512.7,355.9,512.7,356.6,512.1,357.2z M553.4,366.8c0-1-0.5-1.6-1.6-1.6c-0.8,0-1.6,0.1-1.9,1.2c-0.2,0.7-0.4,5.1-0.4,7.3
	c0,2.9,0,13.5,6.2,13.5c2.7,0,4.2-2,5.1-3.6c0.8-1.4,1.5-2.9,1.5-4.1c0-1-0.9-1.6-1.9-1.6c-1.1,0-1.2,0.5-1.6,1.8
	c-0.6,1.8-1.5,3.4-2.9,3.4c-0.7,0-1.3-0.5-1.6-0.9c-1.1-1.8-1.3-5.8-1.3-8.1c0-2.3,0.2-4.6,0.3-5.3
	C553.2,368.6,553.4,367.2,553.4,366.8z M564.7,366.7c-1.7,0-1.9,1.3-1.9,1.8c0,1.5,0.9,1.6,1.6,1.7c1,0.1,2.4,0.3,3.3,2.2
	c1.3,2.9,1.3,6.6,1.3,11c0,0.7,0,2,1.9,2c1.9,0,1.9-1.4,1.9-2.6c0-4.9-0.5-10.1-2.1-12.7C568.8,367.1,565.8,366.7,564.7,366.7z
	 M561,347.2c-1.1,0.2-1.5,0.8-1.5,1.6c0,0.2,0,1.6,1.5,1.6c0.2,0,0.6,0,2.6-0.2c0.4,0,1.8-0.1,3.5-0.1c0.6,0,0.9,0,1.3,0
	c0.6,0,1.7,0.1,1.8,0.1c0.4,0,0.8,0,1.1-0.3c0.4-0.3,0.6-0.9,0.6-1.3c0-1.3,0-2-4.3-2C565.6,346.7,562.7,346.8,561,347.2z
	 M570.3,357.4c-1.7,0.2-2.9,0.3-4.6,0.3c-1.1,0-2.1-0.1-2.8-0.2c-0.9-0.2-1.5-0.5-1.5-1.3c0-0.3,0-0.3,0.2-0.9
	c0.1-0.1,0.2-0.4,0.2-0.7c0-0.9-1-1.2-1.6-1.2c-2.1,0-2.3,2.3-2.3,3.1c0,3.3,2.7,4.4,9,4.4c0.8,0,3.3,0,4.6-0.3
	c0.8-0.2,1.1-0.8,1.1-1.7c0-1-0.5-1.6-1.6-1.6C570.8,357.4,570.6,357.4,570.3,357.4z M564.3,399.1c-3.5-4.9-4.1-5.8-6.3-5.8
	c-1.7,0-2.7,1-4.1,3.1c-2.3,3.6-3.2,5-4.4,6.5c-0.5,0.7-1,1.3-1,2c0,1.2,1.2,1.9,2.2,1.9c0.9,0,1.3-0.5,1.9-1.5
	c0.9-1.4,2.2-3.8,3.1-5.2c1.1-1.9,1.5-2.5,2.3-2.5c0.7,0,1.1,0.5,2.7,2.8c3.4,4.9,3.8,5.5,7.2,9.7c1.8,2.2,2.3,2.8,3.3,2.8
	c1,0,2-0.9,2-2.1c0-0.8-0.5-1.3-1.4-2.2C569.5,406.2,567.3,403.5,564.3,399.1z M570.7,427.6c-1.6,0-1.7,1-1.8,1.9
	c-0.1,2.3-0.1,2.8-0.3,3.6c-0.4,2.2-1.2,4.4-3.2,4.4c-1.8,0-1.8-1.8-1.8-2.2c0-0.1,0.2-3.1,0.2-3.7c0-2.4-0.9-4.6-4.2-4.6
	c-1.7,0-2.6,0.7-3.9,1.7c1.2-3.1,1.7-4.6,2.5-6.5c0.8-1.9,1-2.6,1-3.2c0-1.2-1.3-1.5-1.9-1.5c-1.3,0-1.6,0.9-1.9,1.9l-0.9,2.5
	c-1.7,4.9-3.3,9.8-4.8,14.8c-0.6,1.8-0.6,2-0.6,2.5c0,1.3,1.2,1.7,1.9,1.7c1.3,0,1.5-0.8,1.9-2.2c0.5-2.2,0.9-3.3,1.2-4.1
	c1-2.5,3-4.1,4.5-4.1c1.8,0,1.8,1.2,1.8,2.3c0,0.5-0.1,2.7-0.1,3.2c0,0.7,0,1.8,0.7,3.1c0.9,1.5,2.7,2,4.2,2c0.3,0,1,0,1.9-0.2
	c2.9-0.7,4.1-3.4,4.4-4.3c0.7-2,1.1-4.8,1.1-6.8C572.5,429,572.5,427.6,570.7,427.6z M549.2,359.5c0,1.3,1.4,1.6,2,1.6
	c1,0,1.3-0.7,1.4-0.9c0.6-1,2-5.4,2.6-7.3c1.5-4.8,1.6-5.6,2.3-8.6c3.3-0.1,6.6-0.2,9.8-0.3c0.6,0,1.8-0.1,1.8-1.7
	c0-1.6-1.3-1.7-1.7-1.7c-0.3,0-1.7,0.1-2.1,0.1c-2.7,0.1-5.2,0.2-7.1,0.2c0.1-0.6,0.3-1.4,0.3-2c0-1-0.6-1.5-1.9-1.5
	c-0.3,0-1.2,0.1-1.5,0.9c-0.1,0.3-0.4,2.1-0.5,2.7c-0.2,0-2.6,0-2.7,0l-0.7,0c-1.3-0.1-1.8,0.6-1.8,1.7c0,1,0.5,1.4,0.9,1.5
	c0.6,0.1,2.9,0.1,3.7,0.1c-1.4,6.6-3.5,11.9-4.1,13.3C549.3,358.9,549.2,359.2,549.2,359.5z M523.2,392.2c-2.9,0-17.8,0.5-19.2,0.6
	c-1.3,0.1-1.7,0.7-1.7,1.8c0,0.7,0.2,1.8,1.8,1.8c0.3,0,1.7-0.1,2-0.2c2.9-0.2,5.9-0.4,8.8-0.6c-1.1,0.7-2.2,1.3-3.7,2.8
	c-2.9,3-3.4,5.5-3.4,7.4c0,2.6,1.1,5.2,3.8,6.5c1.8,0.8,4.8,1.6,8.6,1.6c1.6,0,3.2,0,3.2-2.1c0-0.7-0.3-1.4-1.1-1.6
	c-0.4-0.1-0.6-0.1-2.8-0.1c-4.9,0-8-1-8-4.7c0-3.9,3.5-6.8,5.4-7.9c2.7-1.7,4.3-2.1,6.5-2.1c1.5,0,2.7,0,2.7-1.8
	C526,392.2,524.8,392.2,523.2,392.2z M524.4,424.8c-0.3,0-1.9,0.2-2.2,0.3c-0.9,0.1-2.3,0.2-3.7,0.3c-0.2-0.4-0.5-1-0.9-2.1
	c1.6-0.1,3.8-0.3,4.6-0.4c0.7-0.1,1.7-0.3,1.7-1.5c0-1.5-1.2-1.5-1.5-1.5c-0.4,0-2.3,0.2-2.7,0.3c-0.9,0.1-1.6,0.2-3,0.2
	c-0.1-0.4-0.6-2-0.7-2.3c-0.3-0.6-0.8-0.8-1.4-0.8c-0.3,0-2,0.1-2,1.5c0,0.3,0.1,0.6,0.3,1.7c-1,0-2.5,0.1-3.2,0.1
	c-0.6,0-3.5,0-4.2,0c-0.9,0-1.9,0-1.9,1.5c0,0.8,0.4,1.3,0.8,1.4c0.5,0.1,1.3,0.1,3,0.1c1.5,0,2,0,6.4-0.1c0.1,0.4,0.3,0.9,0.9,2.2
	c-3.3,0.1-4.2,0.2-6.1,0.2c-0.6,0-3.7-0.1-4.5-0.1c-0.6,0-1.6,0.1-1.6,1.5c0,0.9,0.5,1.3,0.8,1.4c0.5,0.1,3.3,0.2,4,0.2
	c2,0,2.4,0,8.7-0.2c0.9,1.6,1.1,2,1.6,2.6c-1.8-0.5-3.5-0.6-5.3-0.6c-2.2,0-4.8,0.4-6.4,1.5c-1.2,0.9-2.1,2.1-2.1,3.8
	c0,2.2,1.4,3.7,3,4.3c2.2,1,4.7,1.1,7.1,1.1c3.9,0,7-0.7,8.2-1.1c0.5-0.2,1.3-0.5,1.3-1.7c0-0.3-0.1-1.7-1.5-1.7
	c-0.3,0-0.5,0.1-1.9,0.4c-2.8,0.7-4.9,0.8-6.4,0.8c-1.9,0-3.4-0.2-4.5-0.6c-0.4-0.1-1.7-0.7-1.7-1.9c0-1.3,1.4-2.4,4.7-2.4
	c2.6,0,5.2,0.5,7.6,1.4c0.6,0.2,0.9,0.2,1,0.2c0.9,0,1.8-0.7,1.8-1.8c0-0.6-0.3-1-0.5-1.2c-0.9-1.1-1.6-2.2-2.4-3.5
	c1.5-0.1,4-0.3,4.7-0.6c0.6-0.2,1-0.6,1-1.4C525.8,425.9,525.7,424.8,524.4,424.8z M523.3,400.9c0.1,0.1,0.3,0.4,0.7,0.4
	c0.4,0,1-0.3,1-0.8c0-0.6-0.9-2-1-2.3c-0.5-0.8-0.7-1.1-1.2-1.1c-0.4,0-0.9,0.3-0.9,0.8c0,0.2,0,0.3,0.1,0.5c0.1,0.2,0.6,1,0.7,1.3
	C522.8,399.8,523.2,400.7,523.3,400.9z M477.7,410.7c-0.2,0-0.4,0-0.7,0.1c-1.7,0.2-2.9,0.3-4.6,0.3c-1.1,0-2.1-0.1-2.8-0.2
	c-0.9-0.2-1.5-0.5-1.5-1.3c0-0.3,0-0.3,0.2-0.9c0.1-0.1,0.2-0.4,0.2-0.7c0-0.9-1-1.2-1.6-1.2c-2.1,0-2.3,2.3-2.3,3.1
	c0,3.3,2.7,4.4,9,4.4c0.8,0,3.3,0,4.6-0.3c0.8-0.2,1.1-0.8,1.1-1.7C479.3,411.3,478.8,410.7,477.7,410.7z M474.6,417.9
	c-2.5,0-4.6,2-4.6,4.6c0,2.7,2.2,4.6,4.6,4.6c2.5,0,4.6-2,4.6-4.6C479.2,419.9,477.1,417.9,474.6,417.9z M474.6,425
	c-1.3,0-2.5-1.1-2.5-2.5c0-1.4,1.1-2.5,2.5-2.5c1.4,0,2.5,1.1,2.5,2.5C477,423.9,475.9,425,474.6,425z M509.4,374.8
	c3.9-2,7.8-4,11.4-6.6c1.4-1,1.8-1.5,1.8-2.2c0-1.2-1.1-1.8-2.1-1.8c-0.7,0-1.2,0.4-1.8,0.9c-2.6,2.2-5.4,3.8-13.2,8.3
	c-0.8,0.5-2,1.2-2,2.8c0,1.6,1.2,2.3,1.9,2.7c0.6,0.3,3.7,1.7,4.3,2.1c5.1,2.6,7.5,4.3,10.2,6.3c0.7,0.5,1.2,0.8,1.9,0.8
	c1.1,0,1.9-1.1,1.9-1.9c0-1-0.4-1.5-3.5-3.3c-4.5-2.7-7.4-4-11.2-5.7c-0.9-0.4-1.2-0.6-1.2-1C508,375.7,508.3,375.4,509.4,374.8z
	 M520,398.3c-0.4,0-1,0.3-1,0.8c0,0.2,0.1,0.3,0.1,0.5c0.1,0.2,0.6,1.1,0.7,1.3c0.2,0.3,0.4,0.9,0.6,1.2c0.2,0.3,0.4,0.6,0.7,0.6
	c0.3,0,1-0.2,1-0.9c0-0.4-0.7-1.8-1-2.3C520.6,398.5,520.4,398.3,520,398.3z"/>
</svg>