<svg xmlns="http://www.w3.org/2000/svg" xmlns:xlink="http://www.w3.org/1999/xlink" x="0px" y="0px" viewBox="0 0 1024 768" >
	<g>
		<path class="layout" data-layout="5" d="M670,444.5c-20.9-22.7-15-73.6-14.9-74.1c0.1-0.7-0.3-1.4-1.1-1.6c-0.7-0.2-1.5,0.1-1.8,0.8c-17.2,33.4-41.5,51-51.9,58.6
			c-4.6,3.3-5.8,4.2-5.7,5.6c0,0.5,0.5,1.2,1,1.5c5.6,3,11.8,3.6,15.2,3.8c-12.3,31.3-46.8,38.4-58.2,38.4
			c-15.4,0-22.8-15.9-22.8-48.5v-10.1c1.9,0.4,10.4,1.5,18.5-5.3c9.2-7.7,9.9-22.8,9.9-22.8c-21.2,3.7-27,20.3-28.4,26V351h27.9
			c9.3,0,16.9-7.6,16.9-16.8c0-9.3-7.6-16.9-16.9-16.9h-27.9v-16.5c11.1-4.6,19.8-13.4,24.6-24c4.2,2,9.9,2.9,13.6-0.1
			c6.3-5.2,23-7.7,23-7.7s-2.7-6.5-14.2-8.1c-6.1-0.8-13.4,2.1-19,5.1c0.5-2.7,0.8-5.4,0.8-8.1c0-25.7-20.9-46.5-46.5-46.5
			c-25.6,0-46.5,20.9-46.5,46.5c0,18.6,11.5,35.8,28.7,42.9v16.5h-27.9c-9.3,0-16.9,7.6-16.9,16.9c0,9.3,7.6,16.8,16.9,16.8h27.9
			v37.8c-3.9-0.5-12-0.6-17.2,4.9c-7,7.4-4.5,26.6-3.2,26.6c1.2,0,14.2-5.3,20.3-22.7v31.2c0,32.6-7.5,48.5-22.8,48.5
			c-3.2,0-8.3-0.6-14.2-2.1c-13-15.7-21-40.3-21-40.3c-5.7,7.2-6.9,18.5-7,26.1c-6.5-5.5-12.2-12.7-15.9-22.1
			c3.4-0.1,9.6-0.8,15.2-3.8c0.5-0.2,0.9-0.9,1-1.5c0.1-1.4-1.1-2.3-5.7-5.6c-10.4-7.5-34.7-25.2-51.9-58.6c-0.3-0.7-1.1-1-1.8-0.8
			c-0.7,0.2-1.2,0.9-1.1,1.6c0.1,0.5,6,51.4-14.9,74.1c-0.3,0.3-0.5,0.9-0.4,1.3c0.1,0.5,0.4,0.9,0.9,1.1c0.3,0.1,2.8,1.2,8.1,1.2
			c3.3,0,6.9-0.4,10.8-1.3c2,6.8,11.9,35.2,45.1,49.6c9.2,4,18.4,7,27.3,9.9c27.2,8.9,50.8,16.6,64.8,49.3c0.2,0.5,0.8,0.9,1.4,0.9
			c0.6,0,1.2-0.4,1.4-0.9c14-32.7,37.5-40.4,64.8-49.3c8.9-2.9,18-5.9,27.3-9.9c33.2-14.4,43.2-42.8,45.1-49.6
			c3.9,0.8,7.5,1.3,10.8,1.3c5.3,0,7.8-1.1,8.1-1.2c0.5-0.2,0.8-0.6,0.9-1.1C670.5,445.4,670.4,444.9,670,444.5z M512,243.7
			c7.8,0,14.2,6.4,14.2,14.2c0,7.8-6.4,14.2-14.2,14.2c-7.8,0-14.2-6.4-14.2-14.2C497.8,250.1,504.2,243.7,512,243.7z"/>
		<path class="layout" data-layout="5" d="M613.9,299.2c1.4,0.2-2.7-13.1-14.6-17.6c-12-4.5-23.7,5.2-23.7,5.2C588.2,301.5,612.5,299,613.9,299.2z"/>
		<path class="layout" data-layout="5" d="M590.9,308.5c9.5,24.4,32,21,32,21C618.4,304,590.9,308.5,590.9,308.5z"/>
		<path class="layout" data-layout="5" d="M616.8,365.5c0,0,6.5-6.5,3.2-16.9c-3.4-10.4-22.8-14.4-22.8-14.4C599.2,352,616.8,365.5,616.8,365.5z"/>
		<path class="layout" data-layout="5" d="M599.7,396.2c1.1,0.2,8.8-6.8,10.1-16.7c1.4-9.9-13.3-19.2-13.3-19.2C592.5,376.3,598.6,395.9,599.7,396.2z"/>
		<path class="layout" data-layout="5" d="M565.2,412.8c0,0,9.7,0.2,16.5-9.5c6.8-9.7,2.5-24.6,2.5-24.6C561.4,393.7,565.2,412.8,565.2,412.8z"/>
		<path class="layout" data-layout="5" d="M458.4,443.3c9-18.1,1.1-42.8,1.1-42.8s-9.9,5.4-12.2,19.2C445.1,433.4,458.4,443.3,458.4,443.3z"/>
	</g>
</svg>