<svg xmlns="http://www.w3.org/2000/svg" xmlns:xlink="http://www.w3.org/1999/xlink" x="0px" y="0px" viewBox="0 0 1024 768" >
		<path class="layout" data-layout="5" d="M647.5,339.2c-8.4-5.2-18.1-8.1-28.1-8.5c-2.9-0.1-5.9,0.1-8.7,0.5c1.9-2.2,3.6-4.4,5.2-7c16.5-26.6,8.3-61.6-18.2-78.1
			c-26.6-16.5-61.6-8.3-78.1,18.3c-1.6,2.5-2.8,5.1-4,7.8c-1-2.7-2.1-5.4-3.4-8c-4.7-8.8-11.6-16.2-20-21.4
			c-17.2-10.7-38.9-11.4-56.8-1.8c-27.6,14.8-38,49.2-23.2,76.8c1.4,2.5,3,5,4.7,7.3c-2.9-0.5-5.8-0.9-8.7-1
			c-31.2-1-57.5,23.6-58.5,54.9c-0.6,20.2,9.6,39.4,26.8,50c8.4,5.2,18.1,8.2,28.1,8.5c3,0.1,5.8-0.1,8.7-0.5
			c-1.9,2.2-3.6,4.5-5.2,7c-16.5,26.6-8.3,61.6,18.2,78.1c26.6,16.5,61.6,8.3,78.1-18.3c1.6-2.5,2.8-5.1,4-7.7c1,2.7,2.1,5.4,3.5,8
			c4.7,8.8,11.6,16.2,20,21.4c17.2,10.7,38.9,11.4,56.8,1.8c27.5-14.8,37.9-49.2,23.2-76.8c-1.4-2.6-3-5-4.8-7.3
			c2.9,0.5,5.8,0.9,8.7,1c15.1,0.5,29.6-4.9,40.6-15.3c11.1-10.4,17.4-24.4,17.9-39.6C674.9,369,664.7,349.8,647.5,339.2z
			 M563.8,416.2c-17.7,28.6-55.3,37.4-83.9,19.6c-28.6-17.7-37.4-55.3-19.7-83.9c17.7-28.6,55.3-37.4,83.9-19.6
			C572.7,350,581.5,387.6,563.8,416.2z"/>
</svg>