<svg xmlns="http://www.w3.org/2000/svg" xmlns:xlink="http://www.w3.org/1999/xlink" x="0px" y="0px" viewBox="0 0 1024 768" >
<path class="layout" data-layout="5" d="M647.7,376.4c-37.1-1.7-55-33.7-81.6-45c-26.7-11.2-52.9,16.7-52.9,16.7c-0.4,0.8-0.8,1.7-1.2,2.5c-0.4-0.8-0.8-1.7-1.2-2.5
	c0,0-26.2-27.9-52.9-16.7c-26.7,11.2-44.6,43.3-81.6,45c-37.1,1.7-69.1-17.9-69.1-17.9s37.5,72.5,104.9,80
	c44.5,5,85.2-11.9,99.9-39.8c14.6,27.9,55.3,44.8,99.9,39.8c67.5-7.5,104.9-80,104.9-80S684.8,378,647.7,376.4z"/>
</svg>