<svg xmlns="http://www.w3.org/2000/svg" xmlns:xlink="http://www.w3.org/1999/xlink" x="0px" y="0px" viewBox="0 0 1024 768" >
<path class="layout" data-layout="5" d="M461.6,280.6c6.8-2,5.4-11.8-3.5-5.5c-8.9,6.2-6.7,7.7-11.2,7.5c-4.9-0.2-4.8-4.7-8.9-5.5c-0.4-0.1-3.1-0.6-3.5-0.5
	c-3.6-1.7-3.2-1.6-1.6-6.6c3.6-10.9-5.5-9.3-3.9-1c0.8,4-3.5,5.9-4.9,6.5c-1.3-0.3-2.2-0.3-3.4,0c-2,0.6-10.1-4.2-11.9-13.6
	c-2.7-13.9-16.9-11.2-7.1,1.8c1.6,2.1,7.1,9.6,4,12.6c-3.1,3-3.1,6.8-2.6,8.9c0.6,2.1-1.6,6.9-4,7.7c-2.4,0.7-4.3,2.3-4.3,3.7
	c0,1.4-8.3-0.8-11.6-3.5c-6.7-5.4-11.9,5.7-0.3,7.5c11.6,1.8,14.5,2.6,14.5,5c0,2.4,1.8,4.5,4.7,6.4c2.8,1.8,1.6,6.7,1.1,8.9
	c-0.4,2.3-7.2,7.3-12.5,9.1c-10.4,3.4-5.1,15.7,4.4,8.6c9.5-7.1,7.9-10.2,11.6-11.1c3.7-0.8,3-2.6,4.7-2c1.7,0.6,5.4,5.4,10.8,3.5
	c5.4-1.8,4.7-4.4,7.8-4.4c3.1,0,4.7,0.9,6.4-1.4c1.7-2.3,12.8,8.4,14.7,15.3c2,6.9,12.3,4.2,5.8-4c-6.5-8.2-8.5-7.2-9.6-13.5
	c-1.1-6.2,0.4-3.7,2.8-6.7c2.4-3-2.6-6.7-1-9.1c1.6-2.4,4.3-2.1,8.8,2.1c4.5,4.3,8.2-2.3,0.9-4.5c-7.4-2.3-10.6-6-10.3-8.2
	c0.3-2.3-0.6-3.4,1.6-4.1c2.1-0.7-0.3-2.3,1.8-4.7C453.9,283.6,454.8,282.6,461.6,280.6z"/>
</svg>