<svg xmlns="http://www.w3.org/2000/svg" xmlns:xlink="http://www.w3.org/1999/xlink" x="0px" y="0px" viewBox="0 0 1024 768" >
<path class="layout" data-layout="5" d="M413.1,342.3c-0.1,1.4,5.3,6.2,17,18.4c11.7,12.2,18.5,25.4,24,40.1c5.5,14.7,15.5,57.4,52.9,61.4c0,0,17.6,35.2,51.1,35.2
	c33.6,0,50.2-29.6,52.4-50.9c2.3-21.3-5-43.5-12.3-56.4c-7.3-12.9-11.8-11.9-5-24.7c7-13.1,14.8-14.1,14.7-19.1
	c-0.1-5-8.7-3.8-19.5-14.6c-10.7-10.7-13.5-17.8-20.5-31.2c-7-13.4-21.6-30-37.3-30c-15.6,0-21.3,12.8-22.6,17.7
	c0,0-14.7-17.7-31.5-17.7s-20.9,8.5-27.1,26.3s-13.4,27.9-22.1,34.4C418.6,337.7,413.2,340.8,413.1,342.3z M491.3,290.8
	c-2.5,2.1-5.9,1-9.7,0.1c-3.8-1-5.8,1.9-8.1,3.2c-2.3,1.3-6,1.7-8.7-1c-2.7-2.7-4.1-7.5-0.4-11.7c3.7-4.2,8.7-5.2,11.9-5.2
	c3.2,0,8.7,1.6,13.6,6.5C494.9,287.5,491.3,290.8,491.3,290.8z M545.8,292.5c-1.7,3-7-0.7-10.8-1.6c-3.8-1-5.9,2.8-8.2,4.1
	c-2.3,1.3-5.9,0.8-8.5-1.9c-2.7-2.7-4.1-7.5-0.4-11.7c3.7-4.2,8.7-5.2,11.9-5.2c3.2,0,8.7,1.6,13.6,6.5
	C548.2,287.5,545.8,292.5,545.8,292.5z M546.2,360.1c1.9-2,7.2,0.5,15.4,7.2c8.2,6.7,17.6,18.3,23.6,30.1
	c6.1,11.8,8.4,22.5,8.7,34.8c0.2,12.3-7.7,12.1-7.7,12.1c-5.9-0.5-7.1-6.1-7.4-8.7c-0.3-2.5,0.1-8.5-3.8-24.4
	c-3.9-15.8-13.2-29.6-18.4-36C551.4,368.8,544.3,362,546.2,360.1z M477,360.7c4.6-3.8,19.1,5.6,27,18.8c7.9,13.2,9.6,23.9,16.3,39
	c6.7,15.1,8.2,18,13,26.3c4.7,8.4,3.9,16.2,0,19.1c-3.9,2.9-8.1,2.3-14.4-4.4c-6.3-6.7-9.1-19.5-10.1-25.6s-3-18.7-9.3-34.5
	c-6.3-15.8-14-23.7-19.8-29.5C473.8,364.1,477,360.7,477,360.7z M465.3,330.8c5.6-9.2,11.9-16,23.8-16s17.6,9,27.9,9
	c10.3,0,15.8-8.5,27.9-9c12.2-0.5,21,8.8,21,10.7c0,1.8-4.1,7.6-9.7,7.3c-5.7-0.2-8.4-3.3-8.4-3.3c-6.7,24.4-31.4,5.2-31.4,5.2
	c-17.4,22.1-34.9-0.6-34.9-0.6c-3.8,11.8-15.9,10.1-18.3,8.4C460.8,340.9,459.7,340.1,465.3,330.8z"/>
<g>
	<path class="layout" data-layout="5" d="M541.1-364.6c0,0,15.4-18.5,33-18.5s21.9,8.9,28.4,27.5s14,29.3,23.1,36s14.8,10,14.9,11.5
		s-5.5,6.5-17.8,19.3s-19.4,26.6-25.1,42s-16.3,60.1-55.4,64.3c0,0-18.4,36.9-53.5,36.9s-52.5-31-54.9-53.3s5.3-45.5,12.9-59
		c7.6-13.5,11.8-12.1,5.3-25.9s-15.5-14.8-15.4-20s9.1-4,20.4-15.3s14.1-18.6,21.5-32.6s22.6-31.4,39-31.4
		C533.9-383.1,539.8-369.7,541.1-364.6z"/>
	<path class="layout" data-layout="5" d="M501.6-360.2c0,0-2.6-5.2,2.6-10.3s10.9-6.8,14.3-6.8s8.6,1.1,12.4,5.4s2.4,9.4-0.4,12.3
		c-2.8,2.8-6.5,3.3-8.9,2c-2.4-1.3-4.6-5.3-8.6-4.3C509-360.9,503.4-357.1,501.6-360.2z"/>
	<path class="layout" data-layout="5" d="M558.6-362c0,0-3.7-3.4,1.4-8.6s10.9-6.8,14.3-6.8s8.6,1.1,12.4,5.4s2.4,9.4-0.4,12.3
		c-2.8,2.8-6.6,2.4-9.1,1.1c-2.4-1.3-4.5-4.3-8.5-3.3S561.3-359.7,558.6-362z"/>
	<path class="layout" data-layout="5" d="M499.5-321.4c0,0-2.9,3.2-8.8,3.4c-5.9,0.3-10.2-5.8-10.2-7.7c0-1.9,9.3-11.7,22-11.2
		c12.8,0.5,18.5,9.4,29.3,9.4c10.8,0,16.8-9.4,29.2-9.4c12.4,0,19.1,7.1,24.9,16.8c5.8,9.7,4.8,10.5,2.3,12.3s-15.2,3.5-19.2-8.8
		c0,0-18.3,23.8-36.5,0.7C532.4-316,506.5-295.9,499.5-321.4z"/>
	<path class="layout" data-layout="5" d="M459.3-201.4c0,0-8.3,0.3-8.1-12.6s2.7-24,9.1-36.4s16.2-24.4,24.8-31.5c8.6-7.1,14.1-9.6,16.1-7.6
		c2,2.1-5.5,9.1-10.9,15.8c-5.4,6.7-15.2,21.1-19.3,37.7s-3.6,22.9-3.9,25.5S465.5-202,459.3-201.4z"/>
	<path class="layout" data-layout="5" d="M573.6-288.8c0,0,3.3,3.6-2.8,9.6c-6.1,6.1-14.1,14.3-20.7,30.9c-6.6,16.6-8.7,29.7-9.8,36.1
		s-3.9,19.8-10.6,26.8s-11,7.7-15.1,4.6c-4.1-3.1-4.9-11.3,0-20c4.9-8.8,6.6-11.8,13.6-27.6s8.8-27,17.1-40.8
		C553.6-282.9,568.8-292.7,573.6-288.8z"/>
</g>
</svg>