<svg xmlns="http://www.w3.org/2000/svg" xmlns:xlink="http://www.w3.org/1999/xlink" x="0px" y="0px" viewBox="0 0 1024 768" >
<g>
	<path class="layout" data-layout="5" d="M512,522.8c-76.5,0-138.8-62.2-138.8-138.8S435.5,245.2,512,245.2c76.5,0,138.8,62.2,138.8,138.8S588.5,522.8,512,522.8z
		 M512,253.8c-71.8,0-130.3,58.4-130.3,130.2S440.2,514.2,512,514.2c71.8,0,130.2-58.4,130.2-130.2S583.8,253.8,512,253.8z"/>
	<path class="layout" data-layout="5" d="M572.4,477.6l-2.2-1.2c-10.8-5.6-21.6-29.4-31.6-54.2c-1.3-3.2-2.4-5.9-2.9-6.9c-0.3-0.5-1-2.1-5.4-12.8l-3-7.5l7.9,1.8
		c1.7,0.4,42.7,9.8,55.1,15.8c7.7,3.7,17.5,10.8,21.3,17.1l1.2,2.1l-1,2c-8.6,17.1-21.5,31.7-37.4,42.3L572.4,477.6z M541.4,407
		c1.3,3,1.8,4.1,2,4.6c0.6,1.3,1.6,3.8,3.2,7.6c4.6,11.4,16.3,40.6,25.6,48.5c12.9-9.2,23.6-21.2,31-35.2c-3.3-4-10.1-9-16.4-12.1
		C578.3,416.2,554.1,410,541.4,407z"/>
	<path class="layout" data-layout="5" d="M510.6,495.7c-12.2,0-24.3-2-35.9-6l-2.1-0.7l-0.7-2.4c-1.7-7.2,0.3-19.1,3.2-27.1c4.7-13,27.4-48.4,28.3-49.9l4.4-6.8
		l3.1,7.5c4.4,10.7,5,12.4,5.1,12.9c0.3,1,1.5,3.8,2.8,7c10.2,24.7,19.2,49.2,15.4,60.8l-0.8,2.4l-2.5,0.5
		C524.3,495,517.5,495.7,510.6,495.7z M530.3,489.6L530.3,489.6L530.3,489.6z M480,482.5c15.1,4.8,31.1,5.9,46.8,3.4
		c1.1-12.1-10.9-41.1-15.6-52.5c-1.6-3.8-2.6-6.2-3-7.6c-0.1-0.4-0.6-1.6-1.8-4.6c-6.9,11.1-19.9,32.4-23.1,41.2
		C480.9,468.9,479.5,477.3,480,482.5z"/>
	<path class="layout" data-layout="5" d="M611.5,393.2c-26.6,0-84.4-20.2-91.7-22.8l-1.8-0.7l-0.7-1.8c-0.2-0.4-16.1-41.5-19.7-51c-6.2-16.4-6.9-25.9-6.3-38.6
		l0.2-3.5l3.5-0.5c5.5-0.8,13.6-1.2,18.6-1.2c60.7,0,110,49.3,110,110c0,1.6,0,3.3-0.1,4.9l-0.1,2.7l-2.5,1
		C618.4,392.8,615.3,393.2,611.5,393.2z M524.5,363.1c28.8,10.1,75.4,23.7,90.5,21.6c0-0.5,0-0.9,0-1.4c0-56-45.5-101.5-101.5-101.5
		c-3.7,0-9.3,0.3-13.9,0.7c-0.3,10,0.8,18,5.9,31.5C508.6,322.3,521.3,355,524.5,363.1z"/>
	<path class="layout" data-layout="5" d="M437.5,465.9l-2-1.9c-1.2-1.1-2.4-2.3-3.5-3.4c-20.6-21-31.7-48.7-31.4-78.1c0.3-29.4,12-56.9,33-77.5
		c3.5-3.4,9.6-8.9,14.1-12.1l2.8-2.1l2.6,2.4c9.4,8.6,15.4,15.9,22.5,31.9c4.1,9.3,21.4,49.8,21.6,50.2l0.8,1.8l-0.9,1.7
		c-3.9,8-38.7,78.3-57.1,86L437.5,465.9z M449.9,302c-3.6,2.9-7.8,6.6-10.4,9.2c-19.4,19-30.2,44.4-30.4,71.5s10,52.7,29,72.1
		c0.3,0.3,0.7,0.7,1,1c12.3-9.1,36-51.4,49.5-78.8c-3.4-8-17.2-40.2-20.8-48.3C461.9,315.4,457,308.9,449.9,302z"/>
</g>
</svg>