<svg xmlns="http://www.w3.org/2000/svg" xmlns:xlink="http://www.w3.org/1999/xlink" x="0px" y="0px" viewBox="0 0 1024 768" >
<path class="layout" data-layout="5" d="M598.7,368.8l-2.9,0.8l2.8-0.9c-0.5-1.5-1.6-2.7-3.1-3.3l-3.7-1.5l2-3.1c0.6-0.9,0.8-1.9,0.8-2.9c0-0.6-0.1-1.1-0.2-1.6
	c-0.4-1.1-1-2-1.8-2.6c-5.1-4.1-16.9-11.1-36.4-11.1c-3.2,0-6.7,0.2-10.3,0.6c-5.4-26.5-19.5-38-24.7-41.3c-0.9-0.6-1.9-0.9-2.9-0.9
	h0v0c0,0,0,0,0,0c-1.5,0-3.1,0.7-4.2,2l-2.5,3l-2.4-2.9c-1-1.3-2.6-2-4.2-1.9c-1,0-2.1,0.3-3,0.9c-6.4,4.2-19.3,15.8-24.4,41.1
	c-3.5-0.4-6.8-0.6-10-0.6c-20.8,0-32.9,7.9-37,11.3c-0.8,0.7-1.4,1.6-1.7,2.5c-0.2,0.5-0.3,1.1-0.3,1.7c0,1,0.3,2,0.9,2.9l2.1,3.3
	l-3.4,1.4c-1.5,0.6-2.7,1.9-3.1,3.3c-0.2,0.5-0.3,1.1-0.3,1.7c0,0.5,0.1,1,0.2,1.5c2,7.3,9.1,23.2,31.6,35.8
	c-5.5,12.1-7.2,22.6-7.2,30.7c0,8.4,1.8,14.3,2.9,17.2c0.4,1,1.1,1.8,1.9,2.4c0.9,0.7,2,1,3.2,1c0.5,0,0.9-0.1,1.2-0.1l3.9-1
	l0.2,3.7c0.1,1.6,0.9,3.1,2.2,4c0.9,0.6,1.9,1,2.9,1c0.5,0,1.1,0,1.6,0c0,0,0.1,0,0.1,0c8.3,0,24.5-2.7,42.1-19
	c18.2,16.7,35,19,42.4,19c0.7,0,1.3,0,1.8,0c1.1-0.1,2.1-0.4,2.9-1c1.3-0.9,2.1-2.4,2.2-4l0.3-3.9l3.6,0.9c0.5,0.1,0.9,0.2,1.3,0.2
	c1.2,0,2.2-0.4,3.1-1c0.9-0.7,1.5-1.5,1.9-2.5c1.3-3.5,2.8-9.2,2.8-16.9c0-8.2-1.7-18.6-7.3-30.7c23.5-13.3,30.1-30.4,31.7-36.3
	c0.1-0.5,0.2-0.9,0.2-1.4C599,369.7,598.9,369.2,598.7,368.8z M561.8,404.1l-2.6,1.4l1.3,2.6c6.1,12.4,7.9,22.7,7.9,30.6
	c0,6.5-1.2,11.4-2.3,14.3l-10-2.6l-0.7,10.6c-0.3,0-0.6,0-1,0c-6.5,0-22.5-1.9-40.4-19.2l-2.1-2l-2.1,2
	c-17.4,17-32.9,19.2-40.2,19.3c-0.3,0-0.5,0-0.8,0l-0.7-10.4l-10.3,2.6c-0.9-2.5-2.3-7.5-2.3-14.6c0-7.8,1.7-18.2,7.8-30.7l1.3-2.6
	l-2.6-1.4c-22.4-11.8-29-26.4-31-33l9.6-3.8l-5.7-9c3.7-2.9,14.3-9.6,32.8-9.6c3.7,0,7.7,0.3,12,0.9l2.9,0.4l0.5-2.9
	c4.3-24.9,16.2-35.7,21.8-39.7l6.6,8l6.7-8l1.1,0.6c5.3,4,16.9,15,21.1,39.1l0.5,2.9l2.9-0.4c4.4-0.7,8.5-0.9,12.3-0.9
	c17.4,0,27.6,6,32.2,9.4l-5.5,8.8l9.9,3.9C591.3,376.1,585,391.8,561.8,404.1z M500.2,411.6c0-1.2-1-1.2-1.3-1.2
	c-0.2,0-1.3,0.1-1.6,0.1c-2,0.1-3.9,0.1-5.4,0.2c0.1-0.4,0.2-1.1,0.2-1.5c0-0.8-0.5-1.1-1.4-1.1c-0.3,0-0.9,0-1.1,0.7
	c-0.1,0.3-0.3,1.6-0.4,2c-0.2,0-2,0-2,0l-0.5,0c-1,0-1.3,0.4-1.3,1.3c0,0.7,0.4,1.1,0.7,1.2c0.4,0.1,2.2,0.1,2.7,0.1
	c-1,5-2.6,8.9-3.1,9.9c-0.4,1-0.5,1.2-0.5,1.4c0,1,1,1.2,1.5,1.2c0.7,0,1-0.5,1.1-0.6c0.4-0.8,1.5-4,1.9-5.5
	c1.1-3.6,1.2-4.2,1.7-6.5c2.4-0.1,4.9-0.1,7.4-0.3C499.3,412.9,500.2,412.8,500.2,411.6z M494.1,415.3c-0.9,0.2-1.2,0.6-1.2,1.2
	c0,0.2,0,1.2,1.1,1.2c0.2,0,0.4,0,2-0.2c0.3,0,1.3-0.1,2.6-0.1c0.4,0,0.7,0,1,0c0.5,0,1.2,0.1,1.4,0.1c0.3,0,0.6,0,0.8-0.2
	c0.3-0.2,0.4-0.7,0.4-0.9c0-1,0-1.5-3.3-1.5C497.6,414.9,495.4,415,494.1,415.3z M499.3,428.3c-1.9,0-3.5,1.5-3.5,3.5
	c0,2,1.6,3.5,3.5,3.5c1.8,0,3.5-1.5,3.5-3.5C502.7,429.9,501.2,428.3,499.3,428.3z M499.3,433.6c-1,0-1.9-0.8-1.9-1.9
	c0-1,0.8-1.9,1.9-1.9c1,0,1.9,0.8,1.9,1.9C501.1,432.8,500.3,433.6,499.3,433.6z M499.9,397.1c-0.1,0.3-0.3,1.6-0.4,1.9
	c-0.6,1.9-1.7,4.1-5.9,4.1c-3.8,0-3.8-2.3-3.8-4.9c0-0.9,0-1.5,0.1-5.4c0-0.5,0.2-2.8,0.2-3.3c0-0.5,0-1.5-1.4-1.5
	c-1.2,0-1.4,0.5-1.5,1.3c0,0.1-0.2,6.4-0.2,9.6c0,2.8,0.4,4.2,1.9,5.4c1.1,0.8,2.6,1.3,4.7,1.3c3,0,5.7-0.9,7.3-3.2
	c1.4-2,1.7-4.2,1.7-4.9c0-1.2-1.2-1.2-1.5-1.2C500.9,396.3,500.2,396.3,499.9,397.1z M487.5,372.6c1.6,0,4,0,5.6-0.1l0,1.8
	c-1.7,0-4.5,0-6.2,0c-0.6,0-1.2,0.2-1.2,1.1c0,1.1,0.8,1.1,1.9,1.1c1.5,0,4,0,5.5-0.1l0,1.7c-0.4,0-1-0.1-1.9-0.1
	c-3.6,0-5.6,1.7-5.6,3.8c0,2.4,2.4,3.7,5.6,3.7c3.9,0,4.4-2.2,4.5-4.1c0.4,0.2,0.8,0.4,1.3,0.7c1,0.6,1.9,1.3,2.4,1.8
	c0.6,0.6,0.9,0.8,1.4,0.8c0.7,0,1.3-0.7,1.3-1.5c0-0.2,0-0.6-0.8-1.3c-0.9-0.8-3.3-2.4-5.7-3.2l0-2.3c0.7,0,3.9-0.1,4.6-0.1
	c1,0,1.7,0,1.7-1.1c0-1.1-0.8-1.1-1.2-1.1c-0.1,0-0.3,0-0.5,0c-0.7,0-4,0.1-4.7,0.1l0-1.8c2.5-0.1,2.7-0.1,5-0.1
	c0.9,0,1.7-0.1,1.7-1.2c0-1.1-0.9-1.1-1.2-1.1c-0.1,0-0.3,0-0.5,0c-0.7,0-4.2,0.1-5,0.1l0-1.1c0-0.9-0.6-1.2-1.3-1.2
	c-0.6,0-1.3,0.2-1.3,1.2l0,1.1c-0.7,0-4.2,0-5,0H487c-0.5,0-1.4,0-1.4,1.1C485.6,372.6,486.3,372.6,487.5,372.6z M493.2,382.2
	c-0.1,0.8-0.7,1.3-2.1,1.3c-1.5,0-2.8-0.5-2.8-1.6c0-1.5,2.1-1.7,3-1.7c1.1,0,1.7,0.2,2,0.3C493.3,381.6,493.3,381.9,493.2,382.2z
	 M520.4,376c2.9-1.5,5.9-3,8.5-4.9c1-0.8,1.3-1.1,1.3-1.7c0-0.9-0.8-1.3-1.5-1.3c-0.6,0-0.9,0.3-1.3,0.6c-2,1.6-4,2.8-9.9,6.2
	c-0.6,0.3-1.5,0.9-1.5,2.1c0,1.2,0.9,1.7,1.5,2c0.4,0.2,2.8,1.3,3.3,1.5c3.8,1.9,5.7,3.3,7.6,4.7c0.5,0.4,0.9,0.6,1.5,0.6
	c0.9,0,1.5-0.8,1.5-1.4c0-0.7-0.3-1.1-2.6-2.5c-3.4-2-5.5-3-8.4-4.3c-0.7-0.3-0.9-0.5-0.9-0.8C519.4,376.6,519.6,376.4,520.4,376z
	 M525.5,357.9l-0.1-4c2.5,0,5.3-0.1,5.8-0.2c0.6-0.1,1-0.5,1-1.3c0-0.7-0.4-1.3-1.2-1.3c-0.2,0-0.5,0-0.6,0c-1.3,0.1-3.8,0.1-5,0.1
	v-1.9c0-0.8-0.3-1.4-1.4-1.4c-1.1,0-1.4,0.6-1.4,1.4l0.2,7.9c-0.4,0-0.9-0.1-1.6-0.1c-3.2,0-5.9,1.4-5.9,4.3c0,3.1,2.8,4.1,5.5,4.1
	c4.6,0,4.7-2.7,4.7-5.1c1.4,0.6,2.6,1.2,3.9,2.6c1,1,1.3,1.3,1.9,1.3c0.7,0,1.5-0.7,1.5-1.7c0-0.6-0.3-0.9-0.9-1.4
	C530.2,359.8,527.8,358.7,525.5,357.9z M522.4,362.8c-0.4,0.4-1.1,0.5-1.8,0.5c-1,0-2.6-0.3-2.6-1.8c0-1.7,2.1-1.9,3.2-1.9
	c0.8,0,1.2,0.1,1.7,0.2C522.8,361.8,522.8,362.3,522.4,362.8z M530.8,389.1c-2.1,0-13.3,0.4-14.4,0.5c-1,0.1-1.3,0.5-1.3,1.4
	c0,0.6,0.2,1.4,1.3,1.4c0.2,0,1.3-0.1,1.5-0.1c2.2-0.2,4.4-0.3,6.6-0.4c-0.9,0.5-1.7,1-2.8,2.1c-2.2,2.2-2.6,4.1-2.6,5.6
	c0,1.9,0.9,3.9,2.9,4.8c1.4,0.6,3.6,1.2,6.4,1.2c1.2,0,2.4,0,2.4-1.5c0-0.5-0.2-1-0.9-1.2c-0.3-0.1-0.5-0.1-2.1-0.1
	c-3.7,0-6-0.8-6-3.5c0-2.9,2.6-5.1,4-5.9c2-1.2,3.2-1.6,4.8-1.6c1.1,0,2,0,2-1.3C532.8,389.1,531.9,389.1,530.8,389.1z M501.6,422.9
	c-0.2,0-0.3,0-0.5,0c-1.2,0.1-2.1,0.2-3.4,0.2c-0.8,0-1.6-0.1-2.1-0.2c-0.7-0.1-1.1-0.4-1.1-0.9c0-0.2,0-0.3,0.2-0.6
	c0-0.1,0.1-0.3,0.1-0.5c0-0.7-0.7-0.9-1.2-0.9c-1.5,0-1.8,1.7-1.8,2.3c0,2.5,2,3.3,6.8,3.3c0.6,0,2.5,0,3.4-0.3
	c0.6-0.2,0.9-0.6,0.9-1.3C502.8,423.4,502.4,422.9,501.6,422.9z M528.3,393.6c-0.3,0-0.7,0.2-0.7,0.6c0,0.1,0,0.3,0.1,0.4
	c0.1,0.1,0.4,0.8,0.5,0.9c0.1,0.3,0.3,0.7,0.5,0.9c0.1,0.2,0.3,0.4,0.5,0.4c0.2,0,0.8-0.1,0.8-0.6c0-0.3-0.5-1.3-0.7-1.7
	C528.8,393.8,528.6,393.6,528.3,393.6z M531.7,413.5c-0.3,0-1.4,0.2-1.7,0.2c-0.7,0.1-1.7,0.2-2.8,0.2c-0.1-0.3-0.3-0.7-0.7-1.6
	c1.2-0.1,2.9-0.2,3.5-0.3c0.6-0.1,1.2-0.3,1.2-1.1c0-1.1-0.9-1.1-1.2-1.1c-0.3,0-1.7,0.2-2.1,0.2c-0.7,0.1-1.2,0.1-2.2,0.2
	c-0.1-0.3-0.4-1.5-0.5-1.7c-0.2-0.4-0.6-0.6-1-0.6c-0.2,0-1.5,0.1-1.5,1.2c0,0.2,0,0.5,0.3,1.2c-0.8,0-1.9,0.1-2.4,0.1
	c-0.4,0-2.7,0-3.2,0c-0.7,0-1.4,0-1.4,1.1c0,0.6,0.3,1,0.6,1.1c0.3,0.1,1,0.1,2.2,0.1c1.1,0,1.5,0,4.8-0.1c0.1,0.3,0.2,0.7,0.7,1.6
	c-2.5,0.1-3.2,0.1-4.6,0.1c-0.5,0-2.8-0.1-3.3-0.1c-0.4,0-1.2,0.1-1.2,1.1c0,0.7,0.4,1,0.6,1c0.4,0.1,2.5,0.1,3,0.1
	c1.5,0,1.8,0,6.5-0.2c0.7,1.2,0.9,1.5,1.2,1.9c-1.4-0.3-2.6-0.5-3.9-0.5c-1.6,0-3.6,0.3-4.8,1.1c-0.9,0.7-1.5,1.6-1.5,2.9
	c0,1.6,1.1,2.7,2.2,3.2c1.7,0.7,3.5,0.8,5.4,0.8c3,0,5.3-0.5,6.1-0.8c0.4-0.1,1-0.3,1-1.2c0-0.2-0.1-1.3-1.1-1.3
	c-0.2,0-0.3,0-1.5,0.3c-2.1,0.5-3.7,0.6-4.8,0.6c-1.5,0-2.5-0.1-3.4-0.4c-0.3-0.1-1.2-0.5-1.2-1.4c0-1,1.1-1.8,3.6-1.8
	c1.9,0,3.9,0.4,5.7,1c0.5,0.2,0.6,0.2,0.8,0.2c0.7,0,1.3-0.6,1.3-1.3c0-0.4-0.2-0.7-0.4-0.9c-0.7-0.9-1.2-1.7-1.8-2.6
	c1.1-0.1,3-0.2,3.5-0.4c0.4-0.2,0.8-0.4,0.8-1.1C532.7,414.3,532.6,413.5,531.7,413.5z M530.8,395.6c0.1,0.1,0.3,0.3,0.5,0.3
	c0.3,0,0.7-0.2,0.7-0.6c0-0.5-0.6-1.5-0.8-1.7c-0.4-0.6-0.5-0.9-0.9-0.9c-0.3,0-0.7,0.2-0.7,0.6c0,0.1,0,0.2,0.1,0.4
	c0.1,0.1,0.4,0.8,0.5,0.9C530.4,394.7,530.8,395.4,530.8,395.6z"/>
</svg>