<svg xmlns="http://www.w3.org/2000/svg" xmlns:xlink="http://www.w3.org/1999/xlink" x="0px" y="0px" viewBox="0 0 1024 768" >
<g>
	<path class="layout" data-layout="5" d="M506.8,375.1l2.6,3.9l0-4.7c0-0.2-0.2-23.5,0.2-28.4c0.2-2.3,0.9-3.2,1.7-3.3l0.2,0l0.5,0c0.8,0.1,2,0.7,2.1,3.3
		c0.3,4.9,0.2,28.2,0.2,28.4l0,4.7l2.6-3.9c0.2-0.4,0.6-0.9,1.2-1.6c16.1-21.9,24.4-44.6,24.8-67.5c0.3-22-11.8-46.8-18.3-55.2
		l-1-1.2l-11.9,11.6l-11.3-11.6l-1,1.3c-6.5,8.4-18.6,33.2-18.3,55.2c0.3,22.9,8.7,45.6,24.7,67.5
		C506.1,374.2,506.5,374.8,506.8,375.1z"/>
	<path class="layout" data-layout="5" d="M449.5,401.3c19.1,0,34.2-4.8,40-6.6c0.8-0.3,1.5-0.5,1.9-0.6l4.6-1.2l-4.5-1.5c-0.2-0.1-22.3-7.4-26.8-9.3
		c-2.2-0.9-2.8-1.9-2.6-2.7l0.2-0.6c0.3-0.5,0.9-1.2,2.3-1.2c0.5,0,1,0.1,1.6,0.2c4.7,1.3,26.7,8.9,26.9,9l4.5,1.6l-2.9-3.8
		c-0.3-0.3-0.6-0.9-1.2-1.6c-15.5-22.3-34.4-37.5-55.9-45.1c-8.2-2.9-17.8-4.4-28.7-4.4c-12.5,0-23.8,2-29.5,4l-1.5,0.5l7.1,15
		l-14.6,6.9l0.9,1.4c5.9,8.9,25.5,28.3,46.4,35.1C427.7,399.7,438.4,401.3,449.5,401.3z"/>
	<path class="layout" data-layout="5" d="M484.9,435.2c-1,1.2-2,1.8-2.8,1.8c-0.3,0-0.5-0.1-0.6-0.2l-0.4-0.4c-0.5-0.6-1.1-1.8,0.3-3.9c2.6-4.1,16.5-22.8,16.7-23
		l2.8-3.8l-4.5,1.6c-0.4,0.1-1,0.3-1.9,0.6c-25.9,8.1-46.1,21.5-59.9,39.7c-14.1,18.6-18.2,45.8-17.9,55.4l0,1.6l16.5-2.3l2.2,16
		l1.6-0.4c10.2-2.9,34.7-15.8,47.4-33.7c13.3-18.7,20-41.9,20-69c0-0.9,0-1.6,0-2l0.2-4.7l-2.8,3.8
		C501.7,412.6,488.1,431.5,484.9,435.2z"/>
	<path class="layout" data-layout="5" d="M528.6,408.1c-0.8-0.3-1.5-0.5-1.9-0.6l-4.5-1.6l2.8,3.8c0.1,0.2,14.1,18.8,16.7,23c1.4,2.1,0.8,3.3,0.3,3.9l-0.5,0.4
		c-0.1,0.1-0.3,0.2-0.6,0.2c-0.8,0-1.8-0.7-2.8-1.8c-3.2-3.7-16.8-22.6-16.9-22.8l-2.8-3.8l0.2,4.7c0,0.4,0,1.1,0,2
		c0,27.1,6.7,50.4,20,69c12.8,17.9,37.2,30.8,47.5,33.7l1.6,0.4l2.2-16l16.5,2.3l0-1.6c0.3-9.6-3.9-36.8-17.9-55.4
		C574.7,429.5,554.6,416.2,528.6,408.1z"/>
	<path class="layout" data-layout="5" d="M639.1,353.1l7.1-15l-1.5-0.5c-5.7-2-17.1-4-29.5-4c-10.8,0-20.5,1.5-28.7,4.4c-21.6,7.7-40.4,22.9-56,45.1
		c-0.5,0.7-0.9,1.3-1.2,1.6l-2.9,3.8l4.5-1.6c0.2-0.1,22.2-7.7,27-9c0.6-0.2,1.1-0.2,1.6-0.2c1.4,0,2,0.7,2.2,1.2l0.2,0.6
		c0.1,0.7-0.5,1.8-2.6,2.6c-4.5,1.9-26.6,9.2-26.9,9.3l-4.5,1.5l4.6,1.2c0.4,0.1,1.1,0.3,1.9,0.6c5.7,1.8,20.9,6.6,40,6.6
		c0,0,0,0,0,0c11.1,0,21.9-1.6,31.9-4.9c20.9-6.8,40.6-26.2,46.4-35.1l0.9-1.4L639.1,353.1z"/>
	<circle class="layout" data-layout="5" cx="511.8" cy="395.2" r="11"/>
</g>
</svg>