<svg xmlns="http://www.w3.org/2000/svg" xmlns:xlink="http://www.w3.org/1999/xlink" x="0px" y="0px" viewBox="0 0 1024 768" >
<g>
	<path class="layout" data-layout="5" d="M562.5,397.8c-13.3-1.6-13.5-2-14.2-5.6c-0.7-3.6,5.4-3.4,2.9-7c-2.5-3.6-1.1-3.8,1.8-6.5c2.9-2.7,1.4-8.1-2.5-4.1
		c-3.8,4.1-6.1,3.2-8.4,0c-2.3-3.2-1.1-11.7,9.7-18.1c10.8-6.3,0.5-19.9-7.9-6.3c-8.4,13.5-9.5,17.4-13.1,14.2
		c-3.6-3.2-2.1-5.2-7.4-5c-3.9,0.2-11.5,1.8-14.9-5.4c-3.4-7.2-5-10.2-6.5-28.4c-1.1-12.4-17.6-9.7-11.3,3.6
		c5.9,12.5,5.6,15.6,5.9,22.6c0.1,3.1,0.9,7.7-2.7,8.3c-3.6,0.7-9,4.3-8.3,10.2c0.7,5.9-2.3,7-5.9,7.9c-3.6,0.9-9,6.8-5.2,12.6
		c3.8,5.9,0.9,5.9-5,7.4c-5.9,1.6-15.1-1.6-20.3,1.1c-5.2,2.7-6.5,9.7,1.1,10.4c7.7,0.7,17.2-5,21.7-5.6c4.5-0.7,10.8-0.7,11.3,2.7
		c0.5,3.4-0.9,5,1.6,7.7c2.5,2.7,3.6,3.6,0.9,7.9c-2.7,4.3-2.5,5-7.7,10.4c-5.2,5.4,3.2,11.7,6.8,4.5c3.6-7.2,6.5-16.5,8.8-16.5
		c2.3,0,4.7-0.7,7.9-2.5c3.2-1.8,3.6,5.9,7.4,4.3c3.8-1.6,5.9-1.8,7.4,1.8c1.6,3.6,6.1,9.3,6.1,19.4c0,10.2,12,7.7,6.5-2.7
		c-5.4-10.4-8.3-20.3-4.7-19.2c3.6,1.1,9.3,0.4,8.6-2.9c-0.7-3.4,1.4-5.6,3.8-4.7c2.5,0.9,6.8,4.1,7.7,2.3c0.9-1.8,0-3.6-4.5-5.4
		c-4.5-1.8-3.2-6.3,1.1-5.4c4.3,0.9,4.7-0.7,7.2-2.9c2.5-2.3,9-2.7,14.9,2C569.1,409.6,575.9,399.4,562.5,397.8z"/>
	<path class="layout" data-layout="5" d="M577.9,409.7c-2.5,0.2-6.6,4.4-3.3,5.9C577.8,417.1,580.6,409.5,577.9,409.7z"/>
</g>
</svg>