<svg xmlns="http://www.w3.org/2000/svg" xmlns:xlink="http://www.w3.org/1999/xlink" x="0px" y="0px" viewBox="0 0 1024 768" >
<path class="layout" data-layout="5" d="M631.8,366.7c6.5-4.3,13.8-21.6,10.7-39.5c-7.7,11.9-48.8,27.7-83.3,37.8c-28.8,8.4-39.8,23.5-47.4,23.4
	c-7.6-0.1-18.3-15.4-47-24.3c-34.4-10.7-75.2-27.3-82.6-39.3c-3.4,17.9,3.5,35.3,9.9,39.7c-7-3.3-14.1-5.6-14.1-5.6
	s4.3,28.9,14.3,43c12.3,17.5,32.2,41.5,69.6,40.2c37.5-1.3,41.9-18.6,49.5-18.5c7.6,0.1,11.7,17.5,49.2,19.4
	c37.4,2,57.7-21.7,70.3-39c10.2-14,15-42.7,15-42.7S638.9,363.5,631.8,366.7z M439.6,412.9c-19.7-8.2-20.4-25.4-19.8-36.8
	c6.7,2.6,20.5,4.1,31.5,6.7c12.7,3,28.1,8.3,37.1,26.4C484.5,415.1,461.1,421.9,439.6,412.9z M583.5,414.2
	c-21.7,8.6-44.9,1.4-48.8-4.6c9.3-17.9,24.8-23,37.6-25.7c11.1-2.4,24.9-3.6,31.6-6.1C604.3,389.2,603.3,406.4,583.5,414.2z"/>
</svg>