<svg xmlns="http://www.w3.org/2000/svg" xmlns:xlink="http://www.w3.org/1999/xlink" x="0px" y="0px" viewBox="0 0 1024 768" >
<path class="layout" data-layout="5" d="M631,335.4c10.4-12.7,12.6-25.2,12-39.5c-0.6-14-8.1-32.7-9.6-33.1c-1.5-0.4,0.8,20.6-8,36.8c-9,16.6-28.6,23.6-39.5,27.3
	c-10.9,3.7-35.8,9.8-47.6,19c-11.9,9.3-16.5,19.2-18.7,23.9c-2.3,4.7-2.9,8.2-3.9,8.4c-1.1,0.2-2.6-12.6-1.6-13.2
	c1-0.6,4.5,0.9,5.6,0.6c1-0.3-5.8-7.5-5.7-9.2c0.1-1.7,9.2-13,17.8-18.3c6.7-4.1,9.6-3.9,16.2-4.7c4.9-0.6,14.7-2.4,15.7-10
	c1-7.8-5.2-11.6-10-11.7c-4.8-0.1-8.9,2.8-8.8,7c0.1,4.6,2.3,7,6.9,7.2c4.6,0.2,5.9-3.1,5.8-5.2c-0.1-2.1-1.7-4.4-4.4-4.5
	c-2.5-0.1-3.9,1.7-4.2,3.2c-0.2,1.3,0,2.2,0.6,2.2c0.7,0.1,1.1-3.6,3.1-3.6c2,0,2.6,1.3,2.7,2.9c0.1,1.6-1.1,3.1-3.2,3.1
	c-2.1-0.1-4.5-1.1-4.6-4.3c-0.1-3.2,1.7-5.3,5.7-5.3c3.7,0,6.7,2.6,6.8,7.4c0.1,4.8-4.6,7.6-11,8.5c-6.4,1-15.3,0.6-25.6,10.1
	c-10.4,9.6-11.1,13-11.1,13s-0.2-3-0.5-3.6c-0.3,0.7-0.5,3.6-0.5,3.6s-0.7-3.4-11.1-13c-10.3-9.5-19.1-9.1-25.6-10.1
	c-6.4-1-11.1-3.7-11-8.5c0.1-4.8,3.1-7.4,6.8-7.4c4.1,0,5.8,2.1,5.7,5.3c-0.1,3.2-2.5,4.2-4.6,4.3c-2.1,0.1-3.3-1.5-3.2-3.1
	c0.1-1.6,0.6-2.9,2.7-2.9c2,0,2.5,3.6,3.1,3.6c0.7-0.1,0.9-0.9,0.6-2.2c-0.3-1.6-1.7-3.4-4.2-3.2c-2.7,0.1-4.3,2.4-4.4,4.5
	c-0.1,2.1,1.3,5.4,5.8,5.2c4.6-0.2,6.7-2.5,6.9-7.2c0.1-4.2-4-7.1-8.8-7c-4.8,0.1-11,3.9-10,11.7c1,7.6,10.8,9.4,15.7,10
	c6.6,0.8,9.5,0.6,16.2,4.7c8.6,5.2,17.7,16.5,17.8,18.3c0.1,1.7-6.7,8.9-5.7,9.2c1,0.3,4.5-1.2,5.6-0.6c1,0.6-0.5,13.4-1.6,13.2
	c-1.1-0.2-1.7-3.7-3.9-8.4c-2.2-4.6-6.8-14.5-18.7-23.9c-11.8-9.2-36.7-15.3-47.6-19c-10.9-3.7-30.5-10.7-39.5-27.3
	c-8.8-16.2-6.5-37.2-8-36.8c-1.5,0.4-9,19.1-9.6,33.1c-0.6,14.3,1.7,26.8,12,39.5c10.6,12.9,26.2,19.4,26.5,19.8
	c0.3,0.4-7.1,5-16.7,2.1c-9.5-2.9-16.4-14.7-17.3-13.9c-0.8,0.7-3.8,8.7,3.1,17.5c7,8.9,14,9.2,14.6,9.7c0.7,0.5-12,8.9-10.3,22.6
	c1.7,14,14.3,18.6,14.9,17.5c0.6-1.2-2.1-5.8-2-11.8c0.1-5.9,3-15.1,16.2-15.6c13.2-0.4,14.6,9.1,14.2,15.1c-0.3,5-5.1,7.3-10.2,4.5
	c-5.7-3.2-4.6-11.3-5.3-11c-0.7,0.3-4,7.4-1.5,17c2.5,9.7,14.2,12.9,19.6,12.7c5.4-0.2,13.6-0.3,22.8-9.5
	c9.1-9.2,10.4-15.7,10.9-15.7c0.4,0,1.1,4.5-0.6,11.5c-1.7,7.1-7.5,15.1-17,22.6c-9.6,7.6-10.7,12.9-7.3,17.6
	c2.6,3.5,6.9,5.2,7.3,4.4c0.4-0.8-0.4-1.7-1.2-4.3c-0.9-2.7-1-5,3.3-9.3c4.8-4.8,10.9-3.4,14.2-0.8c3.2,2.6,5.9,8.5,1.8,15.7
	c-4.1,7.3-12.2,11.3-24,9.3c-11.9-1.9-14-19.8-14.9-19.4c-0.8,0.3-3.9,11.2-0.7,18.8c-4.1,1.5-6.5,8.8-3,11.7c1,0.8,2.5,1,3.8,0.5
	c-0.3-0.5-0.6-1-0.8-1.6c-1.1-3.6,2.5-4.6,5.2-4.6c6.7,4.1,16.7,3.8,16.7,3.8s-11.6,5.5-20.9,14.7c-9.4,9.4-9.7,18.3-8.9,18.3
	c0.8,0,2.6-3.1,4.7-5.8c2.1-2.6,6.3-7.5,16-12c7.9-3.6,17.6-5.3,28.3-10.2c-2.7,4.1-4.4,8.9-3.8,13.7c0.5-5.5,4.9-9.7,9.6-11.9
	c4.6-2.2,9.7-3,14.2-5.2c1.9-1,3.8-2.2,5.1-3.9c2.6-3.3,3.1-7.8,3.1-12c0.1-4.4-0.3-8.9-1-13.2c0.3-1.6,0.5-3.3,0.6-5
	c0.8-12.9-5.4-21.1-9.3-28.1c-3.9-6.9-5.2-10.1-4.7-17.7c0.6-7.5,5.9-14.8,7.1-15.3c1.2-0.4,4.4,3.5,8.1,8.4
	c3.7,4.9,5.7,10.1,6.6,14.9c1,4.9,1.6,23.9,1.6,23.9s0.6-19,1.6-23.9c1-4.8,2.9-10,6.6-14.9c3.7-4.9,6.8-8.8,8.1-8.4
	c1.2,0.4,6.6,7.8,7.1,15.3c0.6,7.5-0.8,10.7-4.7,17.7c-3.9,7-10.1,15.2-9.3,28.1c0.2,2.5,0.5,5,1.1,7.4c-0.4,3.5-0.7,7.1-0.6,10.8
	c0.1,4.2,0.6,8.8,3.1,12c1.4,1.7,3.2,3,5.1,3.9c4.6,2.2,9.6,3.1,14.2,5.2c4.6,2.2,9.1,6.4,9.6,11.9c0.6-4.6-0.9-9.2-3.4-13.2
	c10.2,4.5,19.4,6.2,27,9.7c9.7,4.5,13.9,9.4,16,12c2.2,2.6,4,5.8,4.7,5.8s0.4-9-8.9-18.3c-9.2-9.3-20.9-14.7-20.9-14.7
	s9.8,0.3,16.5-3.7c2.4,0.3,4.8,1.4,3.9,4.5c-0.2,0.6-0.5,1.1-0.8,1.6c1.3,0.5,2.8,0.3,3.8-0.5c3.1-2.5,1.5-8.7-1.8-11
	c3.6-7.5,0.4-19.1-0.4-19.4c-0.9-0.4-3.1,17.5-14.9,19.4c-11.9,1.9-19.9-2-24-9.3c-4.1-7.3-1.4-13.1,1.8-15.7
	c3.2-2.6,9.3-4,14.2,0.8c4.3,4.3,4.2,6.7,3.3,9.3c-0.8,2.6-1.6,3.6-1.2,4.3c0.4,0.8,4.8-0.9,7.3-4.4c3.4-4.7,2.3-10.1-7.3-17.6
	c-9.5-7.5-15.2-15.5-17-22.6c-1.7-7-1-11.5-0.6-11.5s1.8,6.6,10.9,15.7c9.2,9.3,17.5,9.4,22.8,9.5c5.4,0.2,17.1-3,19.6-12.7
	c2.4-9.6-0.8-16.7-1.5-17c-0.7-0.3,0.4,7.9-5.3,11c-5,2.8-9.8,0.5-10.2-4.5c-0.4-6,1-15.5,14.2-15.1c13.2,0.4,16.1,9.6,16.2,15.6
	c0.1,6-2.6,10.6-2,11.8c0.6,1.2,13.2-3.5,14.9-17.5c1.7-13.7-11-22.1-10.3-22.6c0.7-0.5,7.6-0.8,14.6-9.7c6.9-8.8,3.9-16.8,3.1-17.5
	c-0.8-0.7-7.7,11-17.3,13.9c-9.6,2.9-17-1.7-16.7-2.1C604.8,354.8,620.4,348.3,631,335.4z M449,336.9c30.1,8.2,39.7,23.1,39.7,23.1
	c-21.6-13.7-41.2-16.5-41.2-16.5C447.5,340.9,449,336.9,449,336.9z M484.1,401.5H478c0,0,0.5-2,0.1-4.6c0,0,3.7-5,6.3-7.3
	C484.4,389.6,483.4,397.2,484.1,401.5z M446.5,349.3c20.7,4.7,31.9,13.8,31.7,14.1c-0.2,0.3-31.7-4-32.5-4.9
	C444.9,357.6,446.5,349.3,446.5,349.3z M476.1,368.1c0,0-6.9,3.9-18.5,3.2c0,0-1.3-2.5-1.1-4.7C456.4,366.7,467.7,368,476.1,368.1z
	 M415.9,332.6c-13-6.9-14.1-18.9-14.1-18.9c8.7,13.8,36.9,20.3,36.9,20.3c-0.5,3.1-0.6,6.6-1,6.6S430,340.1,415.9,332.6z
	 M436.6,355.8c-0.8-0.5-11.2-7.5-10.8-8.1c0.4-0.7,11.2,0,11.2,0S437.5,356.3,436.6,355.8z M437.2,362.5c1.4,0.4,8.8,2,10.7,2.3
	c1.8,0.3,1.1,6.1,1.1,6.1C439.4,368.1,437.2,362.5,437.2,362.5z M458.7,395.5c-0.7-0.1-5.7-12.4-12.1-19.3c0,0,7.6-0.4,10-0.3
	c0,0,6.4,10.1,8.9,14.7C465.5,390.5,459.4,395.5,458.7,395.5z M469.3,387.6l-6-11.4c0,0,13,1.4,13.3,2.6
	C476.9,379.8,469.3,387.6,469.3,387.6z M488.7,421c-0.1,7.9-6.8,14.5-6.8,14.5c-3.8-6.7-10.2-8.1-10.8-9c-0.6-1,1.6-2.6,3.9-7.4
	c2.2-4.7,2.8-12.3,2.8-12.3s3.8-0.1,6.2,0.5C486.4,407.8,488.9,413.2,488.7,421z M578.3,358.5c-0.8,0.9-32.3,5.2-32.5,4.9
	c-0.2-0.3,10.9-9.4,31.7-14.1C577.5,349.3,579.1,357.6,578.3,358.5z M566.5,371.4c-11.6,0.6-18.5-3.2-18.5-3.2
	c8.4-0.2,19.7-1.5,19.7-1.5C567.8,368.9,566.5,371.4,566.5,371.4z M575,336.9c0,0,1.4,3.9,1.6,6.6c0,0-19.7,2.8-41.2,16.5
	C535.4,360.1,544.9,345.2,575,336.9z M546,401.5h-6.2c0.8-4.4-0.2-11.9-0.2-11.9c2.6,2.3,6.3,7.3,6.3,7.3
	C545.6,399.5,546,401.5,546,401.5z M552.8,426.4c-0.6,1-7,2.3-10.8,9c0,0-6.6-6.6-6.8-14.5c-0.1-7.8,2.4-13.1,4.7-13.7
	c2.3-0.6,6.2-0.5,6.2-0.5s0.6,7.6,2.8,12.3C551.2,423.8,553.4,425.5,552.8,426.4z M547.4,378.7c0.3-1.2,13.3-2.6,13.3-2.6l-6,11.4
	C554.7,387.6,547.1,379.8,547.4,378.7z M565.3,395.5c-0.7,0.1-6.7-5-6.7-5c2.5-4.5,8.9-14.7,8.9-14.7c2.4-0.1,10,0.3,10,0.3
	C571,383.1,565.9,395.4,565.3,395.5z M575,370.9c0,0-0.7-5.7,1.1-6.1c1.8-0.3,9.2-1.9,10.7-2.3C586.8,362.5,584.6,368.1,575,370.9z
	 M587.4,355.8c-0.8,0.5-0.4-8.1-0.4-8.1s10.8-0.7,11.2,0C598.6,348.4,588.2,355.3,587.4,355.8z M608.1,332.6
	c-14.1,7.5-21.5,7.9-21.9,7.9c-0.4,0-0.4-3.5-1-6.6c0,0,28.3-6.5,36.9-20.3C622.2,313.7,621.1,325.6,608.1,332.6z"/>
</svg>