<svg xmlns="http://www.w3.org/2000/svg" xmlns:xlink="http://www.w3.org/1999/xlink" x="0px" y="0px" viewBox="0 0 1024 768" >
<g>
	<path class="layout" data-layout="5" d="M657.4,378.4c-3.7,3.7-6.9,7.9-7.6,14.1C656.9,389.5,662,383.2,657.4,378.4z"/>
	<path class="layout" data-layout="5" d="M653.6,344.2c-0.7,0-1.2,0.1-1.8,0.2C652.2,344.5,652.7,344.5,653.6,344.2z"/>
	<path class="layout" data-layout="5" d="M410.2,352.6c-0.2-4.3,2.2,0,3.4-4c0.3,1.4,0,3.5,1.5,3.6c2.4-5.8,9,3.2,10.8-3.3c0.1,1.2,0.2,2.5,0.3,3.7
		c4,0.8,2.3-3.4,4.6-4c2.6,2.6-0.2,1.4-0.9,3.8c7.7,0-0.2-7.2-1.9-8.5c5.9,2.8,9.8,7.6,11.9,11.4c2.8-0.6,4.7-0.2,6.2,0.8
		c4-4.5,0.7-8-3.4-12.1c4.2,3.6,2.4-3.7,4.5-5.3c-0.8,4,3.4,2.3,4,4.6c-2.8-0.1-4.6,0.6-4.7,2.8c4.6,1.1,5,12.7,13,8.9
		c1.3-6-7.8-6.9-3.4-12.1c-0.2,2.9,0.6,4.7,1.7,6c3,2.2,6.7-2.8,9.9,0.5c-3,0.1-5.9,0.3-7.3,1.8c0.9,4.8-2.1,6.6,1.9,8.5
		c-0.1-1.5,9.8,3.6,12.2-0.9c-3.9-1.4-1.7-7.2-5.6-7.1c-0.3,0.1-0.7,0.1-1.1,0.2c0.4-0.1,0.8-0.1,1.1-0.2c1-0.3,1.8-0.8,2.5-1.3
		c3.2,2.1,2.8,8.2,6.9,9.3c-0.5-4.3-3.9-5.2-4.4-9.5c4.4,0.6,4,6.9,8,8c2.1-2.4-1.2-3-0.6-7.4c5.9,0.6,4-2.1,8.8,1.8
		c-7.3-26.7-10.5-50.7-5.4-72.3c3,3.6,0.9,13.2,3.7,17c-5.3,5.5-1.3,27.1,4.9,31.7c-2.8-0.1-4.6,0.6-4.7,2.8
		c1.4,6.6,2.1,9.6,7.9,13.7c0.2,0.1,0.4,0.2,0.6,0.4c-0.2-0.1-0.4-0.3-0.6-0.4c-4.2-2.6,3.3,10.3,4.7,6.3c-2.5-2.3,6.5,2.3,7.7,4.3
		c1.4-9.7,7.2-12.7,2.2-19.9c1.7-0.2,2.7,0.4,3.8,0.9c-1.7-5.4,5.9-10.8,3.3-21.2c3.7,3.7,2.5-16,7.2-19c-2.2,18.3-7,32-6.4,46.1
		c1.7,1.1,4.6,0.8,5.2,3.3c-3.3,0.4-2.6-1.9-4.9,0.4c1.5,7.1-0.7,11.1,5.9,13.1c0.8-4-4.2-1.4-4-4.6c5.2-4.4,4.6,2.1,7.5,1.9
		c-1.1-4.4,2.2-5,5.8-5.3c1.3-5.6-4.4-2.9-4.2-7.1c2.4-0.2,1.8,3.2,5.1,2.1c-0.1-1.6-0.2-3.3-0.4-4.9c-3.1,0.4-3.6,2.6-5-0.9
		c3.7-1.7,3.3,0.1,6-1.7c1-13.3-0.2-23.7,3.6-33.6c-1,17.6,2,32.6-2.6,47c-0.3-0.9-0.2-2.4-1.4-2.4c-0.1,8.2,8.1,6.5,15.3,6.2
		c0.3-4.7,4.3-7,8.2-5.5c7.6-20.2,17.5-38.5,19.9-63.1c1.6,29.9-12.5,49.4-18.1,70.4c4.1,0.3,4.5,2.7,8.6-0.7
		c-1.1,7.5,8.6,2.5,7,10.6c4.3,0.7,5-2.7,7.4-0.6c1.3-2.7,1-6.8,4.3-7.7c0.5,1.6,1.9,2.2,1.6,4.8c-1.4,0.2-2-1.6-2.4,0.2
		c4.1,0.9-1.2,2.5-1,3.8c2.7-1.7,9.8-0.9,5.1,2.1c5.1-0.1,11.1-1.4,10.3,5.4c9.1,1.9,9.6-1.7,12.7,5.2c2.7,0.6,3.6-3.8,3.8,0.9
		c4.3,0.6,1.2-5.1,5.8-4.1c-0.2,2.5-3.1,2.6-3.3,5.2c2.4-0.6,2.6,1.5,3.9,2.2c0.7-4.6,9.4,2.8,10.4,6.6c10.6-6.6,24-16.8,22.4-30
		c-4,3.4-2.3,11.8-7.6,14.1c2.2-6.5,1.9-5.1-1.6-4.8c3.1-3.1,8-10.6,5-15.2c-0.8,3.2-2.9,5.1-4.3,7.7c-5.8-2.5-1-5.9-7.8-5.6
		c2.3-0.7,2.9-2.9,5.9-2.9c3.1,1.4-1.9,3.9,1.6,4.8c4.1-4.4,3.4-8.4,5.2-12.7c-7-4.9-4.5,6.3-9.3,6.9c1.6-4.1,2.3-9.1,7.3-10.3
		c-1.3-0.5-0.7-3.3-1-5c-4.5,1.8-7.4,7.3-5.3,11.5c-8.3,5.7-12.4,24.2-25.4,22.9c14-12.5,21.6-24,27.5-44
		c-7.2,2.3-4.7,12.8-8.5,17.9c-1.5-6.2,5.1-14.5,5.7-22.6c-10.5,7.9-5,22.4-18.9,27.3c0.7-3.5,5.1-7.2,0.6-8.7
		c8.3-5.5,10.3-16.3,18-22.3c-3.6,1.5-2.4-2.6-2.8-4.7c-2-2.6-2.9,1.8-3.8-0.9c2.7,0,0.2-4.4,0.8-6.2c-3-0.8-2.5-1.4-4.1-5.9
		c-2.1-0.3-3,2.1-3.7,0.3c-1.3-8.1-2.8-5.2-3.5-13.3c-3.2-1.4-3.5,5.1-4.8,1.6c0.7-8.9-3.3-10.8-7.3-15.5c0.4,3.3-3,3.3-4.4,5.1
		c1.5-2,2.1-4.8,3-7.4c-4.2-1.8-4.2,1.2-5.1-2.1c-0.1,1.4-1.2,2-2.3,2.6c0.3-0.8,2.7-5-0.4-4.9c-0.9,3.9-3.4-1.2-5-0.9
		c0.1,3.1,0.2,6.3-3.2,6.4c0.3-2.4,3.3-2.5,2-6.3c-2.5-2.1-3.1,0.1-6.1,0.5c-0.1-1.6,1.4-1.8,0.9-3.8c-2.4-0.2-2.3,1.8-3.5,2.7
		c-0.2-1.7,0.4-2.7,1-3.8c-2.3-0.1-2.6,1.6-4.8,1.6c-0.5-7.1-1.1-0.3-3.7,0.3c0-1.6,1.4-1.8,1-3.8c-4.5-0.8-0.6,5.6-4.5,5.3
		c-0.5-2.3,1.2-2.8,0.9-5c-4.7-0.6-2.3,4.9-5.8,5.4c0.8-2.4,4-6.7-0.6-7.3c0,2.3-0.5,4.2-2.1,5.1c0.2-4.6-3-5.4-5.5-7
		c-0.3,3.2-1.3,5.8-3.1,7.6c-1.3-3.8,1.6-3.9,2-6.3c-4.6,1.1-3.8,0.2-5.9,4.1c-0.3-1.4,0-3.5-1.5-3.6c-2.8,0.7-1.3,5-3.2,6.4
		c0.2-2.9-0.5-4.7-1.7-6c-3.8,0.8-4.7,4.8-7.3,0.6c0,2.3-0.5,4.2-2.1,5.1c-1.2-6.2-5.1,1.7-10.9,2.1c-0.6-6.5-0.3-1-3.8-0.9
		c-0.2-5.5-0.9-10.5-3.5-13.3c-3.5,12.3-7.4,24.2-9.5,37.7c0.8-5-0.7-10.4,0.1-14.8c2-10.6,13.2-22.4,5.3-27.5
		c-0.1,2.2,1.7,6-2.1,5.1c-1.3-3.4,1.5-3.3,0.8-6.2c-5,5.6-4.9,15.6-8.1,22.8c-1.1-10.5,5.4-14.4,4.3-25c-1.7,0.2-2.7-0.4-3.8-0.9
		c-1.8,14.1-7.1,25.2-9.4,38.9c-1.2,0.1-1.5-0.9-2.5-1c-0.4,6.5,1.3,16.7-0.6,24.7c-5.4-0.4-4.1-14.7-0.1-17.2
		c-1.3-15.1,9.7-28.9,11.4-45.2c-4.8-2-9.3-0.8-14-6.3c-1.3,2.3,0.3,7.1-1.8,8.8c-0.2-2.9-0.4-5.7-0.7-8.6c-6,2.6-1,16.4-3.5,18.7
		c-4-5.5,0.1-12.5-1.5-19.6c-5.1,0.6-1,9-4.1,11.4c-0.2-2.9-0.4-5.7-0.7-8.6c-6.1,2,1.8,16.1-2.2,19.9c-1.2-5.7,0.5-14.8-2.6-18.3
		c0.4,7.9-0.9-1.2-4.9,0.4c-1.8,3.4,1.9,11.5-2.7,12.5c0.5-3,1.3-5.7,0.5-9.9c-6.9-1-0.6,9.4-4.1,11.4c-1-2.9,0.9-9-2-9.7
		c-1.4,5.7-8.2,2.8-11.7,8.3c-0.2,7.1,3.2,10.3-0.1,14.8c-1.1-4.5,1-12.8-3.5-13.3c-2.2,13.3,7.3,27.8,2.9,38
		c-1.4-9.7-1.6-27-7.6-35.2c-2.8,4.4,3.6,11.3,0,16c1.1-4-2.1-2.8-2.8-4.7c5.8-0.8-1.2-5.5,0.5-9.9c-0.6-1.5-5.1,8.3-4.6,4.3
		c-1.1,9.8,6,19.7,7.3,31.3c0.5,4.8-1.8,11,0.1,17.2c2.4,0.2,2.3-1.8,3.5-2.7c-2.8,8.7,3.9,18.8,0.4,22.1
		c-11.7-18.3-5.6-48.8-14.8-65.4c-0.5,3,2.2,8.8-0.5,9.9c-0.7-3.6-1.3-7.4-4.3-8.3c-1.4,4,3.6,7.2,0.6,8.6c-0.3-2.3-1.1-4-2.8-4.7
		c-0.6,6.5,4.5,13.4,2.5,17.1c-2.3-4-1-12.1-5.9-13.1c-2.9,5.2,3.7,16.6,1.6,20.8c-2.5-3.8-2-11-3.6-15.7c-1.8,0.4-4.6-0.1-4.8,1.6
		c2.1,0.8,2.8,9.9,0.8,11c-0.7-4.1,0.8-10.7-4.4-9.5c3.9,18.6,13.1,40.3,10.1,52.2c-10.4-15.3-0.9-32.9-13.6-49.5
		c-2.7,3.4,4,12.6,1.2,15.9c-2.4-3.4-0.6-11.7-4.7-13.2c-0.8,2.3-1.2,5.1-3.2,6.4c1.5,1.5,4.8,7.7,3.1,8.4c-2.5-2.9-2.1-9.1-6.9-9.3
		c0.6,7.8,0.8,4.4-4.6,4c-3.4,2.3,4.2,5.2,0.6,7.3c-0.5-4.3-2.2,0.3-4-3.4c4.2,9.9,10.9,24.4,8.7,33.8c-2.8-7.9-6.4-18.7-8-24
		c-4.7,1.9,2.9,18.9-4.3,7.7c-0.2,7.4,0.7,9.5-1.3,16.1c-0.1-3.9-0.5-7.4-3.1-8.4C387,346.7,399,349.3,410.2,352.6z"/>
	<path class="layout" data-layout="5" d="M600.8,412.2c-4.2,3.1-5.9,2-8.8-1.8c-0.1,1.5,0.5,3.5-1,3.8c-10.8-14.4-34.6,3.6-48.4-5
		c0.8,5-2.5,0.8-4.8,1.6c0.4,6.9-3.9,2.7-4.3,8.9c-0.3-1.4,0-3.5-1.5-3.6c-0.3,3.6-2.3,0.9-3.3,5.2c-0.3-1.4-0.1-3.5-1.5-3.6
		c-0.3,2.1-1.6-0.1-3.7,0.3c-0.1,1.9,0.8,4.5-0.9,5c-2-7.4-3-0.9-10.1-2.9c0.1,3.2-0.3,5.9-1.9,7.5c-0.3-1.4-0.1-3.5-1.5-3.6
		c-5.1,9-4.7,15.4-10.4,25.4c-0.7-8.1,6.4-21,3.1-23.7c-0.5,1.5-1.1,2.9-2.2,3.9c-0.2-5.6,2.1-10.2,0.1-14.8c-5.2,6.4-1.2-3-5.2-3.3
		c0.8,2.3-2.8,6.5-3.4,4c0-1.6,1.4-1.8,1-3.8c-2.4-0.2-2.3,1.8-3.5,2.7c1-3.3,0.8-6.3-1.9-8.5c-0.1,1.4-1.2,2-2.3,2.6
		c-0.1-3.3-2.2-2.3-0.4-4.9c-6-0.2-5.8,4.9-8,8c0-7.7,6-16.1,1.9-23.6c-3.1-2.2-6.3-5.1-9-4.3c1-5.2-6.6-4.6-11.3-2.8
		c0.9-1.5,1.4-3.4,0.8-6.2c-6.5,4-16.8,1.3-16.3-3.7c0.4,0.9,0.2,2.4,1.4,2.4c0.5-6.3-8.8-1.3-9.1-6.7c-5.5-0.9-5.9,2.5-9.6,3.2
		c-2.8-1.6,1.3-3.1-1.5-3.6c-11.3,7.9-23.5,25.2-25.2,41.3c-6.7,5.9-11.4,25.8-6.3,31.3c3.4,0.6-1.3-5.7,2.1-5.1
		c1.1,2.7-1.5,9.7,3.1,8.4c3.1-6.6,2.1-10.9,2.3-18.6c4,1.7,3.7-8.6,9.2-9.3c-2.8-6.5,6.5-16.8,9.7-18c-1.6,2.8-3.6,5.3-5.6,7.8
		c1,0.2,2.4-0.2,2.5,1c-10.8,12.6-14.7,32.3-13.6,49.1c4.4-5.1,4.1,2.9,9,4.3c-0.4-3-0.7-5.9,2-6.3c-0.3,4.7-2.4,7.9-1.4,13.7
		c8.5-3.3-0.3-19.7,4.4-23.7c0.1,1.6,2.2,1,2.6,2.3c-2.3,6.4-0.2,16.6-1.9,23.6c4.8-0.7,3.5,5.6,7.8,5.6c0.4-16.8,5.9-29.3,13-40.4
		c-3.4,8-18.1,49.7-8.9,45c1.4,3.5,1.4,3.7,0.6,7.4c2.4-0.6,2.6,1.5,3.9,2.2c1-2.2,0-6.1,1.9-7.5c1.1,4.5-1,12.8,3.5,13.3
		c0.2-1,0.9-1.5,2.4-1.4c1.5-27.8,12.1-42,22.3-63.3c6.6-0.7,7.6-11.4,6.2-15.3c3.6,0.7,3.1-2,6-1.7c0.9,3.8-2.3,5,0.6,7.3
		c-2.6-1.9-1.5,0.2-4.9,0.4c-10,24.3-24.6,44.6-28.9,73.7c4.4,0.7,5.1,5.6,8,8c0-1.5,0.1-2.9,2.3-2.6c0.1,3.1-2.1,4,1.6,4.8
		c0.2-1-0.2-2.4,1-2.6c1.3,5.3,4.5,0.7,7.7,4.3c1.1-10.7,5.8-15.8,1.7-26c3.5,0.6,6.1-8.2,6.3-14c1.6-0.1,1.8,1.4,3.8,0.9
		c0.1-1.4-0.5-3.5,0.9-3.8c-2.7,18.4-11.7,31.7-11,50.1c0.7-1.8,2.9-8,4.5-5.3c-2.7,0.7,0.5,6.5-1.9,7.5c0.8-0.1,1.6-0.1,2.5-0.2
		c3.3,1.8,1.2-1.3-0.3-3.7c4.8-1.2,2.2,6.3,6.6,5.7c4.9-11.2,11-26.9,10.6-39c5.8-1.6,2-8.3,7.8-11.7c0.3,19.9-16.7,36.6-12,52.7
		c0.1-1.8-0.8-4.5,0.8-5c0.4,2.1-0.8,6.2,2.8,4.7c2.2-7.6,4.1-23.5,7.3-33.8c1.1,14.7-7.6,25.5-3.4,36c0.1-6.2,2.2,0.8,4.9-0.4
		c3.2-2.9-2.8-6.5,1.9-7.5c2.4,1.2-2.2,10.3,3.3,10.8c2.4-1-0.8-6.8,1.9-7.5c1.7,3.8,0.3,2.8,0.6,7.3c3.9-1.8,1.2,3.9,5.1,2.1
		c3.4,0.6-1.3-5.7,2.1-5.1c1.5,0.5,2.9,1.1,3.9,2.2c-1.9,0.3-4.3,0.2-3.5,2.7c5.5,3,4-8.4,6.5-11.6c1.4,4.4-1.7,6.7,0.7,8.6
		c4.3,3.3,5-4.3,7.3-1.8c-0.6,3.1-0.8,5.1,1.8,7.3c0.2-1.5,1.3-0.9,2.5-0.2c0.1-1.8-0.8-4.5,0.9-5c1.3,1.1,2.7,2.2,4,3.4
		c-2.6,1-4.2-3.2-3.6,1.5c3.3,4.2,4.8-2.6,5.8-4.1c1.8,0.6,0.6,4.7,2.8,4.7c0.2-3.2,0.1-6.8,1.8-8.8c0.4,3,2.6,3.6,0.5,6.1
		c5.7-0.8,8.1-4.5,10.5-8.2c0.3,1.4,0.1,3.5,1.5,3.6c0.5-1.5,1.1-2.9,2.2-3.9c1.5,2.7,5.8,2.1,10,1.7c0.7-5.8,0.4-3.8,5.6-7.8
		c3.2,2.2-1.7,5.4,2.9,5.9c4-2.3,6.5-5.9,9.2-9.3c14.5-4,12.2-28.4,23.5-31.4c1.5-2.2-1-7.8,3.1-7.6c-0.9,11.6-12.9,19.3-10,30.3
		c-4.7,0.2-5.2,4-5.6,7.8c5.5,0,4.9-9.6,9.3-6.9C616.4,482,615.9,434.4,600.8,412.2z"/>
	<path class="layout" data-layout="5" d="M405.6,359.7c0.1-0.2,0.1-0.3,0.1-0.5C405.7,359.3,405.7,359.5,405.6,359.7z"/>
	<path class="layout" data-layout="5" d="M418.8,368c0-3.1-0.2-6-2.9-5.9c-0.3,2.1,2.1,3,0.3,3.7c-2.1-4-11.3-2-10.5-6.1c-0.6,1.2-2.5,1.2-3.3,2.2
		c-1.1-5.7-2.5-2.2-3.7,0.3c-1.8-2.9,3.2-5.4-0.5-6.1c-8.5-0.7-27.9-0.7-25,11.7c-9.4,0-5.1,12.6-1.2,17.3c2.4-1.3,3.1-4.2,4.4-6.5
		c0.2,2.1,0,3.8-0.9,5c3.6-1.9,5.5-5.2,8-8c-2.4,6.8-5.4,17-9.9,15.5c0.4,5.7-5.3,6.2-4,12.6c6.1,0.2,5.5,12.9,11.8,10.2
		c0.1,1.2-0.9,1.5-1,2.5c4.7-1.5,2.5,4.9,7.8,5.6C392.3,398.8,404.2,382.2,418.8,368z"/>
	<path class="layout" data-layout="5" d="M373.4,387.5c-2,0.2-4.8-2.1-6.6-5.7c-2.8,2.7-1.1,2-2,6.3c2.4,0.2,2.3-1.8,3.5-2.7c-1.4,3.2,4,4.8,0.5,6.1
		c0-2.2-1.4-2.8-3.9-2.2c0.2,2.5,0.4,4.9,0.6,7.3C371.2,396.2,371.4,391.1,373.4,387.5z"/>
	<path class="layout" data-layout="5" d="M627.1,417.6c-0.6-4.2-1.5-8-5.2-3.3c1.5,0.5,2.9,1.1,3.9,2.2c-0.5,2.8-2-1.3-3.6,1.5
		c-1.8-0.6-0.5-4.7-2.8-4.7c0.4,3,0.7,5.9-2,6.3c-1.3-3.9-1.2-2.5,0.9-5c-14.7,5.5-3.3,21.7-2,38.3c1.4,18.9-2.7,28.6-5.4,42.3
		c3.1-5.3-0.2,0.5,3.8,0.9c1.9-3.7,2.1-8.9,5.3-11.5c1.2,3.7-3.2,2.6-2,6.3c4.1,0.8,4.8-7.2,7.1-4.2c-1.6,2.8-5.9,3.3-5.6,7.8
		c20.6-12.6,17-42.1,14.6-67.6c7.6,17.6,6.1,34.6,6.3,51.3c9.3,0.3,6.1-10,12.6-12c0.5-12.7,7.3-35.6-3.7-49
		C640.2,420.9,636,414.5,627.1,417.6z"/>
</g>
</svg>