<svg xmlns="http://www.w3.org/2000/svg" xmlns:xlink="http://www.w3.org/1999/xlink" x="0px" y="0px" viewBox="0 0 1024 768" >
<g>
	<path class="layout" data-layout="5" d="M496.4,438.6c0,0-0.3,10.9,8.3,15c9.6,4.5,16.9,1.4,22.4-6.2c4.7-6.5,9-23.2-6.2-37c-15-13.6-39.8-18.8-52,11.2
		c0,0-18.6-31.2,8.4-64.2c0,0-28,10-37.6,54.7c0,0-54.8-44-28.9-99.3c0,0-16.2,51.1,28.9,81.2c0,0-10-14.4-9.9-29.1
		c0,0,30.9,14.2,32.6-24.9c0,0,4.2,7.8,5.9,17.8c0,0,17.4-36.6-30-45.1c0,0,17,12.7,16.8,22.5c-0.3,9.8-7.5,16.8-14.6,16.8
		s-16.3-5.6-15.8-21.9c0.4-16.1,10.1-36.8,36.2-38.3s39.1,25.3,38.5,50.3c0,0-8.5-9.8-24.4-12.7c0,0,22.1,13.9,27.5,47.2
		c0,0,5.5-17.5,5.9-43.3c0.4-25.1-13.2-55.9-52.3-57c-39-1.1-61,35.2-61.9,66.1c-0.9,31.8,8.3,74,65.5,120.6c0,0-15.7-27.9-5-55.2
		c0,0-2,52,55.4,87.2c0,0-14.1-18.2-19.7-31c-5.6-12.7-9.3-28.2-0.9-37.8c7-8,15.4-8.8,21.9-4.3c6,4.1,11.3,11.9,6.5,19
		C513,447.8,504.4,451.3,496.4,438.6z"/>
	<path class="layout" data-layout="5" d="M629.5,335.3c-3.5-43.4-39.2-62.6-62.7-62.3c-23.5,0.4-50.5,17.7-49.1,51.7c1.4,35.1,28.6,45.8,28.6,45.8
		c-18.4-19.4-18.8-32.7-18.8-32.7c9.9,11.8,23.4,11.1,23.4,11.1C528.2,334.3,532,312,532,312c7.2,15.6,20.1,16.2,20.1,16.2
		c-10.4-8.5-14.3-22-12.1-26.7s17.2-13.2,35.6-7.8c18.5,5.5,26.6,18.8,26.3,34.9c-0.3,16.3-10.3,19.8-16.8,20s-14.9-4.9-15.4-18.9
		c-0.5-13.8,10.3-24.5,10.3-24.5c-42.7,27.8-7.1,72.3-7.1,72.3c-4.9-11.5-3.3-22.4-3.3-22.4c13.9,20.3,29.5,3.4,29.5,3.4
		c-1.7,16.9-13,32.5-13,32.5c37.9-26.5,31.6-73,31.6-73c13.4,57.4-25.3,97.9-25.3,97.9c-28.1-44.6-84.8-36.4-84.8-36.4
		c63.7,7.5,71.6,50.8,71.6,50.8c-8.1,10.1-17.9,15.2-17.9,15.2c-5.4-40.1-44.1-48.6-44.1-48.6c53,35.8,4.1,97.6,4.1,97.6
		C608.9,452.5,633.4,383.6,629.5,335.3z"/>
</g>
</svg>