<svg xmlns="http://www.w3.org/2000/svg" xmlns:xlink="http://www.w3.org/1999/xlink" x="0px" y="0px" viewBox="0 0 1024 768" >
	<path class="layout" data-layout="5" d="M380.5,387.1c24.5,63.3,74.7,85.5,77.7,86.9c0,0,10.2-34.7,37.6-34.8c45.3-0.2,35.9,43.6,18.1,44.4
		c-15.4,0.7-16.8-16.9-5-16.1c3.9,0.3,5.7,2.9,5,6.6c0,0,7.2-3.1,3.2-10.6c-5.3-10.1-24.9-6.5-27,7.6c-1.2,8.3,1.3,16.2,13,25.9
		c1.2,1,8.8,6.2,8.8,6.2c32-6.8,130-65.5,140.1-153.7c9.3-81.1-63.2-96.3-97.7-76.3c-15,8.7-43.8,30-36.1,71.9
		c2.3,12.5,23.5,27.9,6.7,55c0,0,12.7-3.9,12.4-34.5c0,0,13.1-2.2,14.2-14.5c0.8-8.6-7.8-10.5-9.3-9.3c0,0,7.6,9.3-1.8,11.5
		c-9.3,2.2-11.4-4.4-10.1-13.4c1.5-11.3,23.8-32.4,43-6.5c20.2,27.1-11.7,73.6-57.8,78.7c0,0,10.7-22.3-3.8-36.2
		c-13.6-13-31.5-1.2-29.6,8.6c1.6,8.4,7.2,9.8,11.4,9.1c0,0-7.3-4-2.2-10.1c5.2-6.2,23.4,7.1,3.8,24.2
		c-18.8,16.4-61.1-3.2-68.5-18.4c0,0,27.6,0.1,26.9-25.8c-0.4-13.9-10.1-13.5-8.2-32.3c1.3-12.9,6.5-19.4,14.9-23.4
		c0,0-30.4-9.1-25.4,37.5c0,0-11.4,0.4-11,10.7c0.2,5.1,3.2,7.6,3.2,7.6s1.2-5,3.4-6.9c3.4-2.9,13.8,0.8,8.6,12.6
		c-4.3,9.8-20.2,8.3-28.5-6.5c-4.4-7.9-14.9-39,11.5-62.1c27.8-24.3,73.8,2.9,66.2,38.2c-1.7,7.7-13.7,10.3-18.7,2.2
		c-2.7-4.5-3.3-17,9.5-15.4c0,0-2.4-5.9-9.8-5.1c-7.4,0.8-15.8,7.9-11.3,23.5c4.4,15.1,29.1,23.7,41.6,6.3
		c13.1-18.1,9.4-67.5-46.1-82.9C395.6,251.5,351.4,312,380.5,387.1z M536.7,434.2c65.5-28.9,69.6-91.6,50.4-113.8
		c-21.9-25.4-41.3-13.3-41.3-13.3c1.3-5.9,15.3-22.6,43.8-21.7c37,1.3,45.3,34.1,46.5,39.1c7.4,30.4-4.9,49.7-10.8,54.7
		c-6.7,5.7-18.6,2.1-16.1-6.8c2.6-9,11.4-6.6,11.4-6.6s-2.3-5.7-9.6-4c-11.4,2.5-12.4,17.4-9.5,23.6c5.5,11.8,22.1,6.3,22.1,6.3
		c-20.7,51.4-75,78.3-75,78.3C553.2,442,536.7,434.2,536.7,434.2z"/>
</svg>