<svg xmlns="http://www.w3.org/2000/svg" xmlns:xlink="http://www.w3.org/1999/xlink" x="0px" y="0px" viewBox="0 0 1024 768" >
<path class="layout" data-layout="5" d="M579.1,324.4c-2.3-14.9-15-26.5-30.2-26.5c-13.6,0-25.3,9.3-33.3,19.6c-6.8,8.8-11.5,19.1-14.7,29.8
	c-5.5-9.2-13.9-16.5-24.7-17c-17.4-0.8-29.7,19.3-31.7,34.5c-2.2,17.2,5.1,34.1,13.5,48.8c11.5,20.2,27.4,39.5,44.4,55.2
	c4.5,4.2,10.1-3.3,10.7-7.6c0.2-1.5,0-2.8-0.5-3.9c9.5-8,17.6-17.9,25-27.6c7.5-9.9,14.4-20.3,20.5-31.1c3.2-3.6,5.2-7.9,6.7-12.6
	c1.6-3.3,3.1-6.5,4.6-9.9C576.4,360.2,581.9,342,579.1,324.4z M474.9,353.2c0.6-2.3,0.9-4.7,1.8-6.9c0,0,0,0.1,0,0.1
	c0,0.8,0,1.8,0.3,2.5c0.4,1,0.9,1.6,1.7,2.4c0.7,0.7,1.4,1.1,2.5,0.8c0.3-0.1,0.5-0.2,0.8-0.3c-0.5,1.1-0.9,2.3-0.9,3.5
	c0,0.4,0,0.7,0,1.1c-0.7-1-2.1-1.3-3.5-0.5c-0.5,0.3-1,0.7-1.5,1.1c-0.5-1.1-1-2.2-1.4-3.3C474.7,353.6,474.8,353.4,474.9,353.2z
	 M458.3,370.8c-0.1,0.1-0.1,0.3-0.2,0.4c-0.7-0.9-1.4-1.8-2.1-2.7c-0.1-1.5-0.1-3.1,0-4.7c0.8,2.2,1.7,4.3,2.7,6.5
	C458.5,370.5,458.4,370.6,458.3,370.8z M463.8,347.1c-0.5,1.2-0.7,2.4-0.5,3.4c0.7,2.3,1.5,4.7,2.4,7c-0.4,0.7-0.7,1.3-1.1,2
	c-1.4-3.3-2.6-6.6-3.6-10C461.8,348.5,462.7,347.7,463.8,347.1z M477.1,415.4c-0.9-1.3-1.8-2.7-2.8-4c-3.9-5.8-7.8-12-10.9-18.5
	c3,3.1,6,6.2,8.9,9.5c2.6,3,5.1,6.1,7.6,9.2C478.7,412.6,477.7,414,477.1,415.4z M488.2,405c-2.3-4.4-4.7-8.8-7.1-13.1
	c-4.4-8.1-9.1-16.3-13.1-24.8l1-1.8c4,8.8,8.9,17.4,13.1,26c2.8,5.6,5.6,11.3,8.4,16.8C489.8,407,489,406,488.2,405z M493.7,385.3
	c-0.6-0.9-1.2-1.9-1.8-2.9c0.2-0.9,0.3-1.9,0.1-2.9c-0.8-5.5-1.6-10.9-2.1-16.4c0.6,1.5,0.8,3.4,1.5,4.8c1.5,2.9,2.6,6,3.9,9
	c0.1,0.2,0.2,0.4,0.3,0.7C494.6,380.3,494,382.8,493.7,385.3z M534.4,337.6c-0.1,0.5-0.3,1-0.5,1.5c-0.9-3-1.9-6-3.2-8.9
	C531.9,332.7,533.2,335.2,534.4,337.6z M530.5,317c-1.2,1.3-2.3,2.8-3.6,4.4c-3,3.9-6.3,7.4-9.7,10.9
	C520.5,326.1,524.8,320.7,530.5,317z M528.2,353.2c-0.3,0.7-0.7,1.4-1,2.1c-2.9-4.4-5.7-8.9-6.5-13.9c0.4-0.6,0.9-1.1,1.3-1.7
	c0.5-0.6,0.9-1.2,1.4-1.8C525.6,342.7,526.9,348,528.2,353.2z M513.8,350.9c1.8,5.4,4.9,10.2,8,15c-0.5,0.7-1,1.5-1.4,2.2
	c-2.4-4.4-4.5-9-6-13.9c-0.3-1.1-0.9-1.6-1.6-1.8C513.1,352,513.4,351.4,513.8,350.9z M504.6,373c0.3,1,0.6,2,1,2.9
	c-0.4-0.9-0.8-1.7-1.3-2.6C504.4,373.2,504.5,373.1,504.6,373z M503.9,394.4c0.4,0.7,0.7,1.4,1.1,2.1c0.2,0.4,0.4,0.7,0.5,1.1
	c-0.5,1.3-1,2.6-1.5,4c-0.6-1-1.2-1.9-1.8-2.8C503.1,397.3,503.7,395.8,503.9,394.4z M505.1,449.5c-2-2.1-4-4.2-6-6.3
	c2.5-1.1,5.3-5.6,4.6-8.5c0.4-0.6,0.8-1.3,1.1-1.9c1,0.5,2.2,0,3.4-1c1.2,1.9,2.4,3.8,3.7,5.8l-3.4-6.1c0.3-0.3,0.5-0.5,0.7-0.8
	c1.7,2.9,3.4,5.8,5.1,8.7c0.3,0.5,0.7,0.8,1.1,1C512.1,443.8,508.6,447,505.1,449.5z M521.8,433.6c0.2-1,0.1-1.9-0.4-2.7
	c-4.3-7.2-8.5-14.5-12.8-21.7c0.4-1.1,0.8-2.3,1.1-3.4c4.5,8.5,9.2,16.9,14.4,25C523.4,431.7,522.6,432.6,521.8,433.6z M531.8,409.4
	c-1.4-3.8-3-7.4-4.7-11.1c1.9,3,3.6,6,5.3,9.2C532.1,408.1,531.9,408.7,531.8,409.4z M533.4,419c0.5-1.2,0.6-2.5,0.3-3.7
	c-0.2-0.8-0.4-1.6-0.7-2.3c0.6,0.4,1.3,0.5,2.1,0.2c0.3,0.7,0.6,1.4,0.9,2.2C535.2,416.6,534.3,417.8,533.4,419z M537.3,395.7
	c-4.2-7.2-9-14.1-13.3-21.2c0.5-0.9,1-1.7,1.5-2.5c1.8,3.1,3.4,6.2,5.3,9.2c2.6,4.3,5.1,8.7,6.8,13.4
	C537.5,395,537.4,395.3,537.3,395.7z M538.2,348.7c-0.3,0.3-0.6,0.5-0.9,0.7c0.4-1,0.8-2,1.2-2.9c0.2,0.5,0.4,1,0.7,1.5
	C538.9,348.2,538.5,348.5,538.2,348.7z M548.3,375.8c0,0.1,0,0.2,0.1,0.2c0-0.1-0.1-0.2-0.2-0.3c-3.4-5.8-6.5-12-8.9-18.4
	c1-0.7,1.9-1.5,2.8-2.3C544.8,361.8,547,368.7,548.3,375.8z M543.6,328.6c0.1-0.7,0.2-1.3,0.3-2c0.4,0.2,0.7,0.3,1.1,0.5
	C544.5,327.5,544,328,543.6,328.6z M542.6,405.8c-0.1-0.2-0.2-0.5-0.3-0.7c0.6-0.4,1.2-0.9,1.5-1.4c0.4-0.5,0.8-1.1,1.2-1.6
	C544.2,403.4,543.4,404.6,542.6,405.8z M548.2,383.8c-0.4,1-0.9,2-1.3,2.9c0.2-1.6,0.4-3.3,0.4-4.9c1.1-1.8,1.7-3.9,1.3-5.4
	c0.6,1.5,2.3,1.3,3.7,0.7C550.7,379.3,549.1,381.5,548.2,383.8z M567,352.9c-0.1-1.1-0.2-2.2-0.2-3.3c0.5-5.2,0-10.4-1.4-15.3
	c-0.3-3.3,0-6.5-2.2-9.2c-0.9-1.1-2-1.2-3.1-0.7c-1.6-1.8-3.4-3.4-5.6-4.7c-2.1-1.3-4.3-2.5-6.5-3.4c-1.8-0.7-5.3-1.4-6.5-3.3
	c12.2-1.5,23.5,7.4,26.2,19.5C569.1,339,568.6,346,567,352.9z"/>
</svg>